<svg preserveAspectRatio="none" width="100%" height="100%" overflow="visible" style="display: block;" viewBox="0 0 48 48" fill="none" xmlns="http://www.w3.org/2000/svg">
<g id="arrow-right">
<path id="Shape" d="M44.16 23.9882C44.1603 24.2428 44.0591 24.4871 43.8787 24.6669L30.4387 38.1069C30.0621 38.4707 29.4633 38.4655 29.093 38.0952C28.7227 37.7249 28.7175 37.1262 29.0813 36.7495L40.8826 24.9482H2.88002C2.34983 24.9482 1.92002 24.5184 1.92002 23.9882C1.92002 23.458 2.34983 23.0282 2.88002 23.0282H40.8826L29.0813 11.2269C28.7175 10.8502 28.7227 10.2515 29.093 9.88117C29.4633 9.51086 30.0621 9.50566 30.4387 9.86947L43.8787 23.3095C44.0591 23.4893 44.1603 23.7335 44.16 23.9882Z" fill="var(--fill-0, white)"/>
</g>
</svg>
