<svg preserveAspectRatio="none" width="100%" height="100%" overflow="visible" style="display: block;" viewBox="0 0 40 40" fill="none" xmlns="http://www.w3.org/2000/svg">
<g id="arrow-right">
<path id="Shape" d="M36.8 19.9902C36.8003 20.2024 36.7159 20.4059 36.5656 20.5558L25.3656 31.7558C25.0517 32.0589 24.5527 32.0546 24.2442 31.746C23.9356 31.4374 23.9312 30.9385 24.2344 30.6246L34.0688 20.7902H2.40001C1.95819 20.7902 1.60001 20.432 1.60001 19.9902C1.60001 19.5483 1.95819 19.1902 2.40001 19.1902H34.0688L24.2344 9.35576C23.9312 9.04186 23.9356 8.54289 24.2442 8.23431C24.5527 7.92572 25.0517 7.92138 25.3656 8.22456L36.5656 19.4246C36.7159 19.5744 36.8003 19.7779 36.8 19.9902Z" fill="var(--fill-0, white)" fill-opacity="0.1"/>
</g>
</svg>
