<svg preserveAspectRatio="none" width="105" height="19.1634" overflow="visible" style="display: block;" viewBox="0 0 105 19.1634" fill="none" xmlns="http://www.w3.org/2000/svg">
<g id="Arsfutura logo">
<path id="Fill 1" fill-rule="evenodd" clip-rule="evenodd" d="M101.794 12.8716C101.793 10.9713 100.83 9.66895 99.3674 9.34678C97.8888 9.02112 96.4459 9.61472 95.7891 10.8191C95.0034 12.26 95.2466 14.1751 96.3669 15.1638C97.4164 16.0899 98.633 16.2698 99.9083 15.7249C101.263 15.1458 101.748 14.0002 101.794 12.8716ZM96.9338 19.0801C96.8669 18.9114 96.6945 18.9646 96.5738 18.932C93.9442 18.2231 92.1641 16.1684 91.9173 13.5027C91.7127 11.2908 92.2292 9.30188 93.9271 7.71974C95.8464 5.93115 98.949 5.66003 100.89 7.10389C101.136 7.28707 101.359 7.50028 101.691 7.78319C101.691 7.44277 101.708 7.18334 101.686 6.92708C101.659 6.59958 101.768 6.48385 102.124 6.49123C103.082 6.51142 104.041 6.48887 105 6.48334V18.7729C104.216 18.7714 103.432 18.769 102.648 18.7683C101.713 18.7676 101.714 18.7681 101.696 17.8336C101.694 17.738 101.732 17.6275 101.589 17.5332C100.866 18.3749 99.8797 18.7931 98.8194 19.0801H96.9338Z" fill="var(--fill-0, white)"/>
<g id="Group 5">
<mask id="mask0_0_147" style="mask-type:alpha" maskUnits="userSpaceOnUse" x="0" y="6" width="14" height="14">
<g id="mask 2">
<path id="Vector" d="M0 6.17993H13.0585V19.1634H0V6.17993Z" fill="var(--fill-0, white)"/>
</g>
</mask>
<g mask="url(#mask0_0_147)">
<path id="Fill 3" fill-rule="evenodd" clip-rule="evenodd" d="M3.43877 12.6413C3.42544 14.6151 4.78575 16.0687 6.65013 16.0732C8.51263 16.0775 9.86534 14.672 9.88232 12.7148C9.8995 10.7335 8.54711 9.287 6.67284 9.28193C4.82336 9.277 3.4519 10.7015 3.43877 12.6413ZM-7.93651e-05 11.5431C0.236066 11.1422 0.255129 10.6749 0.405546 10.2459C1.45857 7.24348 4.60721 5.54658 7.57409 6.4006C8.42419 6.64528 9.10669 7.15433 9.78128 7.86199C9.78128 7.46972 9.80315 7.1836 9.77555 6.90223C9.74305 6.57087 9.88138 6.49934 10.1913 6.50738C10.9718 6.52768 11.7547 6.54376 12.5337 6.50295C13 6.47852 13.0604 6.66291 13.0585 7.06229C13.0433 10.1685 13.05 13.2748 13.05 16.3811C13.05 17.0676 13.0375 17.7544 13.0558 18.4404C13.0636 18.7369 13.0042 18.8682 12.6618 18.8578C11.8294 18.8327 10.9955 18.8391 10.1628 18.8555C9.8793 18.8611 9.74867 18.7979 9.77575 18.4908C9.80117 18.2038 9.78128 17.9127 9.78128 17.5453C9.47763 17.8068 9.22742 18.0283 8.97075 18.2424C8.36232 18.7497 7.60836 18.936 6.87346 19.1634H4.99888C4.9395 18.9918 4.76659 19.0352 4.64909 19.0038C2.40784 18.4049 1.01523 16.9584 0.305233 14.8079C0.195858 14.4764 0.227837 14.1032 -7.93651e-05 13.8087V11.5431Z" fill="var(--fill-0, white)"/>
</g>
</g>
<g id="Group 8">
<mask id="mask1_0_147" style="mask-type:alpha" maskUnits="userSpaceOnUse" x="69" y="6" width="13" height="13">
<g id="mask 4">
<path id="Vector_2" d="M69.3028 6.19513H81.8835V18.564H69.3028V6.19513Z" fill="var(--fill-0, white)"/>
</g>
</mask>
<g mask="url(#mask1_0_147)">
<path id="Fill 6" fill-rule="evenodd" clip-rule="evenodd" d="M74.3667 18.564C74.3205 18.4373 74.1917 18.4665 74.0915 18.4449C70.9065 17.7596 69.3852 16.0956 69.3242 13.1278C69.2795 10.9495 69.321 8.76973 69.3068 6.59071C69.3047 6.2766 69.4156 6.1909 69.7486 6.19765C70.6502 6.21588 71.5531 6.22111 72.4542 6.19573C72.8367 6.18506 72.9094 6.31538 72.9074 6.63019C72.8942 8.6081 72.8985 10.5861 72.903 12.5639C72.9038 12.8987 72.8983 13.2386 72.9564 13.567C73.183 14.8462 74.2123 15.5775 75.6967 15.5404C77.1322 15.5046 78.1138 14.719 78.2429 13.4323C78.404 11.8275 78.2809 10.2163 78.3085 8.6081C78.3204 7.92096 78.3144 7.23363 78.3084 6.5464C78.3067 6.33854 78.3313 6.19624 78.628 6.19986C79.6034 6.21165 80.5792 6.20923 81.5547 6.20047C81.8027 6.19825 81.8681 6.29382 81.8669 6.50118C81.8536 8.88122 81.9408 11.2655 81.8121 13.6401C81.6668 16.3241 79.892 17.9942 76.9695 18.4611C76.8688 18.4772 76.7413 18.4394 76.6872 18.564H74.3667Z" fill="var(--fill-0, white)"/>
</g>
</g>
<g id="Group 11">
<mask id="mask2_0_147" style="mask-type:alpha" maskUnits="userSpaceOnUse" x="33" y="0" width="12" height="19">
<g id="mask 6">
<path id="Vector_3" d="M33.6009 0H44.5834V18.4699H33.6009V0Z" fill="var(--fill-0, white)"/>
</g>
</mask>
<g mask="url(#mask2_0_147)">
<path id="Fill 9" fill-rule="evenodd" clip-rule="evenodd" d="M42.5155 -3.16482e-05C43.0267 0.244579 43.6107 0.269592 44.1246 0.518491C44.4986 0.699601 44.6942 0.87285 44.5179 1.33155C44.2867 1.93297 44.1379 2.56563 43.9781 3.19073C43.8956 3.51355 43.8016 3.65198 43.4329 3.4574C42.8884 3.17011 42.2853 3.05107 41.6632 3.06516C40.8999 3.08262 40.4329 3.48833 40.3039 4.22339C40.2031 4.79755 40.2574 5.37682 40.2352 5.95343C40.2242 6.23429 40.3908 6.24143 40.602 6.24041C41.5467 6.23623 42.4918 6.25521 43.4358 6.23051C43.8109 6.22071 43.9691 6.29564 43.9485 6.69901C43.9139 7.3773 43.9181 8.05927 43.9473 8.73798C43.9632 9.10816 43.8236 9.19065 43.4687 9.18207C42.5421 9.15961 41.614 9.19279 40.6877 9.16574C40.3061 9.15461 40.2291 9.28274 40.2308 9.62781C40.2444 12.3984 40.228 15.169 40.2492 17.9396C40.2525 18.3675 40.1374 18.488 39.7002 18.4678C38.9148 18.4314 38.1254 18.4365 37.3395 18.4664C36.9523 18.4811 36.8405 18.3838 36.8431 17.9938C36.862 15.2233 36.8417 12.4526 36.8651 9.68212C36.8689 9.24261 36.7372 9.14604 36.3128 9.16421C35.5271 9.19759 34.7387 9.16462 33.9516 9.17503C33.6691 9.1787 33.5277 9.15155 33.639 8.81403C33.8838 8.07163 34.1078 7.32146 34.3051 6.56578C34.3785 6.28451 34.5215 6.22693 34.7844 6.23429C35.3088 6.24899 35.8366 6.20682 36.3578 6.24848C36.7965 6.28349 36.8753 6.11412 36.8617 5.73526C36.8334 4.93783 36.8252 4.13753 37.002 3.34959C37.3727 1.69663 38.3408 0.581992 40.0584 0.139017C40.1516 0.115025 40.2769 0.131258 40.311 -3.16482e-05H42.5155Z" fill="var(--fill-0, white)"/>
</g>
</g>
<g id="Group 14">
<mask id="mask3_0_147" style="mask-type:alpha" maskUnits="userSpaceOnUse" x="45" y="6" width="13" height="13">
<g id="mask 8">
<path id="Vector_4" d="M45.1951 6.19306H57.7391V18.564H45.1951V6.19306Z" fill="var(--fill-0, white)"/>
</g>
</mask>
<g mask="url(#mask3_0_147)">
<path id="Fill 12" fill-rule="evenodd" clip-rule="evenodd" d="M50.2224 18.564C49.9256 18.3406 49.5407 18.3684 49.1993 18.277C46.865 17.652 45.3114 15.9345 45.2468 13.7158C45.1775 11.3373 45.2189 8.95616 45.1951 6.57632C45.1918 6.24278 45.3462 6.19393 45.6567 6.19927C46.5032 6.21377 47.3512 6.22737 48.1965 6.19484C48.6455 6.17762 48.7896 6.28074 48.7835 6.71198C48.7565 8.65605 48.771 10.6006 48.7727 12.545C48.7729 12.8131 48.7681 13.0825 48.7942 13.3489C48.9248 14.6832 49.9046 15.5094 51.3813 15.5415C52.8888 15.5742 53.8851 14.8283 54.1129 13.5034C54.2477 12.7194 54.1732 11.9308 54.1802 11.1443C54.1934 9.63594 54.1948 8.12713 54.1758 6.61882C54.1714 6.28729 54.2739 6.18759 54.6378 6.19696C55.5208 6.21951 56.4053 6.22133 57.2881 6.19625C57.6665 6.18547 57.741 6.30884 57.7391 6.62658C57.7246 8.8055 57.751 10.9847 57.7258 13.1635C57.6923 16.0473 56.0642 17.8383 52.9803 18.4451C52.868 18.4672 52.7093 18.4059 52.6535 18.564H50.2224Z" fill="var(--fill-0, white)"/>
</g>
</g>
<g id="Group 17">
<mask id="mask4_0_147" style="mask-type:alpha" maskUnits="userSpaceOnUse" x="57" y="2" width="13" height="17">
<g id="mask 10">
<path id="Vector_5" d="M57.7767 2.13374H69.2748V18.5479H57.7767V2.13374Z" fill="var(--fill-0, white)"/>
</g>
</mask>
<g mask="url(#mask4_0_147)">
<path id="Fill 15" fill-rule="evenodd" clip-rule="evenodd" d="M63.9381 18.5479C63.888 18.3915 63.734 18.4324 63.6252 18.4035C61.7018 17.8947 60.6425 16.7209 60.4037 14.7944C60.1969 13.1251 60.3417 11.4477 60.3093 9.77424C60.2904 8.79638 60.3058 8.80375 59.3252 8.79285C58.8489 8.78756 58.2299 8.98774 57.9348 8.71388C57.6367 8.43711 57.8534 7.83243 57.8447 7.37198C57.8351 6.87397 57.6666 6.20661 57.9268 5.92112C58.2267 5.59227 58.93 5.82721 59.4574 5.81652C60.3056 5.79929 60.3059 5.81185 60.3059 5.01435C60.3059 4.20263 60.319 3.3906 60.2994 2.57941C60.2914 2.26082 60.3566 2.1227 60.729 2.13443C61.6009 2.16193 62.4745 2.15923 63.3466 2.13515C63.6902 2.12571 63.763 2.2438 63.7568 2.54983C63.7384 3.44758 63.7751 4.34688 63.7398 5.24359C63.7223 5.68369 63.8208 5.83914 64.3143 5.82472C65.6132 5.78674 66.9142 5.82098 68.2142 5.80562C68.5462 5.80168 68.6903 5.86758 68.6758 6.22829C68.6466 6.95263 68.6501 7.67926 68.6747 8.40391C68.6859 8.73194 68.5711 8.80717 68.2494 8.80312C66.896 8.78652 65.5422 8.80831 64.1889 8.78797C63.8331 8.78258 63.7379 8.8849 63.7428 9.22237C63.7614 10.5347 63.7486 11.8475 63.7526 13.1601C63.7531 13.3492 63.7744 13.5392 63.7978 13.7274C63.9549 14.9827 64.8242 15.6143 66.1113 15.408C66.6982 15.314 67.2396 15.0907 67.7458 14.801C68.0224 14.6428 68.1326 14.7019 68.2537 14.9697C68.5533 15.6323 68.8696 16.2886 69.2065 16.934C69.3345 17.1792 69.2826 17.2888 69.0512 17.4219C68.3129 17.8465 67.5494 18.2013 66.7093 18.3961C66.5704 18.4282 66.3754 18.362 66.2904 18.5479H63.9381Z" fill="var(--fill-0, white)"/>
</g>
</g>
<g id="Group 20">
<mask id="mask5_0_147" style="mask-type:alpha" maskUnits="userSpaceOnUse" x="23" y="6" width="12" height="14">
<g id="mask 12">
<path id="Vector_6" d="M23.1442 6.20107H34.559V19.0595H23.1442V6.20107Z" fill="var(--fill-0, white)"/>
</g>
</mask>
<g mask="url(#mask5_0_147)">
<path id="Fill 18" fill-rule="evenodd" clip-rule="evenodd" d="M27.2263 19.0595C26.6595 18.8326 26.039 18.8269 25.4571 18.6548C24.7299 18.44 24.026 18.1846 23.3705 17.8063C23.1516 17.6799 23.0732 17.5811 23.2173 17.334C23.5799 16.7124 23.9244 16.0798 24.2436 15.4365C24.3859 15.1495 24.5115 15.1784 24.7557 15.3165C26.355 16.2214 28.079 16.4891 29.9026 16.2131C30.1507 16.1755 30.381 16.0929 30.5914 15.9653C30.8934 15.7822 31.0799 15.5302 31.0728 15.1685C31.0654 14.7932 30.8315 14.5818 30.5094 14.4364C29.7932 14.1131 29.0132 14.0605 28.2472 13.9547C27.3905 13.8364 26.5439 13.6889 25.7455 13.3468C24.4432 12.7889 23.6513 11.867 23.5695 10.4645C23.4886 9.07549 23.9716 7.91504 25.2006 7.12593C26.5772 6.24204 28.1404 6.14143 29.7287 6.22466C30.6816 6.27465 31.6195 6.42925 32.5329 6.7099C32.7686 6.78239 32.8789 6.85222 32.7828 7.13462C32.5578 7.79551 32.372 8.4694 32.1915 9.14338C32.1126 9.43845 32.0002 9.509 31.6803 9.40236C30.7081 9.07856 29.7073 8.88583 28.6686 8.94544C28.2765 8.96793 27.8988 9.03715 27.5592 9.23939C27.2312 9.43457 27.0663 9.7142 27.0892 10.0916C27.1109 10.4503 27.3595 10.6416 27.6618 10.7596C28.3722 11.0369 29.1368 11.0799 29.884 11.1921C30.7393 11.3206 31.5789 11.4906 32.3826 11.8173C35.4222 13.0537 34.8711 16.5419 33.1986 17.7908C32.3349 18.4357 31.3542 18.7654 30.3011 18.9498C30.1906 18.9691 30.0442 18.9071 29.9808 19.0595H27.2263Z" fill="var(--fill-0, white)"/>
</g>
</g>
<path id="Fill 21" fill-rule="evenodd" clip-rule="evenodd" d="M86.4611 7.77758C87.7263 6.13365 89.2998 5.97713 91.0228 6.33553C91.3491 6.40346 91.3986 6.54113 91.3129 6.84541C91.0918 7.63124 90.8738 8.41889 90.6868 9.21419C90.618 9.50698 90.5129 9.54548 90.2594 9.46707C89.6268 9.27154 88.9807 9.20522 88.3282 9.35812C87.3866 9.57894 86.8416 10.2178 86.6512 11.1912C86.5812 11.5493 86.5616 11.9234 86.5599 12.2905C86.5513 14.2021 86.5385 16.1142 86.5683 18.0253C86.5756 18.4902 86.4408 18.5807 86.0376 18.5617C85.3066 18.5271 84.573 18.5432 83.8407 18.5565C83.5941 18.561 83.4742 18.5225 83.475 18.2115C83.4847 14.4217 83.4843 10.632 83.4754 6.84218C83.4748 6.54486 83.5732 6.47814 83.8338 6.48368C84.582 6.4993 85.3311 6.50757 86.0786 6.48076C86.4103 6.46887 86.4922 6.59818 86.4654 6.91313C86.4442 7.16157 86.4611 7.41354 86.4611 7.77758Z" fill="var(--fill-0, white)"/>
<path id="Fill 23" fill-rule="evenodd" clip-rule="evenodd" d="M18.2235 7.75531C19.4987 6.12772 21.071 5.97323 22.7868 6.34399C23.07 6.40517 23.156 6.50141 23.0655 6.81393C22.8386 7.59769 22.637 8.38992 22.4429 9.18356C22.3756 9.45889 22.2967 9.57973 21.9953 9.46534C21.5748 9.30581 21.1264 9.27507 20.6782 9.28333C19.2875 9.30903 18.3633 10.2238 18.3385 11.6997C18.3029 13.8118 18.3111 15.925 18.3284 18.0375C18.3318 18.4537 18.233 18.5815 17.8329 18.5621C17.1024 18.5269 16.3691 18.5398 15.6373 18.5582C15.3433 18.5655 15.2239 18.501 15.225 18.1514C15.2371 14.3955 15.2354 10.6394 15.2272 6.88347C15.2265 6.57841 15.3099 6.47581 15.6048 6.48388C16.3365 6.50373 17.0694 6.50726 17.8006 6.48267C18.129 6.47158 18.2691 6.56208 18.2284 6.92499C18.2024 7.15628 18.2235 7.39341 18.2235 7.75531Z" fill="var(--fill-0, white)"/>
</g>
</svg>
