<svg preserveAspectRatio="none" width="59.5846" height="31.6869" overflow="visible" style="display: block;"
     viewBox="0 0 59.5846 31.6869" fill="none" xmlns="http://www.w3.org/2000/svg">
    <g id="Bdr logo">
        <g id="Group 3">
            <mask id="mask0_0_115" style="mask-type:alpha" maskUnits="userSpaceOnUse" x="0" y="0" width="20"
                  height="20">
                <g id="mask 2">
                    <path id="Vector" d="M0 0.0216264H19.0465V19.8566H0V0.0216264Z" fill="var(--fill-0, white)"/>
                </g>
            </mask>
            <g mask="url(#mask0_0_115)">
                <path id="Fill 1" fill-rule="evenodd" clip-rule="evenodd"
                      d="M3.16137 0.0216264C3.67425 0.232694 3.86597 0.631696 3.86367 1.16098C3.85778 2.47127 3.86143 3.78161 3.86202 5.0919C3.86227 5.56704 3.94373 5.6458 4.43239 5.64585C7.99102 5.64605 11.5497 5.64555 15.1083 5.64615C17.1419 5.64649 18.6772 6.93232 19.0206 8.92461C19.0429 9.05354 19.0437 9.18709 19.0438 9.31856C19.0452 11.6013 19.0492 13.884 19.0434 16.1668C19.0387 18.0518 17.4343 19.7081 15.5353 19.8259C14.9697 19.861 14.4055 19.8534 13.8409 19.8541C10.9141 19.858 7.98742 19.8556 5.06074 19.8566C4.89389 19.8566 4.72844 19.8509 4.56483 19.8168C4.13105 19.7265 3.80724 19.3674 3.79945 18.9279C3.78771 18.2607 3.78557 17.5928 3.79985 16.9256C3.81099 16.4062 4.21945 16.0309 4.76574 16.0292C6.53672 16.0238 8.30769 16.0261 10.0787 16.0258C11.5836 16.0255 13.0885 16.0265 14.5934 16.0252C15.0971 16.0247 15.1832 15.9364 15.1833 15.4334C15.1835 13.6286 15.1837 11.8239 15.1831 10.0191C15.183 9.54493 15.1158 9.47969 14.6332 9.47969C11.2242 9.47944 7.81528 9.47944 4.40637 9.47969C3.92919 9.47974 3.86222 9.54636 3.86202 10.0251C3.86143 11.6239 3.86282 13.2226 3.86013 14.8213C3.85988 14.9771 3.85039 15.1351 3.82202 15.2878C3.73722 15.7435 3.35883 16.0565 2.88984 16.0599C2.24966 16.0645 1.60943 16.064 0.969195 16.0603C0.400328 16.0571 0.00240536 15.6592 0.00225554 15.0898C0.000907158 10.3842 0.00250524 5.67869 -4.18808e-05 0.97309C-0.000291404 0.495823 0.263692 0.214465 0.666459 0.0216264H3.16137Z"
                      fill="var(--fill-0, white)"/>
            </g>
        </g>
        <path id="Fill 4" fill-rule="evenodd" clip-rule="evenodd"
              d="M40.8192 5.24769e-05C41.3316 0.232159 41.4942 0.63177 41.4926 1.17973C41.4794 5.78588 41.4832 10.392 41.488 14.9982C41.4884 15.4451 41.3399 15.785 40.9222 15.9861C40.7912 16.0491 40.6529 16.067 40.5097 16.0668C39.8852 16.0663 39.2606 16.0718 38.6362 16.0653C38.043 16.059 37.6574 15.6721 37.656 15.0791C37.6523 13.4282 37.6548 11.7772 37.6536 10.1262C37.6536 10.0193 37.6537 9.91066 37.636 9.80572C37.5996 9.59038 37.4728 9.46912 37.2425 9.47165C37.1259 9.47289 37.0093 9.47066 36.8928 9.47066C33.5453 9.47056 30.1978 9.47051 26.8503 9.47066C26.3582 9.47071 26.2795 9.54692 26.2794 10.0259C26.2789 11.8502 26.2788 13.6746 26.2796 15.4989C26.2797 15.9329 26.3817 16.0341 26.8275 16.0342C30.1 16.0353 33.3726 16.0343 36.6451 16.0358C37.1701 16.036 37.5346 16.2974 37.6506 16.7528C37.6747 16.8474 37.6811 16.9485 37.6815 17.0467C37.6842 17.641 37.6857 18.2354 37.682 18.8297C37.6785 19.3986 37.3583 19.7595 36.7908 19.8376C36.6676 19.8545 36.5421 19.861 36.4177 19.8611C33.1201 19.8623 29.8226 19.859 26.5251 19.8635C25.1304 19.8654 23.9659 19.3956 23.1307 18.255C22.6692 17.6248 22.4195 16.9135 22.4187 16.1284C22.4164 13.8748 22.4124 11.6212 22.4196 9.3677C22.4255 7.53457 23.8667 5.92675 25.6992 5.68412C25.9478 5.65123 26.1958 5.63922 26.4459 5.63927C29.9765 5.64006 33.5072 5.63986 37.0379 5.63976C37.5672 5.63971 37.6536 5.55348 37.654 5.01762C37.6549 3.73811 37.6708 2.4583 37.6466 1.17929C37.6362 0.630679 37.8072 0.231365 38.3206 5.24769e-05H40.8192Z"
              fill="var(--fill-0, white)"/>
        <g id="Group 8">
            <mask id="mask1_0_115" style="mask-type:alpha" maskUnits="userSpaceOnUse" x="44" y="5" width="16"
                  height="12">
                <g id="mask 4">
                    <path id="Vector_2" d="M44.3735 5.67867H59.5839V16.036H44.3735V5.67867Z"
                          fill="var(--fill-0, white)"/>
                </g>
            </mask>
            <g mask="url(#mask1_0_115)">
                <path id="Fill 6" fill-rule="evenodd" clip-rule="evenodd"
                      d="M59.5839 8.78918C59.3514 9.30285 58.944 9.48698 58.3847 9.48511C55.1875 9.4744 51.9902 9.48037 48.793 9.48101C48.2863 9.48111 48.2227 9.54477 48.2225 10.0514C48.2219 11.6432 48.2217 13.2348 48.2218 14.8265C48.2219 14.9745 48.2178 15.1211 48.1839 15.2666C48.0755 15.7317 47.7293 16.0235 47.2447 16.0299C46.6219 16.0382 45.9989 16.0378 45.3762 16.0306C44.7951 16.0239 44.3842 15.6232 44.3827 15.0496C44.3776 13.1297 44.3627 11.2096 44.3873 9.29003C44.4097 7.54555 45.8379 5.99378 47.6055 5.73307C47.8359 5.69909 48.0665 5.68277 48.2997 5.68292C51.6714 5.68455 55.043 5.68943 58.4147 5.67867C58.969 5.6769 59.3596 5.87331 59.5839 6.37678V8.78918Z"
                      fill="var(--fill-0, white)"/>
            </g>
        </g>
        <g id="Group 11">
            <mask id="mask2_0_115" style="mask-type:alpha" maskUnits="userSpaceOnUse" x="55" y="16" width="5"
                  height="4">
                <g id="mask 6">
                    <path id="Vector_3" d="M55.8091 16.0976H59.5846V19.8573H55.8091V16.0976Z"
                          fill="var(--fill-0, white)"/>
                </g>
            </mask>
            <g mask="url(#mask2_0_115)">
                <path id="Fill 9" fill-rule="evenodd" clip-rule="evenodd"
                      d="M59.5846 19.1756C59.3758 19.6722 58.9819 19.8634 58.4597 19.8571C57.9473 19.8509 57.4346 19.8622 56.9223 19.8537C56.2612 19.8427 55.8687 19.517 55.8346 18.892C55.8008 18.2734 55.7999 17.6499 55.8362 17.0315C55.872 16.4218 56.2479 16.1107 56.865 16.1063C57.3937 16.1026 57.9234 16.1247 58.4509 16.0997C58.9851 16.0745 59.3653 16.2659 59.5846 16.7541V19.1756Z"
                      fill="var(--fill-0, white)"/>
            </g>
        </g>
        <g id="Group 14">
            <mask id="mask3_0_115" style="mask-type:alpha" maskUnits="userSpaceOnUse" x="58" y="27" width="2"
                  height="5">
                <g id="mask 8">
                    <path id="Vector_4" d="M58.6736 27.9245H59.5751V31.6399H58.6736V27.9245Z"
                          fill="var(--fill-0, white)"/>
                </g>
            </mask>
            <g mask="url(#mask3_0_115)">
                <path id="Fill 12" fill-rule="evenodd" clip-rule="evenodd"
                      d="M59.5751 31.6118C58.6737 31.6781 58.6737 31.6781 58.6737 31.0205C58.6737 30.1047 58.6733 29.189 58.674 28.2733C58.6743 27.9272 58.6775 27.9251 59.131 27.9245C59.279 27.9243 59.4271 27.9281 59.5751 27.9299V31.6118Z"
                      fill="var(--fill-0, white)"/>
            </g>
        </g>
        <path id="Fill 15" fill-rule="evenodd" clip-rule="evenodd"
              d="M1.23954 28.5583C0.671072 28.5535 0.671072 28.5535 0.672104 29.1202C0.672252 29.185 0.673382 29.2497 0.674169 29.3145C0.675201 29.401 0.716154 29.4563 0.805924 29.4545C1.09013 29.449 1.3767 29.4912 1.6582 29.4261C1.92889 29.3635 2.03346 29.2232 2.01596 28.9614C2.00008 28.7235 1.84374 28.5757 1.58166 28.5595C1.46799 28.5525 1.35359 28.5583 1.23954 28.5583ZM1.22312 31.0685C1.34553 31.0685 1.46809 31.073 1.59036 31.0677C1.95308 31.0522 2.12033 30.8937 2.11979 30.5717C2.1193 30.2544 1.94841 30.0928 1.58648 30.0762C1.43166 30.0692 1.27636 30.0729 1.1213 30.0739C0.618615 30.0774 0.674513 30.0235 0.672547 30.5129C0.670334 31.0697 0.672006 31.0697 1.22312 31.0685ZM2.22736 29.7384C2.72095 29.9526 2.91617 30.3193 2.84862 30.8071C2.7736 31.349 2.41899 31.6626 1.86577 31.6789C1.31795 31.6951 0.769249 31.6809 0.220941 31.686C0.0672594 31.6874 -0.000486341 31.6338 2.62714e-06 31.4741C0.00349581 30.3603 0.00261089 29.2465 0.000447744 28.1327C0.000201932 27.9996 0.0339765 27.9082 0.188297 27.9104C0.719644 27.9178 1.25183 27.8781 1.78224 27.9332C2.21969 27.9787 2.59455 28.1429 2.70669 28.6022C2.81952 29.0644 2.71632 29.4779 2.22736 29.7384Z"
              fill="var(--fill-0, white)"/>
        <path id="Fill 17" fill-rule="evenodd" clip-rule="evenodd"
              d="M9.22687 29.3633C9.22687 30.0186 9.22965 30.674 9.22422 31.3294C9.22333 31.4415 9.28419 31.6022 9.13902 31.6513C8.98441 31.7035 8.81168 31.6946 8.65118 31.6488C8.5797 31.6284 8.5864 31.5444 8.58635 31.481C8.58532 30.3546 8.58635 29.2282 8.58466 28.1018C8.58442 27.9659 8.6499 27.9207 8.77177 27.9094C9.05475 27.8833 9.26763 27.9335 9.43479 28.2281C9.79939 28.8709 10.2092 29.4863 10.6028 30.1115C10.639 30.169 10.6579 30.2462 10.7384 30.2715C10.7986 30.1913 10.77 30.0994 10.7704 30.0152C10.7734 29.4155 10.7703 28.8158 10.773 28.2161C10.7744 27.9255 10.7971 27.9086 11.1169 27.9091C11.4246 27.9096 11.4403 27.9214 11.4406 28.2062C11.4419 29.2597 11.4342 30.3133 11.4462 31.3666C11.449 31.6195 11.3603 31.6716 11.1319 31.6832C10.8445 31.6978 10.679 31.5977 10.5282 31.3433C10.1276 30.6671 9.69461 30.0113 9.27452 29.3473C9.25862 29.3527 9.24277 29.358 9.22687 29.3633Z"
              fill="var(--fill-0, white)"/>
        <path id="Fill 19" fill-rule="evenodd" clip-rule="evenodd"
              d="M30.2646 29.1023C30.2646 29.2073 30.2716 29.3131 30.2631 29.4174C30.2486 29.5934 30.3169 29.6701 30.497 29.6614C30.7215 29.6505 30.9468 29.6582 31.1717 29.6508C31.3421 29.6452 31.4831 29.5763 31.5718 29.4221C31.8031 29.0199 31.5612 28.5708 31.1036 28.5536C31.0072 28.5499 30.9107 28.55 30.8143 28.5513C30.1717 28.5597 30.2751 28.4695 30.2646 29.1023ZM29.5728 29.799C29.5729 29.273 29.5797 28.7469 29.5697 28.2212C29.5655 27.9983 29.632 27.8924 29.871 27.9046C30.3923 27.931 30.9167 27.8636 31.4362 27.946C31.9175 28.0223 32.2598 28.3676 32.3338 28.8363C32.4271 29.4269 32.2372 29.8797 31.7768 30.1127C31.6367 30.1837 31.6261 30.2391 31.7061 30.3647C31.9359 30.7257 32.1532 31.0947 32.3791 31.4583C32.4728 31.6092 32.4434 31.6537 32.2617 31.6758C31.8664 31.724 31.5896 31.6228 31.4248 31.2223C31.3123 30.9487 31.1294 30.704 30.9735 30.449C30.8929 30.3173 30.4335 30.2374 30.3166 30.3311C30.2504 30.3843 30.2657 30.4632 30.2653 30.5342C30.2634 30.8417 30.2598 31.1492 30.2653 31.4566C30.268 31.6123 30.2044 31.6822 30.0506 31.6697C30.0347 31.6684 30.0185 31.6697 30.0023 31.6701C29.5731 31.6795 29.573 31.6795 29.5728 31.2553C29.5725 30.7699 29.5727 30.2844 29.5728 29.799Z"
              fill="var(--fill-0, white)"/>
        <path id="Fill 21" fill-rule="evenodd" clip-rule="evenodd"
              d="M13.6511 29.8096C13.6511 30.1588 13.6509 30.5082 13.6512 30.8575C13.6513 30.9578 13.6485 31.0663 13.8047 31.065C14.0891 31.0627 14.3743 31.0924 14.6576 31.0402C15.0202 30.9733 15.2396 30.7722 15.327 30.4509C15.4359 30.0506 15.4319 29.6413 15.3581 29.2415C15.2681 28.7538 14.992 28.5654 14.4523 28.5548C14.292 28.5516 14.1305 28.5631 13.9712 28.5504C13.7342 28.5314 13.6312 28.601 13.6456 28.8351C13.6658 29.1589 13.6507 29.4847 13.6511 29.8096ZM12.8808 29.7953C12.8806 29.2668 12.8874 28.7382 12.8773 28.2099C12.8732 27.9958 12.9462 27.893 13.1977 27.9042C13.705 27.927 14.2138 27.8773 14.7211 27.9384C15.534 28.0364 15.9925 28.4179 16.1477 29.1483C16.2492 29.6255 16.2384 30.102 16.1056 30.5739C15.9105 31.2671 15.3627 31.6677 14.5793 31.6811C14.1065 31.6892 13.6333 31.6766 13.1607 31.6867C12.9494 31.6913 12.8762 31.6155 12.8785 31.4295C12.8853 30.8848 12.8809 30.3401 12.8808 29.7953Z"
              fill="var(--fill-0, white)"/>
        <path id="Fill 23" fill-rule="evenodd" clip-rule="evenodd"
              d="M26.0532 29.8151C26.0532 30.1473 26.0532 30.4795 26.0533 30.8117C26.0533 30.8279 26.0548 30.8441 26.0539 30.8603C26.0462 30.9981 26.1044 31.0739 26.2709 31.069C26.4856 31.0628 26.7016 31.0771 26.9152 31.0623C27.3359 31.0333 27.5944 30.8457 27.7113 30.4791C27.8584 30.0178 27.856 29.551 27.7122 29.0893C27.6108 28.764 27.3422 28.5784 26.9639 28.5606C26.7496 28.5506 26.534 28.5621 26.3196 28.5522C26.1225 28.5431 26.0466 28.6168 26.051 28.7943C26.0595 29.1344 26.0535 29.4748 26.0532 29.8151ZM25.2814 29.8049C25.2816 29.2531 25.2837 28.7013 25.2802 28.1496C25.2793 28.0097 25.3104 27.908 25.4958 27.9097C25.9977 27.9146 26.5037 27.8823 27.0006 27.9294C28.0086 28.025 28.4508 28.4237 28.5804 29.3295C28.6425 29.7637 28.6277 30.2037 28.4919 30.6327C28.2911 31.2671 27.7462 31.662 27.0162 31.6792C26.5322 31.6907 26.0476 31.6743 25.5637 31.6866C25.3313 31.6926 25.2574 31.6024 25.2813 31.4114C25.2823 31.4034 25.2813 31.3952 25.2813 31.3871C25.2813 30.8597 25.2813 30.3322 25.2814 29.8049Z"
              fill="var(--fill-0, white)"/>
        <path id="Fill 25" fill-rule="evenodd" clip-rule="evenodd"
              d="M51.7593 29.6499C51.9049 29.6499 52.0512 29.6589 52.1959 29.6476C52.3691 29.634 52.5185 29.5502 52.5708 29.3826C52.6905 28.9996 52.6184 28.5499 52.0553 28.5552C51.9663 28.556 51.8772 28.5539 51.7882 28.5539C51.2228 28.5535 51.219 28.5536 51.2238 29.1169C51.2292 29.7305 51.1326 29.6558 51.7593 29.6499ZM50.5566 29.793C50.5565 29.2427 50.5577 28.6925 50.5556 28.1423C50.5551 28.0155 50.5761 27.9113 50.7339 27.914C51.2932 27.9233 51.8545 27.866 52.4114 27.9496C52.9062 28.0239 53.2429 28.3613 53.3156 28.8359C53.4085 29.4412 53.2264 29.8857 52.7599 30.1109C52.5923 30.1919 52.617 30.2583 52.6938 30.3795C52.9191 30.7352 53.1342 31.0974 53.3597 31.453C53.4677 31.6233 53.4178 31.6588 53.2307 31.6781C52.8438 31.7181 52.5635 31.6302 52.4065 31.2321C52.3099 30.9869 52.1397 30.7705 52.0021 30.5414C51.8762 30.3319 51.5334 30.2222 51.3105 30.3162C51.211 30.3582 51.2242 30.4432 51.2238 30.5219C51.2219 30.8213 51.215 31.1209 51.2253 31.42C51.2317 31.6065 51.1684 31.6949 50.9742 31.6736C50.91 31.6665 50.844 31.6675 50.7795 31.673C50.6085 31.6877 50.5527 31.6074 50.5544 31.4437C50.5602 30.8935 50.5566 30.3433 50.5566 29.793Z"
              fill="var(--fill-0, white)"/>
        <path id="Fill 27" fill-rule="evenodd" clip-rule="evenodd"
              d="M43.1752 29.6092C43.582 29.1216 43.9897 28.6347 44.3954 28.146C44.5501 27.9596 45.0154 27.8395 45.2297 27.9396C45.3646 28.0026 45.2649 28.0706 45.2218 28.1238C44.9007 28.5194 44.5856 28.9209 44.2486 29.3017C44.1075 29.4612 44.121 29.5756 44.2239 29.7421C44.5682 30.2993 44.9006 30.8643 45.2343 31.4282C45.3572 31.6358 45.3361 31.6388 45.0997 31.6738C44.6968 31.7334 44.4418 31.5924 44.2677 31.2052C44.1209 30.8783 43.8996 30.5878 43.73 30.2706C43.6263 30.0767 43.5618 30.1127 43.431 30.2485C43.2021 30.4864 43.0755 30.7454 43.1227 31.087C43.1402 31.2132 43.1232 31.3443 43.1246 31.4731C43.126 31.5995 43.0767 31.6728 42.9449 31.6671C42.9371 31.6668 42.9292 31.6672 42.9214 31.6677C42.4481 31.7 42.4469 31.699 42.4469 31.2187C42.4468 30.2201 42.446 29.2215 42.4475 28.2229C42.4479 27.9367 42.4624 27.9331 42.794 27.9253C42.9971 27.9206 43.1415 27.9366 43.1304 28.2147C43.1121 28.6719 43.1255 29.1305 43.1255 29.5885C43.1421 29.5954 43.1586 29.6023 43.1752 29.6092Z"
              fill="var(--fill-0, white)"/>
        <path id="Fill 29" fill-rule="evenodd" clip-rule="evenodd"
              d="M54.8496 29.7968C54.8495 29.2608 54.8552 28.7247 54.8467 28.1888C54.8434 27.9796 54.9337 27.9019 55.17 27.9047C55.8996 27.9135 56.6296 27.9174 57.359 27.9036C57.6682 27.8977 57.6567 28.0547 57.6622 28.2473C57.668 28.451 57.6241 28.5675 57.3513 28.5592C56.8684 28.5445 56.3844 28.5608 55.9011 28.553C55.7043 28.5498 55.6225 28.6058 55.6278 28.7902C55.6494 29.5374 55.5113 29.4025 56.3089 29.4162C56.5824 29.4209 56.8562 29.4201 57.1298 29.4169C57.2931 29.4151 57.3776 29.462 57.3863 29.6253C57.409 30.0502 57.4013 30.0643 56.9225 30.0647C56.5758 30.065 56.229 30.0704 55.8827 30.063C55.6935 30.0589 55.6321 30.1255 55.6271 30.2926C55.6038 31.0692 55.599 31.069 56.4664 31.0691C56.7948 31.0691 57.1236 31.0779 57.4515 31.0671C57.7215 31.0583 57.7101 31.2129 57.7072 31.3735C57.7045 31.5278 57.7365 31.6889 57.4599 31.6862C56.6756 31.6788 55.891 31.6793 55.1066 31.6869C54.8877 31.689 54.8477 31.5888 54.8485 31.4292C54.8513 30.8851 54.8496 30.341 54.8496 29.7968Z"
              fill="var(--fill-0, white)"/>
        <path id="Fill 31" fill-rule="evenodd" clip-rule="evenodd"
              d="M17.6492 29.7984C17.6492 29.2542 17.654 28.7098 17.6466 28.1656C17.6441 27.9779 17.708 27.9034 17.8873 27.905C18.517 27.911 19.147 27.9148 19.7765 27.9035C20.0207 27.8992 20.022 28.0469 20.0236 28.2334C20.0253 28.4253 20.011 28.5658 19.7713 28.5576C19.3646 28.544 18.9571 28.5612 18.5503 28.5514C18.3681 28.5469 18.3079 28.6191 18.312 28.8077C18.3279 29.529 18.2259 29.4024 18.8831 29.4147C19.1134 29.419 19.344 29.4226 19.5742 29.4143C19.7983 29.4063 19.7939 29.5615 19.7895 29.7235C19.7853 29.8816 19.8274 30.0664 19.5801 30.063C19.2345 30.0583 18.8888 30.0684 18.5434 30.0607C18.3768 30.057 18.3031 30.1184 18.3126 30.3005C18.322 30.4787 18.3227 30.6583 18.3125 30.8363C18.3017 31.0239 18.3834 31.0725 18.5464 31.0692C18.9533 31.0612 19.3609 31.0795 19.7673 31.062C19.998 31.052 20.0348 31.1641 20.0308 31.3685C20.0271 31.558 20.0237 31.6928 19.7794 31.6867C19.15 31.6711 18.5199 31.6769 17.8903 31.6844C17.7126 31.6865 17.6438 31.6228 17.6465 31.4312C17.6543 30.8871 17.6493 30.3427 17.6492 29.7984Z"
              fill="var(--fill-0, white)"/>
        <path id="Fill 33" fill-rule="evenodd" clip-rule="evenodd"
              d="M46.7427 29.7906C46.7426 29.2628 46.75 28.7347 46.739 28.2071C46.7344 27.9906 46.7944 27.9005 47.0114 27.9044C47.6256 27.9154 48.2403 27.9181 48.8544 27.9036C49.1102 27.8975 49.1153 28.0452 49.1173 28.2433C49.1193 28.4432 49.0888 28.5678 48.8556 28.5593C48.4491 28.5445 48.0416 28.561 47.6347 28.5531C47.4665 28.5499 47.4017 28.6139 47.4049 28.7939C47.418 29.5342 47.3245 29.4032 47.9624 29.4158C48.185 29.4201 48.4084 29.4283 48.6303 29.4136C48.8686 29.3978 48.8878 29.5415 48.8851 29.735C48.8824 29.9191 48.886 30.0764 48.6396 30.0668C48.3023 30.0536 47.9639 30.0684 47.6261 30.0623C47.4715 30.0596 47.3986 30.1173 47.4056 30.2884C47.4131 30.4748 47.4135 30.6622 47.4053 30.8485C47.3977 31.0227 47.4738 31.0722 47.6273 31.0698C48.0496 31.0632 48.4723 31.0778 48.8943 31.0643C49.1341 31.0566 49.1203 31.2095 49.123 31.3799C49.1259 31.5588 49.1186 31.6915 48.8863 31.6868C48.2491 31.6739 47.6115 31.6771 46.9742 31.6855C46.7865 31.688 46.7381 31.6039 46.7404 31.4229C46.7471 30.8789 46.7428 30.3347 46.7427 29.7906Z"
              fill="var(--fill-0, white)"/>
        <path id="Fill 35" fill-rule="evenodd" clip-rule="evenodd"
              d="M34.5508 29.2646C34.5508 29.6246 34.5464 29.9846 34.5522 30.3445C34.5565 30.6098 34.6115 30.8655 34.8666 31.0001C35.1577 31.1537 35.4657 31.1538 35.7509 30.9857C35.9996 30.8392 36.0353 30.573 36.0379 30.3131C36.0448 29.6092 36.0513 28.905 36.0352 28.2013C36.0291 27.9359 36.149 27.8974 36.3641 27.9041C36.6913 27.9144 36.7216 27.924 36.7178 28.2016C36.7071 28.9849 36.7525 29.7689 36.6885 30.5518C36.6417 31.1249 36.3306 31.4971 35.7774 31.6315C35.4883 31.7017 35.1933 31.7004 34.9061 31.6545C34.2388 31.548 33.9003 31.1294 33.8743 30.3448C33.85 29.6096 33.8698 28.8731 33.8657 28.1371C33.8649 27.9753 33.9289 27.8982 34.0907 27.9072C34.1538 27.9107 34.2177 27.9127 34.2803 27.9063C34.4867 27.8854 34.5605 27.9764 34.5534 28.1847C34.5411 28.5443 34.55 28.9046 34.55 29.2646H34.5508Z"
              fill="var(--fill-0, white)"/>
        <path id="Fill 37" fill-rule="evenodd" clip-rule="evenodd"
              d="M7.15151 29.3345C7.15151 29.7025 7.15799 30.0705 7.15017 30.4383C7.13437 31.1819 6.64946 31.6667 5.91032 31.6823C5.72699 31.6862 5.54055 31.695 5.36025 31.6689C4.70873 31.5747 4.31285 31.1286 4.29979 30.4515C4.28505 29.684 4.29796 28.916 4.29311 28.1481C4.29201 27.9856 4.35342 27.9089 4.51711 27.9169C4.58082 27.92 4.6454 27.922 4.70864 27.9157C4.91534 27.895 4.99116 27.9832 4.98862 28.1922C4.98012 28.8879 4.98468 29.5839 4.98689 30.2797C4.98727 30.407 4.97738 30.5363 5.01983 30.6602C5.14135 31.0148 5.39636 31.1312 5.80099 31.1111C6.22559 31.0898 6.44598 30.8753 6.45313 30.4916C6.46705 29.748 6.45923 29.0041 6.46518 28.2603C6.46609 28.1472 6.41688 27.9918 6.56232 27.9434C6.72816 27.8883 6.91129 27.8905 7.08045 27.9475C7.1736 27.979 7.15113 28.0818 7.15156 28.1588C7.15367 28.5507 7.15252 28.9426 7.15252 29.3345H7.15151Z"
              fill="var(--fill-0, white)"/>
        <path id="Fill 39" fill-rule="evenodd" clip-rule="evenodd"
              d="M22.7898 31.6839C22.3964 31.7033 22.0373 31.6254 21.6748 31.5629C21.3533 31.5075 21.4858 31.3101 21.5051 31.1428C21.526 30.9605 21.6306 30.9341 21.8047 30.9698C22.1644 31.0438 22.5286 31.0957 22.8994 31.0868C23.0529 31.0832 23.201 31.0585 23.334 30.9867C23.6493 30.8164 23.6491 30.4516 23.3349 30.2804C23.1812 30.1966 23.0106 30.1543 22.8406 30.1107C22.549 30.0359 22.2632 29.9485 22.0074 29.789C21.5987 29.5342 21.4407 29.1702 21.5155 28.7238C21.5856 28.3062 21.8884 28.0866 22.3 27.9807C22.9047 27.8251 23.4946 27.9298 24.0824 28.0718C24.1629 28.0912 24.2087 28.1252 24.207 28.2189C24.2005 28.5679 24.0682 28.6753 23.7137 28.606C23.3839 28.5416 23.0508 28.519 22.7149 28.5406C22.4859 28.5553 22.3016 28.6444 22.2507 28.8704C22.1991 29.0997 22.3638 29.222 22.5545 29.3079C22.7976 29.4174 23.0646 29.4592 23.3208 29.5321C23.7784 29.6624 24.1889 29.856 24.2957 30.3546C24.4484 31.0668 23.9539 31.6335 23.1452 31.6828C23.02 31.6904 22.894 31.6839 22.7898 31.6839Z"
              fill="var(--fill-0, white)"/>
        <path id="Fill 41" fill-rule="evenodd" clip-rule="evenodd"
              d="M38.1576 29.8577C38.1617 29.5788 38.1622 29.3829 38.1983 29.186C38.3509 28.354 38.8016 27.947 39.6456 27.9066C40.0485 27.8873 40.4431 27.9575 40.8341 28.0503C40.9845 28.086 41.0598 28.1678 40.9887 28.3218C40.9274 28.455 41.0011 28.714 40.7033 28.6414C40.3896 28.5649 40.0717 28.5216 39.7468 28.5334C39.3017 28.5495 39.0253 28.7607 38.917 29.1951C38.8179 29.5929 38.8199 29.9949 38.9192 30.3921C39.0588 30.9502 39.4601 31.1707 40.1322 31.0665C40.3183 31.0377 40.5064 31.0121 40.6872 30.9617C40.9366 30.8922 40.9322 31.0785 40.9755 31.2243C41.018 31.3675 41.0595 31.4935 40.8439 31.5479C40.3193 31.6801 39.7919 31.737 39.2585 31.6336C38.7876 31.5422 38.4763 31.2491 38.3094 30.8011C38.1865 30.4711 38.1405 30.128 38.1576 29.8577Z"
              fill="var(--fill-0, white)"/>
    </g>
</svg>
