<svg preserveAspectRatio="none" width="135.969" height="15.8509" overflow="visible" style="display: block;"
     viewBox="0 0 135.969 15.8509" fill="none" xmlns="http://www.w3.org/2000/svg">
    <g id="Bug logo">
        <path id="Fill 1" fill-rule="evenodd" clip-rule="evenodd"
              d="M2.51005 0.000147465V15.8216H30.3618V15.1924H31.0575V15.8216H31.5996V15.1924H32.3423V15.8216H32.8844V15.1924H34.1692V14.4776H34.8743V15.1924H35.3757V14.4776H36.1403V15.2022H36.6636V14.4878H37.2903V13.8321H37.9738V13.1996H38.6563V13.8321H39.1799V13.1996H39.9414V13.8321H40.4835V13.1996H41.0977V9.94587H40.496V8.57903H39.9539V9.94587H39.1921V8.57903H38.6691V9.94587H37.986V8.57903H37.3029V7.96328H33.4895V7.24856H34.1692V6.53418H34.8743V7.24856H35.3757V6.53418H36.1403V7.24856H36.6636V6.53418H37.2903V5.25319H37.9738V2.63159H37.2903V1.28768H33.4767V0.63261H29.6787V0.000147465H2.51005ZM17.7301 3.98171H22.0702V4.63712H22.7502V5.2663H22.0702V5.89844H17.7301V3.98171ZM16.4453 5.89844H17.0501V3.98827H16.4453V5.89844ZM15.217 3.98827H15.7591V5.89844H15.2198L15.217 3.98827ZM24.7401 5.2663H25.2634V4.63712H24.7401V5.2663ZM23.4334 5.2663H23.9755V4.63712H23.4334V5.2663ZM24.7338 9.9557V9.3003H25.2571V9.9557H25.8588V11.2269H25.2571V11.8826H24.7338V11.2269H23.9692V11.8826H23.4271V11.2269H22.744V11.8826H17.7301V9.3003H22.744V9.9557H23.4271V9.3003H23.9692V9.9557H24.7338ZM16.4453 11.8826H17.0501V9.31964H16.4453V11.8826ZM15.217 9.31964H15.7591V11.8826H15.2198L15.217 9.31964ZM1.22557 15.8347H1.82723V0.000147465H1.22557V15.8347ZM0 15.8347H0.54212V0.000147465H0V15.8347ZM39.9414 5.2663H40.4835V2.64469H39.9414V5.2663ZM38.6563 5.2663H39.1796V2.64469H38.6563V5.2663Z"
              fill="var(--fill-0, white)"/>
        <path id="Fill 2" fill-rule="evenodd" clip-rule="evenodd"
              d="M85.4042 11.8562H86.0059V0H85.4042V11.8562ZM84.2009 11.8562H84.7211V0H84.2009V11.8562ZM67.702 0V10.647H67.0756V11.3024H66.3329V10.647H65.7908V11.3024H65.1076V10.647H64.506V11.3024H63.2024V10.647H62.5976V11.3024H61.9145V10.647H61.3723V11.3024H60.6297V10.647H60.0026V0H44.2599L44.2658 11.8562H44.8925V13.2195H45.4973V13.8519H46.0987V13.2195H46.7821V13.8519H47.2992V13.2195H48.0606V13.8519H48.6623V14.563H49.289V15.1955H49.9158V14.563H50.5829V15.1955H51.1065V14.563H51.868V15.1955H56.2864V15.8509H71.4094V15.1955H75.8372V14.563H76.6018V15.1955H77.1252V14.563H77.8052V15.1955H78.4319V14.563H79.0304V13.8519H79.6321V13.2195H80.3964V13.8519H80.9388V13.2195H81.6157V13.8519H82.2173V13.2195H82.819V11.8562H83.4457V0H67.702ZM42.9747 11.8562H43.4949V0H42.9747V11.8562ZM41.6868 11.8562H42.2916V0H41.6868V11.8562Z"
              fill="var(--fill-0, white)"/>
        <path id="Fill 3" fill-rule="evenodd" clip-rule="evenodd"
              d="M119.621 0.000120339V0.714508H118.856V0.000120339H118.317V0.714508H117.634V0.000120339H105.027V0.714508H104.344V0.000120339H103.717V0.714508H103.034V0.000120339H102.514L102.523 0.714508H98.0236V1.33714H97.4216V1.99221H96.7385V1.33714H96.1371V1.99221H95.454V1.33714H94.9116V1.99221H94.2284V2.7066H93.6271V3.33612H92.9436V2.7066H92.3169V3.33612H91.6369V2.7066H91.1136V3.33612H90.4305V3.98824H89.8037V5.35148H89.1175V3.98824H88.5158V5.35148H87.8327V3.98824H87.2905V5.35148H86.6077V10.5947H87.2905V11.8563H87.8327V10.5947H88.5158V11.8563H89.1175V10.5947H89.7946V11.8563H90.421V12.5606H91.1042V13.8422H91.6278V12.5606H92.3075V13.8422H92.9345V12.5606H93.6174V13.8422H94.9025V14.5533H95.4443V13.8422H96.1274V14.5533H96.7291V13.8422H97.4122V14.5533H98.0142V15.1858H102.511V15.8412H103.031V15.1858H103.714V15.8412H104.341V15.1858H105.024V15.8412H117.634V15.1858H118.314V15.8412H118.856V15.1858H119.621V15.8412H120.14V15.1858H121.447V14.5533H122.131V15.1858H122.651V14.5533H123.415V15.1858H123.958V14.5533H124.559V13.8422H125.324V15.1858H125.844V13.8422H126.527V15.1858H127.154V13.8422H127.837V15.8346H135.969V6.67867H112.613V10.5849H117.032V11.2989H108.737V10.6435H108.217V11.2989H107.452V10.6435H106.911V11.2989H106.231V10.6435H105.544V9.93241H104.942V5.87908H105.544V5.24661H106.231V4.6171H106.911V5.24661H107.452V4.6171H108.217V5.24661H108.737V4.6171H113.917V5.24661H114.438V4.6171H115.121V5.24661H115.747V4.6171H116.43V5.24661H117.032V5.87908H120.767V5.24661H124.562V4.6171H129.04V3.90304H129.723V4.6171H130.266V3.90304H131.03V4.6171H131.55V3.90304H132.857V3.33612H132.174V2.71676H131.547V2.00237H131.027V2.71676H130.262V2.00237H129.72V2.71676H129.037V2.00237H128.354V1.34664H124.559V0.714508H120.14V0.000120339H119.621ZM103.717 9.87015H104.344V5.95772H103.717V9.87015ZM102.514 9.87015H103.034V5.95772H102.514V9.87015ZM134.825 3.33612L134.838 3.90304H135.367V3.33612H134.825ZM133.54 3.90304H134.06V3.33612H133.54V3.90304ZM111.329 6.67867L111.335 10.5849H111.931V6.67867H111.329ZM110.103 10.5849H110.646V6.67834H110.103V10.5849Z"
              fill="var(--fill-0, white)"/>
    </g>
</svg>
