<svg preserveAspectRatio="none" width="137" height="26.353" overflow="visible" style="display: block;"
     viewBox="0 0 137 26.353" fill="none" xmlns="http://www.w3.org/2000/svg">
    <g id="Dalmacija danas logo">
        <g id="Group 3">
            <mask id="mask0_0_4" style="mask-type:alpha" maskUnits="userSpaceOnUse" x="47" y="14" width="10"
                  height="13">
                <g id="mask 2">
                    <path id="Vector" d="M47.2736 14.6742H56.6594V26.353H47.2736V14.6742Z" fill="var(--fill-0, white)"/>
                </g>
            </mask>
            <g mask="url(#mask0_0_4)">
                <path id="Fill 1" fill-rule="evenodd" clip-rule="evenodd"
                      d="M53.948 21.9555C53.9656 20.7112 53.1605 19.7748 52.0342 19.73C50.9461 19.6866 50.0737 20.6376 50.0545 21.8879C50.0337 23.2284 50.7417 24.0326 51.961 24.0529C53.1808 24.0735 53.9291 23.2834 53.948 21.9555ZM50.2673 26.298C47.9367 25.0269 47.1227 23.511 47.2961 21.4082C47.515 18.7482 50.1214 16.3561 53.8315 18.2757C54.0547 17.4616 53.9716 16.6573 53.9228 15.8829C53.8566 14.833 54.4074 14.6746 55.336 14.6742C56.2433 14.6737 56.6751 14.8843 56.6589 15.8475C56.6101 18.7601 56.644 21.6738 56.6419 24.5872C56.6407 26.0421 55.6298 26.8328 54.4235 26.0376C53.3953 25.3592 53.0161 26.036 52.3692 26.298H50.2673Z"
                      fill="var(--fill-0, white)"/>
            </g>
        </g>
        <path id="Fill 4" fill-rule="evenodd" clip-rule="evenodd"
              d="M78.9735 22.034C78.2758 22.079 77.4405 22.0037 77.3663 22.9664C77.3134 23.6558 77.841 23.8862 78.4914 23.8842C79.3051 23.8818 80.0882 23.7212 80.1935 22.8189C80.2868 22.0204 79.5578 22.0869 78.9735 22.034ZM76.5823 25.6887C76.2345 25.4634 75.8542 25.2719 75.5447 25.007C74.0613 23.7375 74.5226 21.4764 76.4127 20.7094C77.405 20.3066 78.4424 20.3639 79.4817 20.479C79.7004 20.5034 79.9666 20.6321 80.1032 20.3843C80.2592 20.1015 80.026 19.8889 79.8195 19.742C78.9909 19.1532 78.0064 19.2791 77.1579 19.5184C76.1171 19.8123 75.9064 19.3588 75.6569 18.6119C75.3472 17.6841 76.014 17.5598 76.6549 17.408C77.1749 17.2848 77.7092 17.1779 78.2424 17.1476C81.4831 16.9618 82.8718 18.1982 82.8829 21.2489C82.8859 22.1535 82.8855 23.0582 82.8829 23.9628C82.8785 25.4739 82.1504 26.067 80.6884 25.4579C79.8865 25.1238 79.4559 25.3564 78.899 25.6887H76.5823Z"
              fill="var(--fill-0, white)"/>
        <path id="Fill 6" fill-rule="evenodd" clip-rule="evenodd"
              d="M60.854 23.8925C61.6949 23.8443 62.4708 23.5131 62.4888 22.6882C62.5065 21.868 61.6255 22.0743 61.0539 22.048C60.3042 22.0133 59.574 22.1902 59.5278 23.01C59.4846 23.7793 60.1918 23.8614 60.854 23.8925ZM58.9326 25.6871C57.6741 25.1528 56.7968 24.3497 56.858 22.9588C56.9171 21.6141 57.9427 20.6711 59.6077 20.4659C60.2533 20.3862 60.921 20.4699 61.5788 20.4653C61.8514 20.4635 62.2438 20.8046 62.3713 20.3761C62.4888 19.9815 62.1501 19.6883 61.7666 19.5555C60.9369 19.2686 60.047 19.2798 59.2482 19.53C58.1887 19.8615 58.1151 19.2326 57.8661 18.5996C57.5674 17.8398 58.0306 17.6069 58.6498 17.4622C59.4385 17.2777 60.2311 17.1227 61.0575 17.1297C63.7337 17.1525 65.0446 18.3582 65.0682 20.8654C65.0787 21.9516 65.0752 23.0381 65.0703 24.1245C65.0642 25.4641 64.3228 26.0703 63.0564 25.4507C62.1426 25.0036 61.6736 25.4147 61.0315 25.6871H58.9326Z"
              fill="var(--fill-0, white)"/>
        <path id="Fill 8" fill-rule="evenodd" clip-rule="evenodd"
              d="M85.8971 25.6942C85.413 25.5027 84.9129 25.3407 84.447 25.1135C83.3745 24.5898 83.3416 24.3174 84.0452 23.3851C84.3812 22.9398 84.6904 22.8791 85.1723 23.151C85.7562 23.4808 86.381 23.7394 87.0857 23.6958C87.4119 23.6758 87.8324 23.7534 87.9318 23.3415C88.033 22.9234 87.6388 22.8031 87.3274 22.6898C86.7317 22.4733 86.1135 22.3111 85.5302 22.069C84.278 21.549 83.7605 20.7904 83.8248 19.6604C83.8922 18.4708 84.6262 17.6212 85.9239 17.2851C86.9726 17.0131 88.0188 17.1004 89.0001 17.5257C89.4723 17.7306 90.3472 17.7509 89.9593 18.6456C89.6438 19.374 89.2694 20.1006 88.2388 19.4316C88.1479 19.3729 88.033 19.3348 87.9241 19.3181C87.3859 19.2368 86.6012 18.9084 86.4015 19.4814C86.1545 20.1915 87.0828 20.1372 87.5295 20.3622C87.9253 20.5619 88.3688 20.671 88.7779 20.8483C89.7308 21.2615 90.4161 21.9007 90.42 22.9773C90.4238 24.0367 89.9449 24.8556 88.9492 25.3609C88.7511 25.4613 88.5644 25.5824 88.3724 25.6942H85.8971Z"
              fill="var(--fill-0, white)"/>
        <path id="Fill 10" fill-rule="evenodd" clip-rule="evenodd"
              d="M4.11 25.4713C13.4727 24.6974 17.3776 19.21 17.5658 13.6296C17.7751 7.41965 14.1742 1.90695 4.33081 0.86294C4.72716 0.594308 5.13225 0.680245 5.50425 0.680245C9.74719 0.680461 13.9927 0.609461 18.2322 0.725269C22.2872 0.835882 26.0719 1.75196 29.1658 4.47075C34.8921 9.50247 34.4645 21.1216 24.5844 24.5851C22.5636 25.2935 20.4818 25.6866 18.3133 25.6819C14.2236 25.673 10.1334 25.6923 6.04329 25.6888C5.48012 25.6884 4.9034 25.7494 4.11 25.4713Z"
              fill="var(--fill-0, white)"/>
        <g id="Group 14">
            <mask id="mask1_0_4" style="mask-type:alpha" maskUnits="userSpaceOnUse" x="0" y="6" width="11" height="14">
                <g id="mask 4">
                    <path id="Vector_2" d="M0 6.61788H10.0541V19.5844H0V6.61788Z" fill="var(--fill-0, white)"/>
                </g>
            </mask>
            <g mask="url(#mask1_0_4)">
                <path id="Fill 12" fill-rule="evenodd" clip-rule="evenodd"
                      d="M0.00990649 13.021C0.00945975 11.245 0.0297864 9.46861 0.000301601 7.69308C-0.0128772 6.89678 0.316816 6.58033 1.12765 6.6214C2.63897 6.69826 4.1619 6.4837 5.65111 6.97958C8.51828 7.93399 10.1864 10.2548 10.0459 13.194C9.89267 16.4003 8.16915 18.5593 5.17801 19.2919C3.75604 19.6402 2.30749 19.5881 0.860275 19.5719C0.15331 19.564 0.0054391 19.1454 0.0076728 18.5663C0.0148206 16.7179 0.0103532 14.8694 0.00990649 13.021Z"
                      fill="var(--fill-0, white)"/>
            </g>
        </g>
        <path id="Fill 15" fill-rule="evenodd" clip-rule="evenodd"
              d="M87.6469 4.65193C86.9643 5.70099 86.2603 6.73726 85.6064 7.80384C85.1116 8.61067 84.7314 8.53098 84.2693 7.7751C83.6157 6.70606 82.9115 5.66799 82.2253 4.61129C81.7958 4.83107 81.9495 5.16467 81.9466 5.42149C81.9283 7.01406 81.9138 8.60753 81.9428 10.1999C81.9575 11.0197 81.5157 11.2159 80.8227 11.1906C80.1891 11.1677 79.4702 11.2483 79.4666 10.3074C79.4548 7.15886 79.4615 4.01032 79.4664 0.862C79.4673 0.440847 79.6657 0.19278 80.1088 0.0971455C81.4154 -0.184371 82.1676 0.127003 82.8845 1.28787C83.3515 2.04419 83.8251 2.79625 84.2959 3.55055C84.9698 4.63037 84.976 4.63441 85.6292 3.60039C86.2223 2.66088 86.7859 1.70251 87.3886 0.769284C87.807 0.12184 89.485 -0.200086 90.0956 0.216801C90.4245 0.441296 90.4027 0.789713 90.4033 1.1177C90.4089 4.11808 90.3855 7.1189 90.4198 10.1191C90.4305 11.0774 89.9065 11.1946 89.1472 11.2001C88.3397 11.2056 87.8935 10.9504 87.9093 10.0544C87.9401 8.28134 87.9185 6.50738 87.9185 4.73364C87.8279 4.70648 87.7374 4.67909 87.6469 4.65193Z"
              fill="var(--fill-0, white)"/>
        <path id="Fill 17" fill-rule="evenodd" clip-rule="evenodd"
              d="M49.8229 5.83581H49.8298C49.8298 6.57163 49.8241 7.30746 49.8325 8.04329C49.8364 8.36214 49.8711 8.6646 50.2479 8.83616C51.9835 9.62648 54.4377 8.42238 54.7489 6.62016C55.1214 4.46164 53.8656 2.98636 51.5185 2.82523C49.9529 2.71796 49.8295 2.82161 49.8234 4.259C49.8211 4.78453 49.8229 5.31006 49.8229 5.83581ZM47.277 5.92712C47.2761 4.524 47.3022 3.12046 47.2658 1.71798C47.2458 0.946606 47.5859 0.631585 48.4017 0.660746C49.9794 0.717152 51.5665 0.539208 53.1337 0.862955C55.8196 1.41765 57.6383 3.58447 57.5359 6.13167C57.4362 8.6099 55.4639 10.6369 52.7932 11.037C51.2937 11.2618 49.7866 11.1841 48.2807 11.1973C47.5738 11.2037 47.2595 10.9132 47.2704 10.2416C47.294 8.80381 47.2776 7.36536 47.277 5.92712Z"
              fill="var(--fill-0, white)"/>
        <path id="Fill 19" fill-rule="evenodd" clip-rule="evenodd"
              d="M96.8577 6.45278C98.2859 6.46243 98.3294 6.42293 97.8048 5.22492C97.5596 4.66509 97.4551 3.70256 96.9128 3.69605C96.2999 3.68887 96.2696 4.65544 96.0216 5.20584C95.4939 6.37646 95.5597 6.44403 96.8577 6.45278ZM101.932 11.045C100.523 11.3285 99.9977 10.7467 99.7643 9.86384C99.5222 8.948 98.9616 8.58997 98.0008 8.69525C97.5446 8.7453 97.0695 8.7563 96.6167 8.6939C95.1632 8.49345 94.1874 8.88537 93.802 10.3931C93.6236 11.0917 91.8962 11.4419 91.3065 11.0125C90.96 10.7602 91.1413 10.4784 91.256 10.2169C92.6468 7.04336 94.0528 3.87563 95.4351 0.698467C95.7169 0.050644 96.2429 -0.0122079 96.8494 0.00170935C97.4639 0.0156265 98.0998 -0.0654075 98.4126 0.649533C99.8153 3.85857 101.247 7.05616 102.628 10.274C103.1 11.3761 102.059 10.9797 101.932 11.045Z"
              fill="var(--fill-0, white)"/>
        <path id="Fill 21" fill-rule="evenodd" clip-rule="evenodd"
              d="M131.108 3.14834C130.645 4.22583 130.324 4.96226 130.014 5.70338C129.805 6.20267 129.957 6.47489 130.553 6.4559C130.894 6.44495 131.236 6.44673 131.577 6.455C132.203 6.4702 132.415 6.21653 132.17 5.6446C131.857 4.91309 131.546 4.18001 131.108 3.14834ZM131.386 0.0242792C132.118 -0.115854 132.5 0.366903 132.815 1.10691C134.035 3.97059 135.327 6.8059 136.542 9.67115C136.716 10.0813 137.453 10.6228 136.587 11.0539C135.855 11.4185 134.577 11.0526 134.235 10.4907C133.878 9.90538 133.912 8.92734 133.115 8.79816C131.765 8.57913 130.362 8.57265 129.003 8.81962C128.456 8.91908 128.409 9.54152 128.214 9.96974C127.725 11.0434 127.148 11.3273 125.957 11.1078C125.407 11.0066 125.227 10.7493 125.445 10.2565C126.872 7.03677 128.301 3.81817 129.73 0.599565C130.027 -0.0678022 130.652 0.059592 131.386 0.0242792Z"
              fill="var(--fill-0, white)"/>
        <path id="Fill 23" fill-rule="evenodd" clip-rule="evenodd"
              d="M63.3308 3.14399C62.8939 4.1798 62.572 4.92015 62.2721 5.66835C62.18 5.89763 62.0242 6.23931 62.3632 6.34162C63.0228 6.54061 63.7883 6.62632 64.3707 6.32479C64.8824 6.06006 64.3555 5.54025 64.2259 5.16312C64.025 4.57779 63.7279 4.02298 63.3308 3.14399ZM68.2214 11.0805C67.088 11.2542 66.496 10.8804 66.2808 10.0292C66.0006 8.92005 65.2651 8.55055 64.1483 8.69211C63.8461 8.7307 63.5293 8.73003 63.2266 8.69256C61.7368 8.50859 60.6073 8.80204 60.2005 10.438C60.0427 11.0718 58.4064 11.4101 57.7839 11.0581C57.3967 10.8393 57.5585 10.5515 57.6746 10.2866C59.0814 7.08017 60.502 3.87962 61.9 0.670103C62.2131 -0.0484834 62.8281 0.0102958 63.4455 0.00109755C64.0449 -0.00787636 64.5869 0.0293654 64.8699 0.680647C66.2658 3.89129 67.7118 7.08197 69.07 10.3072C69.5326 11.406 68.4665 10.9816 68.2214 11.0805Z"
              fill="var(--fill-0, white)"/>
        <path id="Fill 25" fill-rule="evenodd" clip-rule="evenodd"
              d="M102.758 5.3844C102.65 3.39843 103.701 1.73968 105.735 0.723955C107.908 -0.361657 110.116 -0.196618 112.217 1.02085C112.737 1.32192 113.261 1.69046 112.653 2.29172C112.144 2.79453 111.865 3.81729 110.687 3.00836C109.355 2.0946 107.765 2.15657 106.721 2.97034C105.462 3.95134 105.049 5.5646 105.687 7.01018C106.492 8.8366 108.736 9.44006 110.632 8.33928C111.576 7.79164 112.413 8.02481 112.928 8.95153C113.222 9.47918 112.782 9.68158 112.468 9.91057C110.446 11.3827 108.216 11.5647 105.941 10.6081C103.704 9.66773 102.719 7.91119 102.758 5.3844Z"
              fill="var(--fill-0, white)"/>
        <path id="Fill 27" fill-rule="evenodd" clip-rule="evenodd"
              d="M69.2408 18.0646C69.9431 17.5389 70.5631 17.1461 71.3988 17.1305C73.3201 17.0944 74.5072 18.0034 74.6162 19.8413C74.7139 21.4903 74.6306 23.1484 74.6545 24.8023C74.6686 25.7915 73.9417 25.6629 73.2956 25.6734C72.6218 25.6843 71.9475 25.7315 71.9717 24.7633C72.0027 23.5144 71.9821 22.264 71.9668 21.0144C71.9566 20.2046 71.7003 19.5474 70.7027 19.4753C69.7105 19.4033 69.2668 20.0133 69.2005 20.8079C69.0968 22.0503 69.0754 23.305 69.1255 24.5506C69.1654 25.544 68.6426 25.6843 67.7778 25.6939C66.8723 25.7041 66.4244 25.4673 66.4457 24.5185C66.4907 22.4977 66.4508 20.4753 66.4638 18.4536C66.4671 17.9613 66.3302 17.2927 67.1026 17.2461C67.8696 17.2 68.8505 16.8017 69.2408 18.0646Z"
              fill="var(--fill-0, white)"/>
        <path id="Fill 29" fill-rule="evenodd" clip-rule="evenodd"
              d="M69.8874 5.54851C69.8862 4.21065 69.9214 2.87144 69.8743 1.53515C69.8415 0.592945 69.9674 -0.00752556 71.214 7.12474e-05C72.4161 0.0075877 72.5045 0.604223 72.4913 1.48666C72.4615 3.45589 72.5332 5.42761 72.4626 7.39504C72.4233 8.48973 72.8643 8.84817 73.9508 8.78162C74.989 8.71779 76.035 8.78794 77.0772 8.76967C77.9274 8.75478 78.0996 9.21991 78.0896 9.91624C78.0798 10.5968 78.0707 11.2022 77.1016 11.1959C75.0556 11.1826 73.0091 11.1826 70.9631 11.2001C70.1736 11.2067 69.8632 10.8756 69.8792 10.1195C69.9109 8.59643 69.8885 7.07225 69.8874 5.54851Z"
              fill="var(--fill-0, white)"/>
        <path id="Fill 31" fill-rule="evenodd" clip-rule="evenodd"
              d="M125.336 4.37163C125.336 5.48356 125.378 6.59706 125.326 7.70675C125.25 9.32205 124.345 10.5524 122.851 10.9672C121.137 11.4432 119.512 11.2162 118.125 10.0392C117.53 9.53515 117.923 9.08271 118.314 8.72448C118.675 8.39361 118.897 7.62017 119.663 8.17019C119.847 8.30209 120.032 8.43735 120.233 8.54255C121.528 9.22156 122.514 8.77181 122.694 7.34381C122.805 6.46629 122.75 5.56835 122.756 4.67961C122.765 3.45642 122.791 2.23255 122.753 1.0107C122.722 -0.00118553 123.392 0.0136193 124.123 0.000833295C124.879 -0.0126257 125.386 0.149106 125.354 1.0365C125.314 2.14709 125.344 3.25969 125.344 4.37163H125.336Z"
              fill="var(--fill-0, white)"/>
        <path id="Fill 33" fill-rule="evenodd" clip-rule="evenodd"
              d="M116.431 5.67669C116.432 7.12659 116.386 8.5783 116.448 10.026C116.49 11.0202 115.953 11.2101 115.053 11.1997C114.216 11.1902 113.698 11.0369 113.71 10.0912C113.75 7.08053 113.748 4.0685 113.713 1.05759C113.702 0.0753321 114.306 0.0109773 115.103 0.000590208C115.946 -0.0107001 116.475 0.162042 116.444 1.10433C116.395 2.62717 116.431 4.1525 116.431 5.67669Z"
              fill="var(--fill-0, white)"/>
    </g>
</svg>
