<svg width="33" height="40" viewBox="0 0 33 40" fill="none" xmlns="http://www.w3.org/2000/svg">
<path d="M32.8833 18.7689C32.5373 16.8407 31.5679 15.0799 30.1242 13.7573L25.0057 8.60967C23.0117 6.60292 21.015 4.59617 19.0156 2.58941C17.9254 1.40156 16.5021 0.571091 14.9324 0.206814C13.3626 -0.157463 11.7195 -0.0385511 10.2183 0.547967C8.65992 1.02264 7.28799 1.9716 6.29327 3.26289C5.29855 4.55418 4.73049 6.12365 4.66806 7.75307C4.66806 8.81782 4.66806 10.1548 4.66806 11.5397C4.62657 11.8587 4.70651 12.1817 4.89199 12.4444L6.96335 14.4938C7.20327 14.702 7.71511 14.6219 7.70712 14.3337C7.70712 12.0601 7.70712 9.53032 7.7551 7.83312C7.79643 6.8295 8.15472 5.86485 8.77841 5.07797C9.40211 4.29108 10.2591 3.7225 11.226 3.45402C12.179 3.06249 13.2301 2.97777 14.2333 3.21162C15.2366 3.44547 16.1422 3.98629 16.8243 4.75895L22.8144 10.7872L27.9328 15.9269C28.9204 16.7782 29.5935 17.937 29.8442 19.2172C29.9891 20.0004 29.9393 20.8072 29.6995 21.5666C29.4596 22.326 29.0369 23.0148 28.4687 23.5723C26.7572 25.3175 24.9977 27.0707 23.2863 28.7759C21.1349 30.9215 18.9036 33.139 16.7443 35.3646C16.0775 36.0339 15.2426 36.5107 14.3277 36.7446C13.4127 36.9785 12.4517 36.9608 11.5459 36.6936C10.7608 36.4861 10.0371 36.0928 9.4358 35.5466C8.8345 35.0004 8.37325 34.3174 8.091 33.5553C8.05945 33.4737 8.00843 33.401 7.94238 33.3437C7.87634 33.2863 7.79727 33.246 7.71208 33.2263C7.6269 33.2065 7.53818 33.208 7.45367 33.2304C7.36917 33.2529 7.29144 33.2957 7.22727 33.3552L5.73973 34.8442C5.65662 34.9426 5.60139 35.0615 5.57978 35.1885C5.54858 35.3765 5.58544 35.5696 5.68374 35.7329C6.2129 36.6964 6.93136 37.5428 7.79588 38.2211C8.66039 38.8994 9.65308 39.3955 10.7142 39.6797C11.4744 39.8925 12.2601 40.0003 13.0495 39.9999C14.1512 40.0055 15.2428 39.7895 16.2594 39.3645C17.2761 38.9395 18.1971 38.3144 18.9676 37.5261C21.111 35.3166 23.3263 33.107 25.4776 30.9695C27.1891 29.2643 28.9565 27.503 30.684 25.7418C31.5807 24.8402 32.2484 23.7364 32.6311 22.5232C33.0138 21.3099 33.1003 20.0225 32.8833 18.7689Z" fill="white"/>
<path d="M10.7782 26.2227C11.1108 25.8838 11.3571 25.4697 11.4963 25.0155C11.6355 24.5613 11.6635 24.0802 11.5779 23.6128C11.4513 22.8779 11.0859 22.2053 10.5383 21.6995L5.41986 16.5438C5.01377 16.0832 4.47562 15.7591 3.87879 15.6159C3.28197 15.4726 2.65553 15.5171 2.08489 15.7433C1.48843 15.9173 0.963935 16.2792 0.58933 16.7753C0.214724 17.2715 0.00999018 17.8753 0.00553969 18.4972C0.00553969 20.3545 0.00553969 24.1012 0.00553969 24.1012C0.00553969 25.6623 0.00553969 27.2154 0.00553969 28.7765C-0.0133561 29.2559 0.0161171 29.736 0.0935121 30.2095C0.231543 30.7484 0.509504 31.2412 0.899198 31.6378C1.28889 32.0345 1.77646 32.3209 2.31243 32.468C2.8484 32.6152 3.41372 32.6178 3.95103 32.4756C4.48834 32.3335 4.97853 32.0516 5.37187 31.6585C7.14732 29.8252 8.97875 28.048 10.7702 26.2227" fill="#30CEC2"/>
</svg>
