<svg width="239" height="75" viewBox="0 0 239 75" fill="none" xmlns="http://www.w3.org/2000/svg">
    <path d="M46.51 0V58.33H31.36V52.08C29.23 54.73 27.3 56.52 25.55 57.46C23.21 58.67 20.62 59.28 17.75 59.28C11.99 59.28 7.59 57.09 4.55 52.72C1.52 48.35 0 43.02 0 36.76C0 29.75 1.67 24.4 5.04 20.69C8.39 16.97 12.66 15.11 17.82 15.11C20.35 15.11 22.63 15.54 24.69 16.39C26.74 17.25 28.56 18.51 30.16 20.21V0H46.51ZM30.27 37.09C30.27 33.76 29.58 31.29 28.16 29.66C26.76 28.03 24.98 27.22 22.84 27.22C20.95 27.22 19.38 28.01 18.1 29.57C16.82 31.13 16.19 33.75 16.19 37.45C16.19 40.9 16.86 43.43 18.16 45.03C19.48 46.63 21.11 47.43 23.04 47.43C25.12 47.43 26.84 46.63 28.21 45.01C29.59 43.37 30.27 40.74 30.27 37.09Z"
          fill="#ffffff"/>
    <path d="M100.91 58.33H85.78V51.49C83.53 54.3 81.26 56.31 78.96 57.49C76.66 58.69 73.84 59.28 70.5 59.28C66.05 59.28 62.56 57.95 60.02 55.29C57.49 52.63 56.23 48.51 56.23 42.97V16.08H72.5V39.32C72.5 41.97 72.99 43.86 73.97 44.97C74.96 46.08 76.33 46.64 78.11 46.64C80.05 46.64 81.63 45.89 82.86 44.41C84.1 42.92 84.71 40.25 84.71 36.41V16.08H100.91V58.33Z"
          fill="#ffffff"/>
    <path d="M110.85 16.08H125.97V22.25C128.16 19.67 130.34 17.85 132.56 16.75C134.77 15.66 137.45 15.12 140.59 15.12C143.96 15.12 146.62 15.72 148.58 16.91C150.55 18.11 152.15 19.88 153.4 22.25C155.94 19.49 158.26 17.61 160.37 16.61C162.46 15.62 165.04 15.12 168.12 15.12C172.66 15.12 176.2 16.46 178.74 19.17C181.29 21.86 182.56 26.07 182.56 31.8V58.34H166.33V34.27C166.33 32.36 165.96 30.93 165.22 30.01C164.13 28.56 162.78 27.82 161.16 27.82C159.26 27.82 157.71 28.51 156.54 29.88C155.37 31.26 154.8 33.48 154.8 36.53V58.33H138.56V35.05C138.56 33.19 138.45 31.94 138.25 31.27C137.9 30.21 137.3 29.36 136.46 28.7C135.6 28.05 134.61 27.72 133.47 27.72C131.61 27.72 130.09 28.43 128.89 29.82C127.69 31.23 127.1 33.54 127.1 36.75V58.32H110.87V16.08H110.85Z"
          fill="#ffffff"/>
    <path d="M192.29 74.41V16.08H207.45V22.33C209.56 19.7 211.47 17.92 213.22 16.99C215.58 15.74 218.19 15.12 221.06 15.12C226.71 15.12 231.08 17.29 234.18 21.61C237.26 25.93 238.81 31.28 238.81 37.65C238.81 44.67 237.13 50.04 233.76 53.74C230.39 57.43 226.13 59.28 220.99 59.28C218.49 59.28 216.21 58.86 214.16 58.02C212.11 57.16 210.26 55.9 208.65 54.23V74.41H192.29ZM208.53 37.32C208.53 40.66 209.22 43.15 210.64 44.76C212.04 46.38 213.82 47.19 215.96 47.19C217.85 47.19 219.42 46.42 220.7 44.85C221.98 43.3 222.61 40.67 222.61 36.96C222.61 33.54 221.94 31.03 220.61 29.42C219.29 27.8 217.66 27 215.76 27C213.68 27 211.96 27.81 210.59 29.43C209.21 31.06 208.53 33.69 208.53 37.32Z"
          fill="#ffffff"/>
</svg>
