<svg preserveAspectRatio="none" width="100%" height="100%" overflow="visible" style="display: block;" viewBox="0 0 87 29.4331" fill="none" xmlns="http://www.w3.org/2000/svg">
<g id="Emovis logo">
<path id="Fill 1" fill-rule="evenodd" clip-rule="evenodd" d="M47.4138 28.9555H45.2143C45.2143 28.7589 45.2144 28.5717 45.2143 28.3845C45.2133 25.8146 45.2166 23.2448 45.2058 20.675C45.2045 20.3374 45.1622 19.9925 45.0863 19.6641C44.866 18.7115 44.0991 18.2161 43.1511 18.2787C41.8826 18.3626 40.9172 19.0572 40.0006 19.8579C39.866 19.9756 39.8061 20.2532 39.805 20.4573C39.7923 23.076 39.7966 25.6946 39.7966 28.3133V28.9733C39.1288 28.9733 38.4926 28.9892 37.8592 28.9527C37.7817 28.9483 37.6608 28.6635 37.6591 28.5073C37.6433 27.1088 37.6575 25.7099 37.6473 24.3112C37.6377 23.0278 37.6173 21.7444 37.5864 20.4614C37.5459 18.7773 36.557 17.9885 34.9638 18.365C33.9408 18.6066 33.0965 19.1921 32.3467 19.9223C32.2165 20.0491 32.1796 20.3306 32.1788 20.541C32.1678 23.1434 32.1716 25.7458 32.1716 28.3481V28.9777C31.5073 28.9777 30.8999 28.9883 30.2938 28.9659C30.2032 28.9626 30.089 28.8182 30.039 28.7121C29.9951 28.6194 30.0248 28.4888 30.0248 28.375C30.0245 24.6666 30.0312 20.9581 30.0162 17.2498C30.0143 16.7868 30.0924 16.5442 30.6036 16.6154C30.9734 16.667 31.4501 16.5058 31.6997 16.6945C31.933 16.871 31.9289 17.384 32.0319 17.748C32.0535 17.8245 32.0865 17.8977 32.1393 18.04C32.3361 17.8968 32.5087 17.7694 32.6832 17.6449C33.8557 16.8081 35.1104 16.2452 36.5761 16.3053C37.7632 16.3541 38.6276 16.9137 39.2111 17.9702C39.2648 18.0673 39.3156 18.1661 39.3935 18.3129C39.5593 18.1781 39.7028 18.0608 39.8468 17.9442C41.1669 16.8751 42.5927 16.1617 44.34 16.3241C45.8759 16.4668 47.08 17.5602 47.3118 19.1527C47.377 19.5999 47.408 20.0564 47.4095 20.5088C47.4184 23.1111 47.4138 25.7135 47.4138 28.3159V28.9555Z" fill="var(--fill-0, white)"/>
<path id="Fill 3" fill-rule="evenodd" clip-rule="evenodd" d="M1.24364e-09 8.11942C0.406826 5.16279 1.78392 2.87852 4.24736 1.39467C7.38936 -0.497852 10.6179 -0.461821 13.7284 1.48759C16.1189 2.98573 17.4348 5.24876 17.835 8.08446C17.4973 8.19354 17.3573 8.16103 17.2969 7.80561C16.6682 4.09752 13.9695 1.34141 10.3022 0.650157C9.08872 0.421436 7.88525 0.523754 6.69745 0.84363C6.60203 0.86938 6.51738 0.936645 6.42783 1.03475C9.32827 0.469511 11.9268 1.03348 14.1281 3.08893C15.5282 4.39614 16.3658 6.07777 16.6513 8.11335C16.5044 8.12372 16.3613 8.13381 16.2227 8.1436C15.1431 2.1294 9.34028 0.347807 6.11815 1.83283C9.04039 1.24115 11.6093 1.86455 13.6608 4.13267C14.666 5.24406 15.2853 6.56537 15.4704 8.08662C15.0589 8.27079 14.9863 8.01025 14.9181 7.7219C14.2633 4.95032 12.5814 3.16628 9.90334 2.35734C8.67661 1.98674 7.44489 2.04392 6.22077 2.3917C6.1292 2.41775 6.04205 2.4621 5.95634 2.50518C5.93645 2.51507 5.93097 2.55463 5.88965 2.64285C8.51154 2.06635 10.7973 2.60799 12.6525 4.61272C13.5763 5.61093 14.2782 7.14637 14.2495 8.08564C13.9164 8.24484 13.8292 8.06312 13.7502 7.76028C13.1251 5.36282 11.6411 3.79986 9.29694 3.11174C8.23001 2.79853 7.15289 2.81811 6.0874 3.15218C5.95634 3.1933 5.83047 3.25078 5.70565 3.35505C7.38138 3.02646 8.9788 3.15306 10.4471 4.09135C11.9007 5.02043 12.7802 6.35133 13.1411 8.06772C12.7871 8.22389 12.6643 8.11824 12.5679 7.78867C11.9399 5.64001 10.5461 4.29099 8.39355 3.80006C7.43404 3.58113 6.47933 3.65848 5.56181 4.09105C6.9808 3.84451 8.34377 3.94673 9.59346 4.72366C10.8386 5.49774 11.6214 6.61726 11.9541 8.07418C11.6272 8.242 11.4812 8.12519 11.3762 7.81599C10.6903 5.7951 9.2882 4.68234 7.20122 4.48818C6.60501 4.43276 6.01188 4.51628 5.45813 4.83234C7.05921 4.57983 8.4856 4.8952 9.65284 6.08081C10.2037 6.64047 10.5937 7.29794 10.7534 8.09239C10.3802 8.24876 10.2628 8.0594 10.1446 7.76047C9.40609 5.89174 7.4275 4.86367 5.63359 5.40062C5.52107 5.4343 5.41595 5.49314 5.31199 5.59164C6.51949 5.4246 7.6141 5.63893 8.5395 6.46325C9.0255 6.89631 9.38447 7.42278 9.55704 8.07428C9.19989 8.26423 9.06643 8.07389 8.92432 7.79435C8.28372 6.53521 7.08121 5.90574 5.71113 6.09686C5.56229 6.11762 5.4196 6.18518 5.25856 6.29288C6.66285 6.25616 7.74334 6.74053 8.36174 8.08143C7.99297 8.24837 7.82136 8.07585 7.64975 7.82607C7.10927 7.04004 6.33943 6.78244 5.43027 6.88025C5.36935 6.88681 5.30901 6.91609 5.25309 6.94438C5.22907 6.95662 5.21696 6.99334 5.17968 7.04758C5.54432 7.14167 5.9228 7.17908 6.24248 7.33857C6.56744 7.50071 6.83437 7.78299 7.21256 8.08015C6.35807 8.33766 5.85996 7.25975 5.04737 7.80483C5.25376 7.9137 5.41394 7.9982 5.64358 8.11942H1.24364e-09Z" fill="var(--fill-0, white)"/>
<path id="Fill 5" fill-rule="evenodd" clip-rule="evenodd" d="M5.13446 12.227C5.55088 12.567 6.01747 12.5584 6.46954 12.4791C7.49023 12.3001 8.26782 11.7338 8.7362 10.7612C8.86954 10.4844 9.00278 10.3284 9.35471 10.5011C9.07332 11.4142 8.52233 12.0833 7.73362 12.5522C6.95556 13.0149 6.11026 13.0772 5.23253 12.9863C5.75881 13.3504 6.34808 13.3612 6.91859 13.2647C8.33807 13.0246 9.35508 12.2104 9.92305 10.8177C9.94143 10.7727 9.94766 10.7092 9.98038 10.6857C10.1044 10.5966 10.2371 10.5203 10.3664 10.4391C10.3864 10.5782 10.4573 10.7355 10.4184 10.8535C10.0724 11.9007 9.42496 12.7013 8.49451 13.2312C7.6644 13.704 6.77865 13.929 5.82444 13.7397C5.66102 13.7071 5.49185 13.7055 5.32532 13.6894C5.31589 13.7344 5.30637 13.7792 5.29703 13.824C5.66017 13.9083 6.02011 14.0398 6.38731 14.0691C8.55279 14.2416 10.3933 12.9732 11.113 10.8295C11.2098 10.5411 11.3002 10.2967 11.6929 10.4995C11.3785 11.9656 10.5952 13.0792 9.3746 13.8486C8.15494 14.6172 6.83023 14.7721 5.43876 14.407C5.43207 14.4659 5.42546 14.5248 5.41886 14.5837C5.87254 14.6776 6.32262 14.8212 6.78054 14.8573C9.51945 15.0735 11.6911 13.1672 12.2986 10.7959C12.3798 10.4785 12.4903 10.3281 12.8533 10.5098C12.5102 12.2301 11.6434 13.5666 10.2115 14.4865C8.78203 15.4047 7.2327 15.6039 5.5953 15.1585C5.59049 15.2185 5.58558 15.2785 5.58078 15.3386C6.04114 15.4414 6.49755 15.6038 6.96254 15.6373C10.1404 15.867 12.6463 13.9842 13.4819 10.7885C13.5184 10.6488 13.7064 10.5519 13.8238 10.435C13.8655 10.5857 13.9666 10.7488 13.94 10.8848C13.4195 13.5373 11.1357 15.7698 8.55619 16.0646C7.76115 16.1555 6.94283 16.0249 6.13506 15.9946C6.01757 15.9902 5.90035 15.9799 5.78295 15.9723C5.77503 16.0139 5.76711 16.0554 5.75909 16.097C6.20334 16.2045 6.64249 16.3604 7.09267 16.412C10.9307 16.8514 13.8917 14.2025 14.6032 10.9196C14.6606 10.6547 14.6622 10.3262 15.1533 10.4702C14.8332 12.7233 13.7537 14.4672 11.9422 15.7184C10.1192 16.9775 8.11845 17.2334 5.99984 16.7066C5.99258 16.7615 5.98532 16.8162 5.97806 16.871C6.47445 16.985 6.96565 17.1531 7.46788 17.2046C11.3319 17.6006 14.6985 15.1656 15.6816 11.2872C15.7254 11.1141 15.7826 10.941 15.7981 10.7644C15.8289 10.4169 15.9966 10.3624 16.319 10.4914C15.9532 12.9834 14.7942 14.9511 12.7895 16.3517C10.8048 17.7385 8.6105 18.036 6.27981 17.5054C6.27821 17.5561 6.27661 17.6066 6.275 17.6571C6.58119 17.7393 6.88342 17.8459 7.19404 17.9C11.8874 18.7156 16.0544 15.6755 16.9608 10.7946C16.9863 10.6572 17.159 10.5495 17.2631 10.4279C17.3105 10.582 17.4229 10.75 17.3959 10.8883C16.6032 14.9299 14.2764 17.4531 10.4133 18.3626C5.80539 19.4474 0.938916 16.0468 0.0913586 11.2048C0.0689155 11.0766 0.0318561 10.9513 0.0112046 10.823C-0.0288724 10.5731 0.0306302 10.4133 0.319656 10.4142C1.99761 10.4191 3.67566 10.4166 5.48883 10.4166C5.24328 10.5606 5.11154 10.6379 4.93794 10.7397C5.29364 11.0816 5.61038 10.8835 5.90912 10.7631C6.20805 10.6426 6.49161 10.4808 6.82477 10.4246C6.48416 11.2396 5.78927 11.4038 5.04289 11.4894C5.4845 11.8478 5.95533 11.7838 6.34299 11.5834C6.77677 11.359 7.16405 11.0097 7.51814 10.6567C7.71542 10.4601 7.858 10.3541 8.16155 10.5196C7.52418 11.8322 6.50038 12.3234 5.13446 12.227Z" fill="var(--fill-0, white)"/>
<path id="Fill 7" fill-rule="evenodd" clip-rule="evenodd" d="M51.7908 22.6813C51.7835 24.0388 52.004 25.1956 52.6787 26.2343C53.8327 28.0111 56.6491 27.9693 57.7374 26.2993C58.2978 25.4392 58.558 24.493 58.6373 23.4801C58.7422 22.141 58.5929 20.8418 57.9027 19.6751C56.6508 17.5587 53.6554 17.6176 52.4727 19.7722C51.9564 20.7129 51.7825 21.7408 51.7908 22.6813ZM55.2393 16.3031C58.3644 16.219 60.4684 18.5687 60.821 21.5875C60.9839 22.9832 60.9107 24.3401 60.4525 25.6692C59.5028 28.4246 57.1308 29.6968 54.4224 29.3876C51.8152 29.09 49.9747 27.04 49.6524 23.9889C49.5061 22.6031 49.6037 21.2612 50.086 19.9643C50.9656 17.5986 52.8053 16.303 55.2393 16.3031Z" fill="var(--fill-0, white)"/>
<path id="Fill 9" fill-rule="evenodd" clip-rule="evenodd" d="M19.8024 21.5971H20.3498C21.7426 21.5971 23.1356 21.5971 24.5284 21.5971C25.418 21.5971 25.4401 21.5923 25.2592 20.7138C25.0292 19.5972 24.5191 18.6689 23.3718 18.2927C21.5093 17.6821 19.6201 19.3886 19.8024 21.5971ZM26.7337 26.6582C26.9492 27.1852 27.1461 27.6664 27.3546 28.1761C26.548 28.7838 25.6429 29.1047 24.6861 29.2842C22.9177 29.616 21.2376 29.437 19.7557 28.2986C18.3948 27.2532 17.7741 25.7752 17.516 24.1262C17.2763 22.5954 17.396 21.0802 17.9877 19.6362C18.6369 18.0512 19.7131 16.893 21.3969 16.4699C24.2205 15.7605 26.7333 17.3343 27.4254 20.2704C27.6518 21.2315 27.7007 22.2357 27.84 23.291C27.5209 23.3057 27.3339 23.3216 27.147 23.3218C24.8802 23.3235 22.6135 23.3221 20.3466 23.3235C19.7607 23.3239 19.7075 23.3918 19.805 23.9829C20.1251 25.9252 21.1311 27.1217 22.8122 27.4723C24.0301 27.7263 25.1815 27.4325 26.2801 26.886C26.4093 26.8217 26.5381 26.7565 26.7337 26.6582Z" fill="var(--fill-0, white)"/>
<path id="Fill 11" fill-rule="evenodd" clip-rule="evenodd" d="M78.3 28.3586C78.5427 27.8122 78.78 27.2785 79.0302 26.7153C79.4203 26.9051 79.7825 27.0986 80.1576 27.2603C81.1551 27.6906 82.1845 27.8002 83.2292 27.4841C83.8716 27.2896 84.3921 26.9117 84.5205 26.1759C84.6507 25.4302 84.3514 24.8356 83.7525 24.4472C83.203 24.0909 82.6076 23.8103 82.0295 23.5022C81.564 23.254 81.0765 23.0446 80.6294 22.7655C79.3481 21.9659 78.8024 20.7506 79.0259 19.2479C79.2494 17.7456 80.1713 16.8032 81.6011 16.4883C83.3785 16.0969 85.1067 16.3206 86.7517 17.1421C86.8222 17.1773 86.8843 17.2301 87 17.3083C86.7958 17.7813 86.6045 18.2619 86.3725 18.7205C86.3373 18.7899 86.0954 18.8042 85.9763 18.762C85.0727 18.4414 84.1672 18.122 83.196 18.1702C82.82 18.1888 82.431 18.2495 82.0781 18.379C81.0422 18.7593 80.8017 20.0053 81.6475 20.7324C82.0922 21.1145 82.6357 21.3815 83.1538 21.6625C83.7722 21.9978 84.4281 22.2608 85.0375 22.6111C86.4586 23.4277 86.9729 24.721 86.774 26.3504C86.6088 27.7035 85.6167 28.7594 84.1014 29.1536C82.2711 29.6299 80.4814 29.517 78.7607 28.6621C78.6607 28.6123 78.5612 28.5604 78.4647 28.5036C78.4243 28.48 78.3924 28.4411 78.3 28.3586Z" fill="var(--fill-0, white)"/>
<path id="Fill 13" fill-rule="evenodd" clip-rule="evenodd" d="M72.645 16.7628C72.0928 18.1757 71.5782 19.5009 71.0571 20.8232C69.9938 23.5203 68.9199 26.2129 67.8694 28.9155C67.7245 29.288 67.5576 29.4431 67.1545 29.4325C65.9873 29.4022 65.9903 29.4222 65.5759 28.3001C64.2252 24.6421 62.8714 20.9854 61.52 17.3278C61.4589 17.1626 61.4094 16.9926 61.335 16.7655C62.0332 16.7655 62.6759 16.7454 63.3156 16.7831C63.4383 16.7903 63.604 17.0037 63.6571 17.1573C64.6579 20.0537 65.6445 22.9556 66.6355 25.8558C66.6908 26.0178 66.7595 26.1751 66.877 26.4749C67.286 25.3901 67.6434 24.4483 67.9963 23.5045C68.782 21.4026 69.5737 19.3029 70.3415 17.1937C70.464 16.8573 70.623 16.738 70.9583 16.7555C71.4906 16.7831 72.0252 16.7628 72.645 16.7628Z" fill="var(--fill-0, white)"/>
<path id="Fill 15" fill-rule="evenodd" clip-rule="evenodd" d="M74.385 16.3347C74.5096 16.3213 74.6027 16.303 74.696 16.3026C75.3039 16.3 75.9118 16.3012 76.56 16.3012V28.9802H74.385V16.3347Z" fill="var(--fill-0, white)"/>
<path id="Fill 17" fill-rule="evenodd" clip-rule="evenodd" d="M76.995 12.4299C76.9983 13.3639 76.3671 14.0358 75.4852 14.0368C74.6084 14.038 73.9484 13.3539 73.95 12.446C73.9516 11.5665 74.6082 10.8761 75.4516 10.8671C76.3599 10.8574 76.9917 11.4972 76.995 12.4299Z" fill="var(--fill-0, white)"/>
</g>
</svg>
