<svg preserveAspectRatio="none" width="76" height="31.1404" overflow="visible" style="display: block;"
     viewBox="0 0 76 31.1404" fill="none" xmlns="http://www.w3.org/2000/svg">
    <g id="Fesb logo">
        <path id="Fill 1" fill-rule="evenodd" clip-rule="evenodd"
              d="M74.1297 15.9073C73.9228 15.6317 73.928 15.468 74.128 15.1945C75.6046 13.1755 76.2352 10.9138 75.9195 8.42582C75.4904 5.04361 73.704 2.59129 70.7108 1.00147C69.6697 0.448552 68.5421 0.174344 67.3858 0H46.5699C46.5093 0.0161613 46.4496 0.0402507 46.3878 0.0474166C44.527 0.262011 42.8812 0.973259 41.4315 2.16119C37.7651 5.16551 36.8139 10.4105 39.2953 14.4436C41.1513 17.4603 43.9061 19.024 47.4612 19.103C49.3684 19.1455 50.5373 21.0808 49.6256 22.7576C49.1454 23.641 48.3586 24.0187 47.3627 24.018C41.6022 24.0136 35.8417 24.016 30.0812 24.0157C29.5115 24.0157 28.9409 24.0329 28.3722 24.008C27.5944 23.9739 26.9488 23.6487 26.5077 22.9969C25.9492 22.1714 25.8949 21.2885 26.348 20.4035C26.8017 19.5173 27.574 19.1115 28.5494 19.1101C33.1452 19.1035 37.7409 19.1075 42.3367 19.1049C42.478 19.1048 42.6332 19.1478 42.8583 18.9855C42.7675 18.9515 42.7177 18.9376 42.6721 18.9149C41.9316 18.5458 41.2512 18.0858 40.6296 17.5405C40.4721 17.4023 40.2932 17.3875 40.0993 17.3876C36.1999 17.3896 32.3004 17.3792 28.4011 17.3935C25.8616 17.4027 23.8909 19.8791 24.4153 22.3657C24.84 24.3794 26.4943 25.7291 28.5719 25.7307C34.8516 25.7358 41.1311 25.7329 47.4106 25.7317C47.6257 25.7316 47.8429 25.7351 48.0553 25.7079C50.0442 25.4526 51.6203 23.6669 51.6701 21.62C51.7174 19.6815 50.2263 17.8364 48.3159 17.4671C47.667 17.3417 47.0042 17.3997 46.3521 17.3073C41.9236 16.6791 38.9032 12.403 39.7926 8.01416C40.5451 4.30035 43.7142 1.70158 47.5238 1.69724C53.8033 1.69007 60.0829 1.69358 66.3624 1.69907C66.7661 1.69945 67.1756 1.72133 67.5724 1.79009C70.752 2.34064 72.9514 4.12547 73.9076 7.20816C74.8671 10.3014 74.0655 13.0332 71.7603 15.307C71.5461 15.5183 71.5674 15.6109 71.772 15.8076C73.8134 17.7703 74.64 20.1767 74.1462 22.9543C73.4626 26.7997 70.2617 29.4043 66.3519 29.4076C62.579 29.4108 58.8063 29.412 55.0335 29.4022C54.6845 29.4012 54.4012 29.4736 54.1389 29.7131C53.6789 30.1332 53.147 30.4555 52.6107 30.7696C52.4813 30.8454 52.2244 30.8621 52.2745 31.0538C52.3118 31.1965 52.5448 31.1196 52.6886 31.1197C57.259 31.1233 61.8294 31.1228 66.3999 31.1226C68.732 31.1225 70.7885 30.3662 72.5803 28.8739C76.4437 25.6563 77.1374 19.9137 74.1297 15.9073Z"
              fill="var(--fill-0, white)"/>
        <path id="Fill 4" fill-rule="evenodd" clip-rule="evenodd"
              d="M0.260839 16.5799C0.597041 15.9677 0.979479 15.3859 1.43119 14.8545C1.62397 14.6276 1.69698 14.3943 1.70048 14.0978C1.72177 12.3009 1.60435 10.5009 1.76519 8.70727C1.93363 6.82776 2.73471 5.22642 4.07206 3.91774C5.64143 2.38196 7.56845 1.69533 9.75083 1.69526C13.5205 1.69518 17.2902 1.69259 21.0598 1.70021C21.3583 1.70075 21.5908 1.61887 21.8131 1.42143C22.3358 0.957403 22.9283 0.591411 23.5375 0.252329C23.6572 0.185702 23.8005 0.148958 23.8547 0H8.66071C7.5029 0.154447 6.37521 0.420117 5.33398 0.967771C2.29029 2.5688 0.494226 5.05345 0.0466165 8.48642C0.0384795 8.5484 0.0158937 8.60839 0 8.6693V16.8824C0.167454 16.8516 0.196884 16.6963 0.260839 16.5799Z"
              fill="var(--fill-0, white)"/>
        <path id="Fill 7" fill-rule="evenodd" clip-rule="evenodd"
              d="M18.9801 9.43841C18.9298 11.7557 18.9695 14.0749 18.9731 16.3933C18.9733 16.5328 18.922 16.6912 19.0398 16.815C19.1809 16.7595 19.2031 16.6377 19.255 16.5408C19.5433 16.0035 19.8503 15.4686 20.2633 15.0267C20.6083 14.6573 20.6839 14.2698 20.6885 13.7924C20.7055 12.0205 20.5414 10.2401 20.7649 8.47796C21.0773 6.01535 22.3548 4.13782 24.4567 2.83043C25.7616 2.01879 27.2068 1.6977 28.7291 1.69632C32.488 1.69289 36.2469 1.69206 40.0057 1.70082C40.318 1.70158 40.5614 1.61834 40.795 1.41411C41.3307 0.946121 41.9257 0.560537 42.5551 0.229231C42.6669 0.170303 42.7873 0.124183 42.8474 0H27.5773C26.2641 0.183949 24.9968 0.521506 23.8504 1.20844C20.7447 3.06912 19.059 5.79588 18.9801 9.43841Z"
              fill="var(--fill-0, white)"/>
        <path id="Fill 9" fill-rule="evenodd" clip-rule="evenodd"
              d="M17.5066 11.9888C14.8609 12.0033 12.2141 11.9495 9.56967 12.0075C5.62279 12.0941 2.74245 13.9532 0.919311 17.4501C0.392081 18.4613 0.155272 19.5634 6.09198e-05 20.6847V31.1031C0.392081 31.1097 0.784176 31.1206 1.1762 31.1218C1.69225 31.1231 1.69392 31.1199 1.69407 30.5862C1.69468 27.6336 1.68845 24.6812 1.69704 21.7287C1.70114 20.3258 1.98016 18.9816 2.69165 17.7565C4.05691 15.4056 6.08287 14.0587 8.79727 13.7746C9.98428 13.6503 11.1746 13.7287 12.3633 13.7186C14.0975 13.704 15.8319 13.7075 17.566 13.7211C17.9003 13.7237 18.0252 13.6084 18.0059 13.283C17.9901 13.0178 17.9843 12.7493 18.0074 12.4852C18.041 12.1007 17.8885 11.9867 17.5066 11.9888Z"
              fill="var(--fill-0, white)"/>
        <path id="Fill 11" fill-rule="evenodd" clip-rule="evenodd"
              d="M47.4775 26.6897C44.3249 26.7027 41.1722 26.693 38.0195 26.693C38.0195 26.6899 38.0195 26.6869 38.0195 26.6838C34.7403 26.6838 31.4606 26.714 28.1818 26.6739C25.7532 26.644 23.3308 24.5804 23.3624 21.5034C23.3924 18.5836 25.6483 16.436 28.5674 16.4339C31.9733 16.4313 35.3792 16.4332 38.7851 16.4331C38.8864 16.4331 38.9881 16.4377 39.0889 16.431C39.1848 16.4247 39.3091 16.464 39.3557 16.3432C39.3928 16.2475 39.2976 16.1862 39.2484 16.1157C39.002 15.7628 38.7321 15.4237 38.517 15.0526C38.3491 14.7628 38.1468 14.6615 37.8145 14.6634C35.5228 14.6766 33.231 14.6621 30.9394 14.674C29.915 14.6792 28.8908 14.6332 27.8659 14.7224C23.9404 15.0642 21.0301 18.8649 21.7411 22.7397C22.3492 26.0532 25.184 28.441 28.5542 28.4459C34.8469 28.4552 41.1396 28.4485 47.4323 28.4489C47.8898 28.4489 48.3409 28.3905 48.7895 28.3083C52.2008 27.6833 54.7036 24.3253 54.3215 20.8863C53.9274 17.3385 50.9949 14.7094 47.4072 14.6673C45.3918 14.6436 43.8777 13.7184 42.9399 11.9529C41.977 10.1402 42.1035 8.30992 43.2429 6.62191C44.253 5.12547 45.7252 4.40522 47.5474 4.40896C51.523 4.41704 55.4988 4.41033 59.4744 4.41147C61.8927 4.41216 64.3117 4.38152 66.7291 4.42809C69.3463 4.47848 71.6795 6.67078 71.5956 9.70673C71.5165 12.5667 69.2667 14.6672 66.3999 14.6695C62.9813 14.6722 59.5627 14.6702 56.1441 14.6704C56.0302 14.6704 55.9162 14.67 55.8023 14.673C55.5725 14.6793 55.5384 14.766 55.6743 14.9524C55.9277 15.3001 56.196 15.6411 56.4083 16.0134C56.5879 16.3278 56.8051 16.4422 57.1677 16.4406C60.257 16.4275 63.3464 16.4323 66.4358 16.435C66.701 16.4353 66.9698 16.4365 67.2308 16.4769C70.1992 16.9371 71.915 19.6593 71.5487 22.3045C71.2201 24.6776 69.167 26.6027 66.7704 26.6795C65.8344 26.7095 64.8969 26.6926 63.9599 26.6932C61.6809 26.6945 59.4018 26.6928 57.1228 26.6952C56.9254 26.6954 56.7054 26.6515 56.5749 26.867C56.2926 27.3335 55.9912 27.7865 55.6523 28.2141C55.5545 28.3376 55.5798 28.4282 55.7486 28.4418C55.8619 28.4508 55.9762 28.4486 56.0902 28.4486C59.4834 28.4489 62.8767 28.4502 66.2699 28.4465C66.5729 28.4461 66.8771 28.4252 67.1783 28.3922C70.0926 28.0737 72.4716 25.9564 73.1389 23.093C73.793 20.2865 72.5843 17.3527 70.1249 15.7773C69.7779 15.555 69.7822 15.5614 70.1185 15.3382C72.1397 13.9965 73.2467 12.104 73.3144 9.68584C73.4221 5.83725 70.2782 2.66598 66.4001 2.65904C60.1074 2.64769 53.8147 2.65615 47.522 2.65569C47.0644 2.65569 46.6133 2.71424 46.1646 2.79641C42.7499 3.4219 40.2396 6.81775 40.6429 10.2651C41.0559 13.796 43.9842 16.4079 47.5586 16.4335C51.0432 16.4583 53.485 19.9024 52.3624 23.2089C51.6418 25.3315 49.7693 26.6803 47.4775 26.6897Z"
              fill="var(--fill-0, white)"/>
        <path id="Fill 13" fill-rule="evenodd" clip-rule="evenodd"
              d="M57.0028 20.9461C56.7826 17.9407 55.4248 15.5627 53.0138 13.791C51.361 12.5765 49.4828 12.0139 47.4341 11.993C45.9922 11.9784 44.9283 10.811 45.0241 9.41847C45.1242 7.96418 46.1441 7.09078 47.6092 7.08888C49.85 7.08591 52.0909 7.08796 54.3319 7.08796C58.3578 7.08804 62.3839 7.08591 66.4099 7.08979C67.5584 7.09094 68.4844 7.76346 68.794 8.79862C69.2829 10.434 68.1414 11.9915 66.436 11.9941C61.891 12.0011 57.3461 11.999 52.8011 12.0007C52.6871 12.0007 52.5731 11.9985 52.4593 12.0034C52.3869 12.0066 52.2896 11.9841 52.2572 12.0669C52.2096 12.1876 52.3325 12.2117 52.401 12.2494C52.8563 12.5001 53.3406 12.725 53.7087 13.0876C54.2607 13.6313 54.8938 13.7339 55.6364 13.7279C59.2823 13.6985 62.9287 13.7183 66.5748 13.7121C68.6386 13.7086 70.6749 11.9387 70.6223 9.48006C70.5652 6.80918 68.2732 5.33843 66.3342 5.35363C60.0804 5.40307 53.8259 5.37174 47.5716 5.37365C47.3191 5.37373 47.062 5.36984 46.8147 5.41215C44.8242 5.75245 43.3327 7.47378 43.2945 9.46077C43.2561 11.4547 44.6681 13.2356 46.6572 13.6301C47.2848 13.7546 47.9443 13.7088 48.5803 13.8017C53.0643 14.4561 56.0221 18.6223 55.1653 23.0667C54.4426 26.8159 51.2417 29.4039 47.4187 29.4069C41.2151 29.4118 35.0115 29.4072 28.8078 29.41C28.2364 29.4103 27.668 29.3757 27.1088 29.2641C24.1576 28.6752 22.1034 26.9714 21.1233 24.1356C20.1232 21.2416 20.702 18.5658 22.7259 16.2744C24.2581 14.5396 26.2635 13.7374 28.566 13.7196C31.2119 13.6991 33.858 13.7148 36.504 13.7147C36.8079 13.7147 37.1121 13.7043 37.4155 13.7173C37.6944 13.7292 37.7854 13.6432 37.6756 13.3643C37.5596 13.0703 37.447 12.7707 37.3784 12.4635C37.2985 12.1049 37.1209 11.9855 36.7472 11.9877C34.0633 12.0037 31.3792 11.9991 28.6952 11.9941C28.0984 11.993 27.5089 12.0435 26.9197 12.1368C21.8233 12.945 18.2093 17.9823 19.0739 23.0791C19.8696 27.7694 23.8256 31.1174 28.5829 31.122C31.7101 31.125 34.8372 31.1226 37.9643 31.1226C41.1167 31.1226 44.2692 31.1196 47.4216 31.1257C47.917 31.1266 48.4091 31.0961 48.8963 31.0221C53.7709 30.2824 57.3635 25.8671 57.0028 20.9461Z"
              fill="var(--fill-0, white)"/>
        <path id="Fill 15" fill-rule="evenodd" clip-rule="evenodd"
              d="M66.5339 24.0124C66.0658 24.0227 65.5973 24.0159 65.1289 24.016C62.7999 24.0163 60.4708 24.0203 58.1419 24.0111C57.8413 24.0099 57.6775 24.0923 57.6067 24.4045C57.5314 24.7362 57.4149 25.0621 57.2826 25.3763C57.1557 25.678 57.2453 25.7406 57.5462 25.7384C59.0904 25.7271 60.6347 25.7331 62.1789 25.7331V25.7292C63.6599 25.7292 65.1411 25.746 66.6217 25.7253C68.8133 25.6946 70.6848 23.7252 70.6357 21.5303C70.5835 19.2031 68.7402 17.3952 66.4058 17.3901C64.3047 17.3854 62.2034 17.3889 60.1023 17.3888C59.2794 17.3888 58.4567 17.3875 57.634 17.3895C57.1698 17.3908 57.1636 17.4055 57.3159 17.828C57.4101 18.09 57.5206 18.3506 57.5734 18.6217C57.6477 19.0023 57.839 19.1183 58.227 19.116C60.9863 19.0995 63.7457 19.1003 66.5051 19.1108C67.8543 19.116 68.8887 20.1883 68.8939 21.5505C68.8993 22.9213 67.8853 23.9826 66.5339 24.0124Z"
              fill="var(--fill-0, white)"/>
        <path id="Fill 17" fill-rule="evenodd" clip-rule="evenodd"
              d="M4.40961 25.902H4.41151C4.41151 24.4323 4.39729 22.9623 4.41455 21.4926C4.44824 18.6273 6.66925 16.4389 9.53491 16.4343C11.9527 16.4303 14.3704 16.4333 16.7882 16.4333C18.0146 16.4332 18.0146 16.4332 18.0031 15.2079C17.9983 14.6959 17.9768 14.6712 17.4681 14.671C14.8225 14.67 12.1769 14.6669 9.53134 14.6752C9.17902 14.6763 8.82274 14.7144 8.47536 14.7756C5.02072 15.3845 2.65963 18.2051 2.65628 21.7217C2.65354 24.6487 2.65567 27.5757 2.65582 30.5027C2.65582 30.6041 2.6594 30.7055 2.65811 30.8068C2.65544 31.0272 2.7578 31.1286 2.98267 31.1233C3.29903 31.1159 3.61705 31.1031 3.93158 31.1278C4.29493 31.1563 4.41919 31.0195 4.41592 30.6536C4.40124 29.0699 4.40961 27.4859 4.40961 25.902Z"
              fill="var(--fill-0, white)"/>
        <path id="Fill 19" fill-rule="evenodd" clip-rule="evenodd"
              d="M19.5518 4.02255C19.7451 3.68279 19.996 3.37618 20.213 3.04922C20.2785 2.95057 20.4401 2.86939 20.368 2.73255C20.3004 2.60395 20.1389 2.65822 20.0182 2.65799C18.2456 2.65495 16.4729 2.65586 14.7003 2.65578C14.5611 2.65571 14.4217 2.65342 14.2825 2.65601C12.4351 2.69055 10.5838 2.55622 8.74046 2.72386C6.07405 2.96635 3.62429 5.07815 2.93257 7.67401C2.44366 9.50915 2.72724 11.381 2.66526 13.2362C2.65659 13.4957 2.79949 13.4469 2.95591 13.3342C3.31531 13.0752 3.6674 12.8012 4.04954 12.5803C4.33334 12.4163 4.41935 12.2098 4.41464 11.9C4.40163 11.051 4.39699 10.2013 4.41677 9.35265C4.47958 6.65989 6.62782 4.4955 9.31477 4.42003C10.1498 4.39663 10.986 4.41165 11.8216 4.41134C14.164 4.41058 16.5065 4.40555 18.8488 4.41721C19.1809 4.41889 19.3864 4.31308 19.5518 4.02255Z"
              fill="var(--fill-0, white)"/>
        <path id="Fill 21" fill-rule="evenodd" clip-rule="evenodd"
              d="M38.5043 4.04859C38.7014 3.69647 38.958 3.37797 39.1848 3.04217C39.2515 2.9433 39.4181 2.86905 39.3487 2.73076C39.283 2.59964 39.1199 2.65849 39.0001 2.65826C37.2023 2.65483 35.4046 2.6559 33.6068 2.6562C31.8977 2.65651 30.1884 2.645 28.4794 2.65895C25.351 2.68441 22.5969 4.8501 21.8583 7.88666C21.4303 9.64695 21.708 11.4457 21.6468 13.2262C21.638 13.4793 21.773 13.4531 21.9352 13.3355C22.2834 13.083 22.6222 12.8123 22.9928 12.5973C23.275 12.4335 23.3609 12.2335 23.353 11.9207C23.3336 11.1608 23.3346 10.3999 23.3496 9.63978C23.3782 8.2028 23.827 6.92636 24.8639 5.90005C25.8855 4.88898 27.1195 4.40277 28.5621 4.40803C31.6511 4.41946 34.7402 4.40787 37.8293 4.41634C38.1409 4.41717 38.3447 4.33393 38.5043 4.04859Z"
              fill="var(--fill-0, white)"/>
        <path id="Fill 23" fill-rule="evenodd" clip-rule="evenodd"
              d="M17.567 17.3827C14.8341 17.3943 12.1009 17.376 9.36814 17.395C7.22994 17.41 5.38384 19.2891 5.37281 21.4295C5.36506 22.9367 5.37129 24.4439 5.37106 25.951C5.37076 27.5216 5.37791 29.0922 5.36492 30.6626C5.36224 30.9985 5.45228 31.1611 5.81312 31.1268C6.0513 31.1041 6.29351 31.1232 6.53389 31.1226C7.08089 31.1211 7.08272 31.1208 7.08279 30.5771C7.08348 27.626 7.08165 24.675 7.08378 21.724C7.085 20.118 8.09026 19.109 9.68746 19.1076C11.6992 19.1057 13.711 19.1071 15.7228 19.107C16.3554 19.107 16.9883 19.0976 17.6206 19.1107C17.9 19.1165 18.0127 19.0071 18.0042 18.733C17.9948 18.4293 17.9898 18.1243 18.0061 17.8213C18.0236 17.4966 17.9015 17.3812 17.567 17.3827Z"
              fill="var(--fill-0, white)"/>
        <path id="Fill 25" fill-rule="evenodd" clip-rule="evenodd"
              d="M18.3927 5.37224C16.8614 5.37148 15.3301 5.37193 13.7988 5.37193V5.37491C12.3307 5.37491 10.8625 5.36401 9.39468 5.37765C7.55017 5.39465 5.84985 6.78384 5.46764 8.59748C5.25676 9.59811 5.40421 10.6182 5.37608 11.6291C5.36969 11.8589 5.51669 11.8156 5.66292 11.7666C6.03464 11.6424 6.40559 11.5147 6.78187 11.406C6.99876 11.3434 7.09131 11.2261 7.08537 10.9981C7.0745 10.5804 7.08256 10.1621 7.08324 9.74402C7.08583 8.08657 8.0758 7.08983 9.7267 7.08869C12.435 7.08678 15.1433 7.08389 17.8516 7.09387C18.1545 7.09502 18.3158 7.00842 18.3875 6.70295C18.4624 6.38392 18.5833 6.07541 18.6898 5.76423C18.82 5.38421 18.8143 5.37247 18.3927 5.37224Z"
              fill="var(--fill-0, white)"/>
        <path id="Fill 27" fill-rule="evenodd" clip-rule="evenodd"
              d="M28.7195 7.08846C31.4037 7.08686 34.0879 7.08328 36.7719 7.09395C37.102 7.09525 37.287 7.01277 37.3557 6.66438C37.4141 6.36868 37.5379 6.08532 37.6396 5.79899C37.7833 5.39488 37.7732 5.37331 37.3417 5.37285C35.8096 5.37102 34.2777 5.37209 32.7457 5.37209V5.37468C31.2897 5.37468 29.8335 5.36302 28.3776 5.37743C26.247 5.39847 24.4283 7.18132 24.3599 9.30942C24.3358 10.0563 24.346 10.8041 24.3342 11.5514C24.3307 11.7705 24.387 11.8582 24.6239 11.7726C25.0044 11.6352 25.3908 11.5131 25.7792 11.3999C25.9845 11.34 26.0638 11.219 26.0612 11.0131C26.0561 10.5949 26.0603 10.1766 26.0613 9.75843C26.0655 8.06249 27.0324 7.08946 28.7195 7.08846Z"
              fill="var(--fill-0, white)"/>
    </g>
</svg>
