<svg width="64" height="64" viewBox="0 0 64 64" fill="none" xmlns="http://www.w3.org/2000/svg">
<path d="M19.288 10.8135C30.3221 8.23224 41.4804 14.5928 44.8817 25.4023H48.952L50.3563 21.8916C50.745 20.9197 51.6865 20.2824 52.7333 20.2822H61.2401C62.6539 20.2822 63.8005 21.4281 63.8007 22.8418V30.5225C63.8004 31.9361 62.6538 33.082 61.2401 33.082H52.7333C51.6867 33.0818 50.746 32.4444 50.3573 31.4727L48.952 27.9619H24.12C22.5671 27.9621 21.1674 28.8982 20.5731 30.333C19.9789 31.7679 20.307 33.4194 21.4052 34.5176C22.5033 35.6157 24.1549 35.9439 25.5897 35.3496C27.0246 34.7553 27.9608 33.3549 27.9608 31.8018C27.9564 31.3649 27.8759 30.9323 27.7245 30.5225H30.3925C30.9329 33.1732 29.7477 35.8769 27.4325 37.2764C25.1172 38.6758 22.1718 38.4687 20.076 36.7578C17.9804 35.047 17.1872 32.2028 18.0946 29.6543C19.0022 27.1058 21.4148 25.4035 24.12 25.4023H33.6093C31.5032 22.2146 27.9406 20.2925 24.12 20.2822C17.758 20.2825 12.6006 25.4397 12.6005 31.8018C12.6005 38.1639 17.7579 43.322 24.12 43.3223C30.4823 43.3223 35.6405 38.1641 35.6405 31.8018C35.6217 31.3732 35.5789 30.9461 35.5116 30.5225H38.1366C38.1752 30.9446 38.2001 31.3701 38.2001 31.8018C38.236 38.8967 32.9625 44.899 25.9218 45.7754C18.881 46.6518 12.2971 42.1256 10.5927 35.2383C8.88828 28.351 12.6014 21.2771 19.2382 18.7686C25.875 16.26 33.3398 19.1095 36.6171 25.4023H42.204C38.8467 15.9759 28.8309 10.6897 19.1542 13.2373C9.47755 15.7849 3.36338 25.3173 5.08289 35.1748C6.80245 45.0324 15.7831 51.9319 25.7509 51.0527C35.7186 50.1735 43.3538 41.8082 43.3212 31.8018C43.3212 31.3701 43.2841 30.9472 43.2557 30.5225H45.8153C45.8401 30.9485 45.8807 31.3696 45.8807 31.8018C45.9335 43.1337 37.2422 52.5909 25.9462 53.4932C14.6501 54.3954 4.56784 46.4378 2.82117 35.2412C1.07462 24.0447 8.25393 13.3947 19.288 10.8135ZM52.7333 22.8418L51.1971 26.6816L52.7333 30.5225H61.2401V22.8418H52.7333Z" fill="#30CEC2" fill-opacity="0.4"/>
</svg>
