<svg preserveAspectRatio="none" width="100%" height="100%" overflow="visible" style="display: block;" viewBox="0 0 135.194 40.3335" fill="none" xmlns="http://www.w3.org/2000/svg">
<g id="Futura it logo">
<path id="Stroke 1" d="M134.362 19.1579C134.29 18.6521 134.522 18.1114 134.131 17.4651C132.455 17.4651 130.704 17.4045 128.959 17.484C127.521 17.5497 125.755 19.4043 125.721 21.1899C125.618 26.6055 125.684 32.0241 125.684 37.5246H129.286V27.7911C129.286 25.929 129.332 24.0653 129.268 22.2056C129.232 21.1581 129.583 20.7738 130.597 20.8341C131.793 20.9052 132.997 20.8507 134.198 20.8507C134.34 20.3428 134.557 19.835 134.198 19.3271" stroke="var(--stroke-0, white)" stroke-width="1.6"/>
<path id="Stroke 3" d="M27.4422 22.7981H16.1916V37.3669C17.205 37.6692 18.3327 37.3922 19.6084 37.5246V26.3446C21.0488 26.3446 22.3292 26.3638 23.6086 26.3402C25.6737 26.3023 27.0622 25.1178 27.6088 22.967" stroke="var(--stroke-0, white)" stroke-width="1.6"/>
<path id="Stroke 5" d="M50.6513 30.3289C50.3131 31.0321 50.4534 31.4966 51.313 31.4742C52.1961 31.4511 53.0954 31.6381 54.1267 31.2574C54.1267 28.4618 54.1363 25.6019 54.1227 22.7419C54.1155 21.1276 53.8272 20.6486 56.113 20.7552C57.1069 20.8013 58.1049 20.7627 59.1743 20.7627V17.4641C57.385 17.4641 55.6704 17.4064 53.9622 17.4819C52.5413 17.5449 50.7804 19.2028 50.6676 20.5991C50.4101 23.7837 50.3362 26.9751 50.6513 30.1639" stroke="var(--stroke-0, white)" stroke-width="1.6"/>
<path id="Stroke 7" d="M84.5225 26.2852C86.4158 25.8016 88.0239 24.9641 88.7249 22.7981H78.7585C78.5521 24.3245 78.495 25.7176 79.9912 26.8142C80.8949 27.4768 81.6687 28.3748 82.332 29.2881C83.8402 31.3637 85.8143 31.8605 88.1962 31.2667" stroke="var(--stroke-0, white)" stroke-width="1.6"/>
<path id="Stroke 9" d="M100.142 27.531C99.1473 24.4483 98.1099 21.3782 97.1797 18.276C96.8414 17.1474 96.0206 17.5589 95.3836 17.443C93.6279 22.084 91.8831 26.6966 90.0681 31.4946C91.0706 31.4946 91.9588 31.482 92.8462 31.4995C93.3301 31.5091 93.5486 31.4126 93.7111 30.8442C94.0975 29.4916 94.652 28.1846 95.1786 26.8747C95.3381 26.478 95.2436 25.893 95.9954 25.8557C96.7008 25.8207 96.7592 26.4043 96.789 26.7089C96.8925 27.7615 97.5796 27.7173 98.3182 27.6988C98.8707 27.6849 99.4235 27.6961 99.9764 27.6961" stroke="var(--stroke-0, white)" stroke-width="1.6"/>
<path id="Stroke 11" d="M101.485 31.1509C101.428 30.9998 101.336 30.8518 101.319 30.6974C101.157 29.1991 100.246 28.6628 98.5619 28.8628C97.5468 28.9833 96.4976 28.8848 95.4409 28.8848C95.9315 31.1642 97.879 31.8984 101.485 31.302" stroke="var(--stroke-0, white)" stroke-width="1.6"/>
<path id="Stroke 13" d="M109.877 37.0942C111.387 37.7864 112.542 37.6253 112.791 36.6039C112.899 36.1623 113.075 35.5244 112.492 35.1702C111.825 34.7639 111.138 34.7961 110.36 34.9659C109.588 35.1345 109.537 35.5421 109.545 36.1291C109.559 37.0404 109.549 37.9521 109.549 38.8634" stroke="var(--stroke-0, white)" stroke-width="1.6"/>
<path id="Stroke 15" d="M14.8484 14.7654V7.61431C9.81444 7.40007 4.93344 7.84783 0.0730462 7.40218" stroke="var(--stroke-0, white)" stroke-width="1.6"/>
<path id="Stroke 17" d="M48.9069 36.5486C49.7972 36.1906 50.7756 36.5422 51.7866 36.3216C51.7229 35.0298 50.9172 34.7593 49.8851 34.8693C49.1487 34.9478 48.2598 35.1468 48.4563 36.0794C48.6388 36.9448 49.1464 37.7135 50.3735 37.4834C50.7389 37.415 51.1303 37.4729 51.51 37.4729" stroke="var(--stroke-0, white)" stroke-width="1.6"/>
<path id="Stroke 19" d="M97.0437 36.3889C98.0476 36.2906 99.1018 36.6229 100.142 36.1147C99.749 34.8044 98.8972 34.7254 97.706 34.9361C96.495 35.1506 96.8257 35.7739 96.8247 36.5468C96.824 37.3946 97.4271 37.3868 97.8852 37.466C98.5317 37.5785 99.2168 37.4945 99.8854 37.4945" stroke="var(--stroke-0, white)" stroke-width="1.6"/>
<path id="Stroke 21" d="M9.81132 8.07156V22.1287" stroke="var(--stroke-0, white)" stroke-width="1.6"/>
<path id="Stroke 23" d="M94.281 37.3441C94.8217 37.0192 95.6012 36.8495 95.412 35.9285C95.2537 35.1559 94.6055 34.9411 93.9522 34.8627C93.196 34.7718 92.5518 35.0792 92.1708 35.7627C92.0006 36.0684 92.0643 36.6109 92.4799 36.7976C92.9785 37.0227 93.3425 37.5702 93.9525 37.5216" stroke="var(--stroke-0, white)" stroke-width="1.6"/>
<path id="Stroke 25" d="M40.3693 34.8471C40.4279 35.2948 40.572 35.7488 40.5275 36.1891C40.4223 37.2237 41.0938 37.5521 42.1222 37.5228C43.0854 37.4957 43.8529 37.2354 43.7102 36.1894C43.6503 35.7477 43.7004 35.2948 43.7004 34.8471" stroke="var(--stroke-0, white)" stroke-width="1.6"/>
<path id="Stroke 27" d="M90.7372 37.5246C90.7372 37.1565 90.7299 36.7884 90.7388 36.4205C90.7653 35.3386 90.1922 34.8442 89.1465 34.8471C88.0994 34.8499 87.2805 35.1231 87.3918 36.4209C87.4233 36.7865 87.3966 37.1565 87.3966 37.5246" stroke="var(--stroke-0, white)" stroke-width="1.6"/>
<path id="Stroke 29" d="M33.6533 34.1777C33.9976 34.7343 33.6487 35.2972 33.6766 35.8463C33.7323 36.9373 34.2833 37.5922 35.417 37.5191C36.4216 37.4545 37.0583 37.0278 37.0086 35.8475C36.9846 35.2916 37.0044 34.7343 37.0044 34.1777" stroke="var(--stroke-0, white)" stroke-width="1.6"/>
<path id="Stroke 31" d="M73.2983 34.8471C73.2983 35.2941 73.3424 35.745 73.2893 36.1876C73.1796 37.0972 73.8867 37.4078 74.6906 37.5067C75.4519 37.6006 76.2649 37.3282 76.3728 36.6296C76.461 36.0612 76.8876 35.4431 76.4225 34.8471" stroke="var(--stroke-0, white)" stroke-width="1.6"/>
<path id="Stroke 33" d="M117.54 35.648C116.402 34.6189 115.583 34.5785 114.346 35.5443C115.137 36.5843 116.836 35.7483 117.604 36.8327C116.434 37.7467 115.443 37.7467 114.246 36.8827" stroke="var(--stroke-0, white)" stroke-width="1.6"/>
<path id="Stroke 35" d="M64.5706 34.1777C64.5706 34.685 64.5095 35.2049 64.5844 35.6974C64.7058 36.4994 65.1638 36.8552 65.8903 36.8552C66.6172 36.8552 67.0748 36.4994 67.1962 35.6974C67.2711 35.2049 67.2101 34.685 67.2101 34.1777" stroke="var(--stroke-0, white)" stroke-width="1.6"/>
<path id="Stroke 37" d="M83.3521 26.145C85.3222 27.7398 86.8958 29.7558 88.7249 31.5002" stroke="var(--stroke-0, white)" stroke-width="1.6"/>
<path id="Stroke 39" d="M19.5496 0.708299C18.6436 1.18403 18.9186 1.92522 18.913 2.58258C18.8911 5.08152 18.904 7.58079 18.904 10.0797" stroke="var(--stroke-0, white)" stroke-width="1.6"/>
<path id="Stroke 41" d="M47.757 35.3189C45.9658 34.3777 45.0865 34.8418 45.0716 36.7369C45.0694 36.9993 45.0713 37.2621 45.0713 37.5246" stroke="var(--stroke-0, white)" stroke-width="1.6"/>
<path id="Stroke 43" d="M79.994 35.1799C77.941 34.3899 77.3076 34.9426 77.3076 37.5246" stroke="var(--stroke-0, white)" stroke-width="1.6"/>
<path id="Stroke 45" d="M104.172 35.1656C101.926 34.4449 101.485 34.8321 101.485 37.5246" stroke="var(--stroke-0, white)" stroke-width="1.6"/>
<path id="Stroke 47" d="M55.6555 34.8621C56.1303 34.8621 56.6082 34.8956 57.0792 34.8553C58.1459 34.7641 58.4162 35.442 58.4957 36.2585C58.5799 37.1264 57.8908 37.3816 57.2346 37.4759C56.4952 37.5819 55.7128 37.5745 55.1446 36.8256C55.6884 35.2001 57.2733 36.3881 58.1877 35.7924" stroke="var(--stroke-0, white)" stroke-width="1.6"/>
<path id="Stroke 49" d="M25.594 9.74503H14.8484" stroke="var(--stroke-0, white)" stroke-width="1.6"/>
<path id="Stroke 51" d="M37.685 33.5083C37.685 34.1169 37.6909 34.7252 37.6839 35.3338C37.6627 37.2057 37.9701 37.535 39.6977 37.5244" stroke="var(--stroke-0, white)" stroke-width="1.6"/>
<path id="Stroke 53" d="M59.1948 33.5083C59.1948 34.117 59.2161 34.7264 59.1908 35.3339C59.1135 37.1807 59.2346 37.3209 61.1891 37.5246" stroke="var(--stroke-0, white)" stroke-width="1.6"/>
<path id="Stroke 55" d="M32.3101 33.5083C30.5253 33.5759 30.1767 33.853 30.3584 35.5121C30.4348 36.208 30.2277 36.8554 30.319 37.5246" stroke="var(--stroke-0, white)" stroke-width="1.6"/>
<path id="Stroke 57" d="M11.9936 3.38586C12.0736 4.72475 11.1897 6.06329 11.9936 7.40218" stroke="var(--stroke-0, white)" stroke-width="1.6"/>
<path id="Stroke 59" d="M22.9076 3.52523C21.5808 4.29904 20.2188 3.64638 18.878 3.85992" stroke="var(--stroke-0, white)" stroke-width="1.6"/>
<path id="Stroke 61" d="M105.552 33.5083C105.552 34.117 105.608 34.7307 105.541 35.3328C105.385 36.7203 105.922 37.5235 107.53 37.5246" stroke="var(--stroke-0, white)" stroke-width="1.6"/>
<path id="Stroke 63" d="M85.3669 33.528C83.7056 33.3663 83.1539 34.2158 83.413 35.5201C83.5519 36.2206 83.2761 36.8587 83.3764 37.5246" stroke="var(--stroke-0, white)" stroke-width="1.6"/>
<path id="Stroke 65" d="M94.2209 37.5246C94.7355 38.0438 95.0734 38.6828 94.3685 39.2368C93.7634 39.7127 93.0964 39.6733 92.7545 38.6844" stroke="var(--stroke-0, white)" stroke-width="1.6"/>
<path id="Stroke 67" d="M67.0315 36.8552C67.6059 38.2584 66.9413 38.89 65.2187 38.8626" stroke="var(--stroke-0, white)" stroke-width="1.6"/>
<path id="Stroke 69" d="M6.11749 15.7695H9.47551" stroke="var(--stroke-0, white)" stroke-width="1.6"/>
<path id="Stroke 71" d="M22.748 10.0797C21.6532 10.7083 23.4773 11.458 22.4122 12.0879" stroke="var(--stroke-0, white)" stroke-width="1.6"/>
<path id="Stroke 73" d="M70.0236 34.8479C69.3059 35.0797 68.5466 35.2204 68.5777 36.2618C68.5964 36.8707 68.8872 37.1927 69.3924 37.3509C70.1133 37.5771 70.7571 37.6647 71.4878 37.0928C71.9816 36.7068 71.961 36.3469 71.909 35.9493C71.779 34.9556 71.007 34.8353 70.1821 34.8479" stroke="var(--stroke-0, white)" stroke-width="1.6"/>
<path id="Stroke 75" d="M73.8061 22.7981C73.0296 23.0011 73.3404 23.6475 73.3346 24.1079C73.3052 26.5091 73.321 28.9107 73.321 31.3318C74.385 31.6488 75.4792 31.3803 76.636 31.5002V22.7981H73.9678" stroke="var(--stroke-0, white)" stroke-width="1.6"/>
<path id="Stroke 77" d="M119.001 17.443C117.783 18.4117 118.982 19.6389 118.276 20.7899H123.648V17.443H119.17" stroke="var(--stroke-0, white)" stroke-width="1.6"/>
<path id="Stroke 79" d="M114.2 17.443C113.569 17.7395 113.585 18.362 113.583 18.9291C113.569 22.8919 113.574 26.8548 113.582 30.8176C113.583 30.9827 113.682 31.1475 113.749 31.3579C114.773 31.5504 115.814 31.5504 116.932 31.3401V17.443H114.356" stroke="var(--stroke-0, white)" stroke-width="1.6"/>
<path id="Stroke 81" d="M73.9342 17.4552C72.7472 18.4458 73.9148 19.7007 73.278 20.7899H88.7249C87.8033 18.4433 86.3378 17.4148 84.141 17.4436C80.7942 17.4875 77.4463 17.4552 74.0988 17.4552" stroke="var(--stroke-0, white)" stroke-width="1.6"/>
<path id="Stroke 83" d="M60.5446 17.443C59.7255 17.9854 59.8466 18.8134 59.8594 19.5914C59.9046 22.346 59.9432 25.101 60.0357 27.8542C60.1033 29.8506 61.8729 31.4481 63.9948 31.4864C65.202 31.5082 66.4099 31.5003 67.6174 31.4884C70.2727 31.4623 71.9126 29.9029 71.926 27.3588C71.9429 24.1077 71.9301 20.8567 71.9301 17.5256H68.3075V27.9372H63.6498V17.443H60.7171" stroke="var(--stroke-0, white)" stroke-width="1.6"/>
<path id="Stroke 85" d="M44.1942 17.443C43.4013 18.4914 44.1526 19.6211 43.7274 20.7899H49.1002V17.443H44.3664" stroke="var(--stroke-0, white)" stroke-width="1.6"/>
<path id="Stroke 87" d="M30.8577 17.443C30.0316 17.648 30.3609 18.3008 30.3561 18.7657C30.3275 21.6865 30.3832 24.6084 30.3261 27.5282C30.2914 29.3182 31.9831 31.4758 34.2983 31.495C35.5025 31.5049 36.7067 31.4976 37.9109 31.4966C40.738 31.4933 42.3816 29.915 42.3833 27.1979C42.385 24.0006 42.3836 20.803 42.3836 17.5257H38.599V28.0246C37.2861 28.0246 36.1359 28.0087 34.9864 28.0289C33.8046 28.0497 33.9577 27.2435 33.9563 26.5365C33.9511 23.9464 33.9645 21.3559 33.9432 18.7657C33.9398 18.3831 34.1345 17.9536 33.6384 17.443H31.0297" stroke="var(--stroke-0, white)" stroke-width="1.6"/>
<path id="Stroke 89" d="M16.9147 17.443C15.7011 18.4117 16.8948 19.6389 16.1916 20.7899H29.6237V17.443H17.083" stroke="var(--stroke-0, white)" stroke-width="1.6"/>
</g>
</svg>
