<svg preserveAspectRatio="none" width="64.301" height="73.1326" overflow="visible" style="display: block;" viewBox="0 0 64.301 73.1326" fill="none" xmlns="http://www.w3.org/2000/svg">
<g id="Grad Split logo">
<path id="Fill 1" fill-rule="evenodd" clip-rule="evenodd" d="M0 0V4.38795H2.18692V2.17488H4.38795V0H0Z" fill="var(--fill-0, white)"/>
<g id="Group 94">
<path id="Fill 2" fill-rule="evenodd" clip-rule="evenodd" d="M64.301 73.1326C63.1271 73.125 61.9532 73.1171 60.7796 73.1098C60.5789 73.1086 60.3782 73.1098 60.1483 73.1098V71.0297H62.2527V68.8546H64.301V73.1326Z" fill="var(--fill-0, white)"/>
<path id="Fill 4" fill-rule="evenodd" clip-rule="evenodd" d="M64.301 4.47053H62.263V2.31435H60.095V0.192525H64.301V4.47053Z" fill="var(--fill-0, white)"/>
<g id="Group 8">
<mask id="mask0_0_4" style="mask-type:alpha" maskUnits="userSpaceOnUse" x="25" y="0" width="6" height="3">
<g id="mask 2">
<path id="Vector" d="M25.7331 0.192525H30.0118V2.32679H25.7331V0.192525Z" fill="var(--fill-0, white)"/>
</g>
</mask>
<g mask="url(#mask0_0_4)">
<path id="Fill 6" fill-rule="evenodd" clip-rule="evenodd" d="M25.7442 2.32678C25.741 1.61534 25.738 0.903891 25.7346 0.192445H30.0118V2.31525H25.7331L25.7442 2.32678Z" fill="var(--fill-0, white)"/>
</g>
</g>
<mask id="mask1_0_4" style="mask-type:alpha" maskUnits="userSpaceOnUse" x="0" y="0" width="65" height="74">
<g id="mask 4">
<path id="Vector_2" d="M7.56985e-08 73.1325H64.301V0.192454H7.56985e-08V73.1325Z" fill="var(--fill-0, white)"/>
</g>
</mask>
<g mask="url(#mask1_0_4)">
<path id="Fill 9" fill-rule="evenodd" clip-rule="evenodd" d="M42.915 2.27754H47.192V0.192525H42.915V2.27754Z" fill="var(--fill-0, white)"/>
<path id="Fill 11" fill-rule="evenodd" clip-rule="evenodd" d="M38.5664 0.192525C38.5715 0.809488 38.5848 1.42645 38.5725 2.04292C38.5711 2.13201 38.4468 2.29422 38.3775 2.29521C37.0629 2.31042 35.7477 2.30625 34.3604 2.30625V0.192525H38.5664Z" fill="var(--fill-0, white)"/>
<path id="Fill 12" fill-rule="evenodd" clip-rule="evenodd" d="M51.5405 2.27876H55.7465V0.192525H51.5405V2.27876Z" fill="var(--fill-0, white)"/>
<path id="Fill 13" fill-rule="evenodd" clip-rule="evenodd" d="M21.386 0.192525C21.3922 0.809488 21.4064 1.42645 21.3951 2.04317C21.3934 2.13201 21.2684 2.29422 21.1989 2.29521C19.8837 2.31018 18.5684 2.30625 17.1803 2.30625V0.192525H21.386Z" fill="var(--fill-0, white)"/>
<path id="Fill 14" fill-rule="evenodd" clip-rule="evenodd" d="M8.62574 2.27876H12.8318V0.192525H8.62574V2.27876Z" fill="var(--fill-0, white)"/>
<path id="Fill 15" fill-rule="evenodd" clip-rule="evenodd" d="M64.301 30.21H62.2487V25.931L62.2372 25.9423L64.301 25.932V30.21Z" fill="var(--fill-0, white)"/>
<path id="Fill 16" fill-rule="evenodd" clip-rule="evenodd" d="M64.301 55.9491H62.2507V51.6922L64.301 51.6711V55.9491Z" fill="var(--fill-0, white)"/>
<path id="Fill 17" fill-rule="evenodd" clip-rule="evenodd" d="M64.301 47.3932C63.6152 47.3895 62.9296 47.3858 62.2441 47.3824V43.1152H64.301V47.3932Z" fill="var(--fill-0, white)"/>
<path id="Fill 18" fill-rule="evenodd" clip-rule="evenodd" d="M62.2866 13.0265H64.301V8.81987H62.2866V13.0265Z" fill="var(--fill-0, white)"/>
<path id="Fill 19" fill-rule="evenodd" clip-rule="evenodd" d="M64.301 21.5826C63.708 21.5873 63.1148 21.6005 62.5224 21.5875C62.4332 21.5856 62.2708 21.4619 62.2701 21.3932C62.2551 20.0783 62.259 18.7633 62.259 17.3758H64.301V21.5826Z" fill="var(--fill-0, white)"/>
<path id="Fill 20" fill-rule="evenodd" clip-rule="evenodd" d="M62.2863 38.7659H64.301V34.559H62.2863V38.7659Z" fill="var(--fill-0, white)"/>
<path id="Fill 21" fill-rule="evenodd" clip-rule="evenodd" d="M62.2866 64.5051H64.301V60.2982H62.2866V64.5051Z" fill="var(--fill-0, white)"/>
<path id="Fill 22" fill-rule="evenodd" clip-rule="evenodd" d="M17.524 56.0697C17.2938 56.0697 17.0796 56.0506 16.8721 56.0798C16.7945 56.0903 16.6751 56.2125 16.6731 56.2867C16.6571 56.8911 16.6584 57.496 16.6724 58.1007C16.6741 58.1731 16.7785 58.2958 16.8463 58.3044C17.0595 58.3312 17.2779 58.3142 17.5628 58.3142C17.3066 57.7319 17.086 57.2305 16.8767 56.7551C17.1148 56.5156 17.6851 56.7002 17.524 56.0697ZM46.7996 58.3177C47.0678 58.3177 47.2702 58.3461 47.4574 58.3059C47.5537 58.2853 47.6907 58.1444 47.6939 58.0536C47.7153 57.4737 47.7119 56.8926 47.6964 56.3122C47.6942 56.2302 47.5888 56.0915 47.5178 56.0822C47.2913 56.0523 47.058 56.0712 46.8445 56.0712C46.6689 56.7191 47.312 56.4948 47.4812 56.7701C47.2651 57.2607 47.0479 57.7535 46.7996 58.3177ZM16.8016 62.6887C16.8016 62.9734 16.8129 63.2588 16.7984 63.543C16.7824 63.8527 16.9929 63.8105 17.1789 63.808C17.3592 63.8055 17.5716 63.8659 17.5638 63.5496C17.55 63.004 17.5495 62.4575 17.5643 61.912C17.5726 61.604 17.3732 61.6408 17.1853 61.643C17.002 61.6452 16.7846 61.5946 16.7991 61.9053C16.8112 62.166 16.8016 62.4276 16.8016 62.6887ZM47.5682 62.7233C47.5682 62.4384 47.5687 62.1537 47.5679 61.8688C47.5667 61.577 47.3437 61.6474 47.181 61.6454C47.0157 61.6435 46.802 61.5843 46.8045 61.8776C46.8092 62.4472 46.8069 63.0168 46.8055 63.5864C46.805 63.8858 47.0307 63.8026 47.1896 63.8053C47.3535 63.8082 47.5719 63.8713 47.5687 63.5776C47.566 63.2929 47.5684 63.008 47.5682 62.7233ZM47.4751 51.4017C47.4751 51.0452 47.4839 50.6886 47.4684 50.333C47.465 50.2483 47.3923 50.1099 47.3311 50.0979C47.2334 50.0782 47.069 50.1102 47.0219 50.1801C46.9204 50.3305 46.8244 50.517 46.8168 50.6928C46.7915 51.2619 46.8146 51.8327 46.8033 52.4028C46.7991 52.6261 46.8905 52.6914 47.099 52.6877C47.3063 52.6838 47.4834 52.6806 47.4768 52.3993C47.4692 52.0668 47.4751 51.7343 47.4751 51.4017ZM16.8902 50.1271C16.8902 50.9075 16.8802 51.6975 16.8957 52.4867C16.9015 52.7657 17.1491 52.6644 17.3091 52.6818C17.4874 52.7012 17.564 52.6214 17.5618 52.4354C17.5552 51.8437 17.5716 51.2513 17.5552 50.6599C17.5434 50.2441 17.3076 50.0547 16.8902 50.1271ZM16.9224 49.4812C16.7625 49.185 16.7446 48.8348 16.3955 48.8181C15.7576 48.7879 15.1168 48.8016 14.4779 48.8198C14.3956 48.822 14.261 48.9508 14.2462 49.0372C14.1792 49.4321 14.2325 49.4794 14.6432 49.4809C14.9512 49.4821 15.259 49.4812 15.567 49.4812H16.9224ZM47.4726 49.4809C48.2754 49.4809 49.0444 49.4731 49.8135 49.4856C50.0628 49.4898 50.1402 49.4048 50.1422 49.1582C50.1446 48.899 50.0673 48.795 49.7983 48.8036C49.3006 48.819 48.8025 48.8075 48.3046 48.8075C47.7224 48.8075 47.6809 48.8389 47.4726 49.4809ZM15.1303 59.9992C15.1303 59.7141 15.1512 59.4269 15.119 59.1454C15.1079 59.05 14.9785 58.9322 14.8768 58.8924C14.763 58.8482 14.6073 58.8487 14.4924 58.8909C14.3909 58.9283 14.2504 59.047 14.247 59.1346C14.2251 59.7038 14.2268 60.2743 14.2462 60.8437C14.2492 60.9274 14.3727 61.041 14.4656 61.0785C14.5678 61.12 14.6997 61.0839 14.8178 61.0913C15.0411 61.1058 15.146 61.0191 15.134 60.7826C15.1204 60.5222 15.1308 60.2603 15.1303 59.9992ZM50.1346 60.0115C50.1346 59.7266 50.126 59.4412 50.1373 59.1565C50.1459 58.9533 50.0552 58.8755 49.8646 58.8799C49.746 58.8826 49.6271 58.8826 49.5084 58.8799C49.3176 58.8752 49.2326 58.954 49.236 59.1565C49.2454 59.7148 49.2284 60.2736 49.2508 60.8309C49.2545 60.92 49.3928 61.0358 49.4944 61.0795C49.5949 61.1225 49.7283 61.0844 49.8467 61.0911C50.0594 61.1028 50.1471 61.0106 50.1373 60.7953C50.126 60.5347 50.1348 60.2729 50.1346 60.0115ZM50.1348 65.6132C50.1348 65.2935 50.123 64.9732 50.1378 64.6542C50.1532 64.3266 49.9273 64.3643 49.732 64.372C49.5509 64.3791 49.3029 64.2897 49.3068 64.6309C49.3142 65.2937 49.3166 65.9573 49.306 66.6202C49.3001 66.9684 49.5468 66.8697 49.7261 66.8747C49.914 66.8801 50.1513 66.9458 50.1373 66.6079C50.1238 66.2768 50.1346 65.9448 50.1348 65.6132ZM15.0617 65.6304C15.0617 65.3104 15.0465 64.9899 15.0659 64.6714C15.0848 64.356 14.8851 64.3577 14.6758 64.3707C14.4835 64.3828 14.2253 64.2848 14.2322 64.6493C14.2443 65.3003 14.246 65.9522 14.2317 66.6032C14.2234 66.974 14.4818 66.8641 14.6719 66.8764C14.8755 66.8894 15.0853 66.9142 15.0657 66.5892C15.0465 66.2707 15.0617 65.9499 15.0617 65.6304ZM49.1663 55.4724C49.4004 55.4724 49.588 55.4581 49.7728 55.4758C50.0439 55.5016 50.1567 55.414 50.1407 55.1234C50.1181 54.7104 50.1353 54.2956 50.1353 53.8814C50.1353 53.209 50.052 53.1336 49.3815 53.2497C49.3001 53.2637 49.1776 53.3844 49.1756 53.4583C49.1596 54.1074 49.1663 54.757 49.1663 55.4724ZM15.2057 54.3533V53.8917C15.2057 53.2031 15.1423 53.1412 14.4644 53.2504C14.3779 53.2642 14.2489 53.4006 14.2462 53.4833C14.2276 54.0745 14.232 54.6667 14.2425 55.2581C14.2438 55.3283 14.3145 55.4405 14.3762 55.4601C14.9541 55.6424 15.2057 55.4525 15.2057 54.8503V54.3533ZM34.8086 7.66561H34.2628C33.1157 7.66537 33.1157 7.66537 33.2091 8.82493C33.21 8.83671 33.2051 8.85365 33.2113 8.85978C33.2904 8.9393 33.3665 9.07943 33.4512 9.08507C33.829 9.10986 34.21 9.1074 34.5883 9.08679C34.6649 9.08286 34.7951 8.96212 34.7988 8.88972C34.8199 8.50124 34.8086 8.11128 34.8086 7.66561ZM39.8781 37.9488C39.8474 37.9277 39.8166 37.9069 39.7859 37.886C39.473 38.3506 39.1382 38.7535 38.5234 38.3245V40.3909C38.5843 40.4015 38.6101 40.4145 38.6295 40.4081C38.9896 40.2925 39.3497 40.1767 39.7083 40.0566C40.0751 39.9339 40.3281 39.2816 40.0593 39.0021C39.855 38.7891 39.8918 38.5874 39.8795 38.3641C39.8719 38.2261 39.8781 38.0872 39.8781 37.9488ZM18.2501 38.4097V40.4984C18.7473 40.3448 19.2088 40.2039 19.6684 40.0571C19.7207 40.0405 19.8013 39.9919 19.8025 39.9558C19.8126 39.6377 19.9162 39.2556 19.7774 39.0181C19.636 38.7759 19.6387 38.5653 19.6193 38.3302C19.608 38.1967 19.6048 38.0624 19.5922 37.8195C19.3434 38.0862 19.2009 38.3469 18.987 38.4367C18.7853 38.5216 18.5083 38.4264 18.2501 38.4097ZM44.8451 37.8948C44.8134 37.9088 44.7814 37.9226 44.7497 37.9363C44.7497 38.0835 44.7544 38.2313 44.7485 38.3783C44.7416 38.5417 44.7886 38.7678 44.7009 38.8568C44.3842 39.1786 44.594 39.5504 44.5473 39.893C44.541 39.9391 44.6144 40.0277 44.6677 40.0451C45.1428 40.2005 45.6215 40.3445 46.1145 40.4964V38.4492C45.8414 38.4492 45.5667 38.5211 45.3675 38.4293C45.1558 38.3324 45.016 38.0796 44.8451 37.8948ZM25.8333 40.4503V38.4124C25.5506 38.4276 25.2755 38.5169 25.0726 38.4325C24.8641 38.3459 24.7258 38.0894 24.4863 37.8313C24.474 38.0862 24.4693 38.2247 24.4602 38.3631C24.4492 38.5273 24.4981 38.7599 24.4089 38.8426C24.1363 39.0964 24.2505 39.3965 24.2497 39.6753C24.2492 39.7793 24.3667 39.9386 24.4681 39.9789C24.8948 40.1482 25.3357 40.2822 25.8333 40.4503ZM49.6723 52.6764C49.6858 52.6462 49.6991 52.6163 49.7123 52.5863C49.6138 52.4793 49.5269 52.3574 49.4139 52.2688C49.1884 52.0923 49.1147 51.8786 49.123 51.5919C49.1425 50.9232 49.1282 50.9134 49.8179 50.8935C50.0668 50.8861 50.1594 50.7936 50.1373 50.5519C50.1243 50.4049 50.1351 50.2557 50.1351 50.0797C49.4709 50.0797 48.8676 50.0714 48.265 50.09C48.1859 50.0925 48.0459 50.2321 48.0442 50.3109C48.027 51.0221 48.029 51.7338 48.0418 52.4447C48.043 52.5228 48.1422 52.6641 48.2004 52.6661C48.6905 52.684 49.1815 52.6764 49.6723 52.6764ZM14.5894 52.6767C15.1764 52.6767 15.6692 52.6843 16.1607 52.6663C16.2202 52.6644 16.3221 52.524 16.3236 52.4462C16.3366 51.734 16.3363 51.0214 16.3243 50.3089C16.3231 50.2329 16.2231 50.0942 16.1664 50.093C15.5311 50.0773 14.8954 50.0829 14.2681 50.0829C14.1762 50.8768 14.1762 50.8768 14.8814 50.8896C14.9053 50.8901 14.9293 50.892 14.9527 50.8898C15.1649 50.8687 15.2307 50.9588 15.245 51.175C15.2777 51.6798 15.2489 52.1441 14.7687 52.4521C14.7233 52.4813 14.6965 52.5402 14.5894 52.6767ZM46.8087 55.4454H48.5667C48.5667 54.7563 48.5733 54.0937 48.5561 53.4315C48.5542 53.3658 48.4075 53.2526 48.324 53.2492C47.8971 53.2305 47.4687 53.2306 47.042 53.2497C46.9617 53.2534 46.8207 53.3719 46.819 53.4401C46.8018 54.1015 46.8087 54.7639 46.8087 55.4454ZM17.5591 55.4572C17.5591 54.7661 17.5645 54.1148 17.5513 53.4639C17.5498 53.3903 17.4456 53.2575 17.3857 53.2556C16.8684 53.2389 16.3506 53.246 15.836 53.246V55.4572H17.5591ZM14.2349 56.0893C14.2349 56.5021 14.2298 56.869 14.2366 57.2357C14.2433 57.5768 14.133 58.0617 14.3101 58.2207C14.5142 58.4038 14.9765 58.3125 15.327 58.3167C16.0747 58.3255 16.0747 58.3194 16.0747 57.5679V56.0893H14.2349ZM48.6404 58.8919C48.0585 58.8919 47.5063 58.8856 46.9548 58.9022C46.9027 58.904 46.8136 59.05 46.8119 59.1302C46.7996 59.6986 46.7964 60.2677 46.8151 60.8356C46.8178 60.9217 46.946 61.0727 47.0216 61.0761C47.4942 61.0979 47.9686 61.0945 48.4419 61.0778C48.5099 61.0753 48.6301 60.9588 48.6315 60.893C48.6458 60.2437 48.6404 59.5936 48.6404 58.8919ZM17.5601 59.9813C17.5601 59.7082 17.5515 59.4343 17.563 59.1616C17.5716 58.966 17.5014 58.877 17.3014 58.8792C16.862 58.8838 16.4223 58.8841 15.9829 58.8779C15.7893 58.8755 15.7006 58.9543 15.7021 59.1511C15.7065 59.7094 15.6933 60.2682 15.7161 60.8258C15.7196 60.9166 15.8674 61.0722 15.9556 61.0773C16.4054 61.1028 16.8583 61.1021 17.3086 61.0776C17.3963 61.0726 17.538 60.9276 17.5486 60.8353C17.5802 60.5539 17.5599 60.2665 17.5601 59.9813ZM50.1331 56.0692C49.548 56.0692 49.027 56.0574 48.5075 56.0808C48.4225 56.0847 48.2776 56.2398 48.2741 56.3294C48.2525 56.898 48.2638 57.4673 48.2618 58.0367C48.2614 58.2197 48.3237 58.3245 48.5303 58.3209C48.9808 58.313 49.4318 58.3294 49.8816 58.3081C49.9685 58.3039 50.1198 58.1758 50.122 58.1012C50.141 57.4408 50.1331 56.7797 50.1331 56.0692ZM16.2049 62.7262C16.2049 62.4654 16.1966 62.2042 16.2076 61.9439C16.216 61.7402 16.156 61.6354 15.931 61.6398C15.457 61.6491 14.9826 61.6464 14.5088 61.641C14.317 61.6386 14.2298 61.7073 14.233 61.9105C14.2413 62.4555 14.2249 63.0016 14.2465 63.5459C14.2502 63.6362 14.3921 63.792 14.4759 63.796C14.9726 63.82 15.471 63.8041 15.9686 63.8097C16.1617 63.8119 16.2103 63.7145 16.2064 63.5442C16.1998 63.2718 16.2044 62.9989 16.2049 62.7262ZM50.1348 62.7248C50.1348 62.4641 50.127 62.203 50.1373 61.9426C50.1456 61.736 50.0754 61.6364 49.855 61.6403C49.3812 61.6481 48.9071 61.6476 48.4333 61.6405C48.2368 61.6376 48.1602 61.7124 48.1633 61.9124C48.1722 62.4575 48.1727 63.0028 48.1633 63.5479C48.1599 63.754 48.2466 63.8144 48.4382 63.8112C48.9003 63.8036 49.3628 63.8014 49.8246 63.8122C50.0501 63.8176 50.1508 63.7432 50.1378 63.5069C50.1238 63.2467 50.1348 62.9856 50.1348 62.7248ZM15.6562 64.3734V66.1654C15.6562 66.8786 15.6562 66.8859 16.3621 66.8737C16.5515 66.8702 16.8202 66.8734 16.9136 66.7598C17.1688 66.4479 17.4223 66.0979 17.5385 65.7205C17.6416 65.3853 17.5734 64.9921 17.5503 64.6267C17.5449 64.5383 17.4216 64.3877 17.3479 64.3847C16.8065 64.3639 16.2639 64.3734 15.6562 64.3734ZM48.7123 65.6449C48.7123 65.3251 48.7008 65.0046 48.716 64.6856C48.7271 64.4574 48.648 64.3543 48.4161 64.3678C48.2744 64.3761 48.1314 64.3636 47.9897 64.369C47.6136 64.383 47.0798 64.26 46.9032 64.4564C46.7033 64.6787 46.8163 65.1892 46.8084 65.5745C46.8057 65.7117 46.8133 65.8682 46.8755 65.9841C47.2032 66.5946 47.6121 67.0864 48.4191 66.8783C48.4304 66.8756 48.4429 66.8766 48.4547 66.8778C48.6617 66.9009 48.7204 66.7959 48.7146 66.6045C48.705 66.2849 48.7121 65.9647 48.7123 65.6449ZM26.5241 56.3868C26.5577 56.4054 26.5916 56.4243 26.6255 56.4432C27.4857 54.9312 28.7414 53.904 30.357 53.3037H26.5241V56.3868ZM34.0052 53.3088C35.6362 53.8998 36.8744 54.9514 37.7523 56.4516L37.8385 56.391V53.3088H34.0052ZM26.2838 56.95C23.3822 55.8493 20.5352 55.9556 17.6606 57.0874C17.7718 57.3289 17.8676 57.537 17.9632 57.7437C18.7617 57.4519 19.4969 57.0668 20.2756 56.9316C21.0707 56.7934 21.9108 56.9399 22.727 56.8899C23.7346 56.8278 24.6722 56.9988 25.5754 57.4504C26.0603 57.6929 26.0765 57.6612 26.2522 57.1336C26.2669 57.0896 26.2686 57.041 26.2838 56.95ZM38.0807 56.9539C38.248 57.6727 38.2478 57.6722 38.8825 57.4146C39.1018 57.3257 39.3296 57.2543 39.5408 57.149C39.9436 56.9483 40.3617 56.8847 40.8112 56.8936C41.8318 56.9137 42.8532 56.894 43.8743 56.9051C44.0696 56.9073 44.273 56.9517 44.4574 57.0185C45.0995 57.2509 45.7347 57.5017 46.4016 57.7569C46.5063 57.5147 46.5964 57.3063 46.694 57.0808C43.8004 55.9551 40.9512 55.8469 38.0807 56.9539ZM17.4881 67.0413C18.8809 67.5451 20.0965 68.4634 21.659 68.2389C21.9965 68.1905 22.3497 68.2033 22.6907 68.2374C23.6664 68.3341 24.5659 68.1216 25.4212 67.657C25.7592 67.4735 26.12 67.3319 26.4693 67.1716C26.1677 66.5151 26.1397 66.4737 25.5973 66.8418C24.7241 67.4342 23.7909 67.6852 22.7472 67.5596C22.5598 67.537 22.3652 67.5373 22.1778 67.5593C20.7593 67.7272 19.4522 67.4295 18.2717 66.6216C17.9639 66.4108 17.7802 66.5024 17.6313 66.7986C17.6004 66.8607 17.5611 66.9186 17.4881 67.0413ZM37.8629 67.1812C39.0259 67.5844 39.9992 68.4006 41.305 68.2416C41.7962 68.1817 42.3044 68.1967 42.7992 68.2396C43.6901 68.3169 44.5071 68.1218 45.2975 67.723C45.7996 67.4695 46.327 67.2658 46.8433 67.0398C46.5407 66.4049 46.5097 66.3581 45.9848 66.6943C44.8401 67.4276 43.612 67.7105 42.2701 67.5591C42.0824 67.538 41.8881 67.5368 41.7009 67.5593C40.582 67.6953 39.5649 67.4465 38.6627 66.7664C38.3645 66.5416 38.1566 66.5956 38.0029 66.9259C37.9734 66.9893 37.9358 67.0489 37.8629 67.1812ZM32.5051 52.634H34.715V50.1013H32.5051V52.634ZM29.6016 50.08C29.6016 50.9023 29.5975 51.6933 29.6098 52.484C29.6107 52.5429 29.7259 52.6497 29.7898 52.6509C30.4181 52.6641 31.047 52.6668 31.6751 52.6502C31.7463 52.6482 31.8723 52.5095 31.874 52.4322C31.8895 51.7205 31.889 51.0081 31.8743 50.2967C31.8725 50.223 31.7475 50.0913 31.6773 50.0895C31.003 50.0736 30.3285 50.08 29.6016 50.08ZM26.6764 41.4175C26.6457 41.3824 26.6336 41.3556 26.6142 41.3487C26.4256 41.2798 26.2298 41.227 26.0471 41.1455C24.7651 40.5747 23.4281 40.4056 22.0287 40.4577C20.9835 40.4967 19.9501 40.479 18.9563 40.882C18.4468 41.0886 17.9096 41.2275 17.3823 41.3981C17.6733 42.0968 17.6927 42.137 18.2953 41.8477C19.5458 41.2471 20.8501 41.0187 22.2245 41.1409C22.307 41.1482 22.3913 41.1492 22.4735 41.1406C23.6612 41.0204 24.7705 41.2565 25.8319 41.8072C26.3892 42.0963 26.4091 42.058 26.672 41.468C26.6766 41.4577 26.6742 41.4447 26.6764 41.4175ZM37.6845 41.3963C37.9113 42.0536 37.9574 42.1036 38.5158 41.8155C39.5877 41.2621 40.7056 41.0209 41.9075 41.137C42.2367 41.1689 42.5739 41.1654 42.904 41.1372C43.7623 41.0646 44.5746 41.2108 45.3538 41.5748C45.5893 41.6847 45.8379 41.7672 46.0808 41.8612C46.6647 42.0867 46.6652 42.0867 46.9371 41.5267C46.9516 41.497 46.9514 41.4602 46.9575 41.4283C44.3528 40.2282 40.5983 39.9698 37.6845 41.3963ZM37.6295 48.8851C37.9277 49.572 37.9938 49.6299 38.6098 49.3204C39.6228 48.8112 40.6756 48.677 41.8016 48.6784C43.271 48.6804 44.7129 48.6927 46.0465 49.4151C46.0565 49.4205 46.0695 49.4208 46.0806 49.4247C46.6239 49.6058 46.9187 49.422 47.0017 48.8856C46.4982 48.7447 45.99 48.6333 45.5031 48.4603C44.5515 48.1223 43.5825 47.9795 42.5729 48.0335C41.9097 48.0691 41.2433 48.0359 40.5781 48.0433C40.402 48.0453 40.2183 48.057 40.0515 48.1086C39.2509 48.356 38.4553 48.6188 37.6295 48.8851ZM17.3466 48.899C17.5441 49.5099 17.7571 49.621 18.3515 49.4056C18.4518 49.3693 18.5525 49.3322 18.6483 49.2858C19.6158 48.8168 20.6269 48.5925 21.7077 48.6949C22.0727 48.7295 22.4458 48.7265 22.8113 48.6954C23.7565 48.6144 24.6477 48.7771 25.4902 49.2134C25.5948 49.2677 25.7081 49.3057 25.8181 49.3501C26.4096 49.5896 26.5221 49.5307 26.6943 48.916C25.1429 48.2244 23.5281 47.8892 21.8251 48.0354C21.436 48.0688 21.041 48.0278 20.6499 48.045C20.4159 48.0553 20.1781 48.0894 19.9528 48.1515C19.0887 48.3903 18.2292 48.6446 17.3466 48.899ZM9.7565 51.4425C8.27384 51.4425 6.79094 51.4383 5.30828 51.4484C5.14617 51.4496 4.83298 51.3338 4.86295 51.6113C4.8826 51.7942 5.1528 51.9586 5.32892 52.1102C5.37682 52.1517 5.48956 52.1191 5.57259 52.1191C8.34827 52.1193 11.124 52.1193 13.8999 52.1193C13.9829 52.1193 14.0934 52.152 14.144 52.111C14.3253 51.9642 14.6078 51.8062 14.6282 51.627C14.6638 51.3119 14.3351 51.4508 14.1693 51.4496C12.6985 51.4373 11.2274 51.4425 9.7565 51.4425ZM9.75601 40.4601C8.91299 40.4601 8.07046 40.4599 7.22744 40.4601C6.52688 40.4601 5.82658 40.4562 5.12627 40.4653C5.03366 40.4665 4.89021 40.5104 4.86344 40.574C4.83323 40.6454 4.88677 40.7769 4.94204 40.8552C5.08574 41.0592 5.27905 41.145 5.54729 41.1441C8.34852 41.134 11.1505 41.1379 13.952 41.1374C14.035 41.1374 14.1504 41.1679 14.1951 41.1254C14.3649 40.9649 14.5113 40.7799 14.6668 40.6039C14.5137 40.5561 14.3609 40.4672 14.2077 40.4662C12.7238 40.4557 11.2399 40.4601 9.75601 40.4601ZM54.6096 51.4425C53.6717 51.4425 52.7339 51.4425 51.7961 51.4425C51.1908 51.4425 50.5853 51.4381 49.9798 51.4479C49.8875 51.4494 49.7413 51.4967 49.7182 51.5591C49.6917 51.6319 49.7543 51.7573 49.8108 51.8369C49.9557 52.0408 50.1476 52.1267 50.4161 52.1257C53.2178 52.1154 56.0195 52.1193 58.821 52.1191C58.904 52.1191 59.0175 52.1503 59.0647 52.1083C59.2319 51.9593 59.4874 51.7954 59.5043 51.6177C59.5316 51.335 59.2236 51.4494 59.0612 51.4481C57.5776 51.4383 56.0934 51.4425 54.6096 51.4425ZM54.6425 40.4601C53.7997 40.4601 52.9564 40.4599 52.1132 40.4601C51.4008 40.4601 50.6885 40.4564 49.9759 40.4653C49.883 40.4662 49.7376 40.5114 49.7131 40.5737C49.6853 40.6451 49.7457 40.773 49.8025 40.8515C49.9481 41.0525 50.1373 41.1453 50.407 41.1443C53.2092 41.1338 56.0119 41.1379 58.8144 41.1377C58.8974 41.1377 59.0106 41.1686 59.058 41.1266C59.2258 40.9782 59.4815 40.816 59.5002 40.6375C59.5304 40.3504 59.2214 40.467 59.06 40.4658C57.5876 40.4559 56.1151 40.4601 54.6425 40.4601ZM37.1697 49.4495C37.0297 48.8968 36.9547 48.8335 36.4487 48.8333C33.6011 48.8325 30.7534 48.8325 27.9063 48.8333C27.413 48.8335 27.3261 48.9084 27.1942 49.4495H37.1697ZM29.0305 51.3669C29.0305 51.0584 29.0168 50.7492 29.0345 50.4417C29.0502 50.173 28.976 50.0586 28.6803 50.0721C28.1595 50.0959 27.6368 50.078 27.1148 50.0787C26.7203 50.0795 26.5084 50.2687 26.499 50.6721C26.4853 51.2533 26.4865 51.8349 26.5052 52.4158C26.5081 52.5 26.6403 52.6492 26.7159 52.6514C27.4035 52.6698 28.0915 52.6713 28.779 52.6506C28.865 52.6479 29.0102 52.4921 29.018 52.3981C29.047 52.0565 29.0296 51.711 29.0305 51.3669ZM35.3397 50.0809C35.3397 50.9031 35.3326 51.6614 35.3498 52.4192C35.3517 52.5017 35.4913 52.6492 35.5703 52.6514C36.2579 52.6703 36.9464 52.6703 37.6339 52.6529C37.716 52.6506 37.8614 52.5122 37.8641 52.4332C37.8835 51.8405 37.9071 51.2439 37.8562 50.6552C37.839 50.4545 37.6244 50.1192 37.478 50.107C36.786 50.0486 36.0862 50.0809 35.3397 50.0809ZM5.18596 68.2784H14.2428C14.0082 67.5579 13.9036 67.4791 13.2313 67.4764C10.9166 67.4676 8.60177 67.456 6.2869 67.4472C5.60992 67.4447 5.46058 67.5569 5.18596 68.2784ZM59.1968 68.284C58.9536 67.723 58.6817 67.4116 58.0227 67.4281C55.7107 67.4865 53.3966 67.4673 51.0832 67.4766C50.4875 67.4789 50.2923 67.6386 50.1304 68.284H59.1968ZM27.1446 43.8708C27.1446 44.7865 27.1387 45.5887 27.1568 46.3902C27.1583 46.4503 27.332 46.5541 27.4275 46.5568C27.9962 46.5728 28.5651 46.5649 29.1342 46.5649C29.4486 46.5652 29.763 46.5649 30.0738 46.5649V43.8784C29.0927 44.4213 28.1426 44.4085 27.1446 43.8708ZM33.6485 43.8686C32.6478 44.4117 31.6967 44.4051 30.7254 43.8848V46.5343H33.6485V43.8686ZM34.2871 46.5637C35.2174 46.5637 36.1051 46.5598 36.9926 46.5664C37.223 46.5681 37.2291 46.4305 37.2287 46.2646C37.2267 45.6015 37.2294 44.9381 37.2264 44.2745C37.2259 44.1749 37.2048 44.0753 37.1825 43.8809C36.2083 44.4129 35.2591 44.4075 34.2871 43.887V46.5637ZM44.5913 41.9201C44.5613 42.0209 44.5424 42.0545 44.5424 42.0882C44.5392 43.8438 44.5358 45.5995 44.5419 47.3554C44.5422 47.442 44.6095 47.5834 44.6765 47.6057C45.1644 47.7684 45.6606 47.9071 46.2199 48.073V42.5355C45.7171 42.3456 45.1698 42.1387 44.5913 41.9201ZM19.8133 41.9039C19.1923 42.1395 18.6367 42.3503 18.1565 42.5324V48.0686C18.6345 47.9289 19.0364 47.7954 19.4468 47.6973C19.7352 47.6286 19.8445 47.4978 19.8413 47.1861C19.8249 45.573 19.8339 43.9597 19.833 42.3466C19.8327 42.2298 19.8229 42.1132 19.8133 41.9039ZM38.4706 47.9945C38.9368 47.8499 39.3261 47.7135 39.724 47.6114C40.0284 47.5331 40.1261 47.3726 40.1232 47.0582C40.1077 45.4577 40.1171 43.8568 40.1146 42.256C40.1144 42.1193 40.0927 41.9826 40.077 41.8C39.4592 42.059 38.8901 42.2973 38.3804 42.5108C38.4175 42.8114 38.4661 43.0296 38.4671 43.2477C38.474 44.6826 38.4706 46.1173 38.4706 47.5522V47.9945ZM24.2998 41.8106C24.2667 41.9107 24.2458 41.9439 24.2458 41.9772C24.2421 43.7344 24.2379 45.4915 24.2438 47.2489C24.2441 47.3343 24.3161 47.471 24.3866 47.4968C24.8695 47.6732 25.3605 47.8264 25.9004 48.0038V47.5488C25.9004 46.1954 25.8965 44.8417 25.9031 43.488C25.9048 43.1758 25.9434 42.8642 25.9687 42.5005C25.4516 42.2867 24.8886 42.054 24.2998 41.8106ZM40.489 37.4386C40.4828 37.5382 40.4637 37.6332 40.4732 37.7252C40.5427 38.3979 40.6115 39.0711 40.7022 39.7411C40.7115 39.8107 40.8616 39.9114 40.9473 39.9123C41.8611 39.9249 42.7751 39.9249 43.6888 39.9126C43.7724 39.9114 43.9178 39.8103 43.9271 39.7411C43.9743 39.396 43.9728 39.0716 44.1325 38.7177C44.2951 38.3574 44.1686 37.8664 44.1686 37.3903C44.0359 37.4482 43.9514 37.4656 43.8925 37.5142C43.6459 37.7164 43.44 37.6926 43.2207 37.4575C43.0674 37.2931 42.8716 37.1684 42.611 36.9583C42.611 37.482 42.6007 37.8826 42.6149 38.2821C42.6235 38.515 42.5125 38.5584 42.3133 38.5589C42.0775 38.5594 42.0428 38.4244 42.0448 38.2364C42.0485 37.8423 42.0458 37.4482 42.0458 37.0541C41.724 37.2104 41.5012 37.3839 41.2919 37.5719C40.9716 37.8588 40.8031 37.3827 40.489 37.4386ZM46.283 50.1185C45.7313 49.9121 45.1718 49.7028 44.5368 49.4652V49.9494C44.5368 51.6604 44.5306 53.3714 44.539 55.0822C44.5434 55.9119 44.4054 55.7276 45.2074 55.9806C45.5247 56.0807 45.8436 56.176 46.2142 56.2893V55.7828C46.2142 54.1076 46.2118 52.4322 46.2172 50.7571C46.2177 50.5489 46.2589 50.3408 46.283 50.1185ZM18.0872 50.1158C18.1108 50.3786 18.1523 50.6316 18.1531 50.8852C18.159 52.5245 18.156 54.1638 18.156 55.8034V56.2884C18.637 56.1433 19.0595 56.0037 19.4891 55.891C19.7521 55.8223 19.8386 55.6859 19.8369 55.413C19.8256 53.5717 19.8317 51.7301 19.8295 49.8888C19.8293 49.7676 19.8069 49.6463 19.79 49.477C19.1732 49.7084 18.6129 49.9187 18.0872 50.1158ZM24.3016 49.367C24.2652 49.4588 24.2416 49.491 24.2416 49.5231C24.2375 51.5058 24.233 53.4885 24.2394 55.4714C24.2397 55.5556 24.319 55.6896 24.392 55.7158C24.8675 55.8856 25.3517 56.0324 25.8992 56.2079V55.7389C25.8992 54.1597 25.8955 52.5802 25.9024 51.0012C25.9036 50.7011 25.9473 50.401 25.9758 50.0468C25.4573 49.8365 24.8921 49.6071 24.3016 49.367ZM20.2184 37.3375C20.1933 37.5326 20.1889 37.6143 20.1717 37.6933C20.0182 38.4068 20.4493 39.0512 20.4222 39.7526C20.4203 39.8054 20.5861 39.9121 20.6748 39.9133C21.5883 39.9251 22.5023 39.9273 23.4153 39.9094C23.505 39.9077 23.6526 39.7661 23.6688 39.6716C23.7211 39.3607 23.7248 39.0649 23.854 38.7435C24.0068 38.3618 23.8896 37.872 23.8896 37.3841C23.7518 37.4401 23.6612 37.4526 23.6062 37.5034C23.3244 37.7628 23.1068 37.6413 22.8808 37.416C22.7364 37.2722 22.5632 37.1574 22.309 36.9544C22.309 37.325 22.352 37.5903 22.2972 37.8332C22.2414 38.0794 22.5698 38.5454 22.0228 38.5405C21.5126 38.5358 21.8197 38.0916 21.7686 37.8538C21.7148 37.6021 21.7565 37.3296 21.7565 37.005C21.2201 37.2538 20.9165 38.0585 20.2184 37.3375ZM38.3794 50.0515C38.4165 50.375 38.4669 50.6164 38.4681 50.8579C38.475 52.483 38.4715 54.1084 38.4715 55.7337V56.2027C38.9437 56.0535 39.3536 55.9058 39.7734 55.7978C40.0593 55.7244 40.136 55.5708 40.1345 55.2905C40.1242 53.4517 40.1298 51.6128 40.1276 49.7739C40.1274 49.6505 40.104 49.5271 40.0866 49.3567C39.4715 49.6071 38.9073 49.8368 38.3794 50.0515ZM32.2172 39.6684C30.412 39.6684 28.6066 39.6782 26.8014 39.6601C26.4504 39.6566 26.4253 39.812 26.4261 40.0861C26.4271 40.3583 26.4482 40.5163 26.8004 40.5148C30.3872 40.5021 33.9742 40.5021 37.561 40.5146C37.909 40.5161 37.9397 40.3629 37.9395 40.0871C37.9393 39.8122 37.9115 39.6569 37.562 39.6603C35.7806 39.678 33.9988 39.6684 32.2172 39.6684ZM16.9858 44.13C16.241 44.651 15.5525 44.635 14.8065 44.1533V46.3463C14.2511 46.4155 14.2413 46.4152 14.2379 46.6476C14.231 47.0985 14.2226 47.5503 14.2475 47.9996C14.2524 48.0889 14.4025 48.2421 14.4879 48.2436C15.4248 48.2615 16.3621 48.2524 17.2992 48.2573C17.4989 48.2583 17.5716 48.1766 17.5662 47.9797C17.5562 47.6359 17.5638 47.2916 17.5638 46.9475C17.5638 46.4501 17.5635 46.4506 17.0737 46.3725C17.0536 46.3694 17.0364 46.3468 16.9858 46.3097V44.13ZM49.5468 44.2704C49.5151 44.2397 49.4834 44.209 49.4515 44.1783C48.7789 44.7214 48.1005 44.5673 47.3805 44.1692V46.3566C47.2739 46.3755 47.2041 46.4027 47.1378 46.3966C46.8548 46.3701 46.762 46.5011 46.7723 46.7718C46.7878 47.1743 46.7799 47.5778 46.778 47.981C46.7772 48.1709 46.8571 48.2588 47.0558 48.2576C47.9921 48.2529 48.9285 48.2536 49.8646 48.2568C50.0587 48.2573 50.1412 48.179 50.1373 47.98C50.1287 47.5652 50.124 47.1498 50.139 46.7355C50.1483 46.4849 50.0815 46.3453 49.8052 46.3794C49.5947 46.4054 49.5379 46.2896 49.546 46.1028C49.5536 45.9372 49.547 45.771 49.5468 45.6051V44.2704ZM32.1725 48.2124C33.8708 48.2124 35.5691 48.2148 37.2674 48.2114C37.968 48.2099 37.8665 48.2826 37.8732 47.6043C37.8774 47.1554 37.8658 47.164 37.4141 47.1652C33.9818 47.1736 30.5496 47.1795 27.1178 47.1763C26.4948 47.1755 26.5155 47.1552 26.4882 47.7599C26.4722 48.1125 26.5634 48.2261 26.935 48.2217C28.6805 48.2011 30.4265 48.2124 32.1725 48.2124ZM43.9465 41.7377C42.936 41.7377 41.9768 41.747 41.0181 41.7318C40.7407 41.7277 40.6805 41.832 40.682 42.0857C40.6906 43.7606 40.6933 45.4356 40.6803 47.1105C40.6781 47.4175 40.7906 47.4919 41.0745 47.487C41.9058 47.4722 42.7375 47.4705 43.5687 47.4877C43.8625 47.4938 43.9559 47.4052 43.9527 47.1071C43.9382 45.8002 43.9465 44.4934 43.9465 43.1866V41.7377ZM23.6813 44.608C23.6813 43.7651 23.6735 42.9221 23.6862 42.0793C23.6904 41.8172 23.6086 41.7279 23.3409 41.7323C22.4745 41.7468 21.6079 41.7468 20.7416 41.7321C20.4785 41.7277 20.3861 41.8104 20.3874 42.0734C20.395 43.7592 20.394 45.4451 20.3883 47.1309C20.3876 47.3819 20.464 47.4911 20.7364 47.4867C21.6025 47.4727 22.4694 47.4739 23.3357 47.4862C23.599 47.4899 23.6897 47.3993 23.686 47.1368C23.6742 46.294 23.6813 45.4508 23.6813 44.608ZM25.5305 17.9299C25.4588 18.4818 25.8248 18.9565 26.3062 18.9567C30.2229 18.9597 34.14 18.9597 38.0567 18.9567C38.5588 18.9565 38.9432 18.4369 38.8174 17.9299H25.5305ZM38.8523 31.7002H25.5374C25.4433 32.2573 25.8265 32.7221 26.3647 32.7223C30.2344 32.7235 34.1039 32.7233 37.9736 32.7225C38.5214 32.7225 38.9029 32.2958 38.8523 31.7002ZM44.5645 57.6771V66.7483C45.1167 66.4651 45.6215 66.2147 46.1143 65.9426C46.1786 65.9068 46.2091 65.7593 46.2093 65.6633C46.2145 63.2995 46.2145 60.9355 46.2091 58.5717C46.2088 58.4769 46.1737 58.3238 46.1118 58.2971C45.6171 58.0828 45.1123 57.8929 44.5645 57.6771ZM19.8082 57.6801C19.3373 57.8585 18.9359 58.0259 18.524 58.1616C18.2489 58.2521 18.1459 58.3923 18.1484 58.6976C18.1636 60.8233 18.1887 62.95 18.1371 65.0746C18.1211 65.7345 18.3004 66.1122 18.9214 66.3132C19.2145 66.4079 19.4834 66.5765 19.8082 66.7335V57.6801ZM24.2586 66.8948C24.584 66.7193 24.8307 66.5446 25.1045 66.4467C25.7552 66.2143 25.9373 65.7985 25.9198 65.1035C25.8645 62.9309 25.9016 60.7561 25.894 58.582C25.8935 58.4436 25.8577 58.2222 25.7707 58.181C25.2947 57.9542 24.7975 57.7716 24.2586 57.5542V66.8948ZM40.1008 57.5571C39.6056 57.7562 39.163 57.9434 38.713 58.1105C38.5253 58.1802 38.4676 58.2882 38.4681 58.4821C38.4733 60.9033 38.4706 63.3245 38.475 65.746C38.4752 65.8437 38.4951 65.9929 38.5583 66.0307C39.0483 66.3242 39.5514 66.5961 40.1008 66.9029V57.5571ZM43.9372 49.2961C42.9483 49.2961 41.989 49.3045 41.0298 49.291C40.7646 49.2873 40.6825 49.3727 40.6837 49.6365C40.6926 51.535 40.6941 53.4338 40.6825 55.3325C40.6808 55.6304 40.8021 55.6891 41.064 55.6854C41.8824 55.6739 42.7019 55.6606 43.5196 55.6905C43.8927 55.7043 43.9814 55.5742 43.9787 55.2267C43.9657 53.3996 43.9735 51.5721 43.9713 49.7445C43.9711 49.6061 43.9507 49.4674 43.9372 49.2961ZM23.6789 52.4901C23.6789 51.5399 23.6722 50.5899 23.6831 49.6399C23.686 49.3805 23.6047 49.2866 23.3367 49.291C22.4701 49.3052 21.603 49.3045 20.7367 49.2912C20.4778 49.287 20.3783 49.3619 20.3795 49.6309C20.3871 51.5308 20.3864 53.4308 20.3802 55.3308C20.3793 55.5853 20.4574 55.6901 20.7276 55.6861C21.5942 55.6729 22.4613 55.6699 23.3276 55.6871C23.6275 55.6932 23.6855 55.5656 23.6828 55.3043C23.673 54.3663 23.6791 53.4281 23.6789 52.4901ZM56.2929 37.246V38.714C55.7255 38.8173 55.7068 38.8033 55.7063 38.3088C55.7058 37.9856 55.7063 37.6622 55.7063 37.3019C55.288 37.4438 54.9429 37.656 54.6015 37.6497C54.2519 37.6433 53.9063 37.4224 53.5047 37.2754V38.7368H52.9095V37.2199C52.1625 37.7807 51.4637 37.7076 50.7324 37.2234C50.7324 38.0882 50.7425 38.8343 50.727 39.5801C50.7216 39.84 50.8265 39.9038 51.0606 39.9033C53.4359 39.8989 55.8115 39.8981 58.1868 39.904C58.4515 39.9045 58.5392 39.8007 58.5343 39.5433C58.5225 38.902 58.5324 38.2605 58.5282 37.619C58.5277 37.5203 58.499 37.4217 58.4791 37.2943C58.0922 37.4261 57.7473 37.6413 57.4081 37.6327C57.0544 37.6239 56.7063 37.3993 56.2929 37.246ZM5.83296 37.2742C5.83296 37.6111 5.82608 37.8821 5.83444 38.1525C5.85212 38.7165 5.87791 39.2799 5.90051 39.8436C6.45491 39.863 7.00931 39.8962 7.56396 39.8989C9.12006 39.9065 10.6762 39.9016 12.2325 39.9016C12.5769 39.9016 12.9225 39.8858 13.2657 39.9057C13.5661 39.9231 13.653 39.8058 13.6444 39.514C13.6253 38.873 13.6398 38.231 13.6378 37.5895C13.6373 37.5009 13.6194 37.4128 13.6054 37.2887C13.2295 37.4268 12.8888 37.6482 12.5462 37.6511C12.1979 37.6543 11.8478 37.4423 11.4393 37.3046V38.7651C11.2217 38.754 11.0515 38.7452 10.8452 38.7346V37.2168C10.1087 37.7064 9.40868 37.7748 8.67595 37.2865C8.63051 37.6695 8.63173 37.9954 8.63026 38.3211C8.6283 38.7972 8.5917 38.8242 8.06309 38.6976V37.246C7.64649 37.4018 7.29646 37.632 6.94348 37.6369C6.59468 37.6416 6.24268 37.4182 5.83296 37.2742ZM32.1526 39.061C32.972 39.061 33.7917 39.0537 34.6111 39.0652C34.8666 39.0689 34.9757 38.9982 34.9626 38.7236C34.9425 38.2968 34.9592 37.8683 34.9558 37.4408C34.9435 36.0307 33.916 34.8728 32.5154 34.6888C31.1531 34.5096 29.7918 35.415 29.5039 36.7846C29.3742 37.4016 29.443 38.0585 29.4037 38.6963C29.3865 38.9773 29.4845 39.0711 29.765 39.0659C30.5606 39.0517 31.3565 39.061 32.1526 39.061ZM40.6899 62.2241C40.6899 63.6956 40.6936 65.1673 40.6857 66.6388C40.6845 66.8877 40.7464 67.0099 41.0215 67.0065C41.8994 66.9956 42.7778 66.9969 43.6557 67.0057C43.9102 67.0084 43.9821 66.8948 43.9819 66.6611C43.9782 63.7179 43.9775 60.7745 43.9829 57.8313C43.9834 57.567 43.8849 57.4872 43.625 57.4914C42.7707 57.5054 41.9161 57.5085 41.062 57.4904C40.7577 57.4838 40.682 57.594 40.6845 57.8803C40.6958 59.3283 40.6899 60.7762 40.6899 62.2241ZM20.38 62.2219C20.38 63.6819 20.3847 65.1421 20.3756 66.602C20.3741 66.8803 20.4434 67.0133 20.7521 67.0079C21.6062 66.9929 22.461 66.9951 23.3153 67.0069C23.5988 67.0109 23.6808 66.8982 23.6801 66.6268C23.6735 63.7069 23.6722 60.7867 23.6816 57.8666C23.6826 57.5618 23.5725 57.4857 23.2866 57.4911C22.4561 57.5066 21.6246 57.512 20.7946 57.4889C20.4601 57.4796 20.3707 57.5915 20.3739 57.913C20.3879 59.3491 20.3797 60.7855 20.38 62.2219ZM37.9208 43.0801C37.6074 42.5309 37.3026 42.0398 37.0429 41.5257C36.8862 41.2157 36.6823 41.1232 36.3431 41.1249C33.6721 41.1384 31.0008 41.1534 28.3302 41.1161C27.7365 41.108 27.3855 41.2658 27.1527 41.8118C26.9699 42.2403 26.7004 42.6322 26.445 43.0835C26.9657 43.249 27.4342 43.3709 27.8812 43.5466C28.3916 43.7474 28.8846 43.7702 29.382 43.5383C30.0612 43.222 30.7355 43.2099 31.4191 43.53C31.915 43.7621 32.4247 43.7712 32.9234 43.5368C33.6178 43.2109 34.3024 43.2112 34.9951 43.542C35.478 43.7722 35.9621 43.7489 36.4618 43.5538C36.9189 43.3751 37.3962 43.248 37.9208 43.0801ZM32.1828 33.3231C30.3892 33.3231 28.5955 33.3255 26.8019 33.3201C26.573 33.3194 26.4251 33.3326 26.4273 33.6335C26.4391 35.3322 26.4361 37.0312 26.4293 38.73C26.4283 38.9764 26.5152 39.0691 26.7611 39.0642C27.3074 39.0534 27.8547 39.0475 28.4002 39.0667C28.6962 39.077 28.795 38.9714 28.7928 38.6787C28.7886 38.0732 28.7569 37.4595 28.8419 36.8641C29.0529 35.3867 30.4626 34.1631 31.8947 34.075C33.8077 33.9575 35.1886 35.2572 35.4615 36.6562C35.5917 37.3228 35.549 38.0249 35.5647 38.7116C35.5708 38.97 35.658 39.0718 35.9214 39.0649C36.4438 39.0512 36.9673 39.0443 37.489 39.0674C37.8265 39.0821 37.9434 38.9744 37.9402 38.6262C37.9248 36.9988 37.923 35.371 37.9413 33.7435C37.9454 33.3871 37.8233 33.3132 37.4922 33.3159C35.7226 33.3312 33.9526 33.3231 32.1828 33.3231ZM13.6395 41.7431C13.4894 41.7279 13.3961 41.7097 13.3025 41.7097C10.9405 41.708 8.57843 41.7139 6.21664 41.7021C5.87742 41.7004 5.83468 41.8521 5.83542 42.1348C5.84254 44.9008 5.84574 47.6671 5.83221 50.4331C5.83075 50.7963 5.94374 50.8984 6.30016 50.8962C8.60275 50.8827 10.9056 50.8829 13.2082 50.8962C13.5489 50.8984 13.6488 50.8027 13.6471 50.4572C13.6334 47.6794 13.6395 44.9013 13.6395 42.1233V41.7431ZM50.7293 41.7358V42.1456C50.7293 44.9131 50.7376 47.6803 50.7196 50.4476C50.717 50.8292 50.8467 50.8974 51.1871 50.8957C53.4789 50.8834 55.7709 50.8815 58.0627 50.8972C58.4292 50.8996 58.5252 50.7811 58.5238 50.4289C58.5117 47.6735 58.5107 44.918 58.5248 42.1625C58.5267 41.802 58.4189 41.6982 58.0622 41.7004C55.7704 41.7144 53.4787 41.7073 51.1869 41.7088C51.0466 41.7088 50.9064 41.7247 50.7293 41.7358ZM26.5622 17.2518H37.8125C37.5507 16.6111 37.3203 16.015 37.0663 15.4289C36.1527 13.3236 34.8948 11.4876 32.9688 10.1639C32.8069 10.0527 32.6885 9.78106 32.6718 9.57417C32.6293 9.05513 32.6478 8.5302 32.6605 8.00796C32.6669 7.74194 32.5618 7.63641 32.3029 7.6639C32.2206 7.67273 32.1359 7.67273 32.0536 7.6639C31.789 7.63567 31.6972 7.75273 31.7045 8.01385C31.7188 8.50026 31.6893 8.98838 31.7148 9.47405C31.7335 9.82597 31.5741 10.0287 31.3174 10.2456C30.6488 10.8106 29.959 11.3659 29.3752 12.0131C28.0252 13.5103 27.2855 15.3546 26.5622 17.2518ZM32.185 66.8772C33.717 66.8772 35.2488 66.8774 36.7808 66.8772C37.4079 66.8772 37.8747 66.4162 37.8749 65.7877C37.8761 63.6141 37.8796 61.4403 37.8693 59.2667C37.8678 58.9258 37.8309 58.5781 37.7563 58.2455C37.0645 55.1614 34.281 53.289 31.1526 53.7918C28.7419 54.1791 26.6177 56.4103 26.5226 58.8446C26.4305 61.2047 26.4931 63.5712 26.5 65.9347C26.5012 66.4047 27.021 66.8772 27.4823 66.8772C29.0499 66.8774 30.6176 66.8772 32.185 66.8772ZM32.1843 19.5621C30.3911 19.5621 28.598 19.5658 26.8051 19.5577C26.5474 19.5565 26.4243 19.5999 26.4253 19.9023C26.4349 23.501 26.4344 27.0997 26.4258 30.6984C26.4251 30.9885 26.5334 31.0655 26.8007 31.0653C30.3867 31.0604 33.9727 31.0594 37.5588 31.0668C37.8589 31.0673 37.9412 30.9546 37.9405 30.6675C37.9334 27.0926 37.9316 23.5177 37.9427 19.9428C37.9439 19.6125 37.8243 19.554 37.5278 19.556C35.7467 19.5683 33.9656 19.5621 32.1843 19.5621ZM50.7501 66.8631C50.8941 66.87 51.0098 66.8805 51.126 66.8805C53.4536 66.8801 55.7817 66.8707 58.1094 66.8855C58.4609 66.8877 58.5216 66.7517 58.5211 66.4489C58.5152 62.0062 58.5142 57.5635 58.5228 53.1208C58.5233 52.7959 58.4262 52.7017 58.0983 52.7036C55.7704 52.7176 53.4428 52.7108 51.1147 52.712C50.9995 52.712 50.8843 52.7248 50.7501 52.7324V66.8631ZM13.6203 52.7319C13.5189 52.7225 13.4604 52.7127 13.402 52.7127C10.9918 52.7118 8.58162 52.7171 6.1712 52.7044C5.84721 52.7027 5.83787 52.8649 5.83812 53.1015C5.84058 57.5547 5.84254 62.0077 5.83394 66.4609C5.83321 66.7861 5.92925 66.8859 6.25939 66.8842C8.58629 66.8722 10.9134 66.8801 13.2406 66.8803C13.3656 66.8803 13.4907 66.868 13.6203 66.8614V52.7319ZM62.2216 47.4052C62.2201 48.8222 62.2189 50.2392 62.2176 51.6562C61.6001 51.6533 60.9823 51.644 60.3648 51.6545C60.2754 51.6562 60.1324 51.7338 60.1071 51.8079C59.9394 52.3049 59.5726 52.5807 59.0794 52.792V53.2254C59.0794 57.6578 59.0823 62.0901 59.0735 66.5225C59.0728 66.8474 59.1403 67.1198 59.3361 67.3802C59.5807 67.7056 59.7964 68.0529 60.0246 68.3906C60.0536 68.3805 60.0826 68.3702 60.1113 68.3601V64.6208H62.2063V65.0213C62.2063 66.1264 62.2066 67.2315 62.2063 68.3366C62.2061 68.796 62.2054 68.7891 61.7303 68.7997C61.1813 68.8114 60.6328 68.8372 60.0354 68.8586C60.0354 69.4871 60.0214 70.0314 60.0413 70.5742C60.0524 70.8798 59.9627 70.9823 59.6414 70.9774C58.395 70.9583 57.148 70.9696 55.8377 70.9696C55.8377 70.4466 55.8399 69.9416 55.837 69.4365C55.8333 68.8306 55.894 68.9052 55.3037 68.9032C54.1392 68.8998 52.9749 68.9111 51.8108 68.8961C51.5261 68.8924 51.4387 68.9817 51.4477 69.2605C51.4662 69.8154 51.4534 70.3713 51.4534 70.9477H47.3002V68.8777C47.775 68.8777 48.2459 68.8667 48.7158 68.8826C48.9349 68.8902 49.0651 68.8161 49.1702 68.6266C49.3746 68.2583 49.5996 67.9012 49.8673 67.4538C48.648 67.5547 47.4962 67.2325 46.4304 67.8465C46.1445 68.0111 45.8207 68.1088 45.5218 68.2524C44.7677 68.6144 44.0033 68.9206 43.1381 68.8082C43.0721 68.7997 43.0003 68.8303 42.9016 68.8482V70.9391H38.6919V68.8853H40.0402C40.0463 68.8527 40.0527 68.82 40.0588 68.7874C39.558 68.5633 39.0557 68.3417 38.5565 68.1142C38.0965 67.9046 37.6418 67.6833 37.1793 67.4798C37.0871 67.4393 36.9692 67.4484 36.8634 67.4484C33.7394 67.4467 30.6154 67.4418 27.4914 67.4578C27.2529 67.459 27.009 67.5974 26.7783 67.6965C25.9537 68.0499 25.134 68.4139 24.3249 68.8561H25.7265V70.9887L25.7376 70.9774H21.493V68.8635C21.3837 68.8377 21.3137 68.8004 21.2505 68.8095C20.2911 68.9498 19.4508 68.5773 18.6429 68.1552C17.595 67.6075 16.5071 67.3473 15.3283 67.4666C15.0861 67.4911 14.8394 67.4703 14.5034 67.4703C14.7972 67.9567 15.0369 68.3744 15.3032 68.7741C15.3511 68.8463 15.5083 68.8708 15.6159 68.8733C16.089 68.8836 16.5623 68.8777 17.0654 68.8777V70.9414H12.9134C12.9134 70.3884 12.8992 69.8456 12.9193 69.3037C12.9306 69.0019 12.8518 68.8895 12.5251 68.8946C11.3148 68.9138 10.1038 68.9017 8.89285 68.9032C8.7887 68.9032 8.68455 68.916 8.53741 68.9256V70.9951L8.54871 70.9843C7.12525 70.9831 5.70179 70.9819 4.27833 70.9804L4.28939 70.9917V68.9584C3.73474 68.6912 3.14866 68.8136 2.57927 68.8055C2.2683 68.8011 2.1472 68.7339 2.15334 68.3891C2.17594 67.1441 2.16218 65.8987 2.16218 64.6252H4.23928V68.3444C4.27195 68.3587 4.30462 68.3729 4.33729 68.3874C4.52348 68.1142 4.69297 67.8273 4.90004 67.5714C5.20708 67.1915 5.29846 66.7765 5.29699 66.2896C5.28176 61.9434 5.28814 57.5971 5.28814 53.2507V52.7849C4.72343 52.5819 4.38248 52.2288 4.18205 51.6597H2.15481V47.3925L2.14327 47.4035H4.25328V48.3957C4.25328 49.1086 4.26311 49.8218 4.24812 50.5345C4.24296 50.7902 4.31076 50.8918 4.58317 50.8947C5.28814 50.9021 5.28814 50.9139 5.28814 50.2162C5.28814 47.5782 5.28716 44.9403 5.28962 42.3024C5.28986 42.0096 5.33776 41.7456 4.92436 41.6312C4.69567 41.5676 4.52618 41.2908 4.26802 41.0535V43.004H2.19362V38.8792H4.24714V39.8954C4.54362 39.8954 4.8008 39.9011 5.05798 39.8937C5.30878 39.8868 5.28004 39.6934 5.28028 39.5298C5.28225 38.6384 5.28151 37.7473 5.28151 36.856V36.4059C5.76296 36.5966 6.18078 36.7848 6.61457 36.923C6.79905 36.9817 7.05647 37.0086 7.21294 36.924C7.97122 36.5151 8.69265 36.5046 9.44233 36.9493C9.58922 37.0364 9.87588 37.0302 10.0277 36.9434C10.7837 36.5112 11.5049 36.5134 12.2546 36.9578C12.3939 37.0406 12.6422 37.0126 12.8129 36.9551C13.2698 36.8015 13.7115 36.6042 14.2229 36.3988V39.9023C14.4965 39.9023 14.7188 39.9121 14.9401 39.8996C15.175 39.8863 15.2209 39.9916 15.2484 40.2127C15.3427 40.9696 15.0136 41.4471 14.3393 41.734C14.2961 41.7524 14.2661 41.8143 14.2425 41.8619C14.2278 41.8911 14.2347 41.9321 14.2359 41.9677C14.2504 42.4155 14.2654 42.8637 14.2806 43.3118C14.793 43.528 15.3034 43.7498 15.8205 43.9543C15.8935 43.9832 16.0047 43.94 16.09 43.9079C16.4776 43.7611 16.8637 43.6102 17.2479 43.4536C17.6046 43.3081 17.6645 43.1459 17.4727 42.8003C17.1742 42.2624 16.863 41.7316 16.5247 41.1416C16.7797 41.029 17.0037 40.8989 17.2452 40.8319C17.5272 40.7536 17.6466 40.6297 17.6365 40.3153C17.6114 39.5199 17.6284 38.7233 17.6284 37.9275V37.4656C17.9389 37.5844 18.2032 37.6715 18.4545 37.7864C18.6473 37.8745 18.7782 37.8472 18.9155 37.6825C19.1894 37.3544 19.4908 37.0494 19.7615 36.7188C19.8981 36.5522 20.0052 36.5568 20.1793 36.6594C20.7769 37.0123 20.7801 37.0047 21.3041 36.56C21.5212 36.3757 21.742 36.1956 21.9626 36.0152C21.9894 35.9934 22.0255 35.9833 22.0722 35.9607C22.3949 36.2339 22.7324 36.4972 23.0417 36.7902C23.2301 36.9689 23.3858 36.9937 23.5963 36.842C23.7575 36.7257 23.941 36.6403 24.1331 36.5303C24.4828 36.9245 24.8238 37.3017 25.1561 37.6865C25.2794 37.8293 25.3934 37.8811 25.5848 37.7969C25.7658 37.7176 25.8822 37.6396 25.881 37.4175C25.8741 36.146 25.8812 34.8746 25.8709 33.6033C25.8702 33.4914 25.7864 33.3746 25.7233 33.2708C25.6815 33.2018 25.6165 33.1395 25.5482 33.0953C24.9053 32.6776 24.8061 32.0619 24.8768 31.3613C24.9007 31.1259 24.98 31.0574 25.2008 31.0599C25.9218 31.0685 25.8729 31.1522 25.8731 30.3558C25.8739 26.922 25.8704 23.4877 25.8793 20.054C25.88 19.7722 25.8343 19.5433 25.5961 19.3766C25.5673 19.3565 25.5491 19.3204 25.5197 19.3025C24.8078 18.8716 24.8331 18.181 24.8962 17.4879C24.9036 17.4047 25.0404 17.2717 25.1232 17.2671C25.7263 17.2332 26.08 16.9522 26.2944 16.3681C26.8771 14.782 27.6049 13.2656 28.6687 11.9331C29.3101 11.1293 30.0418 10.4203 30.8861 9.83382C31.0855 9.69516 31.1634 9.53982 31.1592 9.30201C31.1479 8.66051 31.1558 8.01876 31.1558 7.37701C31.1558 7.21725 31.1484 7.06141 31.3827 7.06141C32.7111 7.06436 34.0395 7.06288 35.393 7.06288V9.66841H33.3717C33.4512 9.77124 33.4751 9.82179 33.5149 9.85051C35.4362 11.2309 36.7062 13.1064 37.6202 15.2522C37.7963 15.6663 37.9867 16.0771 38.1245 16.5043C38.2888 17.0128 38.6582 17.2256 39.1382 17.2428C39.4435 17.2538 39.4492 17.3885 39.4892 17.631C39.6179 18.4095 39.316 18.9692 38.7233 19.4397C38.5929 19.5433 38.4971 19.7727 38.4966 19.9445C38.4836 23.5091 38.4905 27.0739 38.4804 30.6385C38.4797 30.9669 38.5828 31.1021 38.9076 31.0636C38.9778 31.0552 39.0508 31.0697 39.121 31.0614C39.3983 31.0282 39.4583 31.148 39.4912 31.4216C39.5781 32.1451 39.386 32.7245 38.772 33.1343C38.5101 33.3093 38.4767 33.5491 38.4794 33.837C38.4905 35.0012 38.488 36.1659 38.4806 37.3301C38.4797 37.5544 38.5253 37.6963 38.7599 37.7954C39.0132 37.9022 39.1294 37.7802 39.2662 37.6205C39.5212 37.3228 39.7958 37.0408 40.0362 36.7323C40.1795 36.5487 40.292 36.5527 40.4786 36.6624C41.0569 37.0023 41.0613 36.9952 41.5725 36.5669C41.809 36.3691 42.0441 36.1696 42.313 35.9423C42.6594 36.2292 43.0143 36.5011 43.3418 36.8032C43.5356 36.9821 43.6857 36.9726 43.8981 36.8415C44.4228 36.5183 44.4265 36.5294 44.8315 36.9794C45.0927 37.2703 45.3167 37.7002 45.6392 37.7991C45.933 37.8889 46.3378 37.616 46.7419 37.4879V38.8851C46.7421 39.4078 46.7286 39.9312 46.7534 40.4527C46.7588 40.5654 46.8801 40.7151 46.988 40.7715C47.2452 40.9063 47.5262 40.9958 47.8452 41.1227C47.5262 41.684 47.2358 42.1937 46.946 42.7037C46.6628 43.2021 46.7254 43.2357 47.2275 43.514C48.097 43.996 48.9084 43.9656 49.7583 43.485C50.014 43.3407 50.168 43.2286 50.1422 42.9103C50.112 42.5343 50.1353 42.1539 50.1353 41.9105C49.7659 41.5775 49.3854 41.3698 49.2262 41.0515C49.0786 40.7571 49.1636 40.3438 49.1606 39.9828C49.1604 39.9575 49.2773 39.9151 49.3422 39.9087C49.4718 39.8959 49.6045 39.8908 49.7337 39.9035C50.0331 39.9332 50.1523 39.8333 50.1442 39.5074C50.1218 38.6168 50.1358 37.7252 50.1353 36.8342C50.1351 36.7092 50.1353 36.5846 50.1353 36.3961C50.66 36.6081 51.1117 36.8089 51.5779 36.9684C51.7373 37.0231 51.9727 37.0406 52.1046 36.961C52.866 36.5014 53.5995 36.5168 54.3627 36.9583C54.5034 37.0398 54.7749 37.0344 54.9171 36.9512C55.6641 36.5134 56.3867 36.5033 57.146 36.9225C57.301 37.0082 57.5596 36.9821 57.7439 36.9235C58.1705 36.788 58.5808 36.6008 59.0534 36.4125C59.0649 36.5672 59.0818 36.6881 59.0821 36.8094C59.0843 37.7125 59.0936 38.6156 59.0774 39.5185C59.0723 39.8206 59.1843 39.9308 59.4709 39.9023C59.5532 39.8939 59.638 39.893 59.72 39.9028C60.0241 39.9384 60.1604 39.8255 60.1221 39.504C60.0983 39.3069 60.1175 39.1049 60.1175 38.8804H62.1769C62.1877 38.9739 62.2049 39.0537 62.2049 39.1337C62.2068 40.3219 62.1992 41.51 62.212 42.6983C62.2147 42.9638 62.1358 43.0529 61.8688 43.045C61.3019 43.0281 60.734 43.0399 60.127 43.0399V41.0255C59.972 41.161 59.8873 41.2314 59.8065 41.3063C59.6846 41.4192 59.5798 41.6094 59.4424 41.6359C59.019 41.7181 59.0777 42.0104 59.0779 42.3022C59.0804 45.0113 59.0774 47.7206 59.0848 50.4297C59.0853 50.5759 59.1501 50.8395 59.2128 50.8481C59.4876 50.8859 59.7741 50.8599 60.0528 50.8285C60.085 50.8248 60.1143 50.6412 60.115 50.5408C60.1197 49.6498 60.1175 48.7584 60.1177 47.8673V47.4052H62.2216Z" fill="var(--fill-0, white)"/>
<path id="Fill 23" fill-rule="evenodd" clip-rule="evenodd" d="M47.6786 27.1605C47.6501 27.2267 47.6216 27.2928 47.5927 27.3588C47.7437 27.4255 47.8948 27.4923 48.0456 27.559C48.0746 27.4893 48.1333 27.3612 48.1281 27.3588C47.9822 27.2852 47.8299 27.2238 47.6786 27.1605ZM48.9535 27.1075C48.8552 27.2515 48.7572 27.3337 48.757 27.4164C48.7567 27.4756 48.8962 27.5909 48.9581 27.5814C49.0473 27.5679 49.1227 27.4636 49.204 27.398C49.1375 27.3207 49.0709 27.2434 48.9535 27.1075ZM48.5103 27.1693L48.3175 27.0535C48.2819 27.1634 48.2072 27.2798 48.2239 27.3811C48.2372 27.4621 48.3593 27.5769 48.4379 27.5806C48.5194 27.5848 48.6066 27.4734 48.6914 27.4125C48.631 27.3313 48.5708 27.2503 48.5103 27.1693ZM48.4951 27.1436C48.5499 27.1445 48.6049 27.1455 48.6595 27.1465C48.7233 27.065 48.8314 26.9894 48.8427 26.9013C48.8808 26.6005 48.5821 26.7752 48.476 26.666C48.4192 26.7359 48.3067 26.8164 48.3175 26.8731C48.3364 26.971 48.4317 27.0542 48.4951 27.1436ZM53.582 19.6458C53.5255 19.4872 53.4958 19.3437 53.4245 19.2251C53.3703 19.1351 53.2629 19.0769 53.1796 19.0045C53.1172 19.1223 52.9912 19.2494 53.007 19.3552C53.0298 19.5054 53.1477 19.647 53.2447 19.7771C53.2749 19.8175 53.3838 19.8384 53.4329 19.8161C53.4948 19.7879 53.5324 19.7061 53.582 19.6458ZM52.9647 19.1014C53.0512 18.9034 53.3337 18.7439 53.0969 18.498C52.9465 18.3424 52.7193 18.256 52.5162 18.1605C52.4634 18.1357 52.3573 18.1755 52.3039 18.2199C52.2774 18.2425 52.2914 18.3615 52.3268 18.4025C52.5235 18.6315 52.7323 18.8496 52.9647 19.1014ZM53.6817 16.6542C53.5523 16.6542 53.4803 16.6326 53.4371 16.6584C53.3169 16.73 53.2091 16.8216 53.0964 16.905C53.2049 16.9929 53.3015 17.1156 53.4255 17.1585C53.5513 17.202 53.7146 17.198 53.8419 17.1558C53.946 17.1215 54.0212 17 54.1091 16.917C54.0254 16.8329 53.9522 16.7315 53.8539 16.6706C53.7925 16.6326 53.6933 16.6549 53.6817 16.6542ZM50.219 16.223C49.9618 16.3403 49.6896 16.7713 49.8093 16.9239C49.939 17.0893 50.1812 17.1671 50.3742 17.2829C50.4059 17.2179 50.4762 17.1436 50.4632 17.0886C50.3958 16.8059 50.3072 16.5278 50.219 16.223ZM47.5917 16.0682C47.4701 16.4512 47.3622 16.7924 47.2539 17.1335L47.3627 17.2231C47.5713 17.0758 47.8665 16.9718 47.9675 16.7705C48.1016 16.5028 47.8567 16.2846 47.5917 16.0682ZM51.527 24.725C51.5668 24.7191 51.6068 24.7132 51.6466 24.7074C51.6678 24.6445 51.7041 24.5824 51.7075 24.5184C51.7574 23.6087 51.7955 22.6979 51.8535 21.7887C51.8738 21.4704 51.6869 21.4917 51.473 21.49C51.2254 21.4878 51.0817 21.5703 51.1102 21.8407C51.1804 22.5109 51.2408 23.1824 51.3275 23.8504C51.3661 24.1456 51.459 24.4337 51.527 24.725ZM52.95 15.9666C52.7596 16.0269 52.6225 15.902 52.5759 15.7118C52.5125 15.4554 52.6488 15.2698 52.8952 15.1972C53.3449 15.0647 53.7367 15.4446 53.6235 15.9052C53.5744 16.1052 53.482 16.2944 53.3594 16.6216C53.6304 16.5546 53.921 16.5617 53.9679 16.4584C54.3022 15.7187 54.1013 14.952 53.26 14.7442C52.8891 14.6526 52.5503 14.7704 52.299 15.063C52.0691 15.3302 52.0492 15.6421 52.1892 15.9607C52.3221 16.2628 52.6704 16.4144 53.031 16.3229C53.313 16.2515 53.4592 16.0527 53.4064 15.7702C53.383 15.6448 53.2688 15.5091 53.1578 15.4387C53.0973 15.4006 52.8741 15.4782 52.8677 15.5238C52.8502 15.6475 52.9092 15.7823 52.95 15.9666ZM46.7919 23.8514C46.7543 23.8553 46.717 23.8592 46.6796 23.8634C46.6585 23.8894 46.6234 23.913 46.618 23.9419C46.4352 24.8931 46.2495 25.8441 46.0874 26.799C46.0746 26.8756 46.2269 27.0557 46.3097 27.0604C46.7676 27.0861 47.2276 27.0726 47.7115 27.0726C47.6251 26.8773 47.5787 26.6724 47.4608 26.5239C47.1331 26.1106 46.9371 25.6647 46.9186 25.1292C46.9041 24.7022 46.8361 24.2772 46.7919 23.8514ZM47.1166 17.4758C47.6779 18.6845 49.19 18.8953 50.1335 17.9497C50.2578 17.8251 50.4597 17.697 50.2438 17.4825C50.024 17.264 49.6899 17.228 49.5361 17.4336C49.1613 17.936 48.363 17.9473 48.0662 17.3252C48.035 17.2599 47.8941 17.1904 47.828 17.2088C47.5939 17.2741 47.3706 17.3769 47.1166 17.4758ZM45.8796 25.5827L45.9796 25.5923C46.0115 25.5089 46.0569 25.4279 46.0734 25.3413C46.2169 24.5756 46.3655 23.8106 46.491 23.042C46.5593 22.6223 46.5986 22.1966 46.6263 21.772C46.6519 21.3786 46.5096 21.289 46.0395 21.2696C45.6683 21.2544 45.6769 21.4758 45.687 21.73C45.7337 22.9026 45.7764 24.0757 45.8246 25.2482C45.8292 25.3604 45.8607 25.4713 45.8796 25.5827ZM51.1924 21.2561C52.0964 21.4422 52.2708 21.3793 52.7638 20.7413C52.8217 20.6662 52.875 20.5862 52.9411 20.5184C53.1661 20.2875 53.2442 20.0811 52.9753 19.7999C52.8205 19.6382 52.7665 19.3805 52.6618 19.1687C52.594 19.0313 52.5358 18.8825 52.4388 18.7682C52.26 18.5571 52.0821 18.5885 52.0016 18.8528C51.933 19.0764 51.881 19.3169 51.8866 19.5483C51.8957 19.9358 51.7803 20.2664 51.572 20.5827C51.4386 20.7847 51.3327 21.0046 51.1924 21.2561ZM50.8763 23.0911C50.8456 23.0928 50.8151 23.0945 50.7844 23.096C50.7461 23.403 50.6889 23.709 50.6729 24.0173C50.6226 24.9866 50.4209 25.9126 49.938 26.7644C49.8056 26.998 49.8893 27.0984 50.1384 27.0871C50.5169 27.0699 50.8962 27.0562 51.272 27.0142C51.3418 27.0064 51.459 26.8645 51.4506 26.7975C51.3052 25.6262 51.1445 24.4565 50.9814 23.2874C50.9719 23.2185 50.9124 23.1564 50.8763 23.0911ZM46.2159 21.0522C46.2363 21.0058 46.2564 20.9597 46.2768 20.9133C46.1061 20.6605 45.9221 20.4156 45.7671 20.1535C45.4566 19.6286 45.3021 19.0985 45.7126 18.534C45.7759 18.4472 45.7022 18.2506 45.6652 18.1117C45.6595 18.0906 45.4858 18.0749 45.4284 18.1137C45.0317 18.3814 44.6183 18.5922 44.1277 18.619C43.8971 18.6315 43.8615 18.7564 43.9376 18.9618C44.0484 19.2605 44.1732 19.5611 44.2274 19.8723C44.3387 20.513 44.6101 20.9307 45.3375 20.9234C45.6298 20.9207 45.9231 21.0066 46.2159 21.0522ZM49.5464 26.4034C49.5835 26.413 49.6201 26.4225 49.6572 26.4321C49.7226 26.3254 49.8174 26.2267 49.8488 26.1109C50.0244 25.4635 50.2217 24.8188 50.3396 24.1601C50.4496 23.5451 50.3816 22.8884 50.5513 22.296C50.7773 21.5074 51.1544 20.7621 51.4744 20.0014C51.5658 19.7837 51.7139 19.5861 51.778 19.3628C51.8092 19.2551 51.7429 19.058 51.654 18.9939C51.5611 18.9267 51.3492 18.9132 51.2568 18.9755C50.8559 19.2475 50.4789 19.5557 50.0937 19.8509C49.7808 20.0909 49.5413 20.3643 49.5821 20.8021C49.6037 21.0367 49.5857 21.275 49.5828 21.5116C49.5631 23.0187 49.542 24.526 49.5238 26.0331C49.5224 26.1565 49.5386 26.28 49.5464 26.4034ZM47.8943 26.5563C47.9319 26.4211 47.9658 26.3553 47.9665 26.2888C47.9906 24.3456 48.0176 22.4025 48.0208 20.4593C48.021 20.2905 47.8904 20.0924 47.7663 19.9579C47.3195 19.4725 46.8523 19.0057 46.3844 18.5404C46.3198 18.4759 46.1977 18.4133 46.1206 18.431C46.027 18.4523 45.9015 18.5466 45.8793 18.6322C45.7661 19.0737 45.7108 19.5152 46.037 19.9113C46.2102 20.1214 46.3871 20.3359 46.5151 20.5739C46.6909 20.902 46.9181 21.2439 46.9562 21.5978C47.0901 22.844 47.1458 24.0982 47.2448 25.3486C47.2819 25.8142 47.4101 26.2476 47.8943 26.5563ZM50.9173 17.7257C50.8667 17.6979 50.8159 17.6704 50.765 17.6427C50.6007 17.8592 50.4649 18.107 50.2664 18.2859C49.6621 18.8317 48.9577 19.1046 48.1844 18.709C47.7843 18.5046 47.4514 18.1591 47.1095 17.854C46.9454 17.7078 46.8334 17.5647 46.6131 17.7725C46.2962 18.071 46.2731 18.1554 46.5657 18.4943C46.6467 18.3333 46.7128 18.2015 46.8049 18.0187C46.9162 18.1544 47.041 18.3068 47.2109 18.5147C47.1218 18.4722 47.0957 18.4501 47.0685 18.4482C46.9491 18.4398 46.8295 18.4374 46.7101 18.4327C46.7349 18.5426 46.7302 18.6752 46.7919 18.7576C46.8892 18.8882 47.0274 18.9903 47.1557 19.0953C47.5435 19.4129 48.0915 19.6529 48.2814 20.0607C48.4767 20.4797 48.3234 21.061 48.3222 21.5713C48.3185 23.1021 48.3205 24.6332 48.3057 26.1641C48.303 26.4422 48.3829 26.5681 48.669 26.5278C48.7388 26.518 48.812 26.5195 48.8822 26.5276C49.1242 26.5553 49.2143 26.4635 49.2166 26.2095C49.2249 25.2367 49.2578 24.2641 49.2753 23.2913C49.2934 22.2829 49.3096 21.2746 49.3148 20.2659C49.316 20.0323 49.4212 19.913 49.6118 19.7935C50.1534 19.4538 50.684 19.0955 51.2028 18.7215C51.2966 18.6538 51.3882 18.442 51.3489 18.3578C51.243 18.1296 51.0662 17.934 50.9173 17.7257ZM47.9498 14.755C48.4342 14.3873 49.2438 14.3572 49.754 14.6786C49.8729 14.7532 50.0097 14.7991 50.1382 14.8583C50.161 14.7108 50.2055 14.5623 50.2006 14.4156C50.1964 14.2919 50.1642 14.1486 50.0932 14.0514C49.8704 13.7461 49.629 13.4533 49.3833 13.1654C49.2259 12.9809 49.0038 12.9149 48.8159 13.0783C48.4686 13.3807 48.1291 13.6992 47.8302 14.0487C47.5995 14.3186 47.6902 14.6568 47.9596 14.7469C47.9083 14.9503 47.8535 15.153 47.8066 15.3577C47.7862 15.4473 47.7985 15.5462 47.768 15.6311C47.6381 15.9916 47.7184 16.1467 48.0847 16.2164C48.0014 16.5982 48.0945 17.0334 48.3411 17.3465C48.5285 17.5843 48.7599 17.6795 49.0598 17.5436C49.4504 17.3666 49.4953 17.2012 49.3605 16.6059C49.3065 16.3671 49.2369 16.2144 48.9562 16.2196C48.7191 16.224 48.4922 16.1975 48.5037 16.5406C48.5045 16.5605 48.4394 16.5825 48.4047 16.6034C48.4207 16.4147 48.471 16.2078 48.5931 16.1484C48.9832 15.9592 49.3379 16.1663 49.4477 16.5909C49.4646 16.6574 49.528 16.7119 49.57 16.7718C49.6179 16.7025 49.7176 16.6203 49.7041 16.5661C49.655 16.3668 49.5848 16.168 49.489 15.9867C49.4371 15.888 49.3182 15.825 49.2296 15.7459C49.2649 15.7162 49.3006 15.6868 49.3357 15.6571C49.5106 15.8674 49.6855 16.0777 49.8579 16.2856C50.4121 15.8542 50.2961 15.0355 49.6398 14.7164C49.0736 14.4413 48.5086 14.5756 47.9498 14.755ZM53.4557 18.1625C53.6341 17.906 53.8129 17.6496 54.0006 17.3799C53.7021 17.3085 53.3349 17.1077 53.0431 17.1863C52.8023 17.251 52.6405 17.6408 52.4803 17.9083C52.4683 17.9284 52.7392 18.1414 52.8967 18.2332C53.061 18.3289 53.2479 18.4803 53.4238 18.2364C53.2961 18.575 53.3007 18.8867 53.4921 19.221C53.6073 19.4219 53.7633 19.6705 53.551 19.9422C53.4535 20.0674 53.3771 20.2497 53.3786 20.4053C53.3965 22.1244 53.4299 23.843 53.4648 25.5616C53.4685 25.7548 53.5073 25.9472 53.5319 26.1563C53.9092 25.9518 53.9802 25.8461 53.977 25.4667C53.9571 23.1426 53.934 20.8186 53.9104 18.4945C53.9094 18.4131 53.9197 18.3036 53.8741 18.256C53.7645 18.1419 53.6638 17.869 53.4557 18.1625ZM44.4952 18.2577C44.7507 18.1399 45.0216 18.0457 45.2554 17.8948C45.3775 17.816 45.4347 17.6371 45.5212 17.5033C45.3873 17.4763 45.2517 17.4191 45.1198 17.4268C44.3289 17.4719 44.3294 17.4771 44.4986 18.2663C44.4306 18.147 44.3625 18.0278 44.236 17.8057C44.0931 18.0179 43.9875 18.175 43.8816 18.3321C44.058 18.3284 44.2343 18.3274 44.41 18.3183C44.4394 18.3166 44.4669 18.2788 44.4952 18.2577ZM45.1302 15.3322C45.2019 15.5187 45.2736 15.7047 45.3453 15.891C45.083 15.7533 44.8204 15.6154 44.5578 15.4775L44.4959 15.5648L44.6291 16.0294C44.5048 15.9594 44.3802 15.8895 44.2557 15.8196C44.2763 15.9538 44.2928 16.089 44.3203 16.2218C44.3291 16.264 44.3682 16.3001 44.3937 16.3388C44.3105 16.2898 44.227 16.2407 44.0454 16.1339C44.0965 16.4886 44.1336 16.7381 44.1685 16.9882C44.1943 17.1747 44.2385 17.3659 44.479 17.3293C44.8496 17.2729 45.2805 17.4265 45.5657 17.0434C45.5721 17.0351 45.5674 17.0191 45.5725 17.0091C45.7698 16.612 45.5659 16.2809 45.3979 15.944C45.4659 15.9975 45.5342 16.051 45.6804 16.1658C45.6263 15.809 45.6084 15.5373 45.535 15.2821C45.5043 15.1756 45.3552 15.1032 45.2596 15.0151C45.2188 15.1248 45.1778 15.2343 45.1363 15.3425C45.1164 15.2527 45.1137 15.1535 45.0722 15.0747C45.0199 14.9761 44.9361 14.8939 44.8659 14.8045C44.804 14.9017 44.7116 14.9923 44.6888 15.0981C44.6691 15.1898 44.7082 15.3098 44.758 15.3962C44.8054 15.4784 44.8998 15.5337 44.9737 15.6007C45.0258 15.5111 45.0781 15.4218 45.1302 15.3322ZM50.4145 27.3566C50.1984 27.3522 49.982 27.3475 49.7658 27.3431C49.6444 27.2991 49.5238 27.229 49.4013 27.225C49.3521 27.2233 49.2988 27.3686 49.2475 27.4469C49.3305 27.4822 49.4123 27.5396 49.4971 27.545C49.5531 27.5487 49.6135 27.4768 49.672 27.4385C49.7702 27.72 50.0065 27.588 50.1785 27.5816C50.2571 27.5787 50.3305 27.4314 50.4062 27.3497C50.5427 27.3745 50.6793 27.3993 50.8159 27.4241C50.8159 27.3468 50.8299 27.2054 50.8144 27.202C50.6393 27.1649 50.4597 27.1487 50.2814 27.1269C50.274 27.1615 50.2669 27.1963 50.2598 27.2309C50.3114 27.2729 50.3629 27.3146 50.4145 27.3566ZM46.8923 27.3568C46.9373 27.3031 46.9825 27.2491 47.0862 27.1254C46.8744 27.1254 46.7398 27.0964 46.6283 27.135C46.5465 27.1632 46.4954 27.2798 46.4306 27.3568C46.516 27.3926 46.601 27.4547 46.6872 27.4562C46.758 27.4574 46.83 27.387 46.9014 27.3482C47.0024 27.6383 47.2552 27.6933 47.6278 27.4945C47.4347 27.1458 47.1461 27.3367 46.8923 27.3568ZM41.9408 12.7787H55.9924C56.004 12.8938 56.0231 12.9961 56.0231 13.0984C56.0234 15.8551 56.0801 18.6133 56.0047 21.3678C55.9229 24.3365 54.4257 26.4608 51.7208 27.6246C47.8019 29.3105 43.3459 27.1134 42.214 22.9981C42.0526 22.4108 41.959 21.7862 41.9526 21.1776C41.9249 18.5044 41.9408 15.8306 41.9408 13.1571V12.7787Z" fill="var(--fill-0, white)"/>
<path id="Fill 24" fill-rule="evenodd" clip-rule="evenodd" d="M18.8148 25.0026C19.1945 25.0004 19.5748 24.9864 19.9538 25.0004C20.1825 25.009 20.3475 24.9444 20.4409 24.7317C20.7207 24.0953 21.0135 23.4639 21.2706 22.8184C21.3669 22.5765 21.3785 22.3009 21.4337 22.0145H18.8153C18.8153 21.038 18.815 20.0613 18.815 19.0845H21.4374V16.0957H18.8143V13.1905H16.1867V16.0959H13.5201V13.1902H10.8387V16.0954H8.18612V13.3534C8.17581 13.3534 8.16549 13.3537 8.15517 13.3537V21.1146H8.20504V19.0848H10.839C10.8316 20.063 10.8243 21.0409 10.8166 22.0191L10.8287 22.0083H8.23672C8.28905 22.8474 8.66487 23.8656 9.18881 24.6988C9.3244 24.9145 9.4735 25.0159 9.73314 25.0011C10.094 24.9808 10.4568 24.996 10.8338 24.996C10.8338 25.4424 10.8154 25.8233 10.8437 26.2005C10.8542 26.3413 10.9387 26.5376 11.0502 26.5995C11.5965 26.9026 12.1576 27.1816 12.726 27.442C12.9632 27.551 13.2315 27.5932 13.5456 27.6827V25.0033H16.1855V27.6553C17.1241 27.4579 17.9565 27.0908 18.7079 26.5413C18.7725 26.4942 18.831 26.3906 18.8317 26.3129C18.8364 25.8763 18.8224 25.4394 18.8148 25.0026ZM7.7344 12.7662H21.8889V13.175C21.8889 15.6934 21.8557 18.2126 21.9012 20.7302C21.9287 22.2344 21.6293 23.6212 20.8337 24.8995C19.3232 27.3262 16.3486 28.6492 13.5989 28.1132C10.597 27.5279 8.32958 25.2623 7.8442 22.3487C7.77788 21.9521 7.72801 21.5475 7.72654 21.1465C7.71622 18.4379 7.72114 15.7293 7.72138 13.0207C7.72138 12.9505 7.72826 12.88 7.7344 12.7662Z" fill="var(--fill-0, white)"/>
<path id="Fill 25" fill-rule="evenodd" clip-rule="evenodd" d="M4.27838 70.9802V73.0876H0.0443611V68.8805C0.67368 68.8805 1.28703 68.8724 1.8994 68.893C1.96204 68.8952 2.06619 69.0695 2.07012 69.1674C2.08854 69.6292 2.07675 70.0926 2.08068 70.5552C2.08166 70.6953 2.09738 70.8352 2.10745 70.9918C2.85148 70.9918 3.57046 70.9918 4.28944 70.9915L4.27838 70.9802Z" fill="var(--fill-0, white)"/>
<path id="Fill 26" fill-rule="evenodd" clip-rule="evenodd" d="M34.3615 70.9793L30.0106 70.9785L30.0221 70.9903V68.9048H34.3498V70.9908L34.3615 70.9793Z" fill="var(--fill-0, white)"/>
<path id="Fill 27" fill-rule="evenodd" clip-rule="evenodd" d="M30.0106 70.9787V73.0888H25.7375V70.9775L25.7265 70.9888C26.4838 70.9984 27.2411 71.0151 27.9984 71.016C28.6729 71.0168 29.3477 70.9998 30.0222 70.9908C30.0222 70.9905 30.0106 70.9787 30.0106 70.9787Z" fill="var(--fill-0, white)"/>
<path id="Fill 28" fill-rule="evenodd" clip-rule="evenodd" d="M8.53743 70.995C9.80565 71.0026 11.0739 71.0105 12.3421 71.0178C12.4818 71.0188 12.6216 71.0181 12.7857 71.0181V73.081C12.7 73.091 12.6209 73.108 12.5418 73.108C11.332 73.1099 10.122 73.1036 8.91203 73.1144C8.66565 73.1166 8.58066 73.0434 8.58214 72.7926C8.58533 72.1899 8.562 71.5869 8.54898 70.9842C8.54873 70.9842 8.53743 70.995 8.53743 70.995Z" fill="var(--fill-0, white)"/>
<path id="Fill 29" fill-rule="evenodd" clip-rule="evenodd" d="M25.7331 2.31521V4.42575H21.4829C21.4829 3.78866 21.4738 3.1636 21.4967 2.53952C21.4991 2.47645 21.6924 2.36969 21.798 2.36847C22.925 2.35595 24.0525 2.36209 25.1797 2.35914C25.3679 2.35865 25.556 2.33828 25.7442 2.32699C25.7442 2.32675 25.7331 2.31521 25.7331 2.31521Z" fill="var(--fill-0, white)"/>
<path id="Fill 30" fill-rule="evenodd" clip-rule="evenodd" d="M2.15474 47.3922H0.0462059V43.1392C0.682156 43.1392 1.30705 43.1304 1.93072 43.1532C1.99336 43.1556 2.09898 43.3512 2.10021 43.458C2.11249 44.6323 2.10684 45.8071 2.1093 46.9813C2.10979 47.122 2.13116 47.2626 2.1432 47.4032L2.15474 47.3922Z" fill="var(--fill-0, white)"/>
<path id="Fill 31" fill-rule="evenodd" clip-rule="evenodd" d="M2.12691 25.9335C2.12077 27.2145 2.10333 28.4956 2.11536 29.7766C2.11831 30.1008 2.03455 30.212 1.70048 30.1946C1.15886 30.1666 0.61453 30.1872 0.0478484 30.1872V25.9453H2.13845L2.12691 25.9335Z" fill="var(--fill-0, white)"/>
<path id="Fill 32" fill-rule="evenodd" clip-rule="evenodd" d="M62.2486 25.9311H60.1391V21.7002H62.2064V22.1002C62.2064 23.2517 62.2054 24.4031 62.2079 25.5546C62.2081 25.6839 62.2268 25.813 62.2371 25.9423L62.2486 25.9311Z" fill="var(--fill-0, white)"/>
<path id="Fill 33" fill-rule="evenodd" clip-rule="evenodd" d="M2.13843 25.9452C2.14629 24.6752 2.1544 23.4055 2.16226 22.1357C2.163 21.9966 2.16226 21.8574 2.16226 21.6982H4.23248V25.9332C3.5189 25.9332 2.82302 25.9332 2.12689 25.9335L2.13843 25.9452Z" fill="var(--fill-0, white)"/>
<path id="Fill 34" fill-rule="evenodd" clip-rule="evenodd" d="M34.3498 70.9911C35.5345 71.0001 36.7192 71.0109 37.9039 71.0173C38.6022 71.0212 38.6025 71.018 38.6022 71.7123C38.6022 72.092 38.6003 72.4716 38.6028 72.851C38.6037 73.0189 38.5553 73.1131 38.3593 73.1121C37.0555 73.1065 35.7516 73.1092 34.3616 73.1092V70.9795L34.3498 70.9911Z" fill="var(--fill-0, white)"/>
<path id="Fill 35" fill-rule="evenodd" clip-rule="evenodd" d="M32.1564 4.44986C31.5514 4.44986 30.9466 4.44298 30.3418 4.45378C30.1299 4.45746 30.0407 4.39022 30.0444 4.17181C30.053 3.66209 30.052 3.15163 30.0449 2.64191C30.0422 2.43258 30.1149 2.35037 30.3355 2.35184C31.557 2.36018 32.7783 2.36018 33.9999 2.35184C34.2138 2.35037 34.2983 2.41761 34.2946 2.63431C34.286 3.13225 34.2833 3.63067 34.2963 4.12861C34.3025 4.37206 34.2226 4.46164 33.9706 4.45501C33.3661 4.4393 32.7611 4.44986 32.1564 4.44986Z" fill="var(--fill-0, white)"/>
<path id="Fill 36" fill-rule="evenodd" clip-rule="evenodd" d="M38.6753 4.44711V2.38812C38.7912 2.3783 38.8936 2.36186 38.9963 2.36186C40.1702 2.36014 41.3444 2.36775 42.5185 2.35548C42.7914 2.35253 42.9027 2.42125 42.8894 2.71328C42.8678 3.19871 42.8953 3.68609 42.8734 4.17152C42.8693 4.26649 42.7366 4.43435 42.6617 4.43533C41.3471 4.45177 40.0319 4.44711 38.6753 4.44711Z" fill="var(--fill-0, white)"/>
<path id="Fill 37" fill-rule="evenodd" clip-rule="evenodd" d="M0.0241474 55.9019V54.3246C0.0241474 53.5526 0.0320077 52.7805 0.0192346 52.0087C0.0155501 51.7707 0.100786 51.6968 0.328244 51.7017C0.826885 51.7127 1.32651 51.6936 1.82417 51.7154C1.92144 51.7199 2.09412 51.8543 2.09486 51.9302C2.10787 53.2242 2.09952 54.5185 2.09461 55.8128C2.09461 55.8339 2.07545 55.8548 2.05236 55.9019H0.0241474Z" fill="var(--fill-0, white)"/>
<path id="Fill 38" fill-rule="evenodd" clip-rule="evenodd" d="M51.5793 73.1083V71.0181H52.5493C53.4992 71.0181 54.4496 71.0264 55.3992 71.0127C55.6566 71.009 55.7632 71.0733 55.7534 71.3477C55.7355 71.8459 55.7576 72.3455 55.7389 72.8435C55.7352 72.9343 55.6168 73.0962 55.5498 73.097C54.2354 73.1122 52.9202 73.1083 51.5793 73.1083Z" fill="var(--fill-0, white)"/>
<path id="Fill 39" fill-rule="evenodd" clip-rule="evenodd" d="M8.53336 4.44798H5.63952C5.29514 4.44798 4.95076 4.4389 4.60712 4.45093C4.40348 4.45829 4.33151 4.37289 4.33274 4.18024C4.33716 3.65801 4.32267 3.13528 4.34625 2.61403C4.35043 2.52642 4.50518 2.37328 4.59189 2.3723C5.82596 2.35635 7.06003 2.35733 8.29386 2.37083C8.37467 2.37181 8.52034 2.5058 8.52279 2.58164C8.54171 3.18485 8.53336 3.78881 8.53336 4.44798Z" fill="var(--fill-0, white)"/>
<path id="Fill 40" fill-rule="evenodd" clip-rule="evenodd" d="M17.0958 4.43015H12.9217C12.9217 3.78275 12.9161 3.14763 12.9318 2.51324C12.9333 2.46097 13.0772 2.36845 13.1556 2.36796C14.3877 2.35863 15.6196 2.35716 16.8517 2.37066C16.9339 2.37164 17.0826 2.50392 17.085 2.57877C17.1042 3.18149 17.0958 3.78496 17.0958 4.43015Z" fill="var(--fill-0, white)"/>
<path id="Fill 41" fill-rule="evenodd" clip-rule="evenodd" d="M47.1579 71.0187V73.0765C47.0658 73.0885 46.9869 73.1079 46.9078 73.1079C45.7089 73.1099 44.5097 73.1033 43.3105 73.1145C43.0631 73.1167 42.9747 73.0417 42.9818 72.7926C42.9963 72.2944 42.9752 71.7947 42.9968 71.297C43.0007 71.2013 43.1326 71.0315 43.2073 71.0305C44.5109 71.0141 45.8147 71.0187 47.1579 71.0187Z" fill="var(--fill-0, white)"/>
<path id="Fill 42" fill-rule="evenodd" clip-rule="evenodd" d="M0.0426175 64.4904V60.315C0.685446 60.315 1.31059 60.3091 1.93524 60.3243C1.99419 60.3258 2.09908 60.4598 2.09957 60.5329C2.10989 61.7796 2.11062 63.0265 2.09785 64.2732C2.09711 64.3463 1.96889 64.4789 1.89717 64.4808C1.2929 64.4975 0.688148 64.4904 0.0426175 64.4904Z" fill="var(--fill-0, white)"/>
<path id="Fill 43" fill-rule="evenodd" clip-rule="evenodd" d="M62.2042 60.1959H60.1439V56.035C60.7828 56.035 61.4074 56.0303 62.0318 56.0426C62.0903 56.0438 62.1966 56.1523 62.1969 56.2114C62.2065 57.5254 62.2042 58.8393 62.2042 60.1959Z" fill="var(--fill-0, white)"/>
<path id="Fill 44" fill-rule="evenodd" clip-rule="evenodd" d="M2.18198 60.1788H4.22714V56.0591H2.18198V60.1788Z" fill="var(--fill-0, white)"/>
<path id="Fill 45" fill-rule="evenodd" clip-rule="evenodd" d="M51.4505 4.42904H47.2698C47.2698 3.78754 47.2629 3.1637 47.2806 2.5406C47.2823 2.47876 47.4346 2.3698 47.5179 2.36906C48.7505 2.35802 49.9828 2.35728 51.2154 2.37103C51.2945 2.37201 51.4377 2.50895 51.4402 2.586C51.4588 3.18824 51.4505 3.79122 51.4505 4.42904Z" fill="var(--fill-0, white)"/>
<path id="Fill 46" fill-rule="evenodd" clip-rule="evenodd" d="M60.018 4.42972H55.8397C55.8397 3.78306 55.8343 3.14793 55.8498 2.51306C55.851 2.46078 55.995 2.36851 56.0728 2.36777C57.3054 2.35869 58.538 2.35722 59.7704 2.37047C59.8537 2.37146 60.0045 2.50324 60.0069 2.57809C60.0266 3.18082 60.018 3.78429 60.018 4.42972Z" fill="var(--fill-0, white)"/>
<path id="Fill 47" fill-rule="evenodd" clip-rule="evenodd" d="M4.21265 8.70698H2.16208V7.3052C2.16208 6.48528 2.16945 5.66512 2.15791 4.84544C2.15447 4.61402 2.22791 4.52715 2.46078 4.5323C2.95942 4.54334 3.45879 4.53647 3.95768 4.53549C4.12422 4.535 4.2576 4.5458 4.25614 4.77697C4.24827 6.04845 4.25097 7.31992 4.24851 8.5914C4.24851 8.62403 4.22862 8.65643 4.21265 8.70698Z" fill="var(--fill-0, white)"/>
<path id="Fill 48" fill-rule="evenodd" clip-rule="evenodd" d="M0.0490794 34.577C0.685276 34.577 1.30035 34.5699 1.91468 34.5873C1.98076 34.589 2.09842 34.7321 2.09915 34.8104C2.11094 36.0453 2.11094 37.2807 2.09915 38.5156C2.09842 38.5959 1.98346 38.7426 1.91812 38.7443C1.30354 38.762 0.688469 38.7549 0.0490794 38.7549V34.577Z" fill="var(--fill-0, white)"/>
<path id="Fill 49" fill-rule="evenodd" clip-rule="evenodd" d="M62.1651 34.4515H60.1178V33.914C60.1178 32.8104 60.1244 31.707 60.1129 30.6039C60.1102 30.3548 60.1888 30.2699 60.4359 30.2768C60.9335 30.2908 61.4322 30.2849 61.9301 30.2795C62.117 30.2778 62.2108 30.3315 62.2096 30.5423C62.2015 31.7998 62.2042 33.0573 62.2017 34.3148C62.2017 34.3484 62.1843 34.3818 62.1651 34.4515Z" fill="var(--fill-0, white)"/>
<path id="Fill 50" fill-rule="evenodd" clip-rule="evenodd" d="M4.23977 30.2809V34.4401H2.19191C2.18233 34.3537 2.1639 34.2634 2.16366 34.1728C2.16169 32.9853 2.16808 31.7975 2.15752 30.6097C2.15555 30.3675 2.22015 30.2703 2.47463 30.2764C3.05286 30.2907 3.63133 30.2809 4.23977 30.2809Z" fill="var(--fill-0, white)"/>
<path id="Fill 51" fill-rule="evenodd" clip-rule="evenodd" d="M2.18149 17.2591H4.22788V13.1384H2.18149V17.2591Z" fill="var(--fill-0, white)"/>
<path id="Fill 52" fill-rule="evenodd" clip-rule="evenodd" d="M62.2054 8.71238H60.1509C60.1389 8.62182 60.1195 8.54304 60.1193 8.46402C60.1173 7.26543 60.1232 6.0666 60.1131 4.86777C60.1112 4.62751 60.174 4.52419 60.4295 4.53131C60.9277 4.54555 61.4268 4.52444 61.924 4.54604C62.021 4.55045 62.1924 4.68347 62.1934 4.75881C62.2104 6.06218 62.2054 7.36581 62.2054 8.71238Z" fill="var(--fill-0, white)"/>
<path id="Fill 53" fill-rule="evenodd" clip-rule="evenodd" d="M0.0488562 8.83291C0.685789 8.83291 1.30062 8.82579 1.91495 8.84322C1.98103 8.84518 2.09819 8.98899 2.09918 9.06801C2.11097 10.3029 2.11097 11.5381 2.09918 12.773C2.09844 12.8525 1.98299 12.9975 1.91765 12.9995C1.30307 13.0169 0.688246 13.0098 0.0488562 13.0098V8.83291Z" fill="var(--fill-0, white)"/>
<path id="Fill 54" fill-rule="evenodd" clip-rule="evenodd" d="M17.2208 73.0783H21.3543V71.0433H17.2208V73.0783Z" fill="var(--fill-0, white)"/>
<path id="Fill 55" fill-rule="evenodd" clip-rule="evenodd" d="M0.0689977 17.3989C0.687508 17.3989 1.31241 17.3933 1.93681 17.4085C1.99527 17.4097 2.09918 17.5435 2.09991 17.6163C2.10998 18.8618 2.11195 20.1073 2.09549 21.3525C2.09451 21.4349 1.93239 21.5817 1.84003 21.5856C1.31928 21.6082 0.79657 21.6079 0.275823 21.5851C0.188622 21.5812 0.0360825 21.4293 0.0350999 21.3444C0.0206074 20.0754 0.0260114 18.8061 0.0287134 17.5368C0.0287134 17.5042 0.0471361 17.4713 0.0689977 17.3989Z" fill="var(--fill-0, white)"/>
<path id="Fill 56" fill-rule="evenodd" clip-rule="evenodd" d="M60.1473 17.2724H62.1809V13.138H60.1473V17.2724Z" fill="var(--fill-0, white)"/>
<path id="Fill 57" fill-rule="evenodd" clip-rule="evenodd" d="M7.79284 66.1699C7.79284 65.2106 7.78621 64.2751 7.79603 63.3398C7.80045 62.9148 7.78817 62.4802 7.87071 62.0674C8.06181 61.1135 8.98024 60.509 10.0102 60.6064C10.9021 60.6909 11.6631 61.5189 11.6736 62.4475C11.6867 63.5987 11.6785 64.7505 11.6781 65.9019C11.6781 65.9829 11.6641 66.0639 11.6542 66.1699H7.79284Z" fill="var(--fill-0, white)"/>
<path id="Fill 58" fill-rule="evenodd" clip-rule="evenodd" d="M12.5043 57.5498H10.3847C10.3729 57.4595 10.3538 57.3805 10.3535 57.3015C10.3516 56.3998 10.3474 55.4984 10.3545 54.5968C10.3594 53.9685 10.8121 53.5253 11.4319 53.5229C12.0501 53.5204 12.52 53.9673 12.5259 54.5853C12.534 55.4867 12.5289 56.3883 12.5274 57.2899C12.5274 57.3699 12.5136 57.4499 12.5043 57.5498Z" fill="var(--fill-0, white)"/>
<path id="Fill 59" fill-rule="evenodd" clip-rule="evenodd" d="M9.17191 57.5694C8.47725 57.5694 7.82706 57.5775 7.17809 57.5579C7.10955 57.5557 6.98968 57.3917 6.98846 57.3017C6.97617 56.388 6.96831 55.4739 6.99018 54.5604C7.00516 53.9403 7.46302 53.5236 8.06778 53.5231C8.66222 53.5228 9.15152 53.9543 9.16577 54.5558C9.18861 55.5394 9.17191 56.5237 9.17191 57.5694Z" fill="var(--fill-0, white)"/>
<path id="Fill 60" fill-rule="evenodd" clip-rule="evenodd" d="M56.5755 66.176H52.7345C52.7345 64.785 52.6399 63.4051 52.7664 62.0457C52.8563 61.0813 53.8401 60.5212 54.8693 60.6057C55.744 60.6773 56.533 61.495 56.5657 62.4693C56.6067 63.6897 56.5755 64.9126 56.5755 66.176Z" fill="var(--fill-0, white)"/>
<path id="Fill 61" fill-rule="evenodd" clip-rule="evenodd" d="M54.016 57.5515H51.8588C51.8515 57.4087 51.8402 57.2821 51.8399 57.1557C51.8387 56.3014 51.8338 55.4474 51.8419 54.5933C51.848 53.9631 52.301 53.5234 52.9229 53.5229C53.5375 53.5221 54.0086 53.9727 54.0138 54.5897C54.0219 55.5617 54.016 56.5338 54.016 57.5515Z" fill="var(--fill-0, white)"/>
<path id="Fill 62" fill-rule="evenodd" clip-rule="evenodd" d="M55.2012 57.5465C55.2012 56.5008 55.1757 55.4819 55.2113 54.4651C55.2312 53.8945 55.7581 53.5019 56.3493 53.524C56.9197 53.5453 57.3638 53.9689 57.3712 54.541C57.3844 55.5344 57.3751 56.528 57.3751 57.5465H55.2012Z" fill="var(--fill-0, white)"/>
<path id="Fill 63" fill-rule="evenodd" clip-rule="evenodd" d="M33.5671 25.4075C33.5671 26.5472 33.5698 27.6869 33.5646 28.8263C33.5636 29.0403 33.5845 29.1981 33.8599 29.1937C34.4531 29.1844 35.0468 29.1871 35.64 29.1927C35.8584 29.1949 35.9261 29.0926 35.9259 28.8877C35.922 26.5965 35.9259 24.3054 35.92 22.0145C35.9188 21.5445 35.7348 21.16 35.302 20.9298C34.4887 20.4969 33.5845 21.0598 33.5712 22.0243C33.5553 23.152 33.5676 24.2799 33.5671 25.4075ZM36.4602 29.7466H33.0446C33.0353 29.6328 33.0178 29.5199 33.0178 29.407C33.0163 26.9116 33.0132 24.4163 33.0193 21.9212C33.021 21.0512 33.6452 20.3351 34.455 20.2429C35.4324 20.1314 36.2106 20.6289 36.4408 21.5168C36.4675 21.6184 36.4788 21.7268 36.4788 21.8324C36.4815 24.3871 36.4818 26.9416 36.4815 29.4963C36.4815 29.5663 36.4697 29.6359 36.4602 29.7466Z" fill="var(--fill-0, white)"/>
<path id="Fill 64" fill-rule="evenodd" clip-rule="evenodd" d="M30.7936 25.4576C30.7936 24.3656 30.8046 23.2732 30.7857 22.1814C30.7808 21.9056 30.7305 21.6066 30.6111 21.3622C30.3927 20.9158 29.8295 20.6984 29.3709 20.8164C28.7745 20.9698 28.4406 21.386 28.4384 22.0354C28.4316 24.3025 28.4404 26.5698 28.4296 28.8372C28.4281 29.1349 28.5532 29.2001 28.8111 29.1955C29.3451 29.1859 29.8796 29.1805 30.4131 29.1977C30.7098 29.2073 30.8019 29.0961 30.7988 28.805C30.7857 27.6894 30.7933 26.5735 30.7936 25.4576ZM31.3276 29.7467H27.9123C27.9027 29.6326 27.8858 29.5197 27.8858 29.4068C27.8845 26.9117 27.8818 24.4164 27.8872 21.921C27.889 21.0658 28.4974 20.3506 29.2871 20.2461C30.2684 20.116 31.0454 20.5926 31.2957 21.4837C31.3271 21.5959 31.346 21.7159 31.346 21.8324C31.3495 24.3869 31.3497 26.9416 31.3492 29.4964C31.3492 29.5661 31.3374 29.636 31.3276 29.7467Z" fill="var(--fill-0, white)"/>
<path id="Fill 65" fill-rule="evenodd" clip-rule="evenodd" d="M28.8566 62.0738C28.8566 63.0709 28.8644 64.0682 28.8514 65.0654C28.848 65.3468 28.9158 65.4619 29.2255 65.4598C31.1955 65.4472 33.1663 65.4475 35.1363 65.4598C35.4438 65.4617 35.5194 65.3491 35.514 65.0661C35.4995 64.3424 35.515 63.6179 35.5079 62.8937C35.4941 61.5062 35.5339 60.1142 35.4396 58.7315C35.3121 56.8608 33.3485 55.4808 31.5276 55.8998C29.9204 56.2696 28.8708 57.5717 28.8581 59.2246C28.8509 60.1743 28.8568 61.1241 28.8566 62.0738ZM32.1213 55.3407C32.3097 55.3068 32.4394 55.2543 32.5637 55.2651C34.1758 55.4065 35.6332 56.6843 35.9682 58.2616C36.0341 58.5718 36.0549 58.8967 36.0559 59.2148C36.0633 61.365 36.0601 63.5156 36.0589 65.6659C36.0589 65.7812 36.0461 65.8966 36.0377 66.0298H28.343C28.3292 65.9329 28.3049 65.8426 28.3049 65.7523C28.3066 63.4594 28.2887 61.1663 28.3216 58.8736C28.3459 57.1788 29.7563 55.6087 31.4343 55.3287C31.6207 55.2978 31.8094 55.2676 31.9968 55.2661C32.0653 55.2654 32.1343 55.3493 32.1213 55.3407Z" fill="var(--fill-0, white)"/>
<path id="Fill 66" fill-rule="evenodd" clip-rule="evenodd" d="M57.3784 46.6037C57.3784 47.0541 57.37 47.5046 57.3818 47.9545C57.3877 48.1859 57.2973 48.272 57.0701 48.2686C56.5491 48.2603 56.0276 48.2612 55.5064 48.2686C55.2868 48.2715 55.1895 48.2038 55.1927 47.9623C55.2045 47.0619 55.1898 46.161 55.2006 45.2606C55.2077 44.6613 55.7017 44.2024 56.3071 44.2041C56.9011 44.2058 57.3577 44.6468 57.3734 45.253C57.3852 45.7028 57.3759 46.1534 57.3759 46.6037H57.3784Z" fill="var(--fill-0, white)"/>
<path id="Fill 67" fill-rule="evenodd" clip-rule="evenodd" d="M54.0165 46.6141C54.0167 47.0524 54.0064 47.4909 54.0209 47.9288C54.0288 48.167 53.9595 48.2758 53.7045 48.2699C53.1838 48.2578 52.6623 48.2601 52.1413 48.2686C51.9106 48.2726 51.833 48.1801 51.8357 47.9518C51.8453 47.0517 51.8335 46.1512 51.8428 45.2508C51.8495 44.6572 52.3201 44.2078 52.9136 44.2041C53.5181 44.2002 53.9958 44.6594 54.0157 45.2636C54.0165 45.2871 54.0165 45.311 54.0165 45.3348V46.6141Z" fill="var(--fill-0, white)"/>
<path id="Fill 68" fill-rule="evenodd" clip-rule="evenodd" d="M6.98445 46.5739C6.98445 46.1351 6.96922 45.6958 6.98838 45.2582C7.01614 44.6189 7.46786 44.1973 8.08613 44.204C8.67737 44.2103 9.16078 44.6813 9.16963 45.2933C9.18215 46.1825 9.1684 47.0718 9.17675 47.9609C9.17871 48.1666 9.12394 48.2702 8.90164 48.2675C8.35633 48.2606 7.81102 48.2613 7.26595 48.2667C7.04832 48.2689 6.97512 48.1654 6.97807 47.9609C6.98396 47.4988 6.97978 47.0362 6.97978 46.5739H6.98445Z" fill="var(--fill-0, white)"/>
<path id="Fill 69" fill-rule="evenodd" clip-rule="evenodd" d="M10.3526 46.5447C10.3531 46.1181 10.3474 45.6916 10.3546 45.2651C10.3646 44.6695 10.8267 44.2106 11.4118 44.2042C12.0256 44.1975 12.5176 44.6471 12.5247 45.2484C12.5355 46.1486 12.5225 47.0492 12.5324 47.9494C12.5348 48.1754 12.4651 48.2728 12.231 48.2687C11.71 48.2596 11.1885 48.2581 10.6675 48.2697C10.4165 48.2751 10.3401 48.172 10.3477 47.9305C10.3624 47.4691 10.3521 47.0068 10.3526 46.5447Z" fill="var(--fill-0, white)"/>
<path id="Fill 70" fill-rule="evenodd" clip-rule="evenodd" d="M21.0449 64.3044C21.0449 63.8188 21.0366 63.3326 21.0471 62.8472C21.0594 62.2842 21.4718 61.8042 21.9705 61.7507C22.4377 61.7006 22.897 62.0999 23.0147 62.6742C23.052 62.8577 23.068 63.0487 23.0695 63.2364C23.0751 64.0897 23.0638 64.9428 23.0768 65.7958C23.0808 66.0469 22.9985 66.1278 22.7511 66.1197C22.278 66.1043 21.8035 66.1075 21.3299 66.1188C21.1159 66.1237 21.0344 66.051 21.0393 65.8329C21.0501 65.3236 21.0425 64.8139 21.0425 64.3044H21.0449Z" fill="var(--fill-0, white)"/>
<path id="Fill 71" fill-rule="evenodd" clip-rule="evenodd" d="M41.3027 66.1143C41.3027 64.9781 41.2668 63.9 41.3147 62.8253C41.3488 62.0501 42.0406 61.5693 42.6485 61.8277C43.0673 62.0057 43.3048 62.3534 43.3149 62.7974C43.3382 63.8161 43.3287 64.8357 43.3161 65.8547C43.3149 65.9421 43.1936 66.1006 43.1241 66.103C42.5348 66.1229 41.9443 66.1143 41.3027 66.1143Z" fill="var(--fill-0, white)"/>
<path id="Fill 72" fill-rule="evenodd" clip-rule="evenodd" d="M21.1131 53.0981C21.1131 52.6949 21.0996 52.2912 21.1167 51.889C21.1369 51.4102 21.4867 51.0644 21.9482 51.0347C22.451 51.0026 22.8932 51.2742 22.9273 51.7525C22.9905 52.6368 22.9804 53.5264 22.9819 54.414C22.9821 54.4751 22.8298 54.5868 22.7453 54.59C22.2835 54.6072 21.8207 54.5934 21.3585 54.5995C21.1467 54.6025 21.1013 54.4891 21.104 54.3075C21.1096 53.9045 21.1057 53.5013 21.1057 53.0981H21.1131Z" fill="var(--fill-0, white)"/>
<path id="Fill 73" fill-rule="evenodd" clip-rule="evenodd" d="M43.2582 53.125C43.2584 53.5167 43.2508 53.9084 43.2614 54.2998C43.267 54.5074 43.2024 54.6059 42.9806 54.6012C42.5299 54.5919 42.0789 54.5936 41.6279 54.6005C41.4255 54.6034 41.3651 54.5158 41.3673 54.3209C41.3754 53.5614 41.3609 52.8016 41.3739 52.0423C41.3845 51.428 41.7775 51.0405 42.3329 51.027C42.829 51.0148 43.3075 51.4631 43.2633 52.0573C43.2366 52.4111 43.2582 52.769 43.2582 53.125Z" fill="var(--fill-0, white)"/>
<path id="Fill 74" fill-rule="evenodd" clip-rule="evenodd" d="M21.1049 46.5876C21.1049 46.3473 21.1042 46.1493 21.1049 45.9512C21.1079 45.2501 21.099 44.549 21.1184 43.8483C21.1309 43.3865 21.5097 43.024 21.961 42.9948C22.4254 42.9648 22.8828 43.2552 22.9253 43.7065C22.9904 44.4015 22.9848 45.1038 22.9934 45.803C23.0034 46.5876 22.9958 46.5876 22.214 46.5876H21.1049Z" fill="var(--fill-0, white)"/>
<path id="Fill 75" fill-rule="evenodd" clip-rule="evenodd" d="M43.2548 46.5714H41.3705C41.3705 45.7311 41.3681 44.9058 41.3732 44.0807C41.374 43.9526 41.3973 43.8216 41.4302 43.6974C41.5545 43.2318 41.9738 42.9454 42.4427 42.9962C42.8878 43.0443 43.245 43.4179 43.2511 43.8859C43.2632 44.7715 43.2548 45.6572 43.2548 46.5714Z" fill="var(--fill-0, white)"/>
<path id="Fill 76" fill-rule="evenodd" clip-rule="evenodd" d="M39.0987 55.0955C39.0987 54.0277 39.0871 52.9768 39.1117 51.9267C39.1151 51.7748 39.2922 51.6273 39.389 51.4776C39.4657 51.6366 39.6042 51.7937 39.6091 51.9549C39.6378 52.8671 39.6347 53.7803 39.6428 54.693C39.6464 55.1156 39.2996 55.012 39.0987 55.0955Z" fill="var(--fill-0, white)"/>
<path id="Fill 77" fill-rule="evenodd" clip-rule="evenodd" d="M25.2769 55.0725C24.7261 55.0281 24.6881 54.9952 24.6957 54.4735C24.7087 53.6229 24.7296 52.7723 24.7507 51.9217C24.7527 51.8407 24.7635 51.7518 24.7998 51.6819C24.8396 51.6051 24.9136 51.546 24.9725 51.479C25.0371 51.5383 25.1219 51.5864 25.1619 51.6593C25.2179 51.7604 25.2712 51.88 25.272 51.9921C25.2803 53.0187 25.2769 54.0455 25.2769 55.0725Z" fill="var(--fill-0, white)"/>
<path id="Fill 78" fill-rule="evenodd" clip-rule="evenodd" d="M18.832 55.0739C18.832 54.0184 18.8313 52.9595 18.834 51.9008C18.834 51.8438 18.848 51.7778 18.8795 51.7324C18.9421 51.6421 19.0212 51.5631 19.0932 51.4794C19.1609 51.5658 19.2604 51.6431 19.2894 51.741C19.3388 51.9081 19.3629 52.088 19.3646 52.263C19.3724 52.997 19.3683 53.7308 19.3683 54.4651C19.3683 55.0067 19.3661 55.0089 18.832 55.0739Z" fill="var(--fill-0, white)"/>
<path id="Fill 79" fill-rule="evenodd" clip-rule="evenodd" d="M45.6039 55.0784C45.0176 55.0306 45.0019 55.0141 45.0019 54.4791C45.0021 53.7085 44.9835 52.9372 45.0147 52.1681C45.024 51.9352 45.1719 51.7084 45.2564 51.4787C45.3647 51.6844 45.5359 51.881 45.5681 52.0979C45.6246 52.4812 45.6005 52.8771 45.603 53.2678C45.6066 53.8705 45.6039 54.4735 45.6039 55.0784Z" fill="var(--fill-0, white)"/>
<path id="Fill 80" fill-rule="evenodd" clip-rule="evenodd" d="M25.2584 47.055C24.6944 46.9639 24.6875 46.9639 24.6959 46.428C24.7091 45.5747 24.7261 44.7216 24.7578 43.8691C24.7634 43.7174 24.8484 43.5689 24.8968 43.4192C24.9454 43.4124 24.9941 43.4055 25.0427 43.3989C25.1223 43.6023 25.2648 43.8038 25.2712 44.0094C25.3006 44.9935 25.2935 45.9784 25.297 46.9632C25.297 46.9941 25.2714 47.0253 25.2584 47.055Z" fill="var(--fill-0, white)"/>
<path id="Fill 81" fill-rule="evenodd" clip-rule="evenodd" d="M39.4412 43.3734C39.508 43.5862 39.6083 43.7636 39.6127 43.9435C39.6365 44.8577 39.634 45.7726 39.6431 46.6872C39.6471 47.0695 39.3056 46.9684 39.1194 47.0926C38.8377 46.4558 39.0349 43.7523 39.4412 43.3734Z" fill="var(--fill-0, white)"/>
<path id="Fill 82" fill-rule="evenodd" clip-rule="evenodd" d="M18.8174 47.1105C18.5752 45.8223 18.7457 43.7321 19.1788 43.3716C19.248 43.6374 19.3529 43.8634 19.3583 44.0914C19.379 44.9582 19.3642 45.826 19.3696 46.6933C19.3721 47.0837 19.0265 46.9581 18.8174 47.1105Z" fill="var(--fill-0, white)"/>
<path id="Fill 83" fill-rule="evenodd" clip-rule="evenodd" d="M45.3641 43.4089C45.4422 43.6695 45.5802 43.9284 45.5881 44.1913C45.6153 45.117 45.5986 46.0444 45.5962 46.971C45.5962 47.0017 45.5704 47.0321 45.5574 47.0609C45.002 46.9671 45.0017 46.9671 45.0017 46.4662C45.002 45.6939 44.9902 44.9211 45.0101 44.1493C45.0165 43.9041 45.1079 43.6612 45.1604 43.4172C45.2282 43.4145 45.2963 43.4116 45.3641 43.4089Z" fill="var(--fill-0, white)"/>
<path id="Fill 84" fill-rule="evenodd" clip-rule="evenodd" d="M48.4141 19.3928C48.5195 19.4373 48.6246 19.4814 48.7585 19.5379C48.7806 19.3752 48.7988 19.2402 48.8172 19.1052C48.8531 19.1057 48.8894 19.106 48.9253 19.1062C48.9378 19.2331 48.9506 19.3602 48.9673 19.5288C49.1223 19.5038 49.2751 19.4787 49.4279 19.454C49.4394 19.4787 49.4507 19.5035 49.4622 19.5281C49.4116 19.556 49.3608 19.6086 49.3107 19.6076C48.8848 19.601 48.8454 19.6454 48.9051 20.066C48.9275 20.2223 48.9327 20.3811 48.9457 20.5389C48.8902 20.5399 48.8349 20.5409 48.7796 20.5421C48.7968 20.3441 48.8133 20.1463 48.8314 19.9485C48.8509 19.7357 48.8464 19.5556 48.5409 19.612C48.4804 19.623 48.4033 19.5448 48.334 19.5077C48.3606 19.4694 48.3876 19.4311 48.4141 19.3928Z" fill="var(--fill-0, white)"/>
<path id="Fill 85" fill-rule="evenodd" clip-rule="evenodd" d="M50.9307 18.4864C50.7573 18.5677 50.6064 18.6384 50.4853 18.695C50.548 18.5799 50.6295 18.4317 50.7108 18.2832C50.772 18.3196 50.8395 18.3483 50.8914 18.3947C50.9216 18.4217 50.927 18.4769 50.9307 18.4864Z" fill="var(--fill-0, white)"/>
<path id="Fill 86" fill-rule="evenodd" clip-rule="evenodd" d="M49.5804 14.9439C49.5045 14.9675 49.4286 14.991 49.2928 15.033C49.4136 15.0951 49.4775 15.128 49.56 15.1702C49.4711 15.2298 49.3994 15.2772 49.2827 15.355C49.2355 15.2291 49.1353 15.0479 49.1643 15.0241C49.266 14.9405 49.4119 14.911 49.5413 14.8612C49.5544 14.8887 49.5671 14.9162 49.5804 14.9439Z" fill="var(--fill-0, white)"/>
<path id="Fill 87" fill-rule="evenodd" clip-rule="evenodd" d="M48.4604 14.8869C48.5073 14.9193 48.6216 14.958 48.6532 15.0321C48.6808 15.0959 48.6329 15.2142 48.582 15.2807C48.5547 15.3166 48.4513 15.2947 48.3821 15.2987C48.3909 15.238 48.3975 15.1769 48.4088 15.1168C48.4201 15.0557 48.4359 14.9953 48.4604 14.8869Z" fill="var(--fill-0, white)"/>
<path id="Fill 88" fill-rule="evenodd" clip-rule="evenodd" d="M44.4067 16.4248C44.4892 16.444 44.572 16.4631 44.6548 16.4822C44.6658 16.4054 44.6902 16.3276 44.6843 16.252C44.6779 16.1713 44.6432 16.0928 44.6209 16.0133C44.6953 16.1529 44.7697 16.2925 44.895 16.5284C44.9611 16.3178 44.9979 16.1998 45.035 16.0817C45.0571 16.083 45.0792 16.0842 45.1016 16.0854C45.0778 16.3141 45.0542 16.5429 45.0365 16.71C44.8825 16.6587 44.7462 16.6224 44.6172 16.5674C44.5408 16.5348 44.4765 16.4734 44.4067 16.4248Z" fill="var(--fill-0, white)"/>
<path id="Fill 89" fill-rule="evenodd" clip-rule="evenodd" d="M18.8232 19.0914C17.9413 19.0914 17.0598 19.0916 16.1779 19.0919V16.0878C17.0598 16.088 17.9416 16.088 18.8232 16.0883V19.0914Z" fill="var(--fill-0, white)"/>
<path id="Fill 90" fill-rule="evenodd" clip-rule="evenodd" d="M10.8311 19.0921H13.4795V16.0878H10.8311V19.0921Z" fill="var(--fill-0, white)"/>
<path id="Fill 91" fill-rule="evenodd" clip-rule="evenodd" d="M18.8229 25.0092C17.9413 25.0092 17.06 25.0095 16.1784 25.0095C16.1782 24.0085 16.1782 23.0072 16.1782 22.0062C17.0598 22.0062 17.9416 22.0061 18.8232 22.0064C18.8232 23.0072 18.8229 24.0082 18.8229 25.0092Z" fill="var(--fill-0, white)"/>
<path id="Fill 92" fill-rule="evenodd" clip-rule="evenodd" d="M10.8168 22.0192H13.4731C13.4856 22.1598 13.5035 22.2727 13.504 22.3858C13.5067 23.1321 13.4971 23.8787 13.5102 24.6247C13.5143 24.8794 13.4475 24.9835 13.1727 24.9774C12.4171 24.9612 11.6608 24.9717 10.8293 24.9717C10.8293 23.9611 10.8293 22.9846 10.829 22.0084C10.8288 22.0084 10.8168 22.0192 10.8168 22.0192Z" fill="var(--fill-0, white)"/>
<path id="Fill 93" fill-rule="evenodd" clip-rule="evenodd" d="M16.1864 19.0836C16.1864 20.0603 16.1864 21.0373 16.1862 22.0143H13.5643V19.0836H16.1864Z" fill="var(--fill-0, white)"/>
</g>
</g>
</g>
</svg>
