<svg width="32" height="32" viewBox="0 0 32 32" fill="none" xmlns="http://www.w3.org/2000/svg">
<path d="M27.5197 23.0403C27.8732 23.0403 28.1603 23.3265 28.1603 23.68C28.1603 24.0335 27.8732 24.3196 27.5197 24.3196H4.47968C4.12637 24.3195 3.84003 24.0333 3.84003 23.68C3.84003 23.3266 4.12637 23.0405 4.47968 23.0403H27.5197ZM27.5197 15.3597C27.8732 15.3597 28.1603 15.6468 28.1603 16.0003C28.1602 16.3536 27.8731 16.64 27.5197 16.64H4.47968C4.12648 16.6398 3.8402 16.3535 3.84003 16.0003C3.84003 15.647 4.12637 15.3599 4.47968 15.3597H27.5197ZM27.5197 7.67999C27.8731 7.67999 28.1601 7.96634 28.1603 8.31964C28.1603 8.6731 27.8732 8.96027 27.5197 8.96027H4.47968C4.12637 8.96008 3.84003 8.67299 3.84003 8.31964C3.84022 7.96646 4.12649 7.68018 4.47968 7.67999H27.5197Z" fill="white"/>
</svg>
