<svg preserveAspectRatio="none" width="100%" height="100%" overflow="visible" style="display: block;" viewBox="0 0 129.956 28.651" fill="none" xmlns="http://www.w3.org/2000/svg">
<g id="Hr prodigy logo">
<path id="Fill 1" fill-rule="evenodd" clip-rule="evenodd" d="M128.451 15.9171L125.403 23.9866L121.951 15.9171H120.39L124.705 25.5633C124.423 26.2494 124.135 26.7241 123.842 26.9873C123.542 27.2518 123.156 27.392 122.759 27.3805C122.491 27.3844 122.222 27.356 121.96 27.2959C121.721 27.2345 121.489 27.1432 121.271 27.0245L120.794 28.1637C121.099 28.3203 121.419 28.4426 121.75 28.5282C122.098 28.6135 122.456 28.6546 122.814 28.6507C123.523 28.6507 124.126 28.4443 124.622 28.0316C125.119 27.619 125.568 26.9137 125.972 25.9155L129.956 15.9133L128.451 15.9171Z" fill="var(--fill-0, white)"/>
<path id="Fill 4" fill-rule="evenodd" clip-rule="evenodd" d="M40.2889 17.6781H35.074V12.489H32.247V25.6004H35.074V20.3372H40.2889V25.6004H43.116V12.489H40.2889V17.6781Z" fill="var(--fill-0, white)"/>
<path id="Fill 6" fill-rule="evenodd" clip-rule="evenodd" d="M53.4332 17.0031C53.4332 17.5651 53.247 18.0148 52.8748 18.3522C52.5026 18.6895 51.9672 18.8582 51.2687 18.8582H48.4081V15.093H51.2165C51.9145 15.093 52.4591 15.249 52.8506 15.5612C53.2421 15.8731 53.4381 16.3414 53.4387 16.9661L53.4332 17.0031ZM55.5372 19.4477C56.0453 18.7794 56.2993 17.9146 56.2993 16.8531V16.8161C56.2993 15.4547 55.8738 14.3934 55.0226 13.632C54.1715 12.8706 52.9813 12.4909 51.452 12.4928H45.5764V25.6005H48.4081V21.4053H50.6294L53.3838 25.6005H56.6883L53.5448 20.9182C54.332 20.6303 55.0228 20.1204 55.5372 19.4477Z" fill="var(--fill-0, white)"/>
<path id="Fill 8" fill-rule="evenodd" clip-rule="evenodd" d="M71.9319 17.9117C71.7645 18.2698 71.5188 18.5839 71.2135 18.8297C70.8792 19.0973 70.4981 19.2975 70.0903 19.4192C69.6212 19.5619 69.1337 19.6316 68.6442 19.6262H65.4607V13.8561H68.7177C69.7611 13.8561 70.5987 14.0965 71.2302 14.5776C71.8618 15.0585 72.1779 15.7734 72.1785 16.7221C72.1847 17.1324 72.1005 17.5389 71.9319 17.9117ZM72.3181 13.6035C71.8666 13.2319 71.3494 12.9522 70.7947 12.7795C70.1555 12.5791 69.4897 12.4811 68.821 12.489H64.01V25.6004H65.4607V20.9743H68.5818C69.2397 20.9782 69.8949 20.8868 70.5276 20.7026C71.1101 20.538 71.6565 20.2616 72.1375 19.8881C72.5954 19.5269 72.9686 19.066 73.23 18.5391C73.5093 17.9567 73.6477 17.3144 73.6339 16.6661C73.6432 16.0643 73.5274 15.4674 73.2942 14.9146C73.0736 14.4058 72.7393 13.9569 72.3181 13.6035Z" fill="var(--fill-0, white)"/>
<path id="Fill 10" fill-rule="evenodd" clip-rule="evenodd" d="M78.4654 16.4696C78.1323 16.7152 77.8355 17.0085 77.5841 17.3401C77.3257 17.6802 77.1097 18.0516 76.9411 18.4461V15.9171H75.5257V25.6005H76.9392V21.7422C76.9278 21.0898 77.0273 20.4404 77.2333 19.8226C77.406 19.306 77.6809 18.831 78.0409 18.4271C78.3753 18.0578 78.7864 17.7698 79.2442 17.5841C79.7081 17.3946 80.2036 17.298 80.7034 17.2993H80.8132V15.748C80.3847 15.7328 79.9568 15.7899 79.5467 15.9171C79.1593 16.0403 78.794 16.2268 78.4654 16.4696Z" fill="var(--fill-0, white)"/>
<path id="Fill 12" fill-rule="evenodd" clip-rule="evenodd" d="M89.7904 22.2492C89.6281 22.6879 89.3848 23.0907 89.0738 23.4359C88.764 23.775 88.3888 24.0452 87.972 24.2295C87.5266 24.4245 87.0459 24.5216 86.5613 24.5143C86.0803 24.5191 85.604 24.417 85.1654 24.2153C84.7454 24.0245 84.366 23.7516 84.0488 23.4121C83.73 23.066 83.4805 22.6597 83.3146 22.2159C83.1348 21.7455 83.044 21.2447 83.0475 20.7398C83.0435 20.239 83.131 19.742 83.3052 19.2739C83.4673 18.8347 83.7067 18.4293 84.0114 18.0778C84.3148 17.733 84.6874 17.4591 85.104 17.2747C85.5502 17.0772 86.0322 16.9783 86.5185 16.9841C86.9996 16.9797 87.4759 17.0821 87.9143 17.2841C88.3347 17.4784 88.7141 17.7545 89.031 18.0968C89.3531 18.4456 89.6059 18.8546 89.7755 19.3015C89.9544 19.7721 90.0446 20.273 90.0416 20.7777C90.0473 21.2782 89.9621 21.7755 89.7904 22.2444V22.2492ZM90.1021 17.2043C89.6524 16.7424 89.1192 16.3736 88.5321 16.1183C86.0527 14.9908 83.1468 16.1274 82.0415 18.6568C82.0159 18.7155 81.9914 18.7747 81.9679 18.8344C81.7227 19.4566 81.5982 20.1214 81.6013 20.7919C81.5977 21.4595 81.7223 22.1213 81.9679 22.74C82.2041 23.3378 82.5534 23.882 82.9963 24.3415C83.4439 24.8017 83.9736 25.1703 84.5569 25.4276C85.1773 25.7003 85.8467 25.8374 86.5222 25.8302C87.2029 25.8362 87.8777 25.6992 88.5043 25.4276C89.0978 25.1735 89.6356 24.801 90.0863 24.332C91.4698 22.8603 91.8795 20.6978 91.1332 18.8059C90.8964 18.2079 90.546 17.6635 90.1021 17.2043Z" fill="var(--fill-0, white)"/>
<path id="Fill 14" fill-rule="evenodd" clip-rule="evenodd" d="M101.089 22.2901C100.913 22.734 100.651 23.1367 100.318 23.4739C99.9997 23.7928 99.6264 24.049 99.217 24.2296C98.8144 24.408 98.3801 24.4997 97.9412 24.4992C97.5 24.5018 97.0628 24.4133 96.6561 24.239C96.2533 24.0657 95.8905 23.8087 95.5906 23.4843C95.2759 23.1413 95.0298 22.7393 94.8657 22.3004C94.682 21.8064 94.5918 21.2814 94.5995 20.7531C94.5913 20.2156 94.6816 19.6815 94.8657 19.1781C95.0246 18.742 95.2679 18.343 95.5813 18.0046C95.8794 17.6893 96.2393 17.4416 96.6374 17.2774C97.0514 17.1077 97.494 17.0222 97.9402 17.0259C98.3792 17.0256 98.8135 17.1178 99.216 17.2964C99.6259 17.4763 99.9995 17.7321 100.318 18.0512C100.65 18.3857 100.912 18.7851 101.089 19.2256C101.283 19.7102 101.38 20.2296 101.373 20.7531C101.378 21.2785 101.282 21.7999 101.089 22.2872V22.2901ZM101.318 17.774C101.13 17.4937 100.918 17.2303 100.685 16.987C100.445 16.7369 100.177 16.5171 99.886 16.3319C99.5767 16.1377 99.2434 15.9865 98.895 15.882C98.5018 15.7663 98.0943 15.7098 97.6853 15.7138C97.1097 15.7134 96.54 15.8313 96.0103 16.0604C95.4708 16.293 94.9799 16.6288 94.5641 17.0497C94.1235 17.5031 93.7755 18.0414 93.5405 18.6331C93.0264 20.0089 93.0264 21.5294 93.5405 22.9051C93.7755 23.497 94.1235 24.0352 94.5641 24.4887C94.9797 24.9104 95.4728 25.2442 96.0149 25.4713C96.5461 25.6951 97.1152 25.81 97.6899 25.8092C98.0967 25.8138 98.5017 25.7569 98.8922 25.6403C99.2404 25.5341 99.5714 25.3764 99.8749 25.1722C100.167 24.9739 100.435 24.7412 100.673 24.4793C100.909 24.2202 101.126 23.945 101.325 23.6552V25.6023H102.739V11.9317H101.325L101.318 17.774Z" fill="var(--fill-0, white)"/>
<mask id="mask0_0_4" style="mask-type:alpha" maskUnits="userSpaceOnUse" x="0" y="0" width="130" height="29">
<g id="mask 2">
<path id="Vector" d="M0 28.6509H129.956V0H0V28.6509Z" fill="var(--fill-0, white)"/>
</g>
</mask>
<g mask="url(#mask0_0_4)">
<path id="Fill 16" fill-rule="evenodd" clip-rule="evenodd" d="M105.534 25.6014H106.947V15.9171H105.534V25.6014Z" fill="var(--fill-0, white)"/>
<path id="Fill 18" fill-rule="evenodd" clip-rule="evenodd" d="M105.442 13.8H107.057V12.208H105.442V13.8Z" fill="var(--fill-0, white)"/>
<path id="Fill 19" fill-rule="evenodd" clip-rule="evenodd" d="M117.057 21.6397C116.867 22.0359 116.602 22.389 116.276 22.6783C115.949 22.9674 115.572 23.1926 115.165 23.3428C114.748 23.4996 114.307 23.5789 113.862 23.5774C113.432 23.5796 113.006 23.5001 112.604 23.3428C112.214 23.1923 111.858 22.9629 111.557 22.6688C110.917 22.0402 110.561 21.1681 110.575 20.2613C110.569 19.7956 110.657 19.3336 110.832 18.9038C110.995 18.5109 111.236 18.1568 111.54 17.8642C111.841 17.5755 112.197 17.3525 112.585 17.2082C112.995 17.0563 113.427 16.98 113.862 16.9832C114.307 16.982 114.748 17.0614 115.165 17.2176C115.572 17.3683 115.948 17.5936 116.276 17.8822C116.603 18.1731 116.868 18.5283 117.057 18.9265C117.448 19.7879 117.448 20.7811 117.057 21.6426V21.6397ZM117.295 17.6591C117.095 17.3919 116.874 17.1413 116.634 16.9102C116.387 16.6712 116.113 16.4635 115.817 16.2911C115.499 16.1088 115.16 15.9673 114.808 15.8697C113.857 15.6131 112.852 15.6688 111.934 16.0291C111.404 16.236 110.918 16.5444 110.502 16.9377C110.076 17.3443 109.736 17.8349 109.502 18.3796C109.245 18.9854 109.118 19.6402 109.129 20.3003C109.117 20.9568 109.244 21.6084 109.502 22.2104C109.969 23.2875 110.84 24.128 111.921 24.5428C112.452 24.7484 113.015 24.8531 113.583 24.8513C114.452 24.8513 115.186 24.6517 115.786 24.2524C116.372 23.8658 116.888 23.3779 117.31 22.8102V23.9495C117.31 25.0887 116.998 25.9473 116.374 26.525C115.75 27.1029 114.912 27.3933 113.861 27.3966C113.206 27.4016 112.554 27.2938 111.933 27.0776C111.318 26.857 110.737 26.5478 110.207 26.1595L109.565 27.2836C110.188 27.7274 110.876 28.0689 111.603 28.2956C112.341 28.5229 113.108 28.6364 113.879 28.6326C114.554 28.6414 115.227 28.5402 115.871 28.3326C116.436 28.1501 116.955 27.8469 117.396 27.4431C117.827 27.036 118.159 26.5327 118.368 25.9726C118.607 25.3137 118.722 24.6149 118.708 23.9124V15.9171H117.294L117.295 17.6591Z" fill="var(--fill-0, white)"/>
<path id="Fill 20" fill-rule="evenodd" clip-rule="evenodd" d="M13.2122 1.34745C13.9421 1.34745 14.5336 1.95096 14.5336 2.69553C14.5336 3.44001 13.9421 4.0436 13.2122 4.0436C12.4825 4.0436 11.8908 3.44001 11.8908 2.69553C11.8908 1.95096 12.4825 1.34745 13.2122 1.34745Z" fill="var(--fill-0, white)"/>
<path id="Fill 21" fill-rule="evenodd" clip-rule="evenodd" d="M2.33925 1.39432C3.04713 1.20075 3.77483 1.62928 3.96458 2.35145C4.15432 3.07362 3.73426 3.81601 3.02638 4.00958C2.3185 4.20316 1.5908 3.77462 1.40106 3.05245C1.21131 2.33028 1.63137 1.58789 2.33925 1.39432Z" fill="var(--fill-0, white)"/>
<path id="Fill 22" fill-rule="evenodd" clip-rule="evenodd" d="M1.83393 23.196C2.41135 22.7406 3.24123 22.849 3.68753 23.4379C4.13401 24.027 4.02784 24.8736 3.45051 25.329C2.8731 25.7844 2.04322 25.6761 1.59683 25.0871C1.15043 24.4981 1.25661 23.6514 1.83393 23.196Z" fill="var(--fill-0, white)"/>
<path id="Fill 23" fill-rule="evenodd" clip-rule="evenodd" d="M13.2122 22.9166C13.9421 22.9166 14.5336 23.5201 14.5336 24.2647C14.5336 25.0093 13.9421 25.6128 13.2122 25.6128C12.4825 25.6128 11.8908 25.0093 11.8908 24.2647C11.8908 23.5201 12.4825 22.9166 13.2122 22.9166Z" fill="var(--fill-0, white)"/>
<path id="Fill 24" fill-rule="evenodd" clip-rule="evenodd" d="M13.2122 12.132C13.9421 12.132 14.5336 12.7356 14.5336 13.4801C14.5336 14.2245 13.9421 14.8281 13.2122 14.8281C12.4825 14.8281 11.8908 14.2245 11.8908 13.4801C11.8908 12.7356 12.4825 12.132 13.2122 12.132Z" fill="var(--fill-0, white)"/>
<path id="Fill 25" fill-rule="evenodd" clip-rule="evenodd" d="M23.7835 25.6156C23.0537 25.6156 22.4621 25.0121 22.4621 24.2676C22.4621 23.523 23.0537 22.9195 23.7835 22.9195C24.5133 22.9195 25.1049 23.523 25.1049 24.2676C25.1034 25.0109 24.5122 25.6128 23.7835 25.6128V25.6156ZM13.2123 16.1792C11.7527 16.1792 10.5694 14.9721 10.5694 13.4829C10.5694 11.994 11.7527 10.7868 13.2123 10.7868C14.6718 10.7868 15.8551 11.994 15.8551 13.4829C15.853 14.9706 14.6705 16.1756 13.2123 16.1762V16.1792ZM2.64103 14.831C1.91128 14.831 1.31962 14.2275 1.31962 13.4829C1.31962 12.7384 1.91128 12.1348 2.64103 12.1348C3.37087 12.1348 3.96243 12.7384 3.96243 13.4829C3.96243 14.2275 3.37087 14.831 2.64103 14.831ZM23.7835 1.35026C24.5133 1.35026 25.1049 1.95385 25.1049 2.69843C25.1049 3.4429 24.5132 4.0464 23.7835 4.0464C23.0537 4.0464 22.4621 3.4429 22.4621 2.69843C22.4615 1.95442 23.0523 1.35083 23.7816 1.35026H23.7835ZM23.8458 21.5714C23.5204 21.563 23.1964 21.6164 22.8901 21.729C22.6478 21.8202 22.3756 21.7599 22.1922 21.5743L16.8554 16.1297C16.6517 15.9258 16.6019 15.6101 16.7326 15.3513C17.3385 14.1616 17.3287 12.7433 16.7065 11.5624C16.5648 11.3001 16.6096 10.9738 16.8163 10.7611L22.1122 5.3566C22.3004 5.16673 22.581 5.10863 22.8269 5.2085C24.187 5.74716 25.7177 5.05907 26.2457 3.67151C26.7739 2.28385 26.0994 0.722265 24.7393 0.18351C23.379 -0.355245 21.8484 0.332937 21.3203 1.7205C21.0815 2.34802 21.0815 3.04399 21.3203 3.67151C21.4183 3.92232 21.3614 4.20865 21.1751 4.40051L15.8793 9.79945C15.6708 10.0102 15.3513 10.0562 15.0939 9.91242C13.1646 8.8521 10.7581 9.58803 9.71863 11.5562C9.59114 11.7976 9.48803 12.0517 9.41089 12.3144C9.32863 12.6013 9.07123 12.799 8.77811 12.8003H5.66723C5.40574 12.8001 5.16909 12.6422 5.06422 12.3979C4.47861 11.0339 2.92001 10.4125 1.58307 11.0101C0.246124 11.6075 -0.362838 13.1974 0.222766 14.5615C0.808371 15.9254 2.36688 16.5467 3.70383 15.9492C4.31214 15.6773 4.7978 15.182 5.06422 14.5615C5.16863 14.314 5.40695 14.1533 5.67095 14.1522H8.7809C9.07412 14.1533 9.33161 14.3512 9.41368 14.6383C10.0406 16.7816 12.252 18.0007 14.3528 17.3611C14.6323 17.276 14.9017 17.1598 15.1562 17.0145C15.4146 16.8642 15.7397 16.9081 15.9509 17.1218L21.2077 22.4847C21.398 22.6813 21.4525 22.976 21.3454 23.2299C21.2025 23.5776 21.1333 23.9522 21.1425 24.3292C21.1763 25.8179 22.3866 26.9968 23.8458 26.9623C25.305 26.9278 26.4605 25.6929 26.4267 24.2044C26.3941 22.7643 25.2575 21.6048 23.8458 21.5714Z" fill="var(--fill-0, white)"/>
<path id="Fill 26" fill-rule="evenodd" clip-rule="evenodd" d="M23.7835 12.132C24.5133 12.132 25.1049 12.7356 25.1049 13.4801C25.1049 14.2245 24.5133 14.8281 23.7835 14.8281C23.0537 14.8281 22.4621 14.2245 22.4621 13.4801C22.4621 12.7356 23.0537 12.132 23.7835 12.132Z" fill="var(--fill-0, white)"/>
</g>
</g>
</svg>
