<svg preserveAspectRatio="none" width="118.519" height="29.3629" overflow="visible" style="display: block;"
     viewBox="0 0 118.519 29.3629" fill="none" xmlns="http://www.w3.org/2000/svg">
    <g id="HRC logo">
        <g id="Group 3">
            <mask id="mask0_0_89" style="mask-type:alpha" maskUnits="userSpaceOnUse" x="0" y="0" width="38" height="30">
                <g id="mask 2">
                    <path id="Vector" d="M0 0H37.6627V29.3629H0V0Z" fill="var(--fill-0, white)"/>
                </g>
            </mask>
            <g mask="url(#mask0_0_89)">
                <path id="Fill 1" fill-rule="evenodd" clip-rule="evenodd"
                      d="M10.8965 16.321H10.9028C10.9028 17.8329 10.8946 19.3449 10.9066 20.8566C10.9117 21.5035 11.1924 21.9458 11.8677 21.966C12.5493 21.9867 12.8277 21.536 12.889 20.9068C12.9263 20.5233 12.9097 20.1342 12.9174 19.7477C12.9819 16.5324 12.3682 16.9782 15.7921 16.9308C16.5519 16.92 16.8038 17.2793 16.7813 18.0233C16.7525 18.9717 16.7718 19.9217 16.7888 20.8708C16.8006 21.5229 17.09 21.9521 17.7631 21.9656C18.4477 21.9791 18.7633 21.5149 18.7687 20.8931C18.7955 17.8699 18.8079 14.846 18.7704 11.8231C18.7598 10.9874 18.0137 10.5656 17.3341 10.903C16.7193 11.2085 16.7856 11.8086 16.7766 12.3677C16.7278 15.418 16.7298 15.399 13.8498 15.2393C13.1419 15.2 12.8924 14.8901 12.9143 14.197C12.9366 13.4946 12.9151 12.7909 12.9137 12.0877C12.9123 11.3716 12.7042 10.8133 11.8989 10.8173C11.0901 10.8214 10.8973 11.3925 10.8967 12.1016C10.8959 13.5081 10.8965 14.9145 10.8965 16.321ZM20.2078 16.2668C20.2078 17.7055 20.2058 19.144 20.2086 20.5828C20.2098 21.2518 20.2812 21.9261 21.1125 21.9453C21.9399 21.9645 22.0596 21.3155 22.0644 20.6321C22.0687 20.0707 22.0403 19.5074 22.0764 18.9482C22.1097 18.4315 21.8554 17.7175 22.6436 17.5821C23.349 17.4605 24.0681 17.4325 24.4751 18.2809C24.957 19.285 25.4796 20.2678 25.97 21.2676C26.2547 21.8485 26.6812 22.1626 27.2796 21.8854C27.885 21.605 27.795 21.021 27.5901 20.5203C27.2738 19.7466 26.9337 18.9761 26.5246 18.2526C26.1176 17.5329 26.1588 17.0481 26.8069 16.4613C27.8672 15.5013 27.9927 14.1963 27.5279 12.8857C27.0639 11.5767 26.047 10.8956 24.7321 10.8119C23.5895 10.7393 22.4392 10.8045 21.2928 10.7884C20.5199 10.7777 20.1975 11.1674 20.2054 11.9508C20.2202 13.3891 20.2096 14.828 20.2078 16.2668ZM18.5376 29.3559C15.6308 29.3561 12.7241 29.3635 9.81737 29.3544C4.27891 29.3371 0.121106 25.2418 0.00246831 19.4875C-0.0535044 16.7715 0.802311 14.282 2.80557 12.3829C3.43161 11.7894 3.77008 11.1579 3.91245 10.2546C4.75751 4.88729 9.58435 1.56021 14.6915 2.7869C15.3615 2.94767 15.8069 2.80357 16.3339 2.36028C22.2476 -2.6159 30.8416 0.67975 32.2683 8.47073C32.4172 9.28388 32.7049 9.84427 33.3896 10.3232C38.085 13.6073 39.0658 20.6994 35.5583 25.3357C33.5044 28.0511 30.8268 29.3243 27.5617 29.3506C24.5538 29.3749 21.5455 29.3557 18.5376 29.3559Z"
                      fill="var(--fill-0, white)"/>
            </g>
        </g>
        <path id="Fill 4" fill-rule="evenodd" clip-rule="evenodd"
              d="M58.7356 13.8089C58.736 15.7054 58.736 15.7054 60.278 15.7048C62.0707 15.7039 62.7845 15.1789 62.7834 13.8626C62.7826 12.5061 61.8644 11.8391 60.0047 11.8442C58.7398 11.8476 58.7352 11.8551 58.7356 13.8089ZM56.2953 16.0949C56.2951 14.3444 56.3172 12.5933 56.2851 10.8434C56.2705 10.0377 56.5225 9.63888 57.3337 9.68653C59.0193 9.78526 60.7227 9.48049 62.3935 9.89837C64.0198 10.3051 65.0517 11.4587 65.2219 13.003C65.4371 14.9568 64.8118 16.325 63.1748 17.1275C62.4328 17.4913 62.507 17.8184 62.878 18.4067C63.5531 19.4766 64.1611 20.5934 64.8259 21.6708C65.225 22.3173 65.061 22.5001 64.3692 22.5695C63.1661 22.6901 62.2977 22.3832 61.7656 21.1063C61.3602 20.1334 60.7357 19.2629 60.2146 18.3432C59.9794 17.9285 59.7294 17.5265 59.1884 17.6746C58.6438 17.8238 58.7506 18.3292 58.7425 18.7379C58.7244 19.6307 58.6914 20.527 58.7455 21.4165C58.8084 22.4486 58.2675 22.572 57.4811 22.5705C56.7202 22.569 56.2586 22.4121 56.2827 21.4538C56.3274 19.6687 56.2955 17.8815 56.2953 16.0949Z"
              fill="var(--fill-0, white)"/>
        <g id="Group 8">
            <mask id="mask1_0_89" style="mask-type:alpha" maskUnits="userSpaceOnUse" x="109" y="9" width="10"
                  height="15">
                <g id="mask 4">
                    <path id="Vector_2" d="M109.056 9.68172H118.519V23.1301H109.056V9.68172Z"
                          fill="var(--fill-0, white)"/>
                </g>
            </mask>
            <g mask="url(#mask1_0_89)">
                <path id="Fill 6" fill-rule="evenodd" clip-rule="evenodd"
                      d="M116.162 18.0839C116.173 16.293 115.315 15.2157 113.855 15.1882C112.389 15.1607 111.473 16.2332 111.46 17.9921C111.446 19.7301 112.373 20.8642 113.807 20.8642C115.134 20.8644 116.152 19.6622 116.162 18.0839ZM116.169 14.587C116.169 13.1456 116.191 11.951 116.162 10.7579C116.136 9.70573 116.761 9.70319 117.462 9.68288C118.196 9.6613 118.524 9.93736 118.519 10.7797C118.494 14.3731 118.511 17.9667 118.508 21.5603C118.508 22.2601 118.635 23.0297 117.595 23.0102C116.757 22.9944 115.91 23.0912 116.165 21.7801C115.952 21.6039 115.86 21.7192 115.777 21.8165C114.656 23.1314 113.296 23.4147 111.769 22.8643C110.301 22.3346 109.462 21.1646 109.211 19.5586C109.006 18.2388 108.938 16.8885 109.431 15.6019C110.514 12.7815 113.667 12.0648 115.708 14.1669C115.796 14.258 115.895 14.3382 116.169 14.587Z"
                      fill="var(--fill-0, white)"/>
            </g>
        </g>
        <path id="Fill 9" fill-rule="evenodd" clip-rule="evenodd"
              d="M53.8715 16.1853C53.8719 17.94 53.8351 19.6962 53.8855 21.4494C53.9159 22.494 53.4051 22.5912 52.6628 22.5936C51.9293 22.5958 51.4843 22.4236 51.523 21.4679C51.5691 20.324 51.5148 19.1759 51.5362 18.0304C51.5495 17.318 51.3108 16.9681 50.631 16.9862C49.5948 17.0137 48.5574 17.0077 47.521 16.9898C46.8975 16.9789 46.6481 17.2997 46.6559 17.9693C46.6695 19.1507 46.6234 20.3342 46.6641 21.5141C46.6981 22.5093 46.1762 22.5884 45.4813 22.5904C44.7768 22.5923 44.299 22.4832 44.307 21.5006C44.3366 17.9196 44.3368 14.3379 44.307 10.7569C44.2988 9.7691 44.7857 9.67163 45.4852 9.67055C46.1823 9.6697 46.7042 9.75598 46.6641 10.7498C46.6224 11.7863 46.6699 12.8266 46.6565 13.865C46.6479 14.5331 46.9006 14.8582 47.522 14.8492C48.5586 14.8341 49.596 14.8281 50.6322 14.8528C51.3116 14.869 51.5497 14.5103 51.5357 13.8013C51.5152 12.7633 51.5612 11.7232 51.5275 10.6859C51.4932 9.63699 52.1175 9.69143 52.7609 9.67551C53.4255 9.65894 53.8976 9.77749 53.8808 10.7061C53.8477 12.5318 53.8711 14.3588 53.8715 16.1853Z"
              fill="var(--fill-0, white)"/>
        <path id="Fill 11" fill-rule="evenodd" clip-rule="evenodd"
              d="M75.6696 10.2859C78.3582 10.2915 80.2846 11.4697 81.181 13.6574C81.5672 14.5998 81.4563 14.7484 80.4516 14.8084C79.5623 14.8617 78.8879 14.7105 78.2959 13.8644C77.4933 12.7175 76.1979 12.4539 74.8701 12.7164C73.5882 12.9698 72.7639 13.8282 72.342 15.0615C71.9604 16.1756 71.9585 17.3101 72.3549 18.4194C72.7881 19.6316 73.5444 20.5479 74.8775 20.7447C76.3251 20.9582 77.6148 20.6666 78.5219 19.3582C78.954 18.735 80.5784 18.3712 81.1804 18.7271C81.5751 18.9605 81.4101 19.2759 81.2911 19.5659C80.8789 20.5698 80.3093 21.4482 79.4086 22.0923C77.5151 23.4461 74.2863 23.5964 72.3724 22.3927C70.2765 21.0747 69.0935 18.2181 69.5523 15.5833C70.1471 12.1691 72.3295 10.2791 75.6696 10.2859Z"
              fill="var(--fill-0, white)"/>
        <path id="Fill 13" fill-rule="evenodd" clip-rule="evenodd"
              d="M94.4425 18.2408C94.4329 16.5526 93.57 15.5404 92.1451 15.5455C90.7001 15.5508 89.8276 16.622 89.8461 18.3681C89.8635 20.0148 90.7938 21.062 92.2069 21.025C93.6033 20.9885 94.4523 19.9313 94.4425 18.2408ZM92.2549 13.363C94.9464 13.3846 97.0326 15.5695 96.9957 18.328C96.9589 21.0985 94.8829 23.2721 92.1651 23.2076C89.2336 23.138 87.3037 21.1614 87.4214 18.1388C87.5332 15.2708 89.4036 13.34 92.2549 13.363Z"
              fill="var(--fill-0, white)"/>
        <path id="Fill 15" fill-rule="evenodd" clip-rule="evenodd"
              d="M104.699 21.6589C103.611 22.9704 102.384 23.456 100.881 23.0916C99.5283 22.7635 98.7447 21.8218 98.458 20.4441C98.02 18.3383 98.2527 16.1914 98.2778 14.0637C98.289 13.0925 99.1111 13.4459 99.6333 13.3907C100.197 13.3309 100.568 13.5441 100.565 14.244C100.558 15.7582 100.521 17.2755 100.593 18.7864C100.683 20.6565 101.964 21.572 103.513 20.9569C104.529 20.5537 104.771 19.628 104.804 18.6295C104.848 17.254 104.86 15.8744 104.808 14.5C104.771 13.5282 105.225 13.3694 105.996 13.363C106.791 13.3566 107.181 13.5749 107.163 14.5211C107.118 16.8607 107.167 19.2024 107.137 21.5425C107.129 22.1533 107.446 23.0029 106.379 23.0941C105.12 23.2018 104.945 23.0902 104.699 21.6589Z"
              fill="var(--fill-0, white)"/>
        <path id="Fill 17" fill-rule="evenodd" clip-rule="evenodd"
              d="M83.2411 16.0447C83.2413 14.269 83.2721 12.4928 83.2289 10.7183C83.2058 9.78415 83.6876 9.66197 84.4092 9.67099C85.0998 9.6794 85.6275 9.71999 85.6194 10.6843C85.5888 14.3035 85.5884 17.9233 85.62 21.5423C85.6281 22.4736 85.1638 22.5826 84.4412 22.5931C83.6588 22.6046 83.1989 22.4412 83.2263 21.4732C83.2773 19.6651 83.2409 17.8544 83.2411 16.0447Z"
              fill="var(--fill-0, white)"/>
        <path id="Fill 19" fill-rule="evenodd" clip-rule="evenodd"
              d="M23.9321 15.2072C23.3748 15.0887 22.6374 15.4453 22.3586 14.8628C22.0284 14.1722 22.1613 13.3806 22.3113 12.6331C22.3287 12.5463 22.4129 12.4581 22.49 12.3969C23.2932 11.759 25.8402 12.3604 26.2429 13.2793C26.5711 14.0275 26.0778 14.8947 25.1589 15.1026C24.7548 15.194 24.3226 15.1771 23.9321 15.2072Z"
              fill="var(--fill-0, white)"/>
    </g>
</svg>
