<svg preserveAspectRatio="none" width="100%" height="100%" overflow="visible" style="display: block;"
     viewBox="0 0 64 64.0004" fill="none" xmlns="http://www.w3.org/2000/svg">
    <g id="raspored">
        <path id="Shape"
              d="M47.3604 2.55993C48.0671 2.56013 48.6396 3.1334 48.6396 3.84021V7.68005H61.4404C62.854 7.68028 63.9998 8.82606 64 10.2396V61.4398C64 62.8535 62.8541 64.0001 61.4404 64.0004H2.55957C1.14592 64.0001 0 62.8535 0 61.4398V10.2396C0.000168763 8.82606 1.14602 7.68028 2.55957 7.68005H15.3604V3.84021C15.3604 3.1334 15.9329 2.56012 16.6396 2.55993C17.3466 2.55993 17.9199 3.13328 17.9199 3.84021V7.68005H46.0801V3.84021C46.0801 3.13328 46.6534 2.55993 47.3604 2.55993ZM2.55957 61.4398H61.4404V23.0404H2.55957V61.4398ZM32 28.1595C39.7761 28.1596 46.0799 34.4636 46.0801 42.2396C46.0801 50.0158 39.7761 56.3197 32 56.3197C24.2238 56.3197 17.9199 50.0158 17.9199 42.2396C17.9201 34.4636 24.2239 28.1595 32 28.1595ZM32 30.7201C25.6407 30.7271 20.4877 35.8804 20.4805 42.2396C20.4805 48.6019 25.6377 53.7601 32 53.7601C38.3623 53.7601 43.5195 48.6019 43.5195 42.2396C43.5193 35.8775 38.3622 30.7201 32 30.7201ZM32 35.8402C32.7068 35.8402 33.2801 36.4128 33.2803 37.1195V42.8802L37.8877 46.3363C38.2535 46.6107 38.4453 47.059 38.3906 47.5131C38.3359 47.967 38.0436 48.3578 37.623 48.5375C37.2025 48.7171 36.7174 48.6585 36.3516 48.3842L31.2324 44.5443C30.9101 44.3026 30.7197 43.9228 30.7197 43.5199V37.1195C30.7199 36.4128 31.2932 35.8402 32 35.8402ZM2.55957 20.4799H61.4404V10.2396H2.55957V20.4799Z"
              fill="var(--fill-0, #30CEC2)" fill-opacity="0.4"/>
    </g>
</svg>
