<svg preserveAspectRatio="none" width="100%" height="100%" overflow="visible" style="display: block;"
     viewBox="0 0 64.0001 64.0014" fill="none" xmlns="http://www.w3.org/2000/svg">
    <g id="networking">
        <path id="Shape"
              d="M30.7194 0C33.5471 0 35.8395 2.29242 35.8395 5.12012C35.8395 5.27351 35.8077 5.41592 35.7946 5.56445L56.5368 21.0723C57.2583 20.6884 58.0624 20.4858 58.8796 20.4805C61.5224 20.4798 63.731 22.4916 63.9753 25.123C64.2194 27.7546 62.4188 30.1395 59.821 30.625L51.9401 53.1406C53.8567 55.1034 54.3072 58.0702 53.0602 60.5137C51.8131 62.9571 49.1462 64.3332 46.4323 63.9326C43.7185 63.532 41.563 61.4446 41.0749 58.7451L22.8171 57.7314C22.0745 60.3355 19.4258 61.9052 16.7849 61.3066C14.1439 60.7079 12.4315 58.1493 12.8845 55.4795L12.8708 55.4629L4.17841 30.625C1.5797 30.1401 -0.222181 27.7553 0.0221553 25.123C0.266523 22.4908 2.47625 20.4786 5.11981 20.4805C5.97129 20.4861 6.80751 20.7059 7.55145 21.1201L25.6638 5.75488C25.6291 5.54484 25.6073 5.33284 25.5993 5.12012C25.5993 2.29253 27.8919 0.000181128 30.7194 0ZM47.36 53.7598C45.2394 53.7598 43.5204 55.479 43.5202 57.5996C43.5202 59.7204 45.2393 61.4404 47.36 61.4404C49.4807 61.4403 51.1999 59.7203 51.1999 57.5996C51.1996 55.4791 49.4805 53.7599 47.36 53.7598ZM17.9196 53.7598C16.5058 53.7598 15.36 54.9065 15.36 56.3203C15.3602 57.734 16.5059 58.8798 17.9196 58.8799C19.3334 58.8799 20.48 57.734 20.4802 56.3203C20.4802 54.9065 19.3335 53.7598 17.9196 53.7598ZM9.47333 28.2637C8.86007 29.2629 7.92195 30.0209 6.8161 30.4102L14.5475 52.4961C15.8916 51.2933 17.7722 50.8923 19.4899 51.4424C21.2079 51.9928 22.5062 53.4126 22.9011 55.1729L41.1286 56.1855C41.5357 54.3561 42.7274 52.798 44.3874 51.9277C46.0473 51.0575 48.0066 50.9632 49.7429 51.6689L57.1852 30.4102C56.1705 30.0567 55.2918 29.3928 54.6755 28.5127L40.863 33.6025C40.9194 33.9188 40.9518 34.2394 40.9597 34.5605C40.9595 38.0951 38.0938 40.96 34.5593 40.96C31.0249 40.9597 28.16 38.0949 28.1599 34.5605C28.1599 34.3581 28.201 34.1661 28.2194 33.9688L9.47333 28.2637ZM34.5602 30.7197C32.4396 30.7197 30.7197 32.439 30.7194 34.5596C30.7194 36.6803 32.4395 38.4004 34.5602 38.4004C36.6808 38.4001 38.4001 36.6802 38.4001 34.5596C38.3974 32.4402 36.6797 30.7224 34.5602 30.7197ZM34.8845 8.08008C33.9533 9.40545 32.4453 10.2076 30.8259 10.2393C29.2066 10.2708 27.6693 9.52807 26.6872 8.24023L9.43915 22.874C9.95993 23.6879 10.2379 24.6334 10.2399 25.5996C10.2399 25.672 10.221 25.7413 10.2184 25.8145L28.9616 31.5186C30.0357 29.5099 32.1037 28.2292 34.3806 28.1631C36.6574 28.0971 38.7952 29.2553 39.9841 31.1982L53.8112 26.1035C53.7943 25.9349 53.7595 25.7721 53.7595 25.5996C53.7602 24.6098 54.05 23.6413 54.5925 22.8135L34.8845 8.08008ZM5.11981 23.04C3.7061 23.04 2.55949 24.186 2.55926 25.5996C2.56096 27.0128 3.70666 28.1585 5.11981 28.1602C6.53362 28.1601 7.67938 27.0134 7.67938 25.5996C7.67916 24.186 6.53349 23.0401 5.11981 23.04ZM58.8796 23.04C57.4659 23.0401 56.3202 24.186 56.32 25.5996C56.32 27.0134 57.4658 28.1601 58.8796 28.1602C60.2927 28.1585 61.4384 27.0128 61.4401 25.5996C61.4399 24.186 60.2933 23.04 58.8796 23.04ZM30.7194 2.55957C29.3064 2.56144 28.1615 3.70708 28.1599 5.12012C28.1599 6.53377 29.3058 7.67951 30.7194 7.67969C32.1332 7.67969 33.2799 6.53388 33.28 5.12012C33.28 3.70627 32.1333 2.55957 30.7194 2.55957Z"
              fill="var(--fill-0, #30CEC2)" fill-opacity="0.4"/>
    </g>
</svg>
