<svg preserveAspectRatio="none" width="100%" height="100%" overflow="visible" style="display: block;"
     viewBox="0 0 64 64" fill="none" xmlns="http://www.w3.org/2000/svg">
    <g id="informacije">
        <path id="Shape"
              d="M33.2796 2.55994C44.5904 2.55994 53.7601 11.7296 53.7601 23.0404V41.3988C53.7599 42.7569 54.2997 44.0596 55.2601 45.0199L57.7552 47.515C58.4752 48.2351 58.8802 49.2115 58.8802 50.2299V53.7601H43.1585C42.0095 58.2777 37.9419 61.4396 33.2806 61.4398C28.6191 61.4398 24.5508 58.2778 23.4017 53.7601H7.68001V50.2299C7.68012 49.2116 8.08503 48.235 8.80501 47.515L11.3011 45.0199C12.2612 44.0595 12.8004 42.7568 12.8001 41.3988V23.0404C12.8001 11.7297 21.969 2.56015 33.2796 2.55994ZM26.0716 53.7601C27.1498 56.8193 30.0361 58.8696 33.2796 58.8802C36.5232 58.8697 39.4095 56.8193 40.4876 53.7601H26.0716ZM33.2796 5.11951C23.383 5.11974 15.3599 13.1428 15.3597 23.0394V41.3988C15.3652 43.4368 14.5554 45.392 13.1107 46.8295L10.6156 49.3246C10.3749 49.5642 10.2389 49.8903 10.2396 50.2299V51.1996H56.3197V50.2299C56.3204 49.8903 56.1862 49.5642 55.9456 49.3246L53.4495 46.8295C52.0048 45.3921 51.1951 43.4368 51.2005 41.3988V23.0394C51.2003 13.1427 43.1764 5.11951 33.2796 5.11951Z"
              fill="var(--fill-0, #30CEC2)" fill-opacity="0.4"/>
    </g>
</svg>
