<svg preserveAspectRatio="none" width="100%" height="100%" overflow="visible" style="display: block;" viewBox="0 0 98.9835 30.6512" fill="none" xmlns="http://www.w3.org/2000/svg">
<g id="Infobip logo">
<path id="Fill 1" fill-rule="evenodd" clip-rule="evenodd" d="M13.167 12.366H17.3415C17.82 12.366 18.1995 12.7473 18.1995 13.228V17.4218C18.1995 17.9024 17.82 18.2838 17.3415 18.2838H13.167C12.6885 18.2838 12.309 17.9024 12.309 17.4218V13.228C12.309 12.7473 12.6885 12.366 13.167 12.366ZM0 15.3332C0 6.86263 6.831 0 15.2625 0C23.6115 0 30.4095 6.7466 30.525 15.1177C30.6405 23.6877 23.595 30.7658 15.0645 30.6498C6.7155 30.5337 0 23.7208 0 15.3332ZM6.534 24.1518C8.2005 25.826 11.4675 26.8372 15.2625 26.8372C19.0575 26.8372 22.3245 25.8426 23.991 24.1518C25.6575 22.4776 26.664 19.1955 26.664 15.3829C26.664 11.5703 25.674 8.2882 23.991 6.61399C22.3245 4.93977 19.0575 3.92861 15.2625 3.92861C11.4675 3.92861 8.2005 4.92319 6.534 6.61399C4.8675 8.30478 3.861 11.5703 3.861 15.3829C3.8775 19.1955 4.8675 22.4776 6.534 24.1518ZM8.1015 8.13901C9.2895 6.94551 12.0945 6.183 15.2625 6.183C18.4305 6.183 21.2355 6.94551 22.4235 8.13901C23.6115 9.33252 24.3705 12.1505 24.3705 15.3332C24.3705 18.5158 23.6115 21.3338 22.4235 22.5273C21.2355 23.7208 18.4305 24.4834 15.2625 24.4834C12.0945 24.4834 9.2895 23.7041 8.1015 22.5273C6.9135 21.3504 6.1545 18.5158 6.1545 15.3332C6.1545 12.1505 6.9135 9.33252 8.1015 8.13901ZM10.824 19.7093C11.0715 19.958 11.814 20.7039 15.2295 20.7039C18.645 20.7039 19.3875 19.958 19.635 19.7093C19.8825 19.4607 20.625 18.7148 20.625 15.2834C20.625 11.8521 19.8825 11.1062 19.635 10.8575C19.3875 10.6089 18.645 9.86296 15.2295 9.86296C11.814 9.86296 11.0715 10.6089 10.824 10.8575C10.5765 11.1062 9.834 11.8521 9.834 15.2834C9.834 18.7148 10.5765 19.4607 10.824 19.7093Z" fill="var(--fill-0, white)"/>
<mask id="mask0_0_77" style="mask-type:alpha" maskUnits="userSpaceOnUse" x="0" y="0" width="99" height="31">
<g id="mask 2">
<path id="Vector" d="M0 30.6512H98.9835V6.25626e-05H0V30.6512Z" fill="var(--fill-0, white)"/>
</g>
</mask>
<g mask="url(#mask0_0_77)">
<path id="Fill 4" fill-rule="evenodd" clip-rule="evenodd" d="M37.6365 20.2065H40.9695V10.8077H37.6365V20.2065Z" fill="var(--fill-0, white)"/>
<path id="Fill 6" fill-rule="evenodd" clip-rule="evenodd" d="M42.7515 20.2066V10.8078H45.3915L45.804 11.8355C46.5795 11.0067 47.6025 10.5757 48.873 10.5757C49.995 10.5757 50.8695 10.9238 51.579 11.62C52.272 12.2997 52.6185 13.1782 52.6185 14.2557V20.2066H49.2855V14.8193C49.2855 13.9573 48.6585 13.3108 47.817 13.3108C46.7775 13.3108 46.0845 14.0568 46.0845 15.1674V20.19L42.7515 20.2066Z" fill="var(--fill-0, white)"/>
<path id="Fill 7" fill-rule="evenodd" clip-rule="evenodd" d="M53.3775 13.3274V10.8078H54.945V9.92925C54.945 8.91808 55.275 8.12242 55.902 7.50909C56.562 6.89576 57.42 6.59739 58.4595 6.59739C59.2515 6.59739 60.027 6.69685 60.7859 6.89576L60.3734 9.36565C60.0105 9.29934 59.6475 9.26619 59.2845 9.24961C58.674 9.24961 58.278 9.63087 58.278 10.2608V10.7912H60.2084V13.3274H58.278V20.2066H54.945V13.3274H53.3775Z" fill="var(--fill-0, white)"/>
<path id="Fill 8" fill-rule="evenodd" clip-rule="evenodd" d="M62.139 11.9516C63.1456 11.0233 64.416 10.5592 65.9835 10.5592C67.551 10.5592 68.8381 11.0233 69.8281 11.9516C70.8345 12.8633 71.3295 14.0402 71.3295 15.4989C71.3295 16.9411 70.8345 18.118 69.8281 19.0463C68.8381 19.958 67.551 20.4221 65.9835 20.4221C64.416 20.4221 63.1456 19.958 62.139 19.0463C61.1325 18.118 60.6375 16.9411 60.6375 15.4989C60.6375 14.0734 61.1325 12.8964 62.139 11.9516ZM65.967 17.8528C67.1056 17.8528 67.914 16.8914 67.914 15.5155C67.914 14.1231 67.1056 13.1617 65.967 13.1617C64.8285 13.1617 64.0365 14.1231 64.0365 15.5155C64.0531 16.8748 64.845 17.8528 65.967 17.8528Z" fill="var(--fill-0, white)"/>
<path id="Fill 9" fill-rule="evenodd" clip-rule="evenodd" d="M72.2865 20.2066V6.82944H75.6195V11.4708C76.329 10.8907 77.22 10.5591 78.1275 10.5757C79.3981 10.5757 80.4375 11.0398 81.246 11.9681C82.0545 12.8798 82.4669 14.0567 82.4669 15.5155C82.4669 16.9576 82.0545 18.1345 81.246 19.0628C80.4375 19.9745 79.3981 20.4387 78.1275 20.4387C76.989 20.4387 76.065 20.074 75.3556 19.3446L74.9431 20.2232L72.2865 20.2066ZM75.5535 16.0128C75.5535 17.0571 76.23 17.8196 77.2365 17.8196C78.309 17.8196 79.0845 16.8747 79.0845 15.5155C79.0845 14.1562 78.309 13.1948 77.2365 13.1948C76.23 13.1948 75.5535 13.9573 75.5535 15.0182V16.0128Z" fill="var(--fill-0, white)"/>
<path id="Fill 10" fill-rule="evenodd" clip-rule="evenodd" d="M85.3545 6.41502C86.493 6.41502 87.2685 7.21068 87.2685 8.33788C87.2685 9.41535 86.493 10.2442 85.3545 10.2442C84.282 10.2442 83.457 9.43192 83.457 8.33788C83.457 7.21068 84.282 6.41502 85.3545 6.41502ZM83.688 20.2066H87.0208V10.8078H83.688V20.2066Z" fill="var(--fill-0, white)"/>
<path id="Fill 11" fill-rule="evenodd" clip-rule="evenodd" d="M88.8195 24.1518V10.7912H91.4595L91.872 11.6697C92.598 10.9238 93.522 10.5757 94.644 10.5757C95.9145 10.5757 96.954 11.0398 97.7625 11.9681C98.571 12.8798 98.9835 14.0567 98.9835 15.5155C98.9835 16.9578 98.571 18.1345 97.7625 19.0628C96.954 19.9745 95.9145 20.4388 94.644 20.4388C93.72 20.4388 92.8455 20.1237 92.136 19.5435V24.1518H88.8195ZM92.0865 16.0127C92.0865 17.0571 92.763 17.8196 93.7695 17.8196C94.842 17.8196 95.6175 16.8749 95.6175 15.5155C95.6175 14.1562 94.842 13.1948 93.7695 13.1948C92.763 13.1948 92.0865 13.9573 92.0865 15.0182V16.0127Z" fill="var(--fill-0, white)"/>
<path id="Fill 12" fill-rule="evenodd" clip-rule="evenodd" d="M37.6365 9.81327H40.9695V6.46484H37.6365V9.81327Z" fill="var(--fill-0, white)"/>
</g>
</g>
</svg>
