<svg width="112" height="35" viewBox="0 0 112 35" fill="none" xmlns="http://www.w3.org/2000/svg">
<path d="M12.2436 22.0122C11.9648 21.7364 11.1166 20.8944 11.1166 17.0625C11.1166 13.2305 11.9648 12.3892 12.2436 12.1134C12.5224 11.8376 13.3706 10.9956 17.2342 10.9956C21.0978 10.9956 21.9423 11.8362 22.2241 12.1134C22.5058 12.3907 23.3511 13.2312 23.3511 17.0625C23.3511 20.8937 22.5029 21.7364 22.2241 22.0122C21.9453 22.288 21.0971 23.13 17.2342 23.13C13.3713 23.13 12.5209 22.2887 12.2436 22.0122ZM9.16199 9.08696C7.82385 10.4141 6.95947 13.5668 6.95947 17.1186C6.95947 20.6704 7.82385 23.8224 9.16199 25.1488C10.5001 26.4753 13.6788 27.3377 17.2592 27.3377C20.8396 27.3377 24.019 26.4804 25.3572 25.1488C26.6946 23.8224 27.5597 20.6697 27.5597 17.1186C27.5597 13.5676 26.6946 10.4141 25.3572 9.08696C24.0198 7.75978 20.8403 6.90393 17.2592 6.90393C13.6781 6.90393 10.5001 7.76197 9.16199 9.08842" fill="#F15F22"/>
<path d="M9.16199 9.08696C7.82385 10.4141 6.95947 13.5668 6.95947 17.1186C6.95947 20.6704 7.82385 23.8224 9.16199 25.1488C10.5001 26.4753 13.6788 27.3377 17.2592 27.3377C20.8396 27.3377 24.019 26.4797 25.3572 25.1488C26.6953 23.8224 27.5597 20.6697 27.5597 17.1186C27.5597 13.5676 26.6953 10.4141 25.3572 9.08696C24.019 7.75978 20.8403 6.90393 17.2592 6.90393C13.6781 6.90393 10.5001 7.76197 9.16199 9.08842V9.08696ZM12.2436 22.0137C11.9648 21.7379 11.1166 20.8959 11.1166 17.0639C11.1166 13.2319 11.9648 12.3907 12.2436 12.1149C12.5224 11.8391 13.3706 10.9971 17.2335 10.9971C21.0963 10.9971 21.9453 11.8384 22.2241 12.1149C22.5029 12.3914 23.3511 13.2327 23.3511 17.0639C23.3511 20.8952 22.5036 21.7379 22.2241 22.0137C21.9445 22.2895 21.0971 23.1314 17.2335 23.1314C13.3699 23.1314 12.5254 22.2902 12.2436 22.0137" fill="#F15F22"/>
<path d="M7.39396 26.9726C5.50556 25.0997 4.37782 21.4363 4.37782 17.1724C4.37782 12.9085 5.50409 9.24503 7.39396 7.37355C9.28383 5.50207 12.9753 4.3821 17.2744 4.3821C21.5735 4.3821 25.2664 5.49988 27.1548 7.37355C29.0432 9.24722 30.171 12.9085 30.171 17.1724C30.171 21.4363 29.044 25.0997 27.1548 26.9726C25.2657 28.8456 21.5713 29.9597 17.2744 29.9597C12.9775 29.9597 9.28162 28.8419 7.39396 26.9683V26.9726ZM0.00147048 17.1184C0.00147048 26.4933 7.60067 34.1091 17.0228 34.2353C26.6774 34.3651 34.651 26.4575 34.5186 16.8812C34.3899 7.53553 26.7127 0 17.2597 0C7.72794 0 0 7.66102 0 17.1184" fill="#F15F22"/>
<path d="M19.6212 13.8037H14.8961C14.3554 13.8037 13.917 14.2385 13.917 14.7748V19.4619C13.917 19.9983 14.3554 20.433 14.8961 20.433H19.6212C20.1619 20.433 20.6003 19.9983 20.6003 19.4619V14.7748C20.6003 14.2385 20.1619 13.8037 19.6212 13.8037Z" fill="#F15F22"/>
<path d="M46.3317 12.0613H42.5674V22.562H46.3317V12.0613Z" fill="white"/>
<path d="M48.3643 22.5621V12.0614H51.3591L51.8291 13.2069C52.706 12.274 53.861 11.8072 55.294 11.8068C56.5564 11.8068 57.5613 12.1891 58.3528 12.9742C59.1444 13.7381 59.5299 14.7143 59.5299 15.9233V22.5628H55.7648V16.5347C55.7648 15.5796 55.0586 14.8566 54.0964 14.8566C52.9194 14.8566 52.1286 15.684 52.1286 16.9353V22.557L48.3643 22.5621Z" fill="white"/>
<path d="M60.3828 14.8828V12.0614H62.1579V11.0851C62.1579 9.96079 62.5257 9.06992 63.2489 8.39138C63.9978 7.71039 64.9602 7.3699 66.1363 7.3699C67.0244 7.36769 67.9089 7.48177 68.7669 7.70918L68.2969 10.4671C67.8875 10.3903 67.4724 10.3478 67.0558 10.3402C66.3717 10.3402 65.9222 10.7641 65.9222 11.4645V12.0585H68.1041V14.8799H65.9222V22.5621H62.1579V14.8828H60.3828Z" fill="white"/>
<path d="M74.6295 19.9318C75.9124 19.9318 76.832 18.8498 76.832 17.3227C76.832 15.7737 75.9124 14.6917 74.6295 14.6917C73.3465 14.6917 72.4475 15.7737 72.4475 17.3227C72.4475 18.8498 73.3458 19.9318 74.6295 19.9318ZM70.2892 13.3557C71.4228 12.316 72.8558 11.8068 74.6295 11.8068C76.4031 11.8068 77.8589 12.3175 78.9698 13.3557C80.1034 14.3736 80.6617 15.6905 80.6617 17.3227C80.6617 18.9344 80.1056 20.2499 78.9698 21.2889C77.8575 22.3104 76.4031 22.8168 74.6295 22.8168C72.8558 22.8168 71.4213 22.306 70.2892 21.2889C69.1555 20.2499 68.5972 18.9344 68.5972 17.3227C68.5972 15.711 69.1533 14.3947 70.2892 13.3557Z" fill="white"/>
<path d="M85.4703 17.8736C85.4703 19.041 86.2405 19.8888 87.3742 19.8888C88.5931 19.8888 89.47 18.8287 89.47 17.3228C89.47 15.7949 88.5931 14.7341 87.3742 14.7341C86.2405 14.7341 85.4703 15.5826 85.4703 16.7712V17.8736ZM81.77 22.5622V7.62756H85.5343V12.8042C86.3326 12.1465 87.3413 11.7928 88.3791 11.8068C89.8121 11.8068 90.9884 12.3176 91.9101 13.3558C92.8297 14.3736 93.2998 15.6906 93.2998 17.3228C93.2998 18.9345 92.8297 20.25 91.9101 21.289C90.9896 22.3075 89.8126 22.8168 88.3791 22.8168C87.0961 22.8168 86.0478 22.4133 85.2349 21.5867L84.7641 22.5622H81.77Z" fill="white"/>
<path d="M94.6715 12.0614H98.4366V22.5621H94.6715V12.0614ZM96.5541 7.16052C97.837 7.16052 98.7146 8.05212 98.7146 9.30342C98.7146 10.5124 97.837 11.4252 96.5541 11.4252C95.3351 11.4252 94.4155 10.5124 94.4155 9.30342C94.4155 8.05212 95.3351 7.16052 96.5541 7.16052Z" fill="white"/>
<path d="M104.169 17.8736C104.169 19.041 104.94 19.8888 106.073 19.8888C107.292 19.8888 108.169 18.8286 108.169 17.3227C108.169 15.7949 107.292 14.734 106.073 14.734C104.94 14.734 104.169 15.5826 104.169 16.7711V17.8736ZM100.47 26.9741V12.0614H103.464L103.934 13.0369C104.747 12.2102 105.795 11.8068 107.079 11.8068C108.512 11.8068 109.688 12.3175 110.61 13.3557C111.529 14.3736 112 15.6905 112 17.3227C112 18.9344 111.529 20.2499 110.61 21.2889C109.69 22.3075 108.513 22.8168 107.079 22.8168C106.042 22.8236 105.036 22.471 104.234 21.8201V26.9741H100.47Z" fill="white"/>
<path d="M46.3317 7.20935H42.5674V10.9428H46.3317V7.20935Z" fill="white"/>
</svg>
