<svg preserveAspectRatio="none" width="100%" height="100%" overflow="visible" style="display: block;"
     viewBox="0 0 124.311 38" fill="none" xmlns="http://www.w3.org/2000/svg">
    <g id="Firma1">
        <path id="Vector"
              d="M13.5892 24.4325C13.2798 24.1264 12.3383 23.1918 12.3383 18.9387C12.3383 14.6855 13.2798 13.7518 13.5892 13.4457C13.8987 13.1396 14.8401 12.205 19.1284 12.205C23.4166 12.205 24.354 13.138 24.6667 13.4457C24.9794 13.7534 25.9176 14.6863 25.9176 18.9387C25.9176 23.191 24.9762 24.1264 24.6667 24.4325C24.3572 24.7386 23.4158 25.6731 19.1284 25.6731C14.8409 25.6731 13.897 24.7394 13.5892 24.4325ZM10.1689 10.0866C8.68367 11.5596 7.72428 15.0588 7.72428 19.001C7.72428 22.9432 8.68367 26.4416 10.1689 27.9139C11.6541 29.3861 15.1822 30.3433 19.1561 30.3433C23.13 30.3433 26.659 29.3918 28.1442 27.9139C29.6286 26.4416 30.5888 22.9424 30.5888 19.001C30.5888 15.0597 29.6286 11.5596 28.1442 10.0866C26.6598 8.61351 23.1309 7.66359 19.1561 7.66359C15.1814 7.66359 11.6541 8.61593 10.1689 10.0882"
              fill="var(--fill-0, #F15F22)"/>
        <path id="Vector_2"
              d="M10.1689 10.0866C8.68367 11.5596 7.72428 15.0588 7.72428 19.001C7.72428 22.9432 8.68367 26.4416 10.1689 27.9139C11.6541 29.3861 15.1822 30.3433 19.1561 30.3433C23.13 30.3433 26.659 29.391 28.1442 27.9139C29.6294 26.4416 30.5888 22.9424 30.5888 19.001C30.5888 15.0597 29.6294 11.5596 28.1442 10.0866C26.659 8.61351 23.1309 7.66359 19.1561 7.66359C15.1814 7.66359 11.6541 8.61593 10.1689 10.0882V10.0866ZM13.5892 24.4341C13.2798 24.128 12.3383 23.1935 12.3383 18.9403C12.3383 14.6871 13.2798 13.7534 13.5892 13.4473C13.8987 13.1412 14.8401 12.2067 19.1275 12.2067C23.415 12.2067 24.3572 13.1404 24.6667 13.4473C24.9762 13.7542 25.9176 14.6879 25.9176 18.9403C25.9176 23.1927 24.977 24.128 24.6667 24.4341C24.3564 24.7402 23.4158 25.6747 19.1275 25.6747C14.8393 25.6747 13.9019 24.741 13.5892 24.4341"
              fill="var(--fill-0, #F15F22)"/>
        <path id="Vector_3"
              d="M8.20666 29.9373C6.1107 27.8585 4.859 23.7924 4.859 19.0599C4.859 14.3273 6.10907 10.2612 8.20666 8.18401C10.3043 6.10683 14.4015 4.86376 19.1731 4.86376C23.9447 4.86376 28.0436 6.1044 30.1395 8.18401C32.2355 10.2636 33.4872 14.3273 33.4872 19.0599C33.4872 23.7924 32.2363 27.8585 30.1395 29.9373C28.0428 32.0161 23.9423 33.2527 19.1731 33.2527C14.4039 33.2527 10.3018 32.0121 8.20666 29.9325V29.9373ZM0.00163211 18.9999C0.00163211 29.4053 8.4361 37.8582 18.8939 37.9982C29.6096 38.1424 38.4597 29.3656 38.3127 18.7367C38.1698 8.36379 29.6488 0 19.1568 0C8.57736 0 0 8.50308 0 18.9999"
              fill="var(--fill-0, #F15F22)"/>
        <path id="Vector_4"
              d="M21.778 15.3202H16.5337C15.9334 15.3202 15.4469 15.8027 15.4469 16.398V21.6003C15.4469 22.1956 15.9334 22.6782 16.5337 22.6782H21.778C22.3783 22.6782 22.8648 22.1956 22.8648 21.6003V16.398C22.8648 15.8027 22.3783 15.3202 21.778 15.3202Z"
              fill="var(--fill-0, #F15F22)"/>
        <path id="Vector_5" d="M51.4243 13.3875H47.2463V25.0424H51.4243V13.3875Z" fill="var(--fill-0, white)"/>
        <path id="Vector_6"
              d="M53.6803 25.0422V13.3872H57.0043L57.526 14.6587C58.4993 13.6232 59.7812 13.1052 61.3718 13.1046C62.7729 13.1046 63.8882 13.529 64.7668 14.4003C65.6453 15.2482 66.0732 16.3317 66.0732 17.6736V25.043H61.8943V18.3522C61.8943 17.2922 61.1105 16.4897 60.0425 16.4897C58.7361 16.4897 57.8583 17.408 57.8583 18.7968V25.0365L53.6803 25.0422Z"
              fill="var(--fill-0, white)"/>
        <path id="Vector_7"
              d="M67.02 16.5188V13.3873H68.9902V12.3037C68.9902 11.0558 69.3985 10.067 70.2011 9.31389C71.0323 8.55806 72.1006 8.18014 73.4059 8.18014C74.3916 8.17769 75.3734 8.30431 76.3257 8.55671L75.8039 11.6178C75.3496 11.5325 74.8888 11.4854 74.4265 11.4769C73.6671 11.4769 73.1683 11.9474 73.1683 12.7248V13.384H75.59V16.5156H73.1683V25.0422H68.9902V16.5188H67.02Z"
              fill="var(--fill-0, white)"/>
        <path id="Vector_8"
              d="M82.8324 22.1228C84.2563 22.1228 85.277 20.9218 85.277 19.2268C85.277 17.5076 84.2563 16.3066 82.8324 16.3066C81.4084 16.3066 80.4106 17.5076 80.4106 19.2268C80.4106 20.9218 81.4076 22.1228 82.8324 22.1228ZM78.015 14.8239C79.2732 13.6699 80.8638 13.1046 82.8324 13.1046C84.8009 13.1046 86.4168 13.6715 87.6497 14.8239C88.908 15.9536 89.5277 17.4153 89.5277 19.2268C89.5277 21.0157 88.9104 22.4758 87.6497 23.629C86.4152 24.7628 84.8009 25.3248 82.8324 25.3248C80.8638 25.3248 79.2716 24.7579 78.015 23.629C76.7568 22.4758 76.137 21.0157 76.137 19.2268C76.137 17.438 76.7543 15.977 78.015 14.8239Z"
              fill="var(--fill-0, white)"/>
        <path id="Vector_9"
              d="M94.8649 19.8382C94.8649 21.1339 95.7198 22.0749 96.978 22.0749C98.331 22.0749 99.3043 20.8983 99.3043 19.2268C99.3043 17.531 98.331 16.3536 96.978 16.3536C95.7198 16.3536 94.8649 17.2954 94.8649 18.6146V19.8382ZM90.7579 25.0421V8.46595H94.936V14.2116C95.822 13.4815 96.9416 13.089 98.0934 13.1046C99.6839 13.1046 100.99 13.6715 102.013 14.8238C103.033 15.9535 103.555 17.4152 103.555 19.2268C103.555 21.0157 103.033 22.4758 102.013 23.629C100.991 24.7595 99.6845 25.3247 98.0934 25.3247C96.6694 25.3247 95.5059 24.8769 94.6036 23.9594L94.0811 25.0421H90.7579Z"
              fill="var(--fill-0, white)"/>
        <path id="Vector_10"
              d="M105.077 13.387H109.256V25.0419H105.077V13.387ZM107.167 7.94742C108.591 7.94742 109.565 8.93702 109.565 10.3259C109.565 11.6677 108.591 12.6808 107.167 12.6808C105.814 12.6808 104.793 11.6677 104.793 10.3259C104.793 8.93702 105.814 7.94742 107.167 7.94742Z"
              fill="var(--fill-0, white)"/>
        <path id="Vector_11"
              d="M115.619 19.8383C115.619 21.134 116.474 22.075 117.732 22.075C119.085 22.075 120.058 20.8983 120.058 19.2268C120.058 17.5311 119.085 16.3536 117.732 16.3536C116.474 16.3536 115.619 17.2954 115.619 18.6146V19.8383ZM111.513 29.9391V13.3872H114.836L115.358 14.47C116.26 13.5525 117.423 13.1046 118.848 13.1046C120.439 13.1046 121.744 13.6715 122.767 14.8239C123.788 15.9536 124.311 17.4153 124.311 19.2268C124.311 21.0157 123.788 22.4758 122.767 23.629C121.747 24.7595 120.44 25.3248 118.848 25.3248C117.698 25.3324 116.581 24.9411 115.691 24.2186V29.9391H111.513Z"
              fill="var(--fill-0, white)"/>
        <path id="Vector_12" d="M51.4243 8.00058H47.2463V12.1444H51.4243V8.00058Z" fill="var(--fill-0, white)"/>
    </g>
</svg>
