<svg width="64" height="64" viewBox="0 0 64 64" fill="none" xmlns="http://www.w3.org/2000/svg">
<path d="M49.9204 0C50.6272 0.000190533 51.1997 0.573466 51.1997 1.28027V7.67969H60.1597C60.8666 7.67969 61.4399 8.25305 61.4399 8.95996V15.3604C61.4332 21.5686 56.9657 26.8744 50.8491 27.9375C49.5 34.9494 44.3737 40.6354 37.5386 42.7012L39.4263 51.2002H43.0054C44.052 51.2001 44.9933 51.8369 45.3823 52.8086L48.4546 60.4883C48.7703 61.277 48.674 62.1714 48.1978 62.875C47.7215 63.5785 46.9272 64 46.0776 64H17.9224C17.0728 64 16.2785 63.5785 15.8022 62.875C15.326 62.1714 15.2297 61.277 15.5454 60.4883L18.6177 52.8086C19.0066 51.8369 19.948 51.2001 20.9946 51.2002H24.5718L26.4604 42.7012C19.6256 40.6354 14.5002 34.9493 13.1519 27.9375C7.03476 26.8747 2.5666 21.569 2.56006 15.3604V8.95996C2.56008 8.25305 3.13342 7.67969 3.84033 7.67969H12.8003V1.28027C12.8003 0.573505 13.3729 0.000253125 14.0796 0H49.9204ZM17.9224 61.4404H46.0776L43.0054 53.7598H20.9946L17.9224 61.4404ZM39.6802 56.3203C40.3869 56.3204 40.9602 56.8929 40.9604 57.5996C40.9604 58.3065 40.387 58.8798 39.6802 58.8799H24.3198C23.613 58.8798 23.0405 58.3065 23.0405 57.5996C23.0407 56.8929 23.6131 56.3204 24.3198 56.3203H39.6802ZM27.1958 51.2002H36.8032L35.0376 43.2578C34.0337 43.4252 33.0182 43.5123 32.0005 43.5195C30.9824 43.5124 29.9656 43.4242 28.9614 43.2559L27.1958 51.2002ZM15.3599 24.3203C15.3601 33.5102 22.8106 40.96 32.0005 40.96C41.1902 40.9597 48.6399 33.51 48.6401 24.3203V2.55957H15.3599V24.3203ZM5.11963 15.3604C5.12597 20.0278 8.28273 24.103 12.8003 25.2764V10.2402H5.11963V15.3604ZM51.1997 25.2764C55.7173 24.103 58.874 20.0278 58.8804 15.3604V10.2402H51.1997V25.2764Z" fill="#30CEC2" fill-opacity="0.4"/>
</svg>
