<svg width="114" height="22" viewBox="0 0 114 22" fill="none" xmlns="http://www.w3.org/2000/svg">
<path fill-rule="evenodd" clip-rule="evenodd" d="M0 7.46138C0.7068 7.25726 1.6188 7.06729 2.73477 6.89083C3.85074 6.71438 5.02278 6.62646 6.2509 6.62646C7.49689 6.62646 8.53459 6.78939 9.36217 7.1134C10.1898 7.43802 10.8454 7.8979 11.3291 8.49119C11.8129 9.08572 12.1567 9.79029 12.3619 10.6074C12.5659 11.4245 12.6688 12.3338 12.6688 13.3359V21.6046H8.51118V13.8364C8.51118 12.5004 8.33432 11.5536 7.98123 10.9966C7.62752 10.4395 6.96694 10.1616 6.0001 10.1616C5.70247 10.1616 5.38635 10.1758 5.05112 10.2034C4.71652 10.2311 4.41827 10.2637 4.15823 10.3006V21.6039H0V7.46138Z" fill="white"/>
<path fill-rule="evenodd" clip-rule="evenodd" d="M24.4996 12.8064C24.4804 12.4541 24.4201 12.1104 24.3178 11.7765C24.2155 11.4427 24.0571 11.1457 23.8433 10.8857C23.6295 10.6262 23.3589 10.4123 23.0336 10.245C22.7082 10.0778 22.3034 9.99482 21.8196 9.99482C21.3544 9.99482 20.9545 10.0741 20.6199 10.2315C20.2852 10.3895 20.0061 10.5979 19.783 10.858C19.56 11.1181 19.3874 11.4193 19.2666 11.763C19.1452 12.1067 19.0571 12.4547 19.0017 12.807H24.4996V12.8064ZM14.7331 14.3932C14.7331 13.0941 14.9328 11.9573 15.3327 10.9828C15.7326 10.0083 16.2577 9.19679 16.9096 8.54693C17.5603 7.89769 18.309 7.40584 19.1557 7.07138C20.0024 6.73754 20.8719 6.57031 21.7648 6.57031C23.8482 6.57031 25.4941 7.20603 26.7038 8.47746C27.9128 9.74889 28.5173 11.6192 28.5173 14.087C28.5173 14.3286 28.508 14.5931 28.4895 14.8807C28.4711 15.1685 28.452 15.4236 28.4341 15.6462H19.0023C19.0947 16.4995 19.4946 17.1777 20.2021 17.6781C20.9089 18.1793 21.8578 18.43 23.0477 18.43C23.8106 18.43 24.5593 18.3606 25.2945 18.221C26.029 18.0821 26.6292 17.9106 27.0938 17.7058L27.6521 21.0744C27.429 21.1856 27.1314 21.297 26.7592 21.4082C26.387 21.5195 25.9729 21.6173 25.5175 21.7008C25.0615 21.7845 24.5729 21.8539 24.0528 21.9099C23.5315 21.9652 23.0108 21.9936 22.4901 21.9936C21.1689 21.9936 20.0209 21.7986 19.0442 21.4088C18.0675 21.019 17.2584 20.486 16.6169 19.8085C15.9748 19.1309 15.5009 18.3286 15.1941 17.4002C14.8866 16.4719 14.7331 15.4697 14.7331 14.3932Z" fill="white"/>
<path fill-rule="evenodd" clip-rule="evenodd" d="M30.5822 3.31332L34.7398 2.64502V7.45224H39.7342V10.9044H34.7398V15.5628C34.7398 16.4353 34.8932 17.1312 35.2001 17.6507C35.507 18.1709 36.125 18.4303 37.0555 18.4303C37.5016 18.4303 37.9626 18.3885 38.4364 18.3049C38.9109 18.2213 39.3435 18.1057 39.7342 17.9569L40.3202 21.1859C39.818 21.3906 39.2597 21.5665 38.646 21.7147C38.0322 21.8628 37.2786 21.9372 36.3857 21.9372C35.2506 21.9372 34.3115 21.7841 33.5671 21.478C32.8227 21.1718 32.2281 20.7451 31.7813 20.1973C31.3352 19.6501 31.0234 18.9861 30.8465 18.2065C30.6697 17.427 30.5815 16.5638 30.5815 15.6175V3.31332H30.5822Z" fill="white"/>
<path fill-rule="evenodd" clip-rule="evenodd" d="M50.4742 13.8365C50.4742 12.5006 50.3017 11.5537 49.9579 10.9967C49.6134 10.4397 49.0231 10.1618 48.1862 10.1618C47.9256 10.1618 47.6563 10.1759 47.3771 10.2036C47.098 10.2312 46.8281 10.2638 46.5674 10.3007V21.604H42.4098V7.46151C42.7629 7.36867 43.177 7.27153 43.6515 7.16886C44.126 7.06741 44.6282 6.97396 45.1581 6.89035C45.6881 6.80673 46.2322 6.74218 46.7905 6.69545C47.3488 6.64934 47.8972 6.62598 48.437 6.62598C49.4975 6.62598 50.3578 6.76062 51.0184 7.02991C51.6783 7.2992 52.2224 7.61951 52.6507 7.99025C53.246 7.56357 53.9294 7.22972 54.7015 6.9881C55.473 6.74709 56.1847 6.62598 56.8361 6.62598C58.0081 6.62598 58.9706 6.7889 59.7243 7.11291C60.4778 7.43753 61.0775 7.89741 61.5236 8.4907C61.9698 9.08523 62.2772 9.7898 62.4442 10.6069C62.6118 11.424 62.6957 12.3333 62.6957 13.3355V21.604H58.538V13.8365C58.538 12.5006 58.3655 11.5537 58.0217 10.9967C57.6772 10.4397 57.0869 10.1618 56.25 10.1618C56.027 10.1618 55.7152 10.2177 55.3152 10.329C54.9147 10.4403 54.585 10.5798 54.3244 10.7464C54.4544 11.1737 54.5382 11.6232 54.5752 12.0966C54.6127 12.57 54.6312 13.076 54.6312 13.6139V21.604H50.4742V13.8365Z" fill="white"/>
<path fill-rule="evenodd" clip-rule="evenodd" d="M74.2226 12.8064C74.2041 12.4541 74.1437 12.1104 74.0414 11.7765C73.9391 11.4427 73.7808 11.1457 73.5669 10.8857C73.3531 10.6262 73.0832 10.4123 72.7578 10.245C72.4325 10.0778 72.0276 9.99482 71.5439 9.99482C71.0786 9.99482 70.6788 10.0741 70.3441 10.2315C70.0095 10.3895 69.7304 10.5979 69.5067 10.858C69.2836 11.1181 69.1117 11.4193 68.9909 11.763C68.8695 12.1067 68.7814 12.4547 68.7253 12.807H74.2226V12.8064ZM64.4568 14.3932C64.4568 13.0941 64.6565 11.9573 65.057 10.9828C65.4569 10.0083 65.982 9.19679 66.6333 8.54693C67.284 7.89769 68.0327 7.40584 68.88 7.07138C69.726 6.73754 70.5961 6.57031 71.4891 6.57031C73.5718 6.57031 75.2184 7.20603 76.428 8.47746C77.6364 9.74889 78.2416 11.6192 78.2416 14.087C78.2416 14.3286 78.2323 14.5931 78.2138 14.8807C78.1954 15.1685 78.1763 15.4236 78.1577 15.6462H68.7266C68.8196 16.4995 69.2196 17.1777 69.9263 17.6781C70.6332 18.1793 71.5821 18.43 72.7727 18.43C73.5355 18.43 74.2842 18.3606 75.0194 18.221C75.7539 18.0821 76.3541 17.9106 76.8187 17.7058L77.377 21.0744C77.1539 21.1856 76.8556 21.297 76.4841 21.4082C76.1119 21.5195 75.6978 21.6173 75.2424 21.7008C74.7864 21.7845 74.2978 21.8539 73.7771 21.9099C73.2563 21.9652 72.735 21.9936 72.2143 21.9936C70.8932 21.9936 69.7452 21.7986 68.7684 21.4088C67.7918 21.019 66.9827 20.486 66.3412 19.8085C65.6991 19.1309 65.2246 18.3286 64.9184 17.4002C64.6103 16.4719 64.4568 15.4697 64.4568 14.3932Z" fill="white"/>
<path fill-rule="evenodd" clip-rule="evenodd" d="M83.989 14.1708C83.989 15.4515 84.2774 16.4813 84.8541 17.2609C85.4304 18.0404 86.2862 18.4302 87.4213 18.4302C87.7935 18.4302 88.1373 18.4161 88.4541 18.3884C88.7702 18.3601 89.0303 18.3282 89.2355 18.2907V10.7463C88.9748 10.5791 88.6352 10.4401 88.2168 10.3288C87.7984 10.2176 87.3751 10.1616 86.9469 10.1616C84.975 10.1616 83.989 11.4982 83.989 14.1708ZM93.393 21.1311C93.0208 21.2424 92.5926 21.3494 92.1095 21.4514C91.6258 21.5535 91.1186 21.6414 90.5887 21.7158C90.0588 21.7902 89.5189 21.8504 88.9705 21.8972C88.4215 21.9433 87.8964 21.9666 87.3936 21.9666C86.1839 21.9666 85.1055 21.7902 84.1572 21.4379C83.2082 21.0856 82.4084 20.5796 81.7576 19.9211C81.1064 19.2626 80.6085 18.464 80.2646 17.5271C79.9202 16.5901 79.7482 15.5363 79.7482 14.3669C79.7482 13.1791 79.8974 12.1074 80.195 11.1515C80.492 10.196 80.9202 9.38388 81.4786 8.71558C82.0368 8.04728 82.7202 7.53699 83.5293 7.18408C84.3384 6.8318 85.2639 6.65535 86.3054 6.65535C86.8815 6.65535 87.3979 6.71129 87.8539 6.82257C88.3093 6.93386 88.7702 7.09186 89.2355 7.29598V0.668301L93.393 0V21.1311Z" fill="white"/>
<path fill-rule="evenodd" clip-rule="evenodd" d="M100.148 2.45003C100.148 3.21117 99.9016 3.80999 99.4086 4.24589C98.9156 4.68241 98.3345 4.90005 97.6647 4.90005C96.9949 4.90005 96.4132 4.6818 95.9207 4.24589C95.4278 3.80999 95.1813 3.21117 95.1813 2.45003C95.1813 1.68889 95.4278 1.09068 95.9207 0.65416C96.4132 0.218258 96.9949 0 97.6647 0C98.3345 0 98.9156 0.218258 99.4086 0.65416C99.9016 1.09068 100.148 1.68889 100.148 2.45003Z" fill="white"/>
<path fill-rule="evenodd" clip-rule="evenodd" d="M99.7574 21.604H95.5998V8.08853L99.7574 7.44482V21.604Z" fill="white"/>
<path fill-rule="evenodd" clip-rule="evenodd" d="M107.92 18.7086C108.329 18.7086 108.72 18.6994 109.093 18.6803C109.464 18.6618 109.762 18.6342 109.985 18.5973V15.4513C109.818 15.4144 109.567 15.3769 109.232 15.34C108.897 15.3031 108.59 15.284 108.31 15.284C107.92 15.284 107.553 15.308 107.208 15.3536C106.864 15.3997 106.562 15.4882 106.301 15.6179C106.04 15.7483 105.836 15.9241 105.687 16.1466C105.538 16.3692 105.464 16.6477 105.464 16.9822C105.464 17.632 105.682 18.0821 106.12 18.3323C106.557 18.5831 107.158 18.7086 107.92 18.7086ZM107.585 6.57031C108.813 6.57031 109.836 6.70987 110.655 6.98777C111.473 7.26628 112.129 7.66529 112.622 8.18481C113.114 8.70433 113.463 9.33574 113.668 10.0778C113.872 10.8205 113.975 11.6462 113.975 12.5555V21.1863C113.379 21.316 112.552 21.4697 111.491 21.6456C110.431 21.822 109.147 21.9105 107.641 21.9105C106.692 21.9105 105.831 21.8269 105.06 21.6603C104.288 21.493 103.623 21.2194 103.065 20.8389C102.506 20.4589 102.078 19.9622 101.781 19.3492C101.483 18.7368 101.335 17.9849 101.335 17.0941C101.335 16.2407 101.507 15.5171 101.851 14.9225C102.195 14.3286 102.656 13.8553 103.232 13.5029C103.808 13.1507 104.469 12.8955 105.213 12.7375C105.957 12.5801 106.729 12.5008 107.529 12.5008C108.068 12.5008 108.548 12.5242 108.966 12.5703C109.385 12.617 109.724 12.6772 109.985 12.7511V12.3612C109.985 11.656 109.771 11.0904 109.343 10.6631C108.914 10.2364 108.171 10.0225 107.111 10.0225C106.403 10.0225 105.706 10.0741 105.017 10.1756C104.329 10.2776 103.734 10.4221 103.232 10.6072L102.702 7.26628C102.943 7.1925 103.246 7.11319 103.609 7.02958C103.972 6.94596 104.366 6.87219 104.794 6.80701C105.222 6.74246 105.673 6.68651 106.148 6.63979C106.623 6.59368 107.101 6.57031 107.585 6.57031Z" fill="white"/>
</svg>
