<svg preserveAspectRatio="none" width="100%" height="100%" overflow="visible" style="display: block;" viewBox="0 0 135.475 20.6953" fill="none" xmlns="http://www.w3.org/2000/svg">
<g id="Netokracija logo">
<path id="Fill 1" fill-rule="evenodd" clip-rule="evenodd" d="M55.4542 15.948L56.5032 6.88764H52.9292L53.1611 4.90502H62.2278L61.9959 6.88764H58.4272L57.3782 15.948H55.4542Z" fill="var(--fill-0, white)"/>
<path id="Fill 2" fill-rule="evenodd" clip-rule="evenodd" d="M87.0612 10.2175H90.3768C91.2819 10.1946 92.0426 9.50914 92.1849 8.5879C92.2387 8.15824 92.1122 7.72533 91.837 7.39833C91.5592 7.08328 91.1633 6.90729 90.7511 6.91435H87.4455L87.0612 10.2175ZM91.3257 15.9481L91.4417 14.9589C91.5829 13.9269 91.2155 12.8894 90.4607 12.1947H86.8292L86.3965 15.9426H84.4782L85.7539 4.89914H90.9936C91.8987 4.88827 92.7626 5.2848 93.3599 5.9855C93.9508 6.69219 94.2196 7.62592 94.0984 8.54988C93.9592 9.66667 93.3889 10.6792 92.517 11.3581V11.3902C93.2281 12.4206 93.5333 13.6906 93.371 14.9426L93.255 15.9426L91.3257 15.9481Z" fill="var(--fill-0, white)"/>
<path id="Fill 4" fill-rule="evenodd" clip-rule="evenodd" d="M80.1344 15.948L80.2451 14.9594C80.4285 13.6579 79.7944 12.3798 78.6637 11.7709C77.9273 12.0463 77.1497 12.1918 76.3659 12.2H76.1756L76.1334 12.238L75.7012 15.9534H73.7824L75.0581 4.91043H76.9826L76.3659 10.2114H76.6184C78.9984 10.1522 80.9846 8.32327 81.3099 5.8936L81.4258 4.89957H83.3504L83.2339 5.88274C82.9914 7.72576 82.0705 9.40203 80.6615 10.565L80.6251 10.597L80.6615 10.6302C81.8338 11.7176 82.4047 13.3341 82.1854 14.9425L82.0747 15.9425L80.1344 15.948Z" fill="var(--fill-0, white)"/>
<path id="Fill 6" fill-rule="evenodd" clip-rule="evenodd" d="M117.034 15.948L118.315 4.90502H120.233L118.958 15.948H117.034Z" fill="var(--fill-0, white)"/>
<path id="Fill 8" fill-rule="evenodd" clip-rule="evenodd" d="M122.753 4.90496L121.499 15.7687C121.273 17.4232 119.92 18.6682 118.299 18.7127L118.062 20.6953C120.781 20.6231 123.05 18.534 123.423 15.7572L124.677 4.89409L122.753 4.90496Z" fill="var(--fill-0, white)"/>
<path id="Fill 11" fill-rule="evenodd" clip-rule="evenodd" d="M101.183 6.88754C99.7514 6.92393 98.5558 8.0228 98.3576 9.48396L98.1573 11.233H103.213L103.412 9.49483C103.503 8.82997 103.311 8.15642 102.885 7.648C102.453 7.15044 101.831 6.87287 101.183 6.88754ZM102.669 15.9479L102.986 13.2319H97.9301L97.6138 15.9479H95.6798L96.4278 9.49483C96.7736 6.91416 98.8821 4.97118 101.41 4.90491C102.543 4.88319 103.629 5.36879 104.387 6.23572C105.146 7.1298 105.489 8.31937 105.326 9.49483L104.577 15.9587L102.669 15.9479Z" fill="var(--fill-0, white)"/>
<path id="Fill 13" fill-rule="evenodd" clip-rule="evenodd" d="M131.292 6.88754C129.862 6.92393 128.668 8.02334 128.472 9.48396L128.272 11.233H133.322L133.522 9.49483C133.703 8.25474 132.874 7.09829 131.671 6.91198C131.545 6.89297 131.419 6.88482 131.292 6.88754ZM132.779 15.9479L133.096 13.2319H128.04L127.724 15.9479H125.8L126.548 9.49483C126.895 6.91741 129 4.97553 131.524 4.90491C132.656 4.88319 133.741 5.36879 134.497 6.23572C135.256 7.1298 135.598 8.31937 135.436 9.49483L134.687 15.9479H132.779Z" fill="var(--fill-0, white)"/>
<path id="Fill 15" fill-rule="evenodd" clip-rule="evenodd" d="M111.025 15.948C109.888 15.9724 108.797 15.4863 108.036 14.6172C107.284 13.7198 106.947 12.5308 107.113 11.3581L107.329 9.48408C107.668 6.8996 109.781 4.95337 112.31 4.89416C113.449 4.87081 114.541 5.36076 115.299 6.23583L115.901 6.93111L114.372 8.33796L113.776 7.63725C113.342 7.14186 112.721 6.86484 112.073 6.87679C110.642 6.91101 109.447 8.0115 109.253 9.47321L109.032 11.3581C108.943 12.0213 109.135 12.6921 109.559 13.1989C109.99 13.6986 110.613 13.9789 111.261 13.9654C111.955 13.9561 112.62 13.6856 113.133 13.2049L113.892 12.5042L115.089 13.8996L114.33 14.6172C113.425 15.4651 112.248 15.9387 111.025 15.948Z" fill="var(--fill-0, white)"/>
<path id="Fill 17" fill-rule="evenodd" clip-rule="evenodd" d="M68.0842 6.88752C67.391 6.89567 66.7247 7.16672 66.2129 7.64798C65.69 8.12055 65.3505 8.77292 65.2588 9.48395L65.0374 11.3579C64.9509 12.0212 65.1428 12.6909 65.5645 13.1993C65.9973 13.698 66.6188 13.9772 67.2671 13.9652C67.9603 13.9565 68.6266 13.686 69.1384 13.2048C69.6614 12.7322 69.9987 12.0793 70.0873 11.3688L70.3034 9.49481C70.49 8.26178 69.6714 7.10588 68.4753 6.9136C68.3441 6.89241 68.2112 6.88372 68.0789 6.88752H68.0842ZM67.0299 15.9478C65.8971 15.969 64.8112 15.484 64.0516 14.617C63.2984 13.7208 62.9599 12.5312 63.1239 11.3579L63.34 9.48395C63.495 8.22267 64.0933 7.06297 65.0216 6.22484C65.9266 5.3753 67.1027 4.89729 68.3267 4.88317C69.4637 4.86199 70.5527 5.3514 71.3102 6.22484C72.0656 7.12001 72.4046 8.31012 72.238 9.48395L72.0113 11.3579C71.859 12.6203 71.2602 13.7805 70.3298 14.617C69.4268 15.4655 68.2513 15.9392 67.0299 15.9478Z" fill="var(--fill-0, white)"/>
<path id="Fill 19" fill-rule="evenodd" clip-rule="evenodd" d="M42.5078 15.948L43.7834 4.90502H51.0789L50.847 6.88764H45.4755L45.1803 9.43518H49.9667L49.74 11.4118H44.9536L44.6584 13.9653H50.0299L49.798 15.948H42.5078Z" fill="var(--fill-0, white)"/>
<path id="Fill 21" fill-rule="evenodd" clip-rule="evenodd" d="M33.0353 8.61497L32.1867 15.948H30.2679L31.5594 4.90502H33.2198L38.4806 12.238L39.3293 4.90502H41.2322L39.9566 15.948H38.2961L33.0353 8.61497Z" fill="var(--fill-0, white)"/>
<path id="Fill 23" fill-rule="evenodd" clip-rule="evenodd" d="M19.1981 9.36451C17.6853 9.13637 15.8719 8.19123 14.1219 7.28411C13.1519 6.77895 12.1715 6.27379 11.1857 5.8501C10.9433 4.91691 10.0129 4.36286 9.10673 4.61273C8.85845 4.68117 8.62862 4.80719 8.43411 4.981C8.22326 4.94841 8.0124 4.91039 7.80155 4.8941C5.89333 4.73657 4.87597 4.98644 3.52647 5.98047C3.52647 5.98047 3.46853 1.80337 7.84372 1.95003C9.65178 2.00978 11.8078 3.21565 13.8899 4.37807C16.1829 5.65455 18.3705 6.88215 20.3947 6.84413C21.4058 6.82512 22.3815 6.45358 23.1622 5.79035C23.1727 5.75776 22.9355 9.92399 19.1981 9.36451ZM18.7501 13.8729C18.4143 13.8376 18.0811 13.7779 17.7538 13.6937C17.4507 12.773 16.4802 12.2803 15.5873 12.5927C15.4576 12.6383 15.3337 12.7002 15.2183 12.7757C14.5752 12.4933 13.9216 12.1782 13.2732 11.8632C11.3386 10.9289 9.3355 9.96201 7.47473 9.69042C5.90546 9.40362 4.29033 9.7757 2.98884 10.7225C2.98884 10.679 3.03101 6.37699 7.42202 6.75722C7.5907 6.75722 7.75938 6.80067 7.94915 6.83327C8.2222 7.76048 9.17262 8.28411 10.0724 8.00274C10.2675 7.94191 10.4493 7.84576 10.6112 7.71866C11.4493 8.09345 12.3085 8.53343 13.1519 8.97341C15.018 9.94028 16.9473 10.9452 18.7237 11.2168C20.0242 11.4932 21.3784 11.2146 22.4769 10.4454L22.6719 10.2934C22.635 10.2716 22.635 14.226 18.7501 13.8729ZM18.2967 18.3814C16.5309 18.3271 14.396 17.3651 12.3296 16.4368C9.16682 15.0028 6.1569 13.5742 3.39473 14.8452C3.04471 15.0093 2.7142 15.2135 2.40899 15.4536C2.40899 15.4047 2.55659 10.9827 6.96341 11.5753C8.59225 11.7974 10.4794 12.7105 12.3033 13.5905C13.0149 13.9381 13.7371 14.2803 14.454 14.5954C14.6079 15.4303 15.3163 16.0337 16.1408 16.0348C16.5646 16.0332 16.9726 15.8691 17.2847 15.5731C17.632 15.6557 17.9842 15.7154 18.3389 15.7524C19.6647 15.9609 21.0167 15.6231 22.1026 14.8127C22.0868 14.9207 22.1185 18.5063 18.2967 18.3814ZM23.8685 0L23.6682 1.6893C23.4616 2.96416 22.7215 4.0804 21.644 4.742C20.0205 5.53505 17.427 4.09561 14.96 2.71049C12.7091 1.45574 10.3845 0.152092 8.17054 0.0814777C6.54065 -0.0309615 4.93132 0.505705 3.67411 1.58067C2.58453 2.58121 1.90136 3.96797 1.76062 5.46444L0 20.2282H1.8186L1.9662 19.0006C2.22028 17.9055 2.95774 16.9968 3.95876 16.5454C5.83535 15.6817 8.66605 16.9528 11.4019 18.175C13.6105 19.169 15.893 20.1951 17.9857 20.2608H18.3916C19.7126 20.2901 20.9994 19.8295 22.0183 18.9626C23.1284 17.9099 23.8069 16.4607 23.916 14.9104L25.6819 0.0162955L23.8685 0Z" fill="var(--fill-0, white)"/>
</g>
</svg>
