<svg width="64" height="64" viewBox="0 0 64 64" fill="none" xmlns="http://www.w3.org/2000/svg">
<path d="M37.1201 2.56006C37.827 2.56012 38.4004 3.13345 38.4004 3.84033C38.4002 4.54709 37.8269 5.11957 37.1201 5.11963H3.83984C3.13304 5.11971 2.55965 5.6931 2.55957 6.3999V40.9604H61.4404V29.4399C61.4405 28.7332 62.013 28.1598 62.7197 28.1597C63.4266 28.1597 63.9999 28.7331 64 29.4399V49.9204C63.9976 52.04 62.2798 53.7579 60.1602 53.7603H38.9121L40.4482 61.4399H44.7998C45.5067 61.4399 46.0801 62.0133 46.0801 62.7202C46.08 63.4271 45.5067 64.0005 44.7998 64.0005H19.2002C18.4933 64.0005 17.92 63.4271 17.9199 62.7202C17.9199 62.0133 18.4933 61.4399 19.2002 61.4399H23.5518L25.0879 53.7603H3.83984C1.7202 53.7579 0.00244761 52.04 0 49.9204V6.3999C0.00234169 4.28019 1.72013 2.5624 3.83984 2.56006H37.1201ZM26.1631 61.4399H37.8369L36.3008 53.7603H27.6992L26.1631 61.4399ZM2.55957 49.9204C2.55976 50.6271 3.13311 51.1996 3.83984 51.1997H60.1602C60.8669 51.1996 61.4402 50.6271 61.4404 49.9204V43.52H2.55957V49.9204ZM46.0801 17.9204C47.4939 17.9205 48.6396 19.0662 48.6396 20.48C48.6396 21.8938 47.4939 23.0405 46.0801 23.0405C44.6662 23.0405 43.5195 21.8938 43.5195 20.48C43.5196 19.0662 44.6663 17.9204 46.0801 17.9204ZM44.7324 10.2622C47.8568 9.93883 50.9725 10.949 53.3125 13.0444C55.2951 15.0094 56.383 17.703 56.3203 20.4937C56.3112 20.9625 56.2672 21.4306 56.1895 21.8931C56.0964 22.5367 55.5544 23.0209 54.9043 23.0405C54.8452 23.0401 54.786 23.0347 54.7275 23.0259C54.3933 22.9833 54.0903 22.808 53.8867 22.5396C53.6832 22.2712 53.5955 21.9324 53.6445 21.5991C53.7086 21.234 53.7473 20.8642 53.7598 20.4937C53.8168 18.4135 53.0188 16.4011 51.5518 14.9253C49.714 13.3254 47.2878 12.5722 44.8672 12.8511C44.1613 12.8723 43.5658 12.3294 43.5225 11.6245C43.4811 10.9144 44.0223 10.3049 44.7324 10.2622ZM44.7002 2.62939C49.6431 2.22715 54.5263 3.93124 58.1455 7.32178C61.8411 10.7034 63.962 15.4708 64 20.48C64 20.9449 63.9651 21.402 63.9326 21.8579C63.8816 22.5243 63.3265 23.0396 62.6582 23.0405C62.6231 23.0405 62.5901 23.0405 62.5576 23.0366C61.8528 22.9825 61.325 22.3675 61.3779 21.6626C61.4104 21.2714 61.4404 20.8801 61.4404 20.48C61.4034 16.1843 59.5802 12.0977 56.4082 9.20068C53.3145 6.292 49.1323 4.83107 44.9004 5.18115C44.2044 5.21222 43.6036 4.69859 43.5254 4.00635C43.4986 3.66803 43.6069 3.33294 43.8271 3.07471C44.0475 2.81635 44.3617 2.65617 44.7002 2.62939Z" fill="#30CEC2" fill-opacity="0.4"/>
</svg>
