<svg width="64" height="64" viewBox="0 0 64 64" fill="none" xmlns="http://www.w3.org/2000/svg">
<path d="M24.6479 5.12061C25.2713 3.35738 27.0742 2.29953 28.9174 2.61572C30.7606 2.93196 32.1077 4.52987 32.1079 6.3999C32.1079 8.27012 30.7607 9.8688 28.9174 10.1851C27.0742 10.5012 25.2713 9.44339 24.6479 7.68018H18.0132C17.3062 7.68018 16.7329 8.25352 16.7329 8.96045V17.9204H52.1997C53.9312 17.9203 55.449 19.079 55.9048 20.7495L61.4897 41.23C61.8046 42.3845 61.5636 43.6197 60.8374 44.5708C60.1109 45.5219 58.9824 46.0805 57.7856 46.0806H32.0932V58.8804H35.9331C36.6399 58.8805 37.2124 59.4538 37.2124 60.1606C37.2122 60.8674 36.6398 61.4398 35.9331 61.4399H25.6928C24.986 61.4399 24.4127 60.8674 24.4126 60.1606C24.4126 59.4537 24.9859 58.8804 25.6928 58.8804H29.5327V46.0806H3.8403C2.64343 46.0806 1.51503 45.522 0.788544 44.5708C0.0622361 43.6197 -0.17962 42.3845 0.135223 41.23L5.72116 20.7495C6.17696 19.079 7.69466 17.9203 9.42624 17.9204H14.1733V8.96045C14.1756 6.84061 15.8933 5.12286 18.0132 5.12061H24.6479ZM9.42624 20.48C8.84933 20.4808 8.34358 20.867 8.19089 21.4233L2.60593 41.9038C2.50106 42.2885 2.58077 42.7001 2.82272 43.0171C3.06487 43.3341 3.44138 43.52 3.8403 43.52H57.7856C58.1352 43.523 58.4674 43.3803 58.7055 43.1304L58.8022 43.0171C59.0475 42.7015 59.1283 42.2885 59.02 41.9038L53.4341 21.4233C53.2813 20.8671 52.7765 20.4809 52.1997 20.48H16.7329V24.3198C16.7329 25.0267 16.1595 25.6001 15.4526 25.6001C14.7458 25.6 14.1733 25.0267 14.1733 24.3198V20.48H9.42624ZM41.0532 33.2808C41.7599 33.281 42.3323 33.8534 42.3325 34.5601C42.3325 35.2669 41.76 35.8401 41.0532 35.8403H20.5727C19.8659 35.8403 19.2924 35.2669 19.2924 34.5601C19.2926 33.8533 19.866 33.2808 20.5727 33.2808H41.0532ZM35.9331 25.6001C36.6399 25.6002 37.2124 26.1735 37.2124 26.8804C37.2124 27.5872 36.6399 28.1605 35.9331 28.1606H25.6928C24.9859 28.1606 24.4126 27.5873 24.4126 26.8804C24.4126 26.1734 24.9859 25.6001 25.6928 25.6001H35.9331Z" fill="#30CEC2" fill-opacity="0.4"/>
</svg>
