<svg width="64" height="64" viewBox="0 0 64 64" fill="none" xmlns="http://www.w3.org/2000/svg">
<path d="M12.7998 20.48C19.869 20.48 25.5995 26.2106 25.5996 33.2798V42.2397C25.5996 44.3605 23.8805 46.0796 21.7598 46.0796H20.4805V60.1597C20.4805 62.2804 18.7604 64.0005 16.6396 64.0005H8.95996C6.83921 64.0005 5.12012 62.2804 5.12012 60.1597V46.0796H3.83984C1.71914 46.0795 0 44.3605 0 42.2397V33.2798C0.000121894 26.2107 5.73072 20.4801 12.7998 20.48ZM12.7998 23.0405C7.14459 23.0406 2.55971 27.6246 2.55957 33.2798V42.2397C2.56042 42.9463 3.13335 43.5191 3.83984 43.52H5.12012C6.53377 43.5201 7.67944 44.666 7.67969 46.0796V60.1597C7.68053 60.8662 8.25341 61.4391 8.95996 61.4399H16.6396C17.3462 61.4391 17.9191 60.8662 17.9199 60.1597V46.0796C17.9202 44.666 19.0668 43.52 20.4805 43.52H21.7598C22.4663 43.5192 23.0392 42.9463 23.04 42.2397V33.2798C23.0399 27.6245 18.4551 23.0405 12.7998 23.0405ZM60.1602 7.68018C62.2809 7.68026 64 9.3993 64 11.52V47.3599C64 49.4806 62.2809 51.1996 60.1602 51.1997H24.3203C23.6135 51.1997 23.0402 50.6272 23.04 49.9204C23.04 49.2135 23.6134 48.6401 24.3203 48.6401H60.1602C60.8666 48.6391 61.4394 48.0663 61.4404 47.3599V11.52C61.4394 10.8136 60.8666 10.2408 60.1602 10.2397H24.3203C23.6135 10.2397 23.0403 9.66718 23.04 8.96045C23.04 8.25352 23.6134 7.68018 24.3203 7.68018H60.1602ZM32 33.2798C32.7069 33.2798 33.2803 33.8531 33.2803 34.5601V42.2397C33.2803 42.9467 32.7069 43.52 32 43.52C31.2931 43.52 30.7197 42.9467 30.7197 42.2397V34.5601C30.7197 33.8531 31.2931 33.2798 32 33.2798ZM39.6797 17.9204C40.3865 17.9204 40.9598 18.493 40.96 19.1997V42.2397C40.96 42.9467 40.3866 43.52 39.6797 43.52C38.9729 43.5199 38.4004 42.9466 38.4004 42.2397V19.1997C38.4006 18.4931 38.973 17.9206 39.6797 17.9204ZM47.3604 28.1597C48.0671 28.1599 48.6396 28.7332 48.6396 29.4399V42.2397C48.6396 42.9466 48.0671 43.5198 47.3604 43.52C46.6534 43.52 46.0801 42.9467 46.0801 42.2397V29.4399C46.0801 28.7331 46.6535 28.1597 47.3604 28.1597ZM55.04 20.48C55.7469 20.48 56.3203 21.0533 56.3203 21.7603V42.2397C56.3203 42.9467 55.7469 43.52 55.04 43.52C54.3331 43.52 53.7598 42.9467 53.7598 42.2397V21.7603C53.7598 21.0533 54.3331 20.48 55.04 20.48ZM12.7998 2.56006C17.0412 2.56006 20.4803 5.99834 20.4805 10.2397C20.4805 14.4813 17.0414 17.9204 12.7998 17.9204C8.55835 17.9203 5.12012 14.4812 5.12012 10.2397C5.12029 5.99841 8.55845 2.56016 12.7998 2.56006ZM12.7998 5.11963C9.97366 5.12298 7.68312 7.41362 7.67969 10.2397C7.67969 13.0674 9.9722 15.3598 12.7998 15.3599C15.6275 15.3599 17.9199 13.0674 17.9199 10.2397C17.9197 7.41221 15.6274 5.11963 12.7998 5.11963Z" fill="#30CEC2" fill-opacity="0.4"/>
</svg>
