<svg preserveAspectRatio="none" width="114.949" height="27.4109" overflow="visible" style="display: block;"
     viewBox="0 0 114.949 27.4109" fill="none" xmlns="http://www.w3.org/2000/svg">
    <g id="Profico logo">
        <path id="Fill 1" fill-rule="evenodd" clip-rule="evenodd"
              d="M45.9674 13.3248C46.6771 9.43924 45.1669 8.34389 43.0964 8.34389C42.2618 8.34951 41.4327 8.48576 40.6363 8.74815L38.6138 18.8198C39.3796 19.1313 40.1942 19.2878 41.0152 19.2802C43.638 19.2802 45.3057 17.0075 45.906 13.6394L45.9674 13.3248ZM38.1228 21.2355L37.0849 26.3291C36.9461 27.0791 36.5913 27.3938 35.9082 27.3938H34.985C34.2753 27.3938 34.0271 27.0791 34.1659 26.3291L37.8773 7.9562C38.0961 6.91957 38.6778 6.7482 39.1341 6.57402C40.0626 6.20039 42.0318 5.91384 43.5873 5.91384C47.4429 5.91384 50.2312 7.92811 49.0812 13.3077L49.0011 13.6816C47.9072 18.7746 45.4738 21.7415 41.4021 21.7415C40.2929 21.7224 39.1906 21.5524 38.1228 21.2355Z"
              fill="var(--fill-0, white)"/>
        <path id="Fill 3" fill-rule="evenodd" clip-rule="evenodd"
              d="M60.6157 7.56847C60.3702 8.11348 60.4532 8.5742 59.6608 8.54611C59.1541 8.46239 58.6418 8.42391 58.1292 8.43093C57.2001 8.44919 56.2793 8.6141 55.3967 8.91975L53.0727 20.3733C52.9369 21.1206 52.582 21.438 51.896 21.438H50.9675C50.258 21.438 50.0122 21.1206 50.1486 20.3733L52.6887 7.82693C52.8275 7.19483 53.1557 6.8212 53.9185 6.59083C55.314 6.02897 56.8722 5.89974 58.292 5.89974C59.0081 5.88514 59.7237 5.952 60.4263 6.09921C61.056 6.21439 60.9735 6.55993 60.728 7.33811L60.6157 7.56847Z"
              fill="var(--fill-0, white)"/>
        <path id="Fill 5" fill-rule="evenodd" clip-rule="evenodd"
              d="M70.128 13.5523C70.8377 10.3019 70.0453 8.34381 67.7773 8.34381C65.4266 8.34381 64.0872 10.187 63.3481 13.5523L63.2413 14.0439C62.5292 17.3533 63.3774 19.2804 65.5627 19.2804C67.748 19.2804 69.2528 17.5527 70.0186 14.0439L70.128 13.5523ZM60.2876 13.5523C61.4083 8.4028 64.0872 5.89971 68.2683 5.89971C72.3133 5.89971 74.2824 8.51798 73.1884 13.5523L73.079 14.0439C71.9584 19.1933 69.2528 21.7273 65.0744 21.7273C61.0294 21.7273 59.0869 19.0782 60.1809 14.0439L60.2876 13.5523Z"
              fill="var(--fill-0, white)"/>
        <path id="Fill 7" fill-rule="evenodd" clip-rule="evenodd"
              d="M75.7578 7.25104C75.9206 6.50377 76.2755 6.18632 76.9614 6.18632H77.8897L78.1565 4.80414C78.8129 1.55377 81.3824 0.000225597 85.2649 0.000225597C86.468 -0.00735953 87.6653 0.176369 88.8161 0.545231C89.4724 0.719408 89.7179 0.977864 89.363 1.72514L89.2536 1.9555C88.9257 2.64659 88.6242 2.84886 87.8875 2.79829C87.0294 2.57439 86.1489 2.45921 85.2649 2.45556C82.4206 2.45556 81.3557 3.31802 81.0545 4.81257L80.7877 6.19474H87.618C88.3304 6.19474 88.5759 6.5122 88.4185 7.25947L86.3613 17.5078C86.1428 18.5725 86.2789 19.0024 86.9083 19.0024C87.1399 18.9951 87.3696 18.9563 87.5916 18.8872C87.9195 18.831 87.9756 18.974 87.9756 19.449L87.9465 19.8533C87.9195 20.4854 87.8929 20.918 86.9913 21.1765C86.5353 21.3504 86.0539 21.4378 85.5691 21.4353C83.7654 21.4353 82.7806 20.6596 83.4105 17.5219L85.2406 8.57142H80.3207L77.9193 20.3705C77.7833 21.1175 77.4284 21.4353 76.7451 21.4353H75.8085C75.1257 21.4353 74.88 21.1175 75.008 20.3705L77.4094 8.57142H76.4782C75.8779 8.57142 75.523 8.29049 75.6778 7.50669L75.7578 7.25104Z"
              fill="var(--fill-0, white)"/>
        <path id="Fill 9" fill-rule="evenodd" clip-rule="evenodd"
              d="M101.477 7.65559C101.231 8.34387 101.066 8.51805 100.575 8.49838C99.8226 8.4023 99.0651 8.35342 98.3071 8.3523C95.4358 8.3523 94.0166 10.1671 93.2775 13.5914L93.1678 14.0805C92.4023 17.5921 93.4963 19.2889 96.2016 19.2889C96.9882 19.2825 97.7732 19.2243 98.5525 19.1147C98.9341 19.0867 99.0699 19.2889 99.0168 19.98L98.9901 20.4407C98.9901 20.9807 98.5744 21.4184 98.0616 21.4184C97.0495 21.6046 96.0255 21.7058 94.9985 21.7218C90.7293 21.7218 88.9603 19.1597 90.1343 13.9231L90.2171 13.5748C91.3084 8.71189 93.4696 5.89135 98.1147 5.89135C99.1142 5.87224 100.113 5.96635 101.093 6.17228C101.586 6.28746 101.893 6.45321 101.639 7.18082L101.477 7.65559Z"
              fill="var(--fill-0, white)"/>
        <path id="Fill 11" fill-rule="evenodd" clip-rule="evenodd"
              d="M111.589 13.5523C112.299 10.3019 111.507 8.34381 109.239 8.34381C106.888 8.34381 105.548 10.187 104.812 13.5523L104.703 14.0439C103.99 17.3533 104.839 19.2804 107.024 19.2804C109.209 19.2804 110.714 17.5527 111.48 14.0439L111.589 13.5523ZM101.752 13.5523C102.87 8.4028 105.548 5.89971 109.732 5.89971C113.775 5.89971 115.744 8.51798 114.65 13.5523L114.541 14.0439C113.43 19.1933 110.714 21.7217 106.533 21.7217C102.488 21.7217 100.548 19.0725 101.642 14.0383L101.752 13.5523Z"
              fill="var(--fill-0, white)"/>
        <path id="Fill 13" fill-rule="evenodd" clip-rule="evenodd"
              d="M16.7611 9.36079C16.6147 10.0117 16.0751 10.4811 15.4404 10.5098H13.682C13.2079 10.53 12.8079 10.1418 12.7887 9.64257C12.785 9.54761 12.7956 9.45238 12.8202 9.36079L13.1884 7.50946C13.3354 6.85883 13.8747 6.38995 14.5092 6.36046H16.2675C16.7417 6.34023 17.1416 6.72847 17.1608 7.22769C17.1643 7.32264 17.1539 7.41788 17.1294 7.50946L16.7611 9.36079Z"
              fill="var(--fill-0, white)"/>
        <path id="Fill 15" fill-rule="evenodd" clip-rule="evenodd"
              d="M22.0681 9.36075C21.9214 10.0173 21.3744 10.4884 20.734 10.5098H18.9756C18.4999 10.5294 18.0991 10.1395 18.0805 9.63887C18.077 9.54504 18.0874 9.45121 18.1111 9.36075L18.482 7.50942C18.6288 6.85288 19.176 6.38176 19.8161 6.36041H21.5745C22.0484 6.33597 22.4515 6.72056 22.4747 7.2195C22.4793 7.31642 22.4691 7.41334 22.4443 7.50661L22.0681 9.36075Z"
              fill="var(--fill-0, white)"/>
        <path id="Fill 17" fill-rule="evenodd" clip-rule="evenodd"
              d="M27.3726 9.36081C27.2272 10.0123 26.6872 10.4823 26.0519 10.5098H24.2935C23.8194 10.53 23.4194 10.1418 23.4002 9.64258C23.3965 9.54763 23.4071 9.45239 23.4317 9.36081L23.7999 7.50948C23.9469 6.85884 24.4862 6.38997 25.1207 6.36047H26.879C27.3545 6.3408 27.7553 6.73074 27.7739 7.23135C27.7777 7.32519 27.7673 7.41902 27.7435 7.50948L27.3726 9.36081Z"
              fill="var(--fill-0, white)"/>
        <path id="Fill 19" fill-rule="evenodd" clip-rule="evenodd"
              d="M15.6458 14.9457C15.499 15.6022 14.9518 16.0733 14.3117 16.0947H12.572C12.0978 16.1149 11.6979 15.7267 11.6787 15.2274C11.6749 15.1325 11.6856 15.0373 11.7102 14.9457L12.0784 13.0915C12.2262 12.4356 12.7724 11.965 13.4125 11.9428H15.1682C15.6439 11.9229 16.0447 12.3128 16.0634 12.8134C16.0668 12.9072 16.0564 13.0011 16.0327 13.0915L15.6458 14.9457Z"
              fill="var(--fill-0, white)"/>
        <path id="Fill 21" fill-rule="evenodd" clip-rule="evenodd"
              d="M20.9555 14.9457C20.8093 15.5966 20.2698 16.066 19.6347 16.0947H17.8737C17.3996 16.1149 16.9996 15.7267 16.9804 15.2274C16.9767 15.1325 16.9873 15.0373 17.0119 14.9457L17.3801 13.0915C17.5271 12.4409 18.0664 11.972 18.7009 11.9428H20.4619C20.936 11.9223 21.336 12.3105 21.3552 12.8098C21.3589 12.9047 21.3483 12.9999 21.3237 13.0915L20.9555 14.9457Z"
              fill="var(--fill-0, white)"/>
        <path id="Fill 23" fill-rule="evenodd" clip-rule="evenodd"
              d="M26.2599 14.9457C26.1131 15.6022 25.5661 16.0733 24.9258 16.0947H23.1674C22.6933 16.1149 22.2933 15.7267 22.2741 15.2274C22.2706 15.1325 22.281 15.0373 22.3056 14.9457L22.6738 13.0915C22.8216 12.4356 23.3681 11.965 24.0079 11.9428H25.7662C26.2404 11.9223 26.6404 12.3105 26.6596 12.8098C26.6633 12.9047 26.6526 12.9999 26.6281 13.0915L26.2599 14.9457Z"
              fill="var(--fill-0, white)"/>
        <path id="Fill 25" fill-rule="evenodd" clip-rule="evenodd"
              d="M14.5332 20.5305C14.3877 21.182 13.8477 21.652 13.2124 21.6795H11.4567C10.981 21.6992 10.5805 21.3092 10.5615 20.8086C10.5581 20.7148 10.5685 20.621 10.5922 20.5305L10.9604 18.6792C11.109 18.0238 11.655 17.5535 12.2945 17.5302H14.0502C14.5244 17.5099 14.9243 17.8982 14.9435 18.3974C14.947 18.4924 14.9366 18.5876 14.912 18.6792L14.5332 20.5305Z"
              fill="var(--fill-0, white)"/>
        <path id="Fill 27" fill-rule="evenodd" clip-rule="evenodd"
              d="M19.8403 20.5305C19.6951 21.1812 19.1564 21.6506 18.5222 21.6795H16.7611C16.287 21.6998 15.887 21.3115 15.8678 20.8123C15.8641 20.7173 15.8748 20.6221 15.8993 20.5305L16.2675 18.6792C16.4143 18.0227 16.9613 17.5515 17.6016 17.5302H19.36C19.8355 17.5105 20.2362 17.9004 20.2552 18.4013C20.2586 18.4949 20.2482 18.5887 20.2245 18.6792L19.8403 20.5305Z"
              fill="var(--fill-0, white)"/>
        <path id="Fill 29" fill-rule="evenodd" clip-rule="evenodd"
              d="M6.20294 9.36079C6.05672 10.0117 5.51721 10.4811 4.88217 10.5098H3.12115C2.64701 10.53 2.24705 10.1418 2.22783 9.64257C2.2241 9.54761 2.23477 9.45238 2.25932 9.36079L2.62753 7.50946C2.77615 6.85405 3.32207 6.38377 3.96164 6.36046H5.72266C6.1968 6.34023 6.59677 6.72847 6.61598 7.22769C6.61971 7.32264 6.60904 7.41788 6.58449 7.50946L6.20294 9.36079Z"
              fill="var(--fill-0, white)"/>
        <path id="Fill 31" fill-rule="evenodd" clip-rule="evenodd"
              d="M17.7803 4.08497C17.6336 4.74151 17.0863 5.21263 16.4462 5.23398H14.7066C14.2324 5.2542 13.8325 4.86596 13.8132 4.36674C13.8095 4.27179 13.8202 4.17655 13.8447 4.08497L14.2129 2.23083C14.3621 1.57598 14.9077 1.10598 15.547 1.08182H17.3054C17.7809 1.06188 18.1816 1.45181 18.2006 1.95271C18.2041 2.04654 18.1936 2.14037 18.1699 2.23083L17.7803 4.08497Z"
              fill="var(--fill-0, white)"/>
        <path id="Fill 33" fill-rule="evenodd" clip-rule="evenodd"
              d="M10.3947 14.9457C10.2471 15.6016 9.7004 16.0725 9.06056 16.0947H7.31555C6.84007 16.1143 6.43931 15.7244 6.42036 15.2238C6.4169 15.13 6.4273 15.0361 6.45105 14.9457L6.82193 13.0915C6.96975 12.4356 7.5162 11.965 8.15604 11.9428H9.90372C10.3779 11.9223 10.7778 12.3105 10.797 12.8098C10.8008 12.9047 10.7901 12.9999 10.7655 13.0915L10.3947 14.9457Z"
              fill="var(--fill-0, white)"/>
        <path id="Fill 35" fill-rule="evenodd" clip-rule="evenodd"
              d="M3.97496 20.5305C3.8282 21.187 3.28122 21.6582 2.64085 21.6795H0.895837C0.420361 21.6992 0.0195957 21.3092 0.000651423 20.8086C-0.00281725 20.7148 0.00758878 20.621 0.0313359 20.5305L0.402218 18.6792C0.549236 18.0226 1.09595 17.5515 1.73632 17.5302H3.49468C3.96882 17.5099 4.36878 17.8982 4.38799 18.3974C4.39173 18.4924 4.38106 18.5876 4.35651 18.6792L3.97496 20.5305Z"
              fill="var(--fill-0, white)"/>
        <path id="Fill 38" fill-rule="evenodd" clip-rule="evenodd"
              d="M9.28206 20.5305C9.13344 21.1859 8.58752 21.6562 7.94795 21.6795H6.1896C5.71386 21.6992 5.31309 21.3093 5.29442 20.8086C5.29095 20.7148 5.30135 20.621 5.3251 20.5305L5.69331 18.6792C5.84167 18.0238 6.38785 17.5535 7.02742 17.5302H8.78577C9.26125 17.5105 9.66201 17.9004 9.68096 18.4013C9.68443 18.4949 9.67402 18.5887 9.65027 18.6792L9.28206 20.5305Z"
              fill="var(--fill-0, white)"/>
        <path id="Fill 40" fill-rule="evenodd" clip-rule="evenodd"
              d="M7.70784 26.2616C7.56109 26.9181 7.01384 27.3892 6.37374 27.4106H4.61538C4.14098 27.423 3.74688 27.0282 3.73514 26.5288C3.73301 26.4386 3.74368 26.3487 3.76689 26.2616L4.13511 24.4103C4.28186 23.7537 4.82884 23.2826 5.46921 23.2613H7.22757C7.70171 23.241 8.10167 23.6293 8.12088 24.1282C8.12462 24.2234 8.11395 24.3187 8.0894 24.4103L7.70784 26.2616Z"
              fill="var(--fill-0, white)"/>
    </g>
</svg>
