<svg width="64" height="64" viewBox="0 0 64 64" fill="none" xmlns="http://www.w3.org/2000/svg">
<path d="M60.1602 2.55981C62.2799 2.56216 63.9977 4.27994 64 6.39966V49.9202C63.9976 52.0398 62.2798 53.7577 60.1602 53.76H38.9121L40.4482 61.4397H44.7998C45.5067 61.4397 46.0801 62.013 46.0801 62.72C46.08 63.4268 45.5067 64.0002 44.7998 64.0002H19.2002C18.4933 64.0002 17.92 63.4268 17.9199 62.72C17.9199 62.013 18.4933 61.4397 19.2002 61.4397H23.5518L25.0879 53.76H3.83984C1.7202 53.7577 0.00244761 52.0398 0 49.9202V6.39966C0.00234169 4.27994 1.72013 2.56216 3.83984 2.55981H60.1602ZM26.1631 61.4397H37.8369L36.3008 53.76H27.6992L26.1631 61.4397ZM2.55957 49.9202C2.55977 50.6269 3.13312 51.1994 3.83984 51.1995H60.1602C60.8669 51.1994 61.4402 50.6269 61.4404 49.9202V43.5198H2.55957V49.9202ZM3.83984 5.11938C3.13302 5.11947 2.55962 5.69283 2.55957 6.39966V40.9602H61.4404V6.39966C61.4404 5.69283 60.867 5.11947 60.1602 5.11938H3.83984ZM11.5195 25.5999C12.2265 25.5999 12.7998 26.1732 12.7998 26.8801V34.5598C12.7998 35.2667 12.2265 35.8401 11.5195 35.8401C10.8128 35.8398 10.2402 35.2666 10.2402 34.5598V26.8801C10.2402 26.1734 10.8128 25.6001 11.5195 25.5999ZM21.7598 12.8C22.4666 12.8 23.0398 13.3726 23.04 14.0793V34.5598C23.04 35.2667 22.4667 35.8401 21.7598 35.8401C21.053 35.84 20.4805 35.2666 20.4805 34.5598V14.0793C20.4807 13.3727 21.0531 12.8002 21.7598 12.8ZM32 28.1594C32.7069 28.1594 33.2802 28.7328 33.2803 29.4397V34.5598C33.2803 35.2667 32.7069 35.8401 32 35.8401C31.2931 35.8401 30.7197 35.2667 30.7197 34.5598V29.4397C30.7198 28.7328 31.2931 28.1594 32 28.1594ZM42.2402 17.9202C42.9469 17.9203 43.5193 18.4928 43.5195 19.1995V34.5598C43.5195 35.2667 42.9471 35.84 42.2402 35.8401C41.5333 35.8401 40.96 35.2667 40.96 34.5598V19.1995C40.9602 18.4927 41.5334 17.9202 42.2402 17.9202ZM52.4805 23.0403C53.1871 23.0405 53.7596 23.613 53.7598 24.3196V34.5598C53.7598 35.2666 53.1872 35.8398 52.4805 35.8401C51.7735 35.8401 51.2002 35.2667 51.2002 34.5598V24.3196C51.2004 23.6128 51.7737 23.0403 52.4805 23.0403Z" fill="#30CEC2" fill-opacity="0.4"/>
</svg>
