<svg width="172" height="41" viewBox="0 0 172 41" fill="none" xmlns="http://www.w3.org/2000/svg">
<path fill-rule="evenodd" clip-rule="evenodd" d="M87 15.0062H88.1966C89.6057 15.0062 91.015 15.0145 92.424 15.0001C92.7588 14.9967 93.0261 15.088 93.2935 15.2973C95.7566 17.2264 98.2278 19.1443 100.696 21.0658C101.221 21.474 101.233 21.4731 101.771 21.0535C104.239 19.1302 106.708 17.2096 109.172 15.2813C109.412 15.0931 109.653 14.9995 109.961 15.0032C111.168 15.0181 112.376 15.0188 113.584 15.0027C113.883 14.9988 114.002 15.0455 114 15.4036C113.985 18.8096 113.988 22.2158 113.996 25.622C113.997 25.9021 113.941 26.0043 113.646 25.9999C112.453 25.9818 111.259 25.9821 110.066 25.9998C109.776 26.0041 109.714 25.9104 109.715 25.6267C109.725 23.0237 109.722 20.4208 109.719 17.8178C109.719 17.663 109.792 17.459 109.614 17.3719C109.44 17.2862 109.332 17.4737 109.213 17.5659C106.204 19.9063 103.195 22.2468 100.195 24.5993C99.8835 24.8434 99.6528 24.8789 99.3228 24.6209C95.3112 21.4834 91.2897 18.3592 87.2712 15.2312C87.207 15.1812 87.1457 15.1273 87 15.0062" fill="white"/>
<path fill-rule="evenodd" clip-rule="evenodd" d="M64.7965 25.9949H61.885C61.3163 25.9949 60.7472 25.9839 60.1789 25.9996C59.893 26.0074 59.6825 25.9057 59.4839 25.7021C57.8794 24.056 56.2677 22.4172 54.6605 20.7739C54.5523 20.6632 54.3749 20.5685 54.4367 20.3747C54.5085 20.1498 54.7177 20.2046 54.8857 20.2006C56.3726 20.1644 57.8599 20.143 59.3463 20.0921C60.1051 20.0661 60.8547 19.9438 61.565 19.649C62.302 19.3431 62.6764 18.8601 62.666 18.2503C62.6539 17.5415 62.2663 17.0344 61.503 16.7468C60.6246 16.4156 59.7045 16.397 58.7856 16.3962C54.2501 16.3925 49.7146 16.388 45.1792 16.4036C44.6649 16.4054 44.2483 16.3036 43.8918 15.9042C43.6225 15.6026 43.297 15.3533 43 15.0837C43.0701 14.969 43.1508 15.0055 43.2157 15.0055C49.37 15.0045 55.5242 15.0005 61.6784 15.0114C62.8316 15.0134 63.9787 15.1212 65.0763 15.5276C66.0822 15.9001 66.8523 16.5056 66.9792 17.6789C67.1184 18.968 66.5533 19.8891 65.4756 20.5082C64.5429 21.044 63.5144 21.2409 62.4649 21.3454C62.0008 21.3916 61.5347 21.4175 61.0699 21.4577C60.9431 21.4686 60.7838 21.4503 60.7297 21.603C60.6736 21.7614 60.8257 21.8371 60.9128 21.9263C62.1174 23.1595 63.3233 24.3915 64.5348 25.6178C64.6337 25.7179 64.7754 25.774 64.8973 25.8505L64.7965 25.9949Z" fill="white"/>
<path fill-rule="evenodd" clip-rule="evenodd" d="M172 15.0205C171.954 15.0876 171.947 15.1012 171.937 15.1118C170.74 16.3919 170.74 16.39 169.008 16.3923C166.068 16.3961 163.128 16.3854 160.189 16.4151C158.752 16.4296 157.375 16.7476 156.154 17.5695C153.772 19.1725 153.749 22.2795 156.1 23.9218C156.475 24.1834 156.881 24.3845 157.303 24.5547C158.25 24.9374 159.242 25.0935 160.252 25.1656C160.39 25.1754 160.539 25.1291 160.719 25.2569C160.21 25.5937 159.818 26.0347 159.137 25.9978C157.768 25.9234 156.388 26.1017 155.028 25.8055C153.44 25.4597 152.038 24.7723 151.019 23.4444C149.022 20.8423 150.072 17.1856 153.197 15.8053C154.579 15.195 156.05 15.029 157.527 15.0195C162.28 14.9888 167.033 15.004 171.786 15.0022C171.841 15.0022 171.895 15.0113 172 15.0205" fill="white"/>
<path fill-rule="evenodd" clip-rule="evenodd" d="M123 21.0615C123.89 20.122 124.695 19.2732 125.498 18.4229C126.472 17.3926 127.448 16.3652 128.414 15.3262C128.626 15.0973 128.852 14.9972 129.157 15.0001C130.519 15.013 131.881 15.0113 133.242 15.001C133.515 14.999 133.722 15.0815 133.916 15.2867C137.22 18.7922 140.529 22.293 143.836 25.7952C143.874 25.8353 143.907 25.8803 144 25.9923H143.207C141.999 25.9923 140.792 25.9802 139.585 25.9998C139.231 26.0055 138.981 25.8817 138.735 25.6201C135.972 22.6773 133.2 19.7439 130.43 16.8082C129.997 16.3487 129.914 16.3487 129.482 16.8061C128.261 18.1005 127.036 19.3902 125.824 20.694C125.578 20.9585 125.318 21.0789 124.968 21.0672C124.354 21.0467 123.739 21.0615 123 21.0615" fill="white"/>
<path fill-rule="evenodd" clip-rule="evenodd" d="M78.992 20.5433C78.992 22.2241 78.9826 23.9052 78.9999 25.5859C79.0034 25.9278 78.9163 26.0053 78.6207 25.9997C77.5258 25.9795 76.4303 25.983 75.3354 25.998C75.0789 26.0016 74.9991 25.9316 75 25.6327C75.0098 22.2115 75.0097 18.7901 75.0002 15.3688C74.9993 15.0727 75.0748 14.9985 75.3335 15.0021C76.442 15.0176 77.5508 15.0216 78.6589 15.0002C78.962 14.9943 78.9993 15.1215 78.9975 15.4113C78.9864 17.1219 78.992 18.8326 78.992 20.5433" fill="white"/>
<path fill-rule="evenodd" clip-rule="evenodd" d="M29.4829 5.761C29.2445 9.89328 28.5729 13.9546 27.4363 17.9395C26.8487 19.9995 26.1427 22.0173 25.2613 24.0461C23.5204 22.3166 21.8288 20.6353 20.1363 18.955C19.4488 18.2723 18.758 17.5928 18.072 16.9088C17.9749 16.8121 17.8094 16.7259 17.8858 16.556C17.9558 16.4001 18.1316 16.4286 18.2713 16.416C19.3127 16.323 20.3548 16.2326 21.3502 15.8833C22.2698 15.5605 23.094 15.0953 23.6699 14.2846C24.6623 12.8875 24.3284 11.1435 22.8772 10.226C21.5421 9.38178 20.0275 9.17182 18.4938 9.16283C13.7707 9.13527 9.04715 9.15005 4.32373 9.14832C3.71683 9.14815 3.71185 9.14892 3.63996 8.56191C3.52095 7.59083 3.43658 6.61638 3.40282 5.63866C3.38432 5.10141 3.58543 4.8346 4.11268 4.71545C6.89087 4.08774 9.70022 3.66065 12.5427 3.45155C15.4765 3.23564 18.4075 3.26536 21.337 3.53208C23.8262 3.75871 26.2889 4.1477 28.7249 4.70093C29.3289 4.83814 29.5208 5.10322 29.4829 5.761M23.6193 28.6525C23.0161 28.4694 23.0195 28.4545 22.6912 28.9863C21.1433 31.494 19.3123 33.7676 17.0476 35.6834C16.5057 36.1417 16.3893 36.1458 15.8628 35.7013C12.598 32.9455 10.244 29.5174 8.39351 25.7272C6.25076 21.3382 4.89045 16.7057 4.09866 11.9035C4.05224 11.6221 3.94153 11.4429 3.67533 11.3197C3.26901 11.1317 2.88049 10.9061 2.48446 10.6966C2.48952 10.6688 2.49467 10.6411 2.49982 10.6132C2.58148 10.6132 2.66315 10.6131 2.74481 10.6132C6.97449 10.6154 11.2042 10.6149 15.4338 10.622C16.2796 10.6234 17.1174 10.7211 17.9232 10.9862C19.099 11.373 19.612 12.1091 19.4732 13.1594C19.3852 13.8257 18.9727 14.2406 18.3974 14.5234C17.4759 14.9765 16.4738 15.0655 15.4714 15.0897C14.1639 15.1215 12.8553 15.0995 11.5471 15.1074C11.3699 15.1084 11.1404 15.025 11.0431 15.2502C10.9449 15.4775 11.166 15.5821 11.2909 15.7058C15.6057 19.9811 19.9235 24.2535 24.2415 28.5257C24.3534 28.6363 24.4726 28.7397 24.5676 28.8914C24.2174 28.9278 23.9263 28.7456 23.6193 28.6525M32.1069 2.14839C26.9842 0.738567 21.7645 0.0218598 16.4472 0C11.1597 0.0207366 5.96886 0.734593 0.87201 2.12524C0.140511 2.32483 -0.00275233 2.50636 3.96504e-05 3.23896C0.0167915 7.6587 0.555382 12.0184 1.57847 16.3175C2.88206 21.7952 4.87946 26.9946 8.01206 31.7241C10.1122 34.8948 12.6413 37.6648 15.8259 39.8112C16.3281 40.1496 16.5524 40.1514 17.0538 39.8174C17.8504 39.2867 18.6086 38.7062 19.3333 38.0828C22.8581 35.0511 25.4588 31.3328 27.461 27.1966C31.1434 19.5897 32.7932 11.5227 32.8878 3.11791C32.8943 2.54196 32.7019 2.31221 32.1069 2.14839" fill="white"/>
</svg>
