<svg width="86" height="59" viewBox="0 0 86 59" fill="none" xmlns="http://www.w3.org/2000/svg">
<path fill-rule="evenodd" clip-rule="evenodd" d="M86 58.0668H0V0H86V58.0668ZM3.0446 55.0335H82.9524V3.02918H3.0446V55.0335ZM8.86828 21.6512L11.5412 19.2205C12.4698 20.4463 13.7406 21.0872 15.2003 21.0872C16.3948 21.0872 17.1334 20.6722 17.1334 19.9753C17.1334 19.2972 16.7548 19.0141 15.5027 18.7506L13.797 18.3732C11.1992 17.8079 9.89178 16.3946 9.89178 14.171C9.89178 11.6272 12.0149 10.0822 15.4464 10.0822C17.7022 10.0822 19.6738 10.7789 21.0198 12.0981L18.764 14.6046C17.8346 13.5872 16.4323 12.965 15.1427 12.965C14.0995 12.965 13.4557 13.3229 13.4557 13.9077C13.4557 14.5298 13.8919 14.8307 15.2752 15.1324L17.2087 15.5648C19.7677 16.1302 20.8873 17.3746 20.8873 19.6165C20.8873 22.4053 18.6691 24.1017 15.0447 24.1017C12.4281 24.1008 10.1535 23.2151 8.86828 21.6512ZM22.3416 10.1183H26.1717V15.9786C26.7778 14.7187 27.7638 14.0965 29.1285 14.0965C31.1767 14.0965 32.2188 15.3958 32.2188 17.922V23.7825H28.3899V18.317C28.3899 17.3754 28.0487 16.9034 27.3464 16.9034C26.588 16.9034 26.1707 17.506 26.1707 18.6187V23.7823H22.3416V10.1183ZM34.1699 10.0614H38.0751V13.2274H34.1699V10.0614ZM34.2074 14.3578H38.0375V23.7803H34.2074V14.3578ZM46.6824 16.7698H44.5958V23.7803H40.7668V16.7698H39.3635V14.3578H40.7668V13.7924C40.7668 11.2674 42.1888 10.0053 45.013 10.0053C45.5745 10.0112 46.134 10.0745 46.6824 10.1941V12.8136C46.3951 12.7569 46.1031 12.7256 45.8101 12.7203C45.033 12.7203 44.5968 13.1155 44.5968 13.7946V14.36H46.6834V16.772L46.6824 16.77V16.7698ZM47.7227 14.3578H49.296V12.21L53.1261 10.7779V14.3578H55.3065V16.7698H53.1259V19.5783C53.1259 20.4455 53.6195 20.9348 54.5104 20.9348C54.7769 20.9375 55.0432 20.9186 55.3065 20.8778V23.7815C54.454 23.9131 53.9418 23.9703 53.4107 23.9703C50.6232 23.9703 49.297 22.896 49.297 20.6517V16.77H47.7227V14.3578ZM18.5523 46.5879V48.5665H9.22394V46.5879H18.5523Z" fill="white"/>
</svg>
