<svg preserveAspectRatio="none" width="100%" height="100%" overflow="visible" style="display: block;" viewBox="0 0 135.999 13.9533" fill="none" xmlns="http://www.w3.org/2000/svg">
<g id="Splittechcity logo">
<path id="Fill 1" fill-rule="evenodd" clip-rule="evenodd" d="M135.818 1.21334L131.376 9.05801V13.0667C131.376 13.58 131.195 13.9533 130.696 13.9533H129.155C128.656 13.9533 128.475 13.6733 128.475 13.0667V9.02534L124.213 1.21334C123.942 0.700008 124.032 0.233341 124.576 0.233341H126.118C126.798 0.233341 127.069 0.606675 127.342 1.12001L130.106 6.44001L132.782 1.12001C133.053 0.606675 133.371 0.233341 133.915 0.233341H135.456C136.045 0.233341 136.136 0.746675 135.818 1.21334Z" fill="var(--fill-0, white)"/>
<path id="Fill 4" fill-rule="evenodd" clip-rule="evenodd" d="M123.443 0.933288V2.09995C123.443 2.61329 123.171 2.79995 122.582 2.79995H119.544V13.0666C119.544 13.58 119.363 13.9533 118.864 13.9533H117.323C116.824 13.9533 116.643 13.58 116.643 13.0666V2.79995H113.197C112.608 2.79995 112.336 2.61329 112.336 2.09995V0.933288C112.336 0.419955 112.699 0.233288 113.197 0.233288H122.582C123.08 0.233288 123.443 0.419955 123.443 0.933288Z" fill="var(--fill-0, white)"/>
<path id="Fill 6" fill-rule="evenodd" clip-rule="evenodd" d="M111.157 1.1199V13.0199C111.157 13.5332 110.976 13.9066 110.477 13.9066H108.936C108.437 13.9066 108.256 13.5332 108.256 13.0199V1.1199C108.256 0.606568 108.437 0.233235 108.936 0.233235H110.477C110.931 0.233235 111.157 0.606568 111.157 1.1199Z" fill="var(--fill-0, white)"/>
<path id="Fill 8" fill-rule="evenodd" clip-rule="evenodd" d="M99.8692 6.20653V7.97986C99.8692 9.65986 100.459 11.3399 102.182 11.3399H105.536C106.035 11.3399 106.397 11.5265 106.397 12.0399V13.2065C106.397 13.7203 106.125 13.9065 105.536 13.9065H102.182C98.9172 13.9065 97.0132 11.4332 97.0132 8.12033V5.9732C97.0132 2.6132 98.9172 0.186531 102.182 0.186531H105.627C106.125 0.186531 106.488 0.373198 106.488 0.886531V2.0532C106.488 2.56653 106.216 2.7532 105.627 2.7532H102.182C100.459 2.7532 99.8692 4.4332 99.8692 6.20653Z" fill="var(--fill-0, white)"/>
<path id="Fill 10" fill-rule="evenodd" clip-rule="evenodd" d="M75.1626 6.06663V7.83996C75.1626 9.56663 75.7519 11.2 77.475 11.2H80.8292C81.3284 11.2 81.6906 11.3866 81.6906 11.9V13.0666C81.6906 13.58 81.4186 13.7666 80.8292 13.7666H77.475C74.2106 13.7666 72.3066 11.2933 72.3066 7.97996V5.83329C72.3066 2.47329 74.2106 0.0466272 77.475 0.0466272H80.9199C81.4186 0.0466272 81.7817 0.233294 81.7817 0.746627V1.91329C81.7817 2.42663 81.5092 2.61329 80.9199 2.61329H77.475C75.7519 2.61329 75.1626 4.29329 75.1626 6.06663Z" fill="var(--fill-0, white)"/>
<path id="Fill 12" fill-rule="evenodd" clip-rule="evenodd" d="M60.3841 0.746667V1.91333C60.3841 2.42667 60.1121 2.61333 59.5228 2.61333H55.9868V12.9267C55.9868 13.44 55.8054 13.8133 55.3068 13.8133H53.7654C53.2668 13.8133 53.0854 13.44 53.0854 12.9267V2.56667H50.5921C50.0028 2.56667 49.7308 2.38 49.7308 1.86667V0.7C49.7308 0.186667 50.0934 0 50.5921 0H59.5228V0.0466667C60.0214 0.0466667 60.3841 0.233333 60.3841 0.746667Z" fill="var(--fill-0, white)"/>
<path id="Fill 14" fill-rule="evenodd" clip-rule="evenodd" d="M94.8374 1.0267V12.9267C94.8374 13.44 94.6561 13.8129 94.1574 13.8129H92.6161C92.1174 13.8129 91.9361 13.44 91.9361 12.9267V8.1667H86.2241V12.9267C86.2241 13.44 86.0428 13.8129 85.5441 13.8129H84.0028C83.5041 13.8129 83.3228 13.44 83.3228 12.9267V1.0267C83.3228 0.513367 83.5041 0.140034 84.0028 0.140034H85.5441C86.0428 0.140034 86.2241 0.513367 86.2241 1.0267V5.60003H91.9361V1.0267C91.9361 0.513367 92.1174 0.140034 92.6161 0.140034H94.1574C94.6108 0.140034 94.8374 0.513367 94.8374 1.0267Z" fill="var(--fill-0, white)"/>
<path id="Fill 16" fill-rule="evenodd" clip-rule="evenodd" d="M64.6908 2.61335V5.50668H69.1783C69.6774 5.50668 70.0401 5.69335 70.0401 6.20668V7.37335C70.0401 7.88668 69.7681 8.07335 69.1783 8.07335H64.6908V11.2H70.2214C70.8108 11.2 71.0827 11.3867 71.0827 11.9V13.0667C71.0827 13.58 70.7201 13.7667 70.2214 13.7667H62.7868C62.1068 13.7667 61.8348 13.4867 61.8348 12.88V0.933347C61.8348 0.326681 62.1068 0.0466805 62.7868 0.0466805H70.2214C70.7201 0.0466805 71.0827 0.233347 71.0827 0.746681V1.91335C71.0827 2.42668 70.8108 2.61335 70.2214 2.61335H64.6908Z" fill="var(--fill-0, white)"/>
<path id="Fill 18" fill-rule="evenodd" clip-rule="evenodd" d="M31.0987 13.7666H24.888C24.208 13.7666 23.936 13.4866 23.936 12.88V0.933294C23.936 0.419961 24.1174 0.0466272 24.616 0.0466272H26.1574C26.656 0.0466272 26.8374 0.419961 26.8374 0.933294V11.2H31.144C31.7334 11.2 32.0054 11.3866 32.0054 11.9V13.0666C31.96 13.58 31.5974 13.7666 31.0987 13.7666Z" fill="var(--fill-0, white)"/>
<path id="Fill 20" fill-rule="evenodd" clip-rule="evenodd" d="M36.2667 12.8798C36.2667 13.3936 36.0853 13.7664 35.5867 13.7664H34.0453C33.5467 13.7664 33.3653 13.3936 33.3653 12.8798V0.933111C33.3653 0.419778 33.5467 0.0464444 34.0453 0.0464444H35.5867C36.04 0.0464444 36.2667 0.419778 36.2667 0.933111V12.8798Z" fill="var(--fill-0, white)"/>
<path id="Fill 22" fill-rule="evenodd" clip-rule="evenodd" d="M47.4187 0.0466667C47.9174 0.0466667 48.28 0.233333 48.28 0.746667V1.91333C48.28 2.42667 48.008 2.61333 47.4187 2.61333H44.8347V12.9267C44.8347 13.44 44.6534 13.8133 44.1547 13.8133H42.6134C42.1147 13.8133 41.9334 13.44 41.9334 12.9267V2.56667H38.5334C37.944 2.56667 37.672 2.38 37.672 1.86667V0.7C37.672 0.186667 38.0347 0 38.5334 0H47.4187V0.0466667Z" fill="var(--fill-0, white)"/>
<path id="Fill 24" fill-rule="evenodd" clip-rule="evenodd" d="M7.25333 10.0333C7.25333 9.42663 6.664 8.95996 5.44 8.44663C3.264 7.60663 0 6.48663 0 4.05996C0 1.81996 1.31467 0.0466272 4.488 0.0466272H8.47733C8.976 0.0466272 9.33867 0.233294 9.33867 0.746627V1.91329C9.33867 2.42663 8.976 2.61329 8.47733 2.61329H4.66933C3.808 2.56663 2.76533 2.79996 2.76533 3.63996C2.76533 4.33996 3.44533 4.71329 4.39733 5.13329C6.8 6.11329 10.0187 7.27996 10.0187 9.75329C10.0187 12.4133 8.296 13.7666 5.53067 13.7666H1.04267C0.544 13.7666 0.181333 13.58 0.181333 13.0666V11.9C0.181333 11.3866 0.544 11.2 1.04267 11.2H5.34933C6.21067 11.2 7.25333 10.92 7.25333 10.0333Z" fill="var(--fill-0, white)"/>
<path id="Fill 26" fill-rule="evenodd" clip-rule="evenodd" d="M19.448 4.85324C19.448 6.01991 18.4053 6.43991 17.272 6.71991L14.688 7.32657V2.56657H17.272C18.4053 2.56657 19.448 2.93991 19.448 4.15324V4.85324ZM17.0906 0.0465738H12.784C12.1946 0.0465738 11.832 0.419907 11.832 1.21324V12.8799C11.832 13.3932 12.0133 13.7666 12.512 13.7666H14.0533C14.552 13.7666 14.7333 13.3932 14.7333 12.8799V9.75324L17.408 9.14657C19.992 8.53991 22.4853 7.65324 22.4853 4.94657V3.77991C22.44 0.933241 19.856 0.0465738 17.0906 0.0465738Z" fill="var(--fill-0, white)"/>
</g>
</svg>
