<svg preserveAspectRatio="none" width="71.655" height="71.7555" overflow="visible" style="display: block;"
     viewBox="0 0 71.655 71.7555" fill="none" xmlns="http://www.w3.org/2000/svg">
    <g id="Svuciliste logo">
        <g id="Group 3">
            <mask id="mask0_0_4" style="mask-type:alpha" maskUnits="userSpaceOnUse" x="0" y="0" width="72" height="72">
                <g id="mask 2">
                    <path id="Vector" d="M0 0H71.655V71.7555H0V0Z" fill="var(--fill-0, white)"/>
                </g>
            </mask>
            <g mask="url(#mask0_0_4)">
                <path id="Fill 1" fill-rule="evenodd" clip-rule="evenodd"
                      d="M35.7812 71.0645C16.253 71.0206 0.609557 55.2212 0.687254 35.621C0.765044 16.2544 16.5934 0.620437 36.0509 0.688348C55.3483 0.759135 71.0138 16.5804 70.9629 35.9519C70.9091 55.3988 55.1711 71.1058 35.7812 71.0645ZM35.8687 -5.45489e-05C16.054 -0.00492004 0.00461599 16.084 -3.11783e-08 35.9592C-0.00267246 55.6251 16.1291 71.7628 35.7885 71.7555C55.5621 71.7506 71.6525 55.6689 71.655 35.9179C71.6574 16.1205 55.5985 0.00481315 35.8687 -5.45489e-05Z"
                      fill="var(--fill-0, white)"/>
            </g>
        </g>
        <path id="Fill 4" fill-rule="evenodd" clip-rule="evenodd"
              d="M38.5041 17.5249C38.3432 17.715 38.1823 17.8979 38.0287 18.088C38.4236 18.1026 38.5845 17.9198 38.5041 17.5249ZM38.5041 17.5249C38.3432 17.715 38.1823 17.8979 38.0287 18.088C38.4236 18.1026 38.5845 17.9198 38.5041 17.5249ZM38.5041 17.5249C38.3432 17.715 38.1823 17.8979 38.0287 18.088C38.4236 18.1026 38.5845 17.9198 38.5041 17.5249ZM38.5041 17.5249C38.3432 17.715 38.1823 17.8979 38.0287 18.088C38.4236 18.1026 38.5845 17.9198 38.5041 17.5249ZM38.5041 17.5249C38.3432 17.715 38.1823 17.8979 38.0287 18.088C38.4236 18.1026 38.5845 17.9198 38.5041 17.5249ZM38.5041 17.5249C38.3432 17.715 38.1823 17.8979 38.0287 18.088C38.4236 18.1026 38.5845 17.9198 38.5041 17.5249ZM38.5041 17.5249C38.3432 17.715 38.1823 17.8979 38.0287 18.088C38.4236 18.1026 38.5845 17.9198 38.5041 17.5249ZM38.5041 17.5249C38.3432 17.715 38.1823 17.8979 38.0287 18.088C38.4236 18.1026 38.5845 17.9198 38.5041 17.5249ZM38.5041 17.5249C38.3432 17.715 38.1823 17.8979 38.0287 18.088C38.4236 18.1026 38.5845 17.9198 38.5041 17.5249ZM38.5041 17.5249C38.3432 17.715 38.1823 17.8979 38.0287 18.088C38.4236 18.1026 38.5845 17.9198 38.5041 17.5249ZM38.5041 17.5249C38.3432 17.715 38.1823 17.8979 38.0287 18.088C38.4236 18.1026 38.5845 17.9198 38.5041 17.5249ZM38.5041 17.5249C38.3432 17.715 38.1823 17.8979 38.0287 18.088C38.4236 18.1026 38.5845 17.9198 38.5041 17.5249ZM38.5041 17.5249C38.3432 17.715 38.1823 17.8979 38.0287 18.088C38.4236 18.1026 38.5845 17.9198 38.5041 17.5249ZM38.5041 17.5249C38.3432 17.715 38.1823 17.8979 38.0287 18.088C38.4236 18.1026 38.5845 17.9198 38.5041 17.5249ZM38.5041 17.5249C38.3432 17.715 38.1823 17.8979 38.0287 18.088C38.4236 18.1026 38.5845 17.9198 38.5041 17.5249ZM38.5041 17.5249C38.3432 17.715 38.1823 17.8979 38.0287 18.088C38.4236 18.1026 38.5845 17.9198 38.5041 17.5249ZM38.5041 17.5249C38.3432 17.715 38.1823 17.8979 38.0287 18.088C38.4236 18.1026 38.5845 17.9198 38.5041 17.5249ZM38.5041 17.5249C38.3432 17.715 38.1823 17.8979 38.0287 18.088C38.4236 18.1026 38.5845 17.9198 38.5041 17.5249ZM38.5041 17.5249C38.3432 17.715 38.1823 17.8979 38.0287 18.088C38.4236 18.1026 38.5845 17.9198 38.5041 17.5249ZM38.5041 17.5249C38.3432 17.715 38.1823 17.8979 38.0287 18.088C38.4236 18.1026 38.5845 17.9198 38.5041 17.5249ZM38.5041 17.5249C38.3432 17.715 38.1823 17.8979 38.0287 18.088C38.4236 18.1026 38.5845 17.9198 38.5041 17.5249ZM38.5041 17.5249C38.3432 17.715 38.1823 17.8979 38.0287 18.088C38.4236 18.1026 38.5845 17.9198 38.5041 17.5249ZM38.5041 17.5249C38.3432 17.715 38.1823 17.8979 38.0287 18.088C38.4236 18.1026 38.5845 17.9198 38.5041 17.5249ZM38.5041 17.5249C38.3432 17.715 38.1823 17.8979 38.0287 18.088C38.4236 18.1026 38.5845 17.9198 38.5041 17.5249ZM38.5041 17.5249C38.3432 17.715 38.1823 17.8979 38.0287 18.088C38.4236 18.1026 38.5845 17.9198 38.5041 17.5249ZM38.5041 17.5249C38.3432 17.715 38.1823 17.8979 38.0287 18.088C38.4236 18.1026 38.5845 17.9198 38.5041 17.5249ZM38.5041 17.5249C38.3432 17.715 38.1823 17.8979 38.0287 18.088C38.4236 18.1026 38.5845 17.9198 38.5041 17.5249Z"
              fill="var(--fill-0, white)"/>
        <path id="Fill 6" fill-rule="evenodd" clip-rule="evenodd"
              d="M49.2543 8.29522C49.294 7.21823 48.2956 7.11545 47.5792 6.80183C46.8479 6.48154 47.0061 7.29457 46.7686 7.59187C46.616 7.78317 46.4502 8.05954 46.8332 8.2513C47.0951 8.38213 47.3312 8.42858 47.564 8.19911C47.7581 8.00781 47.8848 7.58037 48.2689 7.93216C48.5855 8.2221 48.2983 8.49365 48.1901 8.75738C48.016 9.18137 47.8388 9.60536 47.6289 10.0119C47.5399 10.1841 47.5015 10.4931 47.1631 10.3726C46.8934 10.2768 46.8422 10.1119 46.9413 9.84103C47.104 9.39704 46.9047 9.0057 46.4849 8.95949C45.8591 8.89051 45.9407 9.57133 45.7219 9.92036C45.5596 10.1795 45.3104 10.5354 45.8359 10.7578C46.7114 11.1286 47.599 11.7294 48.3213 10.5237C48.4542 10.3025 48.6351 10.1781 48.8889 10.2912C49.2623 10.4575 49.0719 10.7263 48.9857 10.9681C48.9602 11.0399 48.9147 11.1038 48.8857 11.1742C48.2841 12.6347 48.2827 12.6381 46.8452 12.0005C45.7626 11.5204 44.6837 11.0325 43.6057 10.543C43.3737 10.4377 43.0447 10.3781 43.1792 10.0001C43.2728 9.73665 43.4815 9.70124 43.737 9.79574C44.0549 9.91323 44.2533 9.7378 44.3726 9.4697C44.8069 8.49319 45.229 7.51139 45.6614 6.53419C45.7628 6.30495 45.7943 6.10215 45.5711 5.92396C45.3416 5.74139 44.9901 5.58481 45.3276 5.21739C45.5888 4.93296 45.8299 5.21049 46.046 5.30338C47.3084 5.84762 48.5636 6.40911 49.8129 6.98301C50.098 7.11407 50.5948 7.17041 50.4276 7.6436C50.2269 8.21061 50.1217 9.03651 49.6058 9.21333C48.986 9.42578 49.1014 8.79394 49.2543 8.29522Z"
              fill="var(--fill-0, white)"/>
        <path id="Fill 8" fill-rule="evenodd" clip-rule="evenodd"
              d="M9.56908 45.9477C9.43723 45.978 9.23291 46.0063 9.04191 46.0739C8.79742 46.1607 8.56452 46.2419 8.41764 45.9377C8.23748 45.5647 8.51351 45.4168 8.76292 45.2656C8.86816 45.2017 8.98202 45.1529 9.09022 45.0939C10.4844 44.3309 10.4844 44.3306 11.1935 45.7395C11.7894 46.9232 12.3903 48.1048 12.9759 49.2941C13.0922 49.5301 13.3352 49.7927 12.9714 50.0468C12.6737 50.2546 12.5749 49.9932 12.3826 49.8503C11.767 49.3932 8.22219 51.145 8.2424 51.9213C8.25054 52.2337 8.36465 52.4995 8.00211 52.6067C7.59324 52.7271 7.55504 52.3215 7.43846 52.0957C6.69885 50.6609 5.98486 49.2122 5.25042 47.7744C5.07396 47.4294 5.01875 47.1348 5.45103 46.9846C6.0376 46.7806 6.53717 46.0879 7.19472 46.4073C7.61912 46.6136 7.21443 46.9305 6.98917 47.1738C6.38634 47.8252 6.52953 49.4233 7.24302 49.9019C7.73273 50.2306 8.05682 49.7114 8.45041 49.5659C8.67691 49.4823 8.92879 49.3414 8.76218 49.0202C8.57537 48.661 8.31536 48.4182 7.8705 48.6134C7.56563 48.7474 7.41949 48.5701 7.31573 48.3133C7.20112 48.0287 7.42786 47.9536 7.59693 47.8622C8.17512 47.5506 8.75701 47.2459 9.34234 46.9483C9.51338 46.8614 9.69822 46.7155 9.87321 46.9668C10.0386 47.2044 10.0738 47.4046 9.79681 47.5871C9.34554 47.8842 9.12398 48.3789 9.57327 48.7051C10.0677 49.0645 10.5029 48.4362 10.9714 48.2662C11.4917 48.0775 11.3566 47.724 11.1486 47.3683C10.7841 46.745 10.5956 45.9287 9.56908 45.9477Z"
              fill="var(--fill-0, white)"/>
        <path id="Fill 10" fill-rule="evenodd" clip-rule="evenodd"
              d="M22.0959 59.2104C22.9606 59.2935 23.6885 59.6584 24.2801 60.3156C24.4328 60.4853 24.5553 60.7 24.7364 60.8232C25.0053 61.0063 25.6905 60.6 25.5853 61.2022C25.4776 61.8186 25.1307 62.52 24.6708 62.9025C24.2328 63.2667 24.084 62.7142 24.1156 62.2826C24.1844 61.3322 23.7249 60.73 22.9449 60.3293C22.5738 60.1386 22.1993 60.0857 21.9265 60.4621C21.6784 60.8046 21.8465 61.1475 22.0911 61.4146C22.5579 61.9258 23.0615 62.4013 23.5265 62.9148C24.069 63.5137 24.2774 64.1847 23.7797 64.9285C23.3001 65.6462 22.6424 65.9397 21.8156 65.7219C21.222 65.5654 20.6843 65.2834 20.2602 64.8091C20.1325 64.6663 20.0396 64.3895 19.9043 64.3702C18.1965 64.1235 19.445 63.2752 19.5923 62.6819C19.6491 62.4534 19.7557 62.1219 20.1343 62.2519C20.4589 62.3633 20.4752 62.6163 20.4311 62.9136C20.3039 63.7719 20.6843 64.3374 21.4013 64.7116C21.7693 64.9035 22.1447 64.984 22.4256 64.6149C22.6886 64.2692 22.474 63.9241 22.2434 63.6662C21.7568 63.1218 21.2104 62.634 20.7343 62.0803C20.2796 61.5517 20.0857 60.9497 20.4466 60.2479C20.805 59.551 21.3575 59.2381 22.0959 59.2104Z"
              fill="var(--fill-0, white)"/>
        <path id="Fill 12" fill-rule="evenodd" clip-rule="evenodd"
              d="M27.7052 4.70728C27.9433 4.72411 28.1814 4.75391 28.4198 4.75482C28.763 4.75664 29.0563 4.10671 29.3086 4.47319C29.6149 4.91793 29.6411 5.53761 29.7798 6.08358C29.8237 6.25716 29.7102 6.36294 29.5566 6.43551C29.1958 6.60635 29.0751 6.34451 28.9061 6.12954C28.3209 5.38497 27.5587 5.24734 26.6826 5.59812C26.3777 5.72028 26.1046 5.93003 26.1516 6.27422C26.1989 6.61818 26.5148 6.76355 26.8465 6.79653C27.638 6.87479 28.4322 6.92461 29.2249 6.99058C29.927 7.04904 30.4606 7.36321 30.6332 8.02497C30.8266 8.76499 30.7025 9.45997 30.0076 9.95953C29.3117 10.4598 28.5167 10.6654 27.6521 10.6095C27.2479 10.5833 26.8655 10.3137 26.4884 10.7967C26.2671 11.0801 25.908 10.9305 25.8077 10.5319C25.7431 10.2755 25.6264 10.02 25.6228 9.76321C25.6183 9.42016 25.1387 9.02615 25.637 8.74201C26.1509 8.44924 26.2949 8.98406 26.5587 9.22042C26.8221 9.45678 27.0895 9.69974 27.4613 9.74114C28.1903 9.82213 29.1483 9.87946 29.3 9.11669C29.4793 8.21379 28.4421 8.36507 27.8355 8.24996C27.45 8.1767 27.0403 8.22243 26.6423 8.20241C25.8305 8.16192 25.1127 7.93807 24.9219 7.08544C24.7169 6.1698 25.0642 5.4589 25.9673 5.01553C26.517 4.74572 27.0981 4.66565 27.7052 4.70728Z"
              fill="var(--fill-0, white)"/>
        <path id="Fill 14" fill-rule="evenodd" clip-rule="evenodd"
              d="M61.6303 24.0614C61.5378 23.4175 61.4282 22.7944 61.3641 22.1673C61.2931 21.4775 61.5316 20.9253 62.2489 20.6238C62.974 20.3194 63.6263 20.4131 64.2099 20.9215C64.7818 21.4191 65.1392 22.0134 65.1948 22.7635C65.2149 23.0366 65.0647 23.3527 65.4236 23.5645C66.1667 24.0033 65.7234 24.2764 65.2273 24.443C64.7766 24.5942 64.3136 25.1838 63.8631 24.7845C63.3438 24.3242 64.1669 24.0726 64.3001 23.6886C64.4016 23.3967 64.4867 23.1102 64.425 22.8183C64.3069 22.2634 64.1217 21.5609 63.4264 21.6401C62.6211 21.7316 62.8252 22.4426 62.9298 22.9939C63.0268 23.5052 63.151 24.0149 63.2002 24.5304C63.2658 25.2173 62.9956 25.7787 62.3154 26.0963C61.6156 26.4224 60.9319 26.362 60.331 25.889C59.6347 25.341 59.2505 24.6264 59.1916 23.7637C59.1767 23.5434 59.2089 23.2999 59.119 23.1091C58.9889 22.8329 58.175 22.7859 58.6567 22.3422C59.1133 21.921 59.7854 21.5368 60.4355 21.581C60.9546 21.6162 60.869 22.0635 60.5224 22.4014C59.9408 22.9682 59.8145 23.6244 60.1819 24.3468C60.3913 24.7581 60.6354 25.218 61.2061 25.082C61.7559 24.9512 61.6104 24.4381 61.6303 24.0614Z"
              fill="var(--fill-0, white)"/>
        <path id="Fill 16" fill-rule="evenodd" clip-rule="evenodd"
              d="M53.3865 14.9397C53.3882 14.3923 53.6223 13.9627 53.9925 13.5824C54.5656 12.9939 55.1317 12.3988 55.6901 11.7971C55.8917 11.5796 56.2375 11.368 55.9838 11.0161C55.7841 10.7387 55.5773 10.5105 55.9912 10.2735C56.3526 10.0663 56.474 10.4329 56.6559 10.5902C57.1594 11.0259 57.6396 11.4876 58.1197 11.9483C58.2779 12.0998 58.5242 12.242 58.329 12.5226C58.1566 12.7711 57.953 12.765 57.7346 12.5788C57.7049 12.5534 57.674 12.5068 57.6441 12.507C56.2769 12.5138 56.009 13.8672 55.1436 14.4958C54.7297 14.7962 54.4642 15.2733 54.7525 15.831C55.1721 16.6432 56.0199 16.808 56.6941 16.1682C57.3463 15.5488 57.9509 14.8805 58.5679 14.2261C58.718 14.0671 58.9816 13.9187 58.8165 13.6472C58.6465 13.367 58.2193 13.0792 58.7393 12.8144C59.1447 12.6081 59.3083 13.1008 59.57 13.2901C59.8234 13.4733 60.0657 13.68 60.2763 13.9089C60.444 14.0911 60.8126 14.1986 60.666 14.541C60.496 14.9386 60.2409 14.8374 59.9134 14.6622C59.5389 14.4617 59.3656 14.8593 59.1611 15.0607C58.6037 15.6098 58.0696 16.1818 57.5287 16.7469C56.877 17.4275 56.1327 17.7811 55.2058 17.3089C54.2196 16.8061 53.4501 16.1254 53.3865 14.9397Z"
              fill="var(--fill-0, white)"/>
        <path id="Fill 18" fill-rule="evenodd" clip-rule="evenodd"
              d="M49.287 58.4825C49.9971 58.4411 50.5149 58.7772 50.8547 59.431C51.2374 60.1674 51.5921 60.9209 51.984 61.6515C52.1914 62.0382 52.299 62.6315 52.9506 62.3298C53.1853 62.221 53.2821 62.4448 53.3564 62.623C53.4627 62.8775 53.265 62.9833 53.11 63.0731C52.452 63.4545 51.786 63.8204 51.1257 64.1974C50.9527 64.2962 50.7822 64.3873 50.6351 64.1752C50.5126 63.9984 50.4793 63.7655 50.6597 63.6422C51.2901 63.2109 50.9338 62.7552 50.714 62.3041C50.3847 61.628 50.0403 60.9604 49.7102 60.2848C49.3728 59.5947 48.9221 59.3714 48.246 59.7865C47.6145 60.1739 47.4186 60.6764 47.767 61.3859C48.1508 62.1675 48.5307 62.9516 48.919 63.7306C49.0771 64.0473 49.2129 64.4205 49.673 64.188C49.7656 64.1415 49.9016 64.1137 49.9892 64.1522C50.1773 64.2347 50.268 64.4093 50.1944 64.6338C50.1282 64.8355 48.3212 65.8639 48.1478 65.7884C47.9075 65.6835 47.7424 65.4179 47.9508 65.2343C48.5793 64.6815 48.0965 64.2374 47.8839 63.7698C47.6542 63.2649 47.3947 62.776 47.1517 62.2782C46.2139 60.3582 47.2598 58.4999 49.287 58.4825Z"
              fill="var(--fill-0, white)"/>
        <path id="Fill 20" fill-rule="evenodd" clip-rule="evenodd"
              d="M7.30682 37.761C6.33651 37.8576 5.47179 37.932 4.61135 38.0355C4.30171 38.0726 3.96947 38.147 3.93309 38.5222C3.90716 38.7899 3.86388 39.0655 3.47314 38.9941C3.10476 38.9266 3.19751 38.6064 3.16088 38.3707C3.12236 38.1212 3.09834 37.8697 3.07075 37.6189C3.03365 37.2776 2.72852 36.8638 3.13115 36.6173C3.62202 36.3174 3.59752 36.9736 3.88505 37.0584C4.13571 37.1324 4.42466 37.1411 4.69102 37.1198C5.43731 37.0608 6.17883 36.946 6.92559 36.8992C8.55538 36.7967 9.32901 37.4596 9.49311 39.0586C9.62248 40.3162 8.8479 41.0973 7.3394 41.2416C6.63331 41.3091 5.92912 41.392 5.2235 41.4638C4.86844 41.5 4.47508 41.4989 4.39803 41.9177C4.34761 42.1907 4.30052 42.4504 3.92143 42.3775C3.54782 42.3055 3.65959 41.9791 3.62535 41.7478C3.53545 41.1416 3.45863 40.5336 3.39085 39.9252C3.37159 39.7512 3.36969 39.5561 3.62035 39.4916C3.83796 39.4352 4.03916 39.4864 4.07721 39.6969C4.18446 40.2919 4.66653 40.1864 5.0839 40.1528C5.86943 40.0897 6.65329 40.0039 7.43524 39.9087C8.14847 39.8221 8.64884 39.5086 8.54587 38.778C8.4486 38.0882 8.08378 37.6206 7.30682 37.761Z"
              fill="var(--fill-0, white)"/>
        <path id="Fill 22" fill-rule="evenodd" clip-rule="evenodd"
              d="M65.6904 32.8093C64.9408 32.8069 64.8447 32.1486 64.788 31.5984C64.7051 30.7731 65.4136 31.0976 65.625 30.9777C66.4296 30.7661 66.4928 31.1987 66.4991 31.723C66.5078 32.339 66.3705 32.8116 65.6904 32.8093ZM66.8871 29.3248C66.8743 29.2096 66.8719 29.092 66.8568 28.9768C66.8217 28.7393 66.774 28.4901 66.4928 28.4948C66.3051 28.4972 66.1504 28.6006 66.1634 28.8569C66.1961 29.4988 65.7558 29.4729 65.3571 29.5293C64.677 29.6234 63.9967 29.7268 63.321 29.8444C62.8022 29.9337 62.2398 30.2394 61.9935 29.3883C61.9499 29.2354 61.7624 29.2143 61.6166 29.2801C61.4049 29.3765 61.4224 29.5905 61.4422 29.7762C61.5226 30.5498 61.6142 31.321 61.7079 32.0922C61.7343 32.2991 61.8278 32.4707 62.0545 32.4378C62.2596 32.4096 62.3466 32.2567 62.3619 32.0334C62.4231 31.0365 63.2318 31.3492 63.6981 31.2716C64.2932 31.1705 64.0405 31.8947 64.1907 32.2356C64.2932 32.473 64.2672 32.774 64.3433 33.0326C64.5831 33.8438 65.0127 34.441 65.8975 34.3326C66.8568 34.2176 67.2533 33.5499 67.2817 32.5248C67.1531 31.4855 67.0203 30.4063 66.8871 29.3248Z"
              fill="var(--fill-0, white)"/>
        <path id="Fill 24" fill-rule="evenodd" clip-rule="evenodd"
              d="M15.003 55.5632C14.3253 55.9194 13.6477 56.2761 12.9698 56.6319C12.5708 56.8411 12.107 57.0167 12.616 57.6057C12.7372 57.7463 12.6597 57.8875 12.5441 57.9962C12.3854 58.1453 12.2297 58.152 12.0748 57.9809C11.9491 57.8427 11.8153 57.7128 11.6848 57.5796C10.6809 56.557 10.7054 56.6219 11.9402 56.0903C13.0757 55.6014 14.1526 54.9569 15.2515 54.3723C15.6658 54.1518 16.0009 53.8681 16.486 54.3737C16.969 54.8771 16.8548 55.2625 16.6048 55.7856C16.1136 56.8131 15.6602 57.8614 15.2117 58.9109C15.0953 59.1834 15.0013 59.4904 14.9926 59.7849C14.9842 60.0792 15.4217 60.4372 14.9188 60.6443C14.5878 60.7807 14.4293 60.3968 14.2282 60.2007C13.8013 59.7851 13.3924 59.3487 12.9739 58.9231C12.8308 58.7775 12.7454 58.6173 12.8838 58.4261C12.996 58.2713 13.1422 58.1229 13.3274 58.3062C13.8156 58.7884 13.9902 58.4051 14.175 57.9835C14.5057 57.2287 14.8491 56.48 15.1872 55.729C15.1257 55.6737 15.0643 55.6185 15.003 55.5632Z"
              fill="var(--fill-0, white)"/>
        <path id="Fill 26" fill-rule="evenodd" clip-rule="evenodd"
              d="M7.87441 30.5859C8.59599 30.6222 9.16986 30.3678 9.44133 29.6308C9.70386 28.9183 9.413 28.3743 8.85395 27.9724C8.57072 27.7689 8.22736 27.5523 8.49468 27.1872C8.75155 26.8357 9.08119 27.1706 9.33174 27.3277C10.2111 27.879 10.342 28.7519 10.1769 29.7056C9.95354 30.9967 9.01648 32.0058 7.8914 32.1258C6.65543 32.2577 5.56674 31.8917 4.85822 30.7695C4.16736 29.6754 4.26606 28.553 4.96672 27.4814C5.02751 27.3884 5.13339 27.3186 5.17043 27.2188C5.52207 26.2708 6.03036 26.0723 6.92145 26.5529C7.07221 26.6341 7.28573 26.678 7.23235 26.938C7.19422 27.1233 7.14324 27.3402 6.92363 27.3406C5.83929 27.3429 5.13731 27.8051 5.24908 29.0245C5.33122 29.9232 6.5587 30.6009 7.87441 30.5859Z"
              fill="var(--fill-0, white)"/>
        <path id="Fill 28" fill-rule="evenodd" clip-rule="evenodd"
              d="M57.3702 59.2104C56.9227 58.7052 56.383 58.2154 56.0124 57.6214C55.8547 57.3692 56.1777 57.0339 56.5846 57.1954C56.8768 57.3114 57.1292 57.5356 57.4253 57.6302C57.8084 57.7527 58.1669 57.5631 58.3517 57.2524C58.5447 56.9284 58.1453 56.7928 57.9703 56.6242C57.2549 55.9346 56.5108 55.2739 55.7817 54.5981C55.4791 54.3178 55.1929 54.0174 54.7917 54.4685C54.586 54.7001 54.3767 54.6511 54.1943 54.4298C54.0176 54.2161 54.1852 54.0695 54.3142 53.9298C54.8807 53.3164 55.4522 52.7079 56.0222 52.0979C56.1633 51.9472 56.3186 51.8085 56.5286 51.9684C56.7276 52.1198 56.8961 52.3018 56.6406 52.5444C56.1241 53.0348 56.5848 53.309 56.8865 53.5976C57.5469 54.2307 58.2063 54.8665 58.9007 55.4613C59.1237 55.6526 59.2989 56.1958 59.7327 55.8164C60.0564 55.533 60.0792 55.1063 59.887 54.7166C59.7836 54.5069 59.6058 54.3345 59.4746 54.1366C59.2883 53.8565 59.4984 53.6038 59.6887 53.5721C60.3633 53.4601 60.5339 54.1562 60.9495 54.4661C61.1879 54.6437 61.676 54.8763 61.2835 55.3047C60.1559 56.5356 59.0018 57.7429 57.8523 58.954C57.7783 59.0318 57.6543 59.0624 57.3702 59.2104Z"
              fill="var(--fill-0, white)"/>
        <path id="Fill 30" fill-rule="evenodd" clip-rule="evenodd"
              d="M36.3276 3.7466C37.3695 3.82838 38.4115 3.90949 39.4534 3.99172C39.8007 4.0192 40.2551 3.9454 40.2024 4.46111C40.1446 5.02913 40.4051 5.67007 39.9296 6.14235C39.723 6.34713 39.3946 6.20751 39.3126 5.87662C39.2422 5.59294 39.2376 5.284 39.1078 5.02692C38.9658 4.74634 38.6557 4.6014 38.3004 4.66811C37.9776 4.72884 38.0421 4.99966 38.0228 5.20466C37.9365 6.12262 37.8571 7.04125 37.7836 7.96032C37.7534 8.33797 37.7364 8.71296 38.2973 8.80426C38.5527 8.84615 38.7622 8.96361 38.6386 9.25527C38.552 9.45872 38.3527 9.49152 38.1413 9.47756C37.3391 9.42481 36.5366 9.37096 35.7346 9.31555C35.4898 9.29871 35.232 9.28497 35.2366 8.97115C35.2402 8.74265 35.4095 8.64447 35.6282 8.64137C36.1564 8.6345 36.3003 8.34927 36.3274 7.92398C36.3862 7.00424 36.4812 6.0865 36.5361 5.16654C36.5501 4.93517 36.6945 4.61869 36.315 4.50322C35.9702 4.39795 35.656 4.52583 35.469 4.78601C35.2971 5.02559 35.2221 5.32168 35.083 5.58341C34.9174 5.89546 34.5122 5.92228 34.461 5.66143C34.3497 5.09562 34.335 4.47973 34.4622 3.9188C34.5884 3.36231 35.1328 3.78915 35.4821 3.74261C35.7556 3.70604 36.0434 3.76079 36.3247 3.77497C36.3257 3.76544 36.3267 3.75591 36.3276 3.7466Z"
              fill="var(--fill-0, white)"/>
        <path id="Fill 32" fill-rule="evenodd" clip-rule="evenodd"
              d="M12.8959 12.8179C12.0277 13.7638 13.2417 14.0162 13.6589 14.5175C13.9737 14.8957 14.3662 15.245 14.7954 15.5138C15.1483 15.7351 15.3122 16.5467 15.981 16.0014C16.5932 15.5027 17.3912 14.9919 16.6868 14.0582C16.5098 13.8237 15.9991 13.5991 16.456 13.2434C16.972 12.8416 17.1603 13.3988 17.4097 13.6044C18.576 14.5646 18.5646 14.5766 17.432 15.6504C16.6171 16.4232 15.8049 17.1986 14.9822 17.965C14.7969 18.1372 14.6183 18.4077 14.2789 18.1502C14.0175 17.9517 14.1163 17.7663 14.3031 17.5925C14.6636 17.257 14.3342 17.0691 14.1121 16.871C13.3579 16.1988 12.5951 15.5346 11.8365 14.8663C11.5968 14.6555 11.3542 14.417 11.014 14.7138C10.7467 14.947 10.5266 14.9355 10.3161 14.6667C10.1052 14.3973 10.3735 14.2706 10.5296 14.1243C11.0666 13.6203 11.61 13.1221 12.1571 12.6274C12.2926 12.5049 12.4198 12.3217 12.6648 12.4488C12.8084 12.5233 12.9328 12.6165 12.8959 12.8179Z"
              fill="var(--fill-0, white)"/>
        <path id="Fill 34" fill-rule="evenodd" clip-rule="evenodd"
              d="M61.6761 41.8614C61.6017 42.5215 62.0588 42.7944 62.5637 43.0217C62.8141 43.1343 63.0883 43.2348 62.967 43.5993C62.8434 43.9711 62.5394 43.8366 62.2942 43.7926C61.998 43.7394 61.711 43.6206 61.4141 43.5837C60.7947 43.5064 60.5901 43.2157 60.7538 42.5589C61.0755 41.2667 61.3436 39.9602 61.6298 38.6586C61.6877 38.3953 61.6639 38.0427 61.9959 38.0058C62.3672 37.9642 62.3677 38.2813 62.3718 38.5734C62.3779 38.981 62.6775 39.0597 62.9856 39.1335C63.8668 39.344 64.7432 39.5761 65.6263 39.7785C65.9942 39.8627 66.3948 39.9488 66.5953 39.4578C66.7035 39.192 66.872 39.0862 67.1199 39.235C67.3134 39.3511 67.2991 39.5489 67.2508 39.7539C67.0798 40.4784 66.9253 41.2069 66.747 41.9292C66.6946 42.1421 66.6688 42.4217 66.3498 42.4028C66.0468 42.3845 65.9826 42.2053 66.0511 41.9212C66.1695 41.4299 65.8504 41.3192 65.492 41.235C64.684 41.0446 63.8774 40.8464 63.0709 40.6485C61.9585 40.375 61.6784 40.6104 61.6761 41.8614Z"
              fill="var(--fill-0, white)"/>
        <path id="Fill 36" fill-rule="evenodd" clip-rule="evenodd"
              d="M21.5321 11.9507C21.1209 11.2365 20.7996 10.4939 20.306 9.87684C19.8811 9.34628 20.0084 8.16057 18.6833 8.51364C18.4127 8.58582 18.0566 8.15532 18.4751 7.88993C19.2295 7.4113 20.0536 7.03227 20.8498 6.61296C21.0081 6.52934 21.1616 6.52839 21.2962 6.66204C21.4637 6.82833 21.5146 7.03274 21.3077 7.16759C20.6898 7.56973 21.0283 7.97498 21.2662 8.38951C21.6829 9.11614 22.0833 9.85135 22.519 10.5673C22.7522 10.9503 22.9082 11.5181 23.6142 11.1383C23.8401 11.0168 23.9894 11.1993 24.0886 11.3854C24.2244 11.6396 24.0259 11.743 23.8476 11.8397C23.1653 12.2104 22.4838 12.5832 21.7907 12.9354C21.5953 13.0349 21.3863 13.2751 21.1331 13.0306C20.8513 12.7586 20.9858 12.5556 21.2537 12.3524C21.3711 12.2635 21.4297 12.1041 21.5321 11.9507Z"
              fill="var(--fill-0, white)"/>
        <path id="Fill 38" fill-rule="evenodd" clip-rule="evenodd"
              d="M13.1637 21.4149C12.6603 22.3038 12.2376 23.193 11.6765 23.9735C11.4392 24.3033 10.9903 23.958 11.133 23.6222C11.4719 22.8259 10.8849 22.7093 10.4843 22.4535C9.78149 22.0055 9.06333 21.5834 8.3473 21.1581C7.9836 20.9424 7.61399 20.5876 7.2491 21.174C7.12148 21.3788 6.93797 21.3897 6.74665 21.244C6.48832 21.0463 6.5802 20.835 6.70711 20.6074C7.08217 19.935 7.44705 19.2561 7.82212 18.5837C7.94359 18.3657 8.0866 18.1572 8.3769 18.3071C8.5739 18.4088 8.67287 18.5592 8.55756 18.7952C8.2649 19.3934 8.693 19.5824 9.07753 19.8105C9.7597 20.2148 10.4315 20.6386 11.1139 21.0428C11.5697 21.3128 11.9814 21.7709 12.5369 21.1007C12.8177 20.7618 13.05 21.0879 13.1637 21.4149Z"
              fill="var(--fill-0, white)"/>
        <path id="Fill 40" fill-rule="evenodd" clip-rule="evenodd"
              d="M65.0877 49.0402C64.6666 49.94 64.2947 50.8371 63.8343 51.6778C63.5791 52.1432 63.1064 51.7588 63.1763 51.5237C63.5356 50.3161 62.5605 50.3208 62.0354 49.9647C61.4711 49.5822 60.8484 49.2997 60.2475 48.982C59.8699 48.7826 59.4768 48.4351 59.1672 49.1003C59.0595 49.3314 58.8721 49.3478 58.6747 49.2025C58.4743 49.0548 58.469 48.8683 58.5713 48.6527C58.9299 47.8938 59.287 47.1341 59.644 46.3745C59.7374 46.1759 59.853 46.003 60.0898 46.0562C60.3195 46.1082 60.451 46.3014 60.3609 46.5224C60.0924 47.1802 60.5511 47.334 60.9283 47.5465C61.6611 47.9599 62.3964 48.3687 63.1342 48.7713C63.5768 49.0131 63.9822 49.3895 64.4659 48.7327C64.7096 48.4016 65.0135 48.619 65.0877 49.0402Z"
              fill="var(--fill-0, white)"/>
        <path id="Fill 42" fill-rule="evenodd" clip-rule="evenodd"
              d="M2.19907 27.0322C2.57901 27.5468 3.93763 27.6593 3.6043 28.4438C3.28729 29.1906 2.14279 29.0293 1.46249 29.2262C1.70657 28.4994 1.94599 27.7855 2.19907 27.0322Z"
              fill="var(--fill-0, white)"/>
        <path id="Fill 44" fill-rule="evenodd" clip-rule="evenodd"
              d="M26.3275 2.00578C27.6952 2.28826 27.6952 2.28826 28.5215 1.43588C28.3623 2.20179 28.4894 3.28373 27.8271 3.57083C27.0462 3.90962 26.8232 2.71014 26.3275 2.00578Z"
              fill="var(--fill-0, white)"/>
        <path id="Fill 46" fill-rule="evenodd" clip-rule="evenodd"
              d="M37.946 17.6187C37.9972 17.5553 38.0511 17.4943 38.1045 17.4309C38.1316 17.5626 38.0777 17.6236 37.946 17.6187Z"
              fill="var(--fill-0, white)"/>
        <path id="Fill 48" fill-rule="evenodd" clip-rule="evenodd"
              d="M37.946 17.6187C37.9972 17.5553 38.0511 17.4943 38.1045 17.4309C38.1316 17.5626 38.0777 17.6236 37.946 17.6187Z"
              fill="var(--fill-0, white)"/>
        <path id="Fill 50" fill-rule="evenodd" clip-rule="evenodd"
              d="M54.6523 43.0405C54.5163 43.7761 54.1448 44.5044 53.4285 44.7586C51.1801 45.5577 49.1453 47.1487 46.841 46.7185H45.8236C44.1676 46.7161 43.0822 45.5675 43.2012 43.9154C43.2451 43.3069 43.7111 43.1798 44.2234 43.087C46.4428 42.6813 48.6694 42.4516 50.93 42.586C51.2796 42.6055 51.8308 42.7766 51.8211 42.1094C51.8043 40.9046 52.6151 41.0855 53.3193 41.2199C54.2808 41.4056 54.8417 42.0092 54.6523 43.0405ZM44.1579 51.2739C44.0802 51.5329 43.8131 51.5793 43.5605 51.5793H40.5351V51.5916C39.5274 51.5916 38.5173 51.5965 37.5096 51.5891C37.0871 51.5891 36.7884 51.3521 37.1964 51.0368C37.9151 50.4772 38.3765 49.3945 39.5808 49.678C39.6561 49.6951 39.7605 49.7 39.8188 49.6609C41.6035 48.4757 42.6524 49.876 43.8349 50.8095C43.9928 50.9366 44.221 51.0588 44.1579 51.2739ZM36.3878 47.4126C36.2421 48.1384 36.4971 48.9913 35.5234 49.6072C35.6399 48.9302 35.7711 48.4586 35.7929 47.9844C35.8099 47.569 36.0139 46.9849 35.4505 46.8163C34.9965 46.6819 34.7707 47.1706 34.5594 47.503C34.217 48.0455 33.9062 48.6101 33.5687 49.1917C33.0904 47.7841 33.1438 47.635 35.0402 45.0619C33.9937 45.2547 33.1899 45.6995 32.4469 46.3006C32.039 46.6281 31.6068 46.9287 31.1651 47.2122C30.8009 47.4446 30.4097 47.4688 30.0212 47.2244C29.5817 46.9483 29.6885 46.523 29.7347 46.1296C30.0843 43.0919 30.1718 43.0601 33.1608 43.6686C34.7585 43.9912 36.3902 43.9594 37.9831 43.6344C38.7698 43.4734 39.0272 43.6515 38.9981 44.4311C38.9762 44.9736 39.2603 45.4453 39.4618 45.9316C39.5565 46.1638 39.6609 46.4155 39.4208 46.5963C39.1826 46.7772 38.9422 46.6159 38.765 46.4595C38.1676 45.9316 37.5849 45.3842 36.8953 44.9028C37.6723 46.0954 38.6605 47.1951 38.2866 48.9156C37.6941 48.4292 37.648 47.7987 37.4101 47.2782C37.2741 46.9849 37.1284 46.6086 36.7617 46.6379C36.3222 46.6721 36.4436 47.1315 36.3878 47.4126ZM31.2426 48.0138C31.5922 48.0602 31.7355 48.285 31.7258 48.5954C31.7161 48.9009 31.784 49.3334 31.3421 49.3408C31.0216 49.3457 30.939 48.9913 30.9415 48.6956C30.9415 48.4292 30.8735 48.114 31.2426 48.0138ZM26.9836 51.4914C27.8264 50.4698 28.4696 49.8735 29.9289 49.7513C32.0026 49.5754 33.5129 50.3843 35.1252 51.2861C35.1519 51.3007 35.1567 51.3521 35.2199 51.4914H26.9836ZM26.5028 44.0843C26.3766 43.8788 26.2576 43.6417 26.4737 43.4242C26.6437 43.2556 26.8476 43.3558 27.0373 43.4145C27.3454 43.5073 27.6489 43.6466 27.9646 43.6808C29.1325 43.8104 29.6448 44.2894 29.0864 45.5113C28.9674 45.7752 29.0062 46.1662 29.0912 46.4644C29.2782 47.1291 29.0281 47.2855 28.2754 47.1193C27.5154 47.09 26.8913 46.765 27.0249 45.6677C27.098 45.0738 26.8015 44.5731 26.5028 44.0843ZM42.7738 46.7063C42.8977 47.0729 42.8345 47.4346 42.4436 47.6374C42.1061 47.8158 41.7759 47.8916 41.4456 47.591C40.4428 46.6819 39.8698 45.4673 39.7678 44.2038C39.6877 43.197 40.8532 43.5489 41.4675 43.3851C41.9385 43.258 42.565 43.2923 42.616 44.0645C42.6381 44.4262 42.6184 44.7903 42.6184 44.8294C42.5796 45.6799 42.6039 46.1956 42.7738 46.7063ZM20.4082 41.9164C19.6166 41.9237 19.3665 41.7526 19.3641 40.9315C19.3544 38.1944 19.3228 38.1944 21.9889 38.1944C31.2377 38.1944 40.4865 38.2115 49.7353 38.1724C50.811 38.1675 51.1995 38.3997 51.1558 39.5581C51.0635 41.8919 51.1315 41.8944 48.7592 41.8944H35.1907C30.264 41.8944 25.3349 41.8748 20.4082 41.9164ZM25.3907 47.0289C22.9723 46.4204 20.4422 46.2738 18.1233 45.2596C17.2904 44.8954 16.5839 44.3016 16.2488 43.434C15.9501 42.6593 16.0035 41.7869 16.8801 41.4643C17.5842 41.2077 18.5409 40.9633 18.8008 42.1754C18.9246 42.7448 19.3471 42.5469 19.6652 42.5664C21.0759 42.652 22.477 42.7717 23.8367 43.2165C25.2426 43.6735 25.8839 44.7048 26.124 46.0807C26.226 46.6574 26.1046 47.0631 25.3907 47.0289ZM26.6679 29.3941C26.7893 29.1962 26.8622 28.8858 27.1706 28.9835C27.4037 29.0593 27.5299 29.3037 27.5372 29.5627C27.5445 29.8438 27.5761 30.1419 27.4984 30.4034C27.1924 31.4592 27.2118 32.4734 27.712 33.4704C27.8189 33.6831 27.8553 33.9348 27.9063 34.1718C28.0496 34.8463 27.7266 35.1347 27.0904 35.2276C26.1143 35.3669 26.6267 34.6755 26.549 34.2891C26.6267 33.6855 26.549 33.0183 26.2552 32.5296C25.5243 31.3199 26.0755 30.3741 26.6679 29.3941ZM29.7298 35.6308C29.5671 36.1074 29.5574 36.8698 28.9892 36.9065C28.0714 36.9651 27.2628 37.2291 26.4567 37.6054C26.3401 37.6592 26.1167 37.6201 26.0148 37.5346C25.8132 37.3684 25.9735 37.1655 26.0585 36.9945C26.3838 36.3517 26.8258 35.8679 27.5858 35.7457C28.1807 35.6504 28.7634 35.5013 29.3535 35.3742C29.5963 35.274 29.7978 35.4304 29.7298 35.6308ZM26.7723 25.9849C27.4134 25.6599 28.0301 25.374 28.5595 26.1976C28.7513 26.4957 29.0475 26.7401 29.334 26.96C29.7978 27.3144 29.8925 27.6932 29.6133 28.2211C28.6274 30.1004 28.4259 31.9992 29.5793 33.8932C29.7517 34.1718 29.8148 34.4311 29.504 34.6239C29.1884 34.817 28.9798 34.6019 28.7901 34.37C28.3871 33.8737 28.2171 33.292 28.2513 32.6664C28.3385 31.0461 28.1127 29.4405 28.018 27.615C27.1803 28.1111 26.6801 27.8276 26.3426 27.0578C26.1022 26.5177 26.3231 26.2147 26.7723 25.9849ZM31.5121 25.5915C32.7189 26.8647 34.2462 26.4664 35.7055 25.9776C36.1887 25.8166 36.6185 25.4693 37.2838 25.5328C36.6209 27.0358 35.317 27.4146 33.9839 27.6321C31.6893 28.006 29.9047 27.1018 28.4915 25.1491C29.6934 24.5919 30.587 24.6139 31.5121 25.5915ZM32.9058 24.9316C34.659 24.9243 36.2567 24.5015 37.5679 23.2649C37.9491 22.9057 38.4396 22.8228 38.7674 23.1476C39.1267 23.502 38.6508 23.8832 38.4153 24.0225C36.5456 25.1198 34.5788 25.9214 32.3449 25.677C32.1313 25.655 31.937 25.4546 31.6553 25.2884C32.0997 24.8217 32.5246 24.9316 32.9058 24.9316ZM29.9047 18.1842C29.8634 18.1011 29.8755 17.9398 29.9314 17.8665C30.0552 17.7027 30.2276 17.7565 30.3442 17.886C31.1479 18.7707 31.6651 19.9046 32.6655 20.6234C32.6873 20.6402 32.6776 20.6989 32.6873 20.7527C32.6363 21.0215 32.4445 21.0655 32.2672 20.9091C31.3591 20.1075 30.468 19.2864 29.9047 18.1842ZM29.3292 17.6441C29.2151 17.0285 29.6424 16.7887 29.7808 16.4175C29.9289 16.0165 30.2737 16.0703 30.5457 16.3708C31.5048 17.4339 32.4615 18.4994 33.4158 19.5674C33.5809 19.7507 33.7557 19.9829 33.5226 20.1979C33.2846 20.4179 33.0612 20.1881 32.9058 20.0293C32.4566 19.565 31.8569 19.1471 31.6359 18.585C31.1819 17.4241 30.4874 17.1507 29.3292 17.6441ZM31.0337 15.8919C31.2207 14.45 33.0734 12.7222 34.7002 12.5609C34.6128 13.0497 34.2535 13.1183 33.9864 13.2623C32.8427 13.8757 32.1094 14.7679 31.9492 16.1023C31.9176 16.366 32.0438 16.8718 31.5169 16.757C31.1357 16.6714 30.9755 16.322 31.0337 15.8919ZM36.735 14.7041C35.7759 14.7068 35.0839 14.9607 35.2636 16.0971C35.3146 16.4099 35.4481 16.9867 34.9358 16.9549C34.4477 16.928 34.6031 16.3953 34.6859 16.0556C34.7949 15.6084 34.9528 15.1367 34.4647 14.8532C33.9912 14.5771 33.5663 14.7628 33.2021 15.1269C33.491 15.5622 34.0835 14.8803 34.2195 15.5131C34.2413 15.6059 34.0762 15.8066 33.9548 15.8527C33.542 16.0214 33.1511 15.9065 32.833 15.6108C32.5465 15.342 32.6242 15.039 32.8087 14.7286C33.7266 13.167 35.4651 13.1086 36.735 14.7041ZM35.9 15.452C35.9459 15.0829 36.2858 15.1367 36.5529 15.1563C36.7447 15.1709 36.9948 15.2051 36.9803 15.452C36.9584 15.8014 36.6549 15.8381 36.3781 15.865C36.1353 15.8185 35.8633 15.7281 35.9 15.452ZM37.8787 16.2315C37.7573 16.5786 38.5197 16.8841 38.221 17.4119C38.8038 17.0844 39.0709 16.322 40.1344 16.1411C38.0268 18.7243 36.0794 21.041 32.8888 21.8206C32.8961 21.1168 33.525 20.716 34.1396 20.5889C35.9483 20.215 37.0555 18.9906 38.0632 17.6001C37.8156 17.6172 37.6747 16.8205 37.3154 17.5414C37.0483 18.0767 36.5335 18.4432 36.2081 18.9711C35.5671 20.0097 33.9937 19.8851 33.4546 18.7951C33.2604 18.4017 33.1996 17.9227 32.8233 17.6416C32.3012 17.2531 31.9589 16.6226 32.4445 16.2291C32.8913 15.8677 33.6731 16.2535 34.0592 16.6739C34.4137 17.0576 35.1834 17.6172 34.2195 18.2648C34.0568 18.3726 33.644 18.8098 34.3506 18.8562C34.7466 17.8176 35.1543 17.8714 35.5744 18.8391C36.1401 18.8758 35.9192 18.5947 35.7786 18.3406C35.2271 17.3459 35.5161 16.6055 36.5796 16.2731C37.6237 15.9481 37.8107 15.32 37.1988 14.3791C36.6816 13.58 35.6764 13.3771 35.0572 12.6049C37.1721 12.6415 38.5003 14.4475 37.8787 16.2315ZM38.5926 14.6064C39.0636 15.0267 39.2579 15.3347 39.0566 15.7623C39.0248 15.8308 38.8159 15.8992 38.7747 15.865C38.4177 15.5668 38.4396 15.1905 38.5926 14.6064ZM35.6691 23.9126C34.5448 24.5602 33.3259 24.5626 32.0876 24.3524C32.935 23.9174 33.8431 23.7097 34.5473 23.0499C34.7318 22.8788 35.0693 22.7982 35.3316 22.8055C35.7786 22.8177 36.4558 22.5367 36.5991 23.1283C36.7229 23.634 36.0284 23.7024 35.6691 23.9126ZM39.44 18.7218C38.5102 19.6823 37.6844 20.7062 36.9803 21.8622C36.6573 22.39 35.7759 22.1188 35.2126 22.2532C34.8945 22.1872 34.5181 22.4218 34.3992 22.0821C34.2583 21.674 34.6735 21.4467 34.9406 21.4247C36.6452 21.2805 37.5217 20.0879 38.3813 18.8318C38.5367 18.6045 38.7844 18.431 39.0175 18.277C39.1316 18.1988 39.3501 18.1451 39.4497 18.2037C39.6925 18.3455 39.5638 18.5947 39.44 18.7218ZM39.559 24.0103C39.785 23.9883 40.1004 24.1301 39.996 24.4233C39.7896 25.0074 39.2482 25.2102 38.7698 25.3838C38.4784 25.3495 38.2818 25.2371 38.3449 25.005C38.5124 24.4013 38.9495 24.0665 39.559 24.0103ZM41.6909 24.8559C40.909 25.9458 39.5565 25.9361 38.5586 26.8623C40.4234 27.2264 41.4286 25.919 42.7738 25.1711C42.7714 25.9092 42.446 26.2709 42.0648 26.5421C40.6541 27.5441 39.0199 27.7885 37.3518 27.8472C37.1017 27.8569 36.7229 27.7152 36.616 27.5246C36.4582 27.2411 36.837 27.0578 37.0094 26.8476C37.3979 26.3686 37.8253 26.0045 38.4833 25.875C39.1049 25.7555 39.7192 25.5111 40.1806 24.9976C40.5933 24.5406 41.0814 24.6408 41.6909 24.8559ZM35.6545 36.9236C35.8148 36.9089 35.9944 36.8698 36.1328 36.9236C37.2474 37.3586 37.9758 37.2755 37.9467 35.7897C37.937 35.3498 37.6869 34.5922 38.4736 34.5164C39.2336 34.4455 39.9064 34.8439 40.3117 35.4817C40.994 36.5595 40.5812 37.3268 39.3064 37.471C38.5901 37.5517 37.8714 37.6176 37.1527 37.6885C37.1527 37.6739 37.1502 37.6568 37.1502 37.6421C36.6284 37.6421 36.1061 37.6519 35.5865 37.6372C35.3753 37.6299 35.1567 37.5126 35.147 37.2999C35.13 36.9822 35.4117 36.9456 35.6545 36.9236ZM35.8536 35.8703C36.2008 35.929 36.5238 35.9461 36.82 36.0463C37.1187 36.1465 37.4902 36.3395 37.3979 36.6963C37.2741 37.1804 36.9099 36.8576 36.6306 36.8014C36.3611 36.7476 36.0843 36.7183 35.8099 36.6917C35.4554 36.6548 34.9212 36.6694 34.9309 36.2735C34.9431 35.6772 35.5452 36.0023 35.8536 35.8703ZM29.8342 36.5155C30.0455 35.7774 30.3344 35.0516 31.2571 34.9685C31.4587 34.9514 31.6529 35.0541 31.5412 35.4157C30.9026 35.7897 31.432 37.0189 30.4024 37.1998C29.9678 37.2755 29.7104 36.9431 29.8342 36.5155ZM37.4732 35.3986C37.4343 35.7432 37.1454 35.7579 36.9438 35.6284C36.3927 35.2691 35.6982 35.6235 34.9309 35.1885C35.7662 34.8048 36.3975 34.9636 37.0167 34.981C37.2644 34.9881 37.5096 35.0858 37.4732 35.3986ZM37.7306 31.2734C37.6262 31.3052 37.5315 31.3028 37.495 31.3492C37.1575 31.7573 37.3906 32.7544 36.6767 32.6273C36.094 32.5222 36.3999 31.6278 36.2445 31.0999C36.1377 30.5623 36.2154 29.9489 35.5525 29.4308C35.6739 30.3377 35.7686 31.073 35.8657 31.8086C35.164 32.9377 35.164 32.9377 34.2316 31.2245C33.7654 31.4298 33.865 31.9113 33.7314 32.273C33.2822 33.4704 32.3595 33.8859 31.228 33.38C29.4239 32.5735 28.8897 29.4503 30.3153 28.0793C30.5821 27.8252 30.8225 27.9449 31.0872 28.0598C32.3644 28.6194 33.6756 28.5779 34.9868 28.2235C35.6326 28.0475 36.2664 28.1086 36.9026 28.2259C37.7451 28.3826 38.612 28.4997 39.4108 28.1868C40.3578 27.8129 40.688 28.2895 40.9964 29.0446C41.4675 30.2104 41.4481 31.3467 40.8872 32.4538C40.5181 33.1796 39.9693 33.749 39.0612 33.5242C38.1822 33.3067 37.6699 32.7446 37.7791 31.7573C37.7961 31.6033 37.75 31.442 37.7306 31.2734ZM34.3603 36.276C34.7027 37.5541 34.1151 37.6714 33.3016 37.6396C32.5173 37.6396 31.7743 37.6763 31.4975 36.9725C31.2231 36.2784 31.7913 35.7752 32.226 35.296C32.9326 34.5189 33.8844 34.3502 34.8532 34.2647C35.3728 34.2183 35.9 34.2451 36.4218 34.2256C36.7666 34.2134 37.3008 33.7197 37.3809 34.3771C37.4295 34.773 36.8127 34.6508 36.4776 34.6924C36.2397 34.7192 35.9944 34.6997 35.7541 34.7021C34.489 34.7046 34.0398 35.0809 34.3603 36.276ZM41.5403 37.3464C40.817 37.1729 41.0814 36.4446 40.8896 36.0145C40.9309 35.709 40.7997 35.2373 41.1761 35.3204C41.8608 35.4698 41.9337 36.1733 42.0672 36.7428C42.1595 37.1313 41.8827 37.427 41.5403 37.3464ZM43.8859 25.9801C44.1142 26.0925 44.2696 26.2709 44.3108 26.5324C44.2696 26.8892 43.9636 26.9527 43.7135 27.0676C43.2764 27.268 42.8202 27.4341 42.3853 27.6468C42.0311 27.8227 41.856 28.0475 42.0381 28.5192C42.8127 30.5427 42.463 32.4929 41.5403 34.3796C41.4043 34.6606 41.2805 35.0712 40.8677 34.9148C40.4719 34.7657 40.5496 34.3747 40.7123 34.0863C41.8001 32.1532 42.2761 30.1884 41.0935 28.1135C41.0741 28.0771 41.0401 28.0427 41.0353 28.006C41.0037 27.6052 43.5314 25.8065 43.8859 25.9801ZM44.306 34.2574C44.2987 34.7437 44.0343 35.1225 43.6261 35.1032C43.0773 35.0736 43.4391 34.5262 43.3007 34.1816C43.7184 32.2607 43.6868 30.291 43.4076 28.3164C43.3711 28.0622 43.376 27.7885 43.665 27.7274C44.017 27.6541 43.9806 27.9718 44.0316 28.1993C44.493 30.2006 44.3351 32.2317 44.306 34.2574ZM45.1583 36.9383C45.1218 37.383 44.5609 37.0996 44.3448 37.146C43.6577 37.19 43.1016 37.1607 42.718 36.623C42.4849 36.2955 42.1158 35.907 42.3198 35.5477C42.5941 35.0663 42.9147 35.665 43.2352 35.687C43.597 35.7114 43.9709 35.6723 44.3157 35.7603C44.8936 35.907 45.1995 36.4473 45.1583 36.9383ZM56.4491 40.8166C55.609 39.7976 54.4362 39.734 53.2246 40.0175C53.0279 40.0639 52.8288 40.0982 52.6297 40.1299C52.0809 40.2179 51.8527 40.0395 51.8162 39.4261C51.6997 37.3953 51.6705 37.3977 49.6455 37.3977C49.3638 37.4001 49.0797 37.4148 48.7981 37.3977C47.6398 37.3293 46.5132 37.7914 45.7556 36.0634C45.2044 34.8146 44.828 33.666 44.9762 32.4149C45.1 31.3565 45.3452 30.4205 44.7188 29.3965C44.357 28.8076 44.442 27.9645 44.76 27.2728C45.0662 26.6108 44.8936 26.2269 44.3424 25.7259C42.8394 24.3524 40.7123 24.1349 39.219 22.676C38.3959 21.8744 38.289 21.4394 38.9422 20.6109C39.5711 19.8167 40.1466 18.976 40.705 18.1304C41.3874 17.0991 41.1105 16.036 40.3675 15.2736C39.0685 13.9368 37.5557 12.8273 35.9022 11.9426C35.1689 11.5516 34.4671 11.5956 33.7266 12.0257C32.0536 12.9961 30.7327 14.3742 29.4239 15.7526C28.4502 16.779 28.5255 17.7005 29.4676 18.7634C30.1378 19.521 30.9682 20.1346 31.4878 21.0264C32.1628 22.1823 32.0706 22.6931 30.8322 23.2087C29.2588 23.8637 27.9136 24.9268 26.3499 25.5939C25.7792 25.8359 25.4442 26.2538 25.7258 26.9527C26.1022 27.8838 25.9492 28.8222 25.517 29.6678C25.0362 30.6087 25.0265 31.5203 25.3057 32.4978C25.4636 33.0428 25.5146 33.6146 25.6457 34.1669C25.9274 35.3669 25.1042 36.2735 24.7084 37.2415C24.519 37.7007 23.4336 37.3586 22.7562 37.3928C22.1516 37.4221 21.5421 37.3977 20.9351 37.3977C18.9319 37.3977 18.9124 37.3977 18.8347 39.3552C18.8056 40.0835 18.6672 40.3548 17.8319 40.1446C16.9796 39.932 16.0885 40.0004 15.2702 40.5332C14.0343 41.335 13.7866 42.5176 13.9323 43.8324C14.1074 45.4086 14.7822 46.7259 16.2876 47.415C17.7275 48.0749 19.1941 48.6956 20.1872 50.0031C20.9764 51.0417 22.0423 51.5476 23.2443 51.8262C23.9096 51.9801 24.5943 52.0901 25.2742 52.1365C26.0512 52.1903 26.4033 52.4616 26.3474 53.3243C26.2673 54.5388 26.3207 55.7632 26.3304 56.9851C26.3353 57.3273 26.2309 57.7867 26.8233 57.7452C27.2847 57.711 27.2555 57.3422 27.2555 57.0193C27.2628 55.9196 27.3211 54.8174 27.241 53.725C27.1633 52.6644 27.4231 52.2319 28.6007 52.2832C30.983 52.3858 33.372 52.3149 35.7565 52.3149C38.3449 52.3149 40.9333 52.3345 43.5217 52.3003C44.2404 52.2905 44.5367 52.4811 44.5002 53.2509C44.4444 54.4289 44.4687 55.6117 44.4978 56.7923C44.5051 57.1391 44.2696 57.7378 44.9227 57.7134C45.4642 57.6938 45.2627 57.1562 45.2675 56.8361C45.2918 55.5359 45.3404 54.2285 45.2554 52.9308C45.1898 51.9533 45.5346 51.77 46.4258 51.8897C48.548 52.1781 50.3156 51.6722 51.4447 49.5998C52.1537 48.3021 53.2246 47.3099 54.5649 46.6159C55.5313 46.1149 56.2039 45.284 56.6167 44.282C57.095 43.1163 57.3306 41.8849 56.4491 40.8166Z"
              fill="var(--fill-0, white)"/>
    </g>
</svg>
