<svg preserveAspectRatio="none" width="90.707" height="44.6863" overflow="visible" style="display: block;" viewBox="0 0 90.707 44.6863" fill="none" xmlns="http://www.w3.org/2000/svg">
<g id="Szt logo">
<path id="Fill 1" fill-rule="evenodd" clip-rule="evenodd" d="M45.948 7.75172H12.432V17.4272H44.352C49.336 17.4272 52.752 18.1769 54.474 19.6481C56.196 21.1192 57.106 23.8917 57.106 27.9656V34.133C57.106 38.1928 56.238 41.0219 54.432 42.4364C52.626 43.851 49.294 44.6855 44.31 44.6855H12.768C7.7742 44.7138 4.396 43.9641 2.632 42.4364C0.882 40.9228 0 38.1928 0 34.0906V32.8599L10.5 30.9361V36.2407H46.62V26.056H14.756C9.7902 26.056 6.4358 25.302 4.69 23.7927C2.954 22.2933 2.072 19.549 2.072 15.4469V10.5525C2.072 6.49277 2.954 3.70611 4.69 2.20669C6.426 0.707274 9.786 0 14.756 0H43.764C48.5716 0 51.884 0.717175 53.7054 2.15011C55.524 3.58305 56.4564 6.13913 56.5054 9.81696V10.7506L46.018 12.9007L45.948 7.75172Z" fill="var(--fill-0, white)"/>
<path id="Fill 4" fill-rule="evenodd" clip-rule="evenodd" d="M63.7987 21.02V18.7426L80.4713 3.86157H65.4633V0.113024H89.4327V2.19241L72.4773 17.0734H89.4327V21.02H63.7987Z" fill="var(--fill-0, white)"/>
<path id="Fill 6" fill-rule="evenodd" clip-rule="evenodd" d="M79.7156 27.4428V44.6012H74.1156V27.4428H63.2096V23.6942H90.707V27.4428H79.7156Z" fill="var(--fill-0, white)"/>
</g>
</svg>
