<svg preserveAspectRatio="none" width="130.709" height="14.7843" overflow="visible" style="display: block;" viewBox="0 0 130.709 14.7843" fill="none" xmlns="http://www.w3.org/2000/svg">
<g id="Travelsoft logo">
<path id="Fill 1" fill-rule="evenodd" clip-rule="evenodd" d="M0.833597 9.11479C0.833597 8.80194 0.773846 8.54827 0.65143 8.35879C0.529013 8.1693 0.314785 8.0712 0 8.0712V6.71079C0.136795 6.71526 0.272765 6.6882 0.397367 6.63154C0.500109 6.58412 0.587938 6.50949 0.65143 6.41582C0.718273 6.31568 0.765442 6.20374 0.790362 6.08592C0.820384 5.94823 0.834908 5.80757 0.833597 5.66662C0.833597 5.43273 0.819169 5.19907 0.790362 4.96698C0.760244 4.7309 0.727697 4.4952 0.693207 4.2581C0.658716 4.021 0.622769 3.78487 0.596051 3.54437C0.567438 3.30479 0.553011 3.06371 0.552816 2.82238C0.547813 2.42771 0.610576 2.03514 0.738384 1.66165C0.853854 1.32296 1.04933 1.01711 1.3082 0.770095C1.59073 0.509576 1.92757 0.31489 2.29433 0.200227C2.69122 0.0670518 3.16874 2.7303e-06 3.72301 2.7303e-06H4.13058V1.05287C4.13378 1.12691 4.11557 1.20028 4.07811 1.26422C4.04304 1.32072 3.99772 1.37014 3.94453 1.40998C3.89337 1.44515 3.83722 1.47236 3.7779 1.49063C3.73001 1.50778 3.67963 1.5173 3.62877 1.51881C3.29795 1.51881 3.05604 1.62035 2.9001 1.82442C2.74417 2.02848 2.66693 2.31028 2.66693 2.67371C2.66693 2.96231 2.68101 3.23391 2.70385 3.49141C2.72668 3.74892 2.75242 3.99525 2.77866 4.23478C2.80489 4.47431 2.82966 4.70704 2.85395 4.93739C2.87824 5.16764 2.89038 5.40183 2.89038 5.63795C2.89106 5.83167 2.86372 6.02446 2.80926 6.2103C2.75869 6.39138 2.67805 6.5627 2.57074 6.71706C2.46202 6.87418 2.32829 7.01241 2.17483 7.12615C2.01137 7.24805 1.82745 7.33969 1.63173 7.39678C1.82624 7.45537 2.00972 7.54565 2.17483 7.66405C2.32819 7.77624 2.46193 7.91301 2.57074 8.06877C2.67839 8.22435 2.75903 8.39697 2.80926 8.57937C2.86308 8.76458 2.89038 8.95645 2.89038 9.14928C2.89038 9.38541 2.87533 9.61911 2.85395 9.8499C2.83258 10.0807 2.80537 10.3163 2.77866 10.552C2.75194 10.7877 2.72619 11.0378 2.70385 11.2953C2.6815 11.5529 2.66693 11.8254 2.66693 12.1121C2.66693 12.4731 2.74757 12.7568 2.9001 12.9609C3.05264 13.1649 3.29698 13.2675 3.62877 13.2675C3.67963 13.2688 3.72996 13.2781 3.7779 13.2952C3.83702 13.3146 3.89308 13.3422 3.94453 13.3773C3.99806 13.4156 4.04348 13.4641 4.07811 13.5201C4.11571 13.5838 4.13393 13.6571 4.13058 13.731V14.7843H3.72155C3.16874 14.7843 2.68976 14.7173 2.29288 14.5851C1.92582 14.4684 1.58908 14.272 1.30675 14.0099C1.04797 13.7622 0.851959 13.4564 0.734984 13.1179C0.606835 12.7465 0.544024 12.3557 0.549416 11.9629C0.549999 11.7219 0.564912 11.4811 0.594108 11.2419C0.622283 10.9993 0.654684 10.7604 0.691263 10.5252C0.72624 10.2901 0.758787 10.0535 0.788419 9.81686C0.818003 9.58399 0.833111 9.34951 0.833597 9.11479Z" fill="var(--fill-0, white)"/>
<path id="Fill 4" fill-rule="evenodd" clip-rule="evenodd" d="M16.892 1.62884V3.73408H13.6722V13.0767H11.0145V3.73408H7.79576V1.62884H16.892Z" fill="var(--fill-0, white)"/>
<path id="Fill 6" fill-rule="evenodd" clip-rule="evenodd" d="M22.2195 7.01123H23.2882C23.6511 7.01123 23.9567 6.96653 24.2112 6.87324C24.445 6.79443 24.6581 6.66427 24.835 6.49232C24.9954 6.33291 25.1162 6.13803 25.1876 5.92338C25.2635 5.69585 25.3011 5.45729 25.2989 5.21742C25.2989 4.71504 25.1366 4.32197 24.8087 4.03872C24.4808 3.75546 23.9751 3.61407 23.2887 3.61407H22.22L22.2195 7.01123ZM22.2195 8.84147V13.0767H19.5647V1.62884H23.2887C24.1145 1.62884 24.8238 1.71192 25.4072 1.88392C25.9906 2.05591 26.4677 2.2901 26.8373 2.59425C27.1915 2.88057 27.4682 3.25104 27.6423 3.67189C27.8107 4.10212 27.8954 4.56058 27.892 5.02259C27.8935 5.37946 27.8429 5.73467 27.7419 6.07691C27.6431 6.40346 27.4933 6.71223 27.2979 6.99179C27.0975 7.27777 26.8545 7.53139 26.5774 7.74391C26.2767 7.97192 25.9441 8.15461 25.5903 8.28613C25.7684 8.37587 25.9353 8.48606 26.0878 8.61457C26.2478 8.7511 26.3842 8.91314 26.4915 9.09412L28.9301 13.0782H26.525C26.081 13.0782 25.7617 12.9114 25.567 12.5778L23.6671 9.25008C23.5974 9.12147 23.4955 9.01313 23.3713 8.93573C23.2581 8.87305 23.0988 8.83856 22.8952 8.83856L22.2195 8.84147Z" fill="var(--fill-0, white)"/>
<path id="Fill 8" fill-rule="evenodd" clip-rule="evenodd" d="M34.8872 8.70004H38.0137L36.961 5.56477C36.8915 5.36557 36.8129 5.13138 36.7215 4.86173C36.6302 4.59207 36.5394 4.30056 36.4466 3.98717C36.3664 4.30687 36.277 4.60276 36.1896 4.87339C36.1022 5.14406 36.0181 5.38257 35.9375 5.58275L34.8872 8.70004ZM42.24 13.0767H40.1793C39.9524 13.0767 39.761 13.0248 39.6095 12.9159C39.4651 12.8158 39.3569 12.6718 39.301 12.5053L38.6258 10.5094H34.2722L33.5984 12.5053C33.4565 12.8573 33.1117 13.085 32.7323 13.0772H30.6541L35.0883 1.62928H37.8063L42.24 13.0767Z" fill="var(--fill-0, white)"/>
<path id="Fill 10" fill-rule="evenodd" clip-rule="evenodd" d="M42.2258 1.62884H44.3608C44.593 1.62884 44.7801 1.68082 44.9273 1.7848C45.0735 1.88766 45.1838 2.0338 45.2425 2.20264L47.4572 8.33175C47.5544 8.6 47.6583 8.89049 47.7589 9.20631C47.8594 9.52212 47.9576 9.85109 48.045 10.1961C48.1193 9.85109 48.2058 9.51876 48.302 9.20631C48.3982 8.89394 48.4963 8.60194 48.5891 8.33175L50.7892 2.20507C50.9278 1.85097 51.2733 1.62165 51.6534 1.63127H53.8054L49.2162 13.0791H46.814L42.2258 1.62884Z" fill="var(--fill-0, white)"/>
<path id="Fill 12" fill-rule="evenodd" clip-rule="evenodd" d="M63.6904 1.62884V3.67189H58.9905V6.34414H62.5916V8.30799H58.9905V11.0371H63.6904V13.0777H56.3211V1.62884H63.6904Z" fill="var(--fill-0, white)"/>
<path id="Fill 14" fill-rule="evenodd" clip-rule="evenodd" d="M69.4266 10.9569H73.6699V13.0767H66.7718V1.62884H69.4276L69.4266 10.9569Z" fill="var(--fill-0, white)"/>
<path id="Fill 16" fill-rule="evenodd" clip-rule="evenodd" d="M83.0463 3.10135C83.0063 3.17219 82.953 3.23467 82.8895 3.28549C82.8278 3.32936 82.7533 3.35142 82.6776 3.34817C82.5805 3.34817 82.4731 3.29958 82.3507 3.20678C82.1996 3.09513 82.0425 2.99198 81.88 2.89777C81.6621 2.77325 81.4329 2.66961 81.1955 2.58828C80.8817 2.48775 80.5534 2.44014 80.2239 2.44738C79.9023 2.44242 79.5821 2.49169 79.2767 2.59314C79.023 2.6767 78.7882 2.80964 78.5859 2.98426C78.4052 3.14493 78.263 3.34418 78.1696 3.56729C78.0743 3.79613 78.0261 4.04183 78.0277 4.28977C78.0277 4.61884 78.1087 4.89253 78.2706 5.11088C78.444 5.33875 78.6622 5.52862 78.9119 5.66865C79.201 5.83107 79.5054 5.96449 79.8208 6.06706C80.1608 6.18026 80.5067 6.29784 80.8633 6.41833C81.2198 6.53883 81.5628 6.67633 81.9004 6.82743C82.2297 6.9727 82.5358 7.16574 82.8088 7.40026C83.0796 7.63586 83.2985 7.92504 83.452 8.24955C83.6138 8.58966 83.6949 8.99967 83.6949 9.48802C83.6985 9.98612 83.6087 10.4806 83.4301 10.9456C83.2598 11.3907 82.997 11.7946 82.6592 12.1306C82.304 12.4762 81.8815 12.7451 81.418 12.9206C80.9249 13.115 80.3658 13.2122 79.7372 13.2122C78.9729 13.2122 78.2766 13.073 77.6484 12.7948C77.0398 12.5326 76.4909 12.1492 76.0351 11.668L76.4971 10.9086C76.5419 10.8489 76.5962 10.7969 76.6578 10.7547C76.721 10.7149 76.7941 10.6938 76.8687 10.6939C76.9853 10.6939 77.115 10.7547 77.2661 10.88C77.4432 11.0256 77.628 11.1616 77.8198 11.2871C78.0748 11.4521 78.3466 11.5894 78.6306 11.6967C78.9468 11.8216 79.3321 11.8823 79.7883 11.8823C80.1334 11.8881 80.4772 11.8355 80.8049 11.7268C81.084 11.6324 81.3406 11.4815 81.5589 11.2838C81.7653 11.0947 81.9275 10.8624 82.034 10.6036C82.1475 10.3233 82.2036 10.0231 82.1992 9.7207C82.1992 9.36315 82.1195 9.07017 81.9563 8.8423C81.7861 8.60768 81.568 8.41193 81.3165 8.26801C81.0302 8.10447 80.7267 7.97314 80.4115 7.87636L79.3729 7.54597C79.0194 7.43427 78.6722 7.30358 78.3329 7.15442C78.003 7.01133 77.6979 6.81665 77.4293 6.5777C77.1564 6.32976 76.9387 6.02712 76.7905 5.68954C76.6249 5.33486 76.5476 4.8971 76.5476 4.37237C76.55 3.52512 76.8917 2.71421 77.4963 2.12088C77.8251 1.80463 78.2135 1.55689 78.6389 1.39208C79.0926 1.21134 79.6105 1.11854 80.2021 1.11854C80.8189 1.11111 81.4317 1.2178 82.0097 1.43338C82.5423 1.6354 83.028 1.94427 83.4369 2.34097L83.0463 3.10135Z" fill="var(--fill-0, white)"/>
<path id="Fill 18" fill-rule="evenodd" clip-rule="evenodd" d="M96.7303 7.16942C96.7303 6.44063 96.6297 5.79103 96.4335 5.21285C96.2571 4.67165 95.9702 4.17301 95.5911 3.74846C95.2258 3.34607 94.775 3.0306 94.2718 2.82532C93.7559 2.61008 93.1773 2.50271 92.54 2.50271C91.9026 2.50271 91.3309 2.61008 90.8154 2.82532C90.3107 3.03074 89.8579 3.34612 89.4902 3.74846C89.1097 4.17272 88.8214 4.67136 88.6435 5.21285C88.4448 5.79103 88.3476 6.44208 88.3476 7.16942C88.3476 7.89676 88.4448 8.54441 88.6435 9.12016C88.8219 9.66054 89.1102 10.1581 89.4902 10.5816C89.8583 10.9817 90.311 11.2947 90.8154 11.4975C91.3307 11.7093 91.9055 11.8151 92.54 11.8148C93.1773 11.8148 93.7544 11.7093 94.2718 11.4975C94.7745 11.2948 95.2254 10.9818 95.5911 10.5816C95.9698 10.1579 96.2566 9.66024 96.4335 9.12016C96.6278 8.54441 96.7284 7.89384 96.7284 7.16942H96.7303ZM98.3717 7.16942C98.3717 8.05369 98.2309 8.86994 97.953 9.60748C97.69 10.319 97.2845 10.9693 96.7614 11.5184C96.2429 12.0593 95.6144 12.4828 94.9183 12.7602C94.2018 13.0546 93.4066 13.2014 92.538 13.2014C91.6694 13.2014 90.8756 13.0556 90.1577 12.7602C89.464 12.4801 88.837 12.057 88.3176 11.5184C87.7971 10.9677 87.3929 10.3178 87.1294 9.60748C86.851 8.86795 86.7106 8.05272 86.7106 7.16942C86.7106 6.28612 86.851 5.4689 87.1294 4.73039C87.3938 4.01894 87.7977 3.36754 88.3176 2.81463C88.837 2.27401 89.4638 1.84815 90.1577 1.56451C90.8744 1.26779 91.6678 1.11878 92.538 1.11751C93.4047 1.11751 94.1999 1.26764 94.9183 1.56451C95.6146 1.84543 96.2429 2.27163 96.7614 2.81463C97.2834 3.36657 97.6881 4.0186 97.9511 4.73136C98.2289 5.47016 98.3691 6.28287 98.3717 7.16942Z" fill="var(--fill-0, white)"/>
<path id="Fill 20" fill-rule="evenodd" clip-rule="evenodd" d="M109.496 1.25163V2.55471H103.817V6.68989H108.67V7.99443H103.819V13.0766H102.207V1.25163H109.496Z" fill="var(--fill-0, white)"/>
<path id="Fill 22" fill-rule="evenodd" clip-rule="evenodd" d="M121.252 1.25163V2.59358H117.432V13.0766H115.834V2.59358H111.993V1.25163H121.252Z" fill="var(--fill-0, white)"/>
<path id="Fill 24" fill-rule="evenodd" clip-rule="evenodd" d="M129.876 9.1149C129.877 9.3488 129.892 9.5825 129.921 9.81454C129.949 10.0512 129.983 10.2878 130.018 10.5229C130.053 10.7581 130.086 10.9971 130.115 11.2396C130.145 11.4788 130.159 11.7196 130.158 11.9606C130.163 12.3534 130.1 12.7441 129.972 13.1155C129.856 13.454 129.66 13.7598 129.402 14.0075C129.119 14.2699 128.782 14.4663 128.414 14.5828C128.018 14.715 127.54 14.7821 126.987 14.7821H126.578V13.7287C126.574 13.6547 126.593 13.5812 126.631 13.5178C126.665 13.4608 126.712 13.4121 126.767 13.375C126.817 13.3394 126.871 13.3117 126.929 13.2928C126.977 13.2762 127.027 13.2669 127.078 13.2651C127.407 13.2651 127.65 13.163 127.807 12.9586C127.96 12.7545 128.037 12.4727 128.037 12.1098C128.037 11.8231 128.026 11.5496 128.001 11.293C127.977 11.0365 127.953 10.7892 127.928 10.5497C127.903 10.3102 127.876 10.0769 127.851 9.84758C127.826 9.61826 127.819 9.38315 127.819 9.14697C127.818 8.95437 127.844 8.7626 127.896 8.5771C127.948 8.39519 128.028 8.22276 128.135 8.06641C128.36 7.74219 128.689 7.50495 129.068 7.39446C128.873 7.3381 128.69 7.24637 128.528 7.12384C128.376 7.00893 128.244 6.87089 128.135 6.71474C128.029 6.55965 127.948 6.38858 127.896 6.20798C127.844 6.0217 127.818 5.82911 127.819 5.63564C127.819 5.39951 127.829 5.16532 127.851 4.93502C127.873 4.70472 127.9 4.47005 127.928 4.23247C127.956 3.99488 127.977 3.7466 128.001 3.4891C128.026 3.23159 128.037 2.95999 128.037 2.67139C128.037 2.30991 127.96 2.02859 127.806 1.8221C127.653 1.61561 127.406 1.51649 127.078 1.51649C127.027 1.5146 126.977 1.50508 126.929 1.48831C126.871 1.47058 126.816 1.44332 126.767 1.40766C126.712 1.36903 126.666 1.31938 126.631 1.2619C126.593 1.19825 126.574 1.12474 126.578 1.05055V0.000114998H126.987C127.539 0.000114998 128.018 0.0671641 128.414 0.200339C128.782 0.314808 129.119 0.509445 129.402 0.770208C129.661 1.01712 129.857 1.32302 129.972 1.66177C130.1 2.0353 130.162 2.42783 130.158 2.82249C130.159 3.06382 130.144 3.30495 130.115 3.54448C130.087 3.78742 130.055 4.02354 130.018 4.25822C129.982 4.49289 129.948 4.73101 129.921 4.96709C129.892 5.19919 129.877 5.43284 129.876 5.66673C129.875 5.80778 129.891 5.94839 129.921 6.08603C129.945 6.20376 129.991 6.3158 130.057 6.41593C130.122 6.50946 130.211 6.5839 130.314 6.63166C130.438 6.68811 130.573 6.71522 130.709 6.7109V8.07132C130.394 8.07132 130.174 8.16849 130.057 8.3589C129.939 8.54936 129.876 8.80205 129.876 9.1149Z" fill="var(--fill-0, white)"/>
</g>
</svg>
