<svg preserveAspectRatio="none" width="100%" height="100%" overflow="visible" style="display: block;" viewBox="0 0 128.728 13.7207" fill="none" xmlns="http://www.w3.org/2000/svg">
<g id="Typeqast logo">
<path id="Fill 1" fill-rule="evenodd" clip-rule="evenodd" d="M52.4093 8.72296C53.525 8.09804 54.1257 7.94288 56.3656 7.86573H58.1935V5.37118H56.3656C55.007 5.27602 53.6468 5.52462 52.4093 6.09125V2.99663H59.9185V0.467791H49.9635V13.3263H60.3304V10.7546H52.4093V8.72296Z" fill="var(--fill-0, white)"/>
<path id="Fill 3" fill-rule="evenodd" clip-rule="evenodd" d="M21.1803 5.52548L17.8247 0.467791H14.6752L19.9531 8.14862V13.3092H22.4418V8.14862L27.6767 0.467791H24.6302L21.1803 5.52548Z" fill="var(--fill-0, white)"/>
<path id="Fill 5" fill-rule="evenodd" clip-rule="evenodd" d="M3.9236e-06 3.04807H4.57414V13.3092H7.1058V3.04807H11.8344V0.467791H3.9236e-06V3.04807Z" fill="var(--fill-0, white)"/>
<path id="Fill 7" fill-rule="evenodd" clip-rule="evenodd" d="M40.0172 6.14326H38.9016C37.5405 6.04811 36.1777 6.29585 34.9367 6.86334V3.04864H40.0172C41.0299 3.04864 41.991 3.30581 41.991 4.54023C41.991 5.93752 41.2358 6.14326 40.0172 6.14326ZM40.4721 0.468364H32.448V13.3269H34.9367V9.43504C36.0009 8.86927 36.5587 8.71497 38.9016 8.71497H40.0172C42.8578 8.71497 44.5828 7.11194 44.5828 4.58309C44.7244 2.45201 43.1101 0.610665 40.9784 0.468364C40.8093 0.45722 40.6411 0.45722 40.4721 0.468364Z" fill="var(--fill-0, white)"/>
<path id="Fill 9" fill-rule="evenodd" clip-rule="evenodd" d="M107.273 5.14836C104.836 5.14836 104.536 4.62545 104.536 3.85394C104.536 3.08242 105.849 2.46521 107.11 2.46521C108.459 2.38121 109.792 2.78239 110.869 3.59677L112.586 1.6337C110.96 0.511576 109.016 -0.0593428 107.042 0.00494988C104.253 0.00494988 101.815 1.54797 101.815 3.87108C101.815 6.65709 103.995 7.68578 107.042 7.68578C109.685 7.68578 110.955 7.89151 110.955 9.08307C110.955 10.4204 109.333 11.1404 107.042 11.1404C104.75 11.1404 103.901 9.85458 103.137 9.03164L101.309 10.8833C102.739 12.5737 104.826 13.5698 107.042 13.6178C110.646 13.6178 113.444 12.1777 113.444 9.08307C113.444 7.01713 112.628 5.14836 107.273 5.14836Z" fill="var(--fill-0, white)"/>
<path id="Fill 11" fill-rule="evenodd" clip-rule="evenodd" d="M76.3185 9.43448C75.5993 8.71698 74.6828 8.23007 73.6847 8.03719L72.4137 10.2917C72.9621 10.3757 73.4822 10.5866 73.9336 10.9089H73.9842C73.4659 11.0975 72.9149 11.1858 72.3631 11.1661C69.9258 11.1661 67.4877 9.88024 67.4877 6.93993C67.4877 3.99961 69.8735 2.71376 72.3107 2.71376C74.748 2.71376 77.2882 3.94818 77.2882 6.83706C77.308 7.79459 76.9613 8.72383 76.3185 9.43448ZM72.3631 0.0563286C68.5519 0.0563286 64.896 2.5766 64.896 6.86278C64.896 11.149 68.5012 13.7207 72.3107 13.7207C73.7508 13.7104 75.1634 13.3392 76.4215 12.6405C77.0188 13.1223 77.7431 13.4189 78.5077 13.4978L79.8113 11.2947C79.3453 11.2604 78.893 11.1198 78.4897 10.8832C79.3719 9.69079 79.8362 8.24121 79.8113 6.75991C79.8113 2.328 76.1219 0.0563286 72.3631 0.0563286Z" fill="var(--fill-0, white)"/>
<path id="Fill 13" fill-rule="evenodd" clip-rule="evenodd" d="M116.894 0.468235V3.04851H121.468V13.3088H123.957V3.04851H128.728V0.468235H116.894Z" fill="var(--fill-0, white)"/>
<path id="Fill 15" fill-rule="evenodd" clip-rule="evenodd" d="M92.6842 9.03208C90.9223 8.9815 89.1768 9.37068 87.6037 10.1628L90.5902 4.29157L93.0274 9.04065L92.6842 9.03208ZM88.3932 0.211127L89.2514 1.81416L83.2441 13.3611H85.8187L85.8702 13.2068C86.2735 12.641 89.526 11.398 92.6241 11.398H94.1431L95.1643 13.3088H97.902L91.0965 0.211127H88.3932Z" fill="var(--fill-0, white)"/>
</g>
</svg>
